<svg xmlns="http://www.w3.org/2000/svg" width="1444.79" height="402.04" viewBox="0 0 1444.79 402.04"><circle fill="#E8F2FC" cx="725.2" cy="201.902" r="133.5"/><path fill="none" stroke="#555" stroke-width="3" stroke-miterlimit="10" d="M763.733 210.834c-5.055-41.816-27.18-73.664-58.386-73.664-31.205 0-55.465 31.846-60.518 73.664h118.903z"/><path fill="#FCA9C5" stroke="#545454" stroke-width="3" stroke-linecap="round" stroke-linejoin="round" stroke-miterlimit="10" d="M695.125 205.956c4.68-35.572 25.174-62.66 54.083-62.66 28.902 0 51.375 27.088 56.053 62.66H695.126z"/><path fill="#FCA9C5" stroke="#545454" stroke-width="3" stroke-linecap="round" stroke-linejoin="round" stroke-miterlimit="10" d="M776.32 186.112c-1.247 6.393 2.925 12.587 9.315 13.834l9.883 1.928c6.396 1.248 12.59-2.924 13.834-9.32 1.854-9.483-4.63-12.92-9.316-13.834"/><path fill="#FFA4AF" stroke="#545454" stroke-width="3" stroke-linecap="round" stroke-linejoin="round" stroke-miterlimit="10" d="M705.28 174.77c-5.475 1.235-8.934 7.387-7.723 13.74 1.208 6.355 6.628 10.504 12.103 9.268l14.042-3.168"/><path fill="#FFA4AF" stroke="#545454" stroke-width="3" stroke-linecap="round" stroke-linejoin="round" stroke-miterlimit="10" d="M724.42 153.886c-7.048-3.45-15.332-.027-18.5 7.648-3.17 7.676-.023 16.695 7.024 20.146"/><path fill="#FCA9C5" stroke="#545454" stroke-width="3" stroke-linecap="round" stroke-linejoin="round" stroke-miterlimit="10" d="M770.473 150.634c-.1-7.727-8.977-13.876-19.826-13.737-10.852.142-19.562 6.52-19.463 14.246"/><path fill="#FFB0CA" d="M763.733 209.262c-5.055-41.818-27.18-73.665-58.386-73.665-31.205 0-55.465 31.846-60.517 73.665h118.903z"/><path fill="#FCA9C5" d="M768.08 152.497c3.478-2.77 7.886-4.424 12.68-4.424 11.24 0 20.354 9.1 20.354 20.323 0 5.302-2.033 10.13-5.365 13.75"/><path fill="none" stroke="#545454" stroke-width="3" stroke-linecap="round" stroke-linejoin="round" stroke-miterlimit="10" d="M768.33 151.388c3.48-2.77 7.886-4.424 12.68-4.424 11.24 0 20.356 9.1 20.356 20.323 0 5.302-2.035 10.13-5.367 13.75"/><path fill="#FFB0CA" d="M690.935 143.068c.99-9.02 11.224-15.106 22.854-13.594 11.63 1.514 20.255 10.054 19.267 19.075"/><path fill="none" stroke="#545454" stroke-width="3" stroke-linecap="round" stroke-linejoin="round" stroke-miterlimit="10" d="M690.935 143.068c.99-9.02 11.224-15.106 22.854-13.594 11.63 1.514 20.255 10.054 19.267 19.075"/><path fill="#FFB0CA" d="M676.837 184.27c1.346 7.516-3.158 14.798-10.06 16.263l-10.67 2.266c-6.902 1.465-13.59-3.44-14.935-10.96-2-11.15 4.997-15.188 10.06-16.264"/><path fill="#FFB0CA" stroke="#545454" stroke-width="3" stroke-linecap="round" stroke-linejoin="round" stroke-miterlimit="10" d="M753.967 170.867c5.91 1.333 9.645 7.976 8.336 14.836-1.305 6.86-7.152 11.34-13.062 10.005l-15.16-3.42"/><path fill="#FFB0CA" stroke="#545454" stroke-width="3" stroke-linecap="round" stroke-linejoin="round" stroke-miterlimit="10" d="M731.377 150.826c6.822-5.023 16.28-2.98 21.125 4.562 4.846 7.544 3.242 17.73-3.58 22.753"/><path fill="#FC819C" d="M664.875 203.45c-7.02-.726-13.123-7.64-12.096-15.208.83-6.13 4.376-8.42 4.376-8.42l-2.94-2.08c-5.145-.53-9.833-1.015-11.354 10.21-1.028 7.568 4.933 14.48 11.95 15.208l10.85 1.12c1.432.145 2.838.022 4.186-.315l-4.973-.515z"/><path fill="none" stroke="#545454" stroke-width="3" stroke-linecap="round" stroke-linejoin="round" stroke-miterlimit="10" d="M677.838 184.955c1.347 7.517-3.157 14.8-10.06 16.264l-10.668 2.266c-6.904 1.466-13.59-3.44-14.937-10.958-1.998-11.15 4.998-15.19 10.062-16.265"/><path fill="#FFB0CA" d="M661.408 181.118c-5.697-.948-9.034-5.6-11.185-10.247-4.723-10.227 3.762-25.262 18.953-33.583 15.188-8.322 31.33-6.78 36.057 3.448"/><path fill="#FC819C" d="M665.803 142.516c6.053-6.855 14.49-9.746 21.14-11.152-5.464.325-12.708.598-18.608 3.83-15.192 8.322-23.676 23.357-18.953 33.585 1.718 3.714 4.2 7.426 8.034 9.252-5.335-8.696-1.995-23.76 8.387-35.516z"/><path fill="none" stroke="#545454" stroke-width="3" stroke-linecap="round" stroke-linejoin="round" stroke-miterlimit="10" d="M659.562 179.56c-5.697-.947-9.033-5.6-11.185-10.246-4.723-10.228 3.762-25.263 18.953-33.584 15.188-8.322 31.33-6.78 36.057 3.448M661.625 183.856c-2.02-4.848 1.732-8.845 1.732-8.845M791.49 179.924c5.022 1.525 5.724 6.962 5.724 6.962M726.252 149.06c5.027 1.525 5.725 6.962 5.725 6.962"/><path fill="none" stroke="#FFF" stroke-width="3" stroke-linecap="round" stroke-linejoin="round" stroke-miterlimit="10" d="M746.9 159.183c.997 1.994 1.4 2.975 1.776 5.154M744 155.242c.113.053.227.108.34.164"/><path fill="#F8FFFE" d="M724.436 230.793c32.91 0 64.025 5.453 91.67 15.144v-16.41c0-11.366-.31-20.015-4.69-23.22-34.394-25.153-132.312-26.403-170.677-.174-3.864 2.642-4.634 11.88-4.634 23.395v15.268c26.8-8.978 56.736-14.003 88.33-14.003z"/><path fill="#FFF" stroke="#545454" stroke-width="3" stroke-linecap="round" stroke-linejoin="round" stroke-miterlimit="10" d="M813.672 243.268v1.624c-27.178-9.407-57.68-14.685-89.908-14.685-31.942 0-62.187 5.183-89.18 14.432v-1.71c-.416.884-.635 1.783-.635 2.695 0 12.535 40.34 22.697 90.103 22.697 49.762 0 90.104-10.162 90.104-22.697 0-.796-.166-1.582-.485-2.357z"/><path fill="#E6EFEF" d="M662.326 238.31v-41.39c-8.423 2.77-15.863 6.194-21.853 10.29-3.862 2.64-4.633 11.88-4.633 23.394v15.29c8.52-2.944 17.365-5.48 26.486-7.583z"/><path fill="#FF7373" d="M722.942 230.202c-27.452 0-82.816 8.074-84.916 14.646 0 10.825 42.398 18.278 85.164 18.278 42.76 0 87.11-7.155 87.11-17.98 0-5.924-59.663-14.944-87.358-14.944z"/><path fill="none" stroke="#555" stroke-width="3" stroke-linecap="round" stroke-linejoin="round" stroke-miterlimit="10" d="M723.71 230.116c32.397 0 63.054 5.277 90.37 14.684v-16.26c0-11.367-.31-20.016-4.693-23.22-34.393-25.154-132.308-26.404-170.675-.174-3.863 2.642-4.633 11.88-4.633 23.394v16.008c27.13-9.25 57.53-14.432 89.63-14.432z"/><ellipse fill="#FFF" stroke="#545454" stroke-width="2.5" stroke-linecap="round" stroke-linejoin="round" stroke-miterlimit="10" cx="723.811" cy="250.351" rx="19.529" ry="5.551"/><g stroke="#545454" stroke-width="2" stroke-linecap="round" stroke-linejoin="round" stroke-miterlimit="10"><path fill="#FFE252" d="M455.008 62.25L436.14 81.91l18.868 21.63 17.29-20.644z"/><path fill="#FFEB99" d="M455.008 62.25l-6.532 23.142 6.532 18.148 17.294-20.644z"/><path fill="none" d="M472.297 82.896l-23.82 2.496-12.337-3.483"/><path fill="none" d="M455.008 62.25l-6.532 23.142 6.532 18.148"/><path fill="#FFE252" d="M958.963 255.9l-19.953 20.79 19.953 22.874 18.284-21.83z"/><path fill="#FFEB99" d="M958.963 255.9l-6.908 24.473 6.908 19.19 18.288-21.83z"/><path fill="none" d="M977.247 277.733l-25.192 2.64-13.045-3.684"/><path fill="none" d="M958.963 255.9l-6.908 24.473 6.908 19.19"/><g><path fill="#BBFFD0" d="M273.73 246.024l-16.514-3.723-21.29 2.674v22.15l15.275 8.113 22.53-4.2v-12.984z"/><path fill="none" d="M251.2 249.46v25.777"/><path fill="#83F2A2" d="M251.2 275.237l-15.274-8.113v-22.15l15.275 4.486z"/><path fill="#83F2A2" d="M273.73 246.024l-16.514-3.723-21.29 2.674 15.275 4.486z"/></g><g><path fill="#BBFFD0" d="M1139.522 93.197l-17.393-3.92-22.42 2.814v23.326l16.085 8.545 23.727-4.42v-13.676z"/><path fill="none" d="M1115.795 96.816v27.145"/><path fill="#83F2A2" d="M1115.795 123.96l-16.086-8.544V92.09l16.085 4.726z"/><path fill="#83F2A2" d="M1139.522 93.197l-17.393-3.92-22.42 2.814 16.085 4.726z"/></g><g><path fill="#D7FFFB" d="M492.685 289.202l-19.45 28.627 26.73 7.74 6.903-12.04-14.183-24.328z"/><path fill="#94EDE8" d="M492.685 289.202l-.1.147 7.07 36.13.31.09 6.903-12.04z"/></g><g><path fill="#D7FFFB" d="M1246.975 220.732l-21.463 31.593 29.496 8.54 7.62-13.283-15.653-26.85z"/><path fill="#94EDE8" d="M1246.975 220.732l-.11.164 7.802 39.872.34.098 7.62-13.284z"/></g><g><path fill="#D7FFFB" d="M139.7 90.56l-21.362 31.447 29.36 8.5 7.582-13.222L139.7 90.56z"/><path fill="#94EDE8" d="M139.7 90.56l-.11.163 7.766 39.688.34.098 7.584-13.223z"/></g><g><path fill="#FFE252" d="M1353.428 89.796l-22.695 23.645 22.695 26.02 20.795-24.832z"/><path fill="#FFEB99" d="M1353.428 89.796l-7.855 27.834 7.855 21.83 20.803-24.832z"/><path fill="none" d="M1374.223 114.628l-28.65 3.002-14.84-4.19"/><path fill="none" d="M1353.428 89.796l-7.855 27.834 7.855 21.83"/></g></g></svg>