<?xml version="1.0" encoding="utf-8"?>
<!-- Generator: Adobe Illustrator 16.0.0, SVG Export Plug-In . SVG Version: 6.00 Build 0)  -->
<!DOCTYPE svg PUBLIC "-//W3C//DTD SVG 1.1//EN" "http://www.w3.org/Graphics/SVG/1.1/DTD/svg11.dtd">
<svg version="1.1" id="Layer_1" xmlns="http://www.w3.org/2000/svg" xmlns:xlink="http://www.w3.org/1999/xlink" x="0px" y="0px"
	 width="411.623px" height="395.066px" viewBox="0 0 411.623 395.066" enable-background="new 0 0 411.623 395.066"
	 xml:space="preserve">
<path fill="#161614" fill-opacity="0.3" d="M258.892,157.189v-24.858c0-8.237-0.17-15.033-1.93-19.378
	c-3.074-43.853-35.545-69.7-69.177-69.7c-3.355,0-6.658,0.298-9.893,0.875c-7.97-4.208-16.867-6.544-26.53-6.544
	c-35.63,0-63.376,31.532-69.48,73.1c-1.034,1.642-3.136,16.409-3.136,22.36v1.312c-0.258,2.854-0.48,5.773-0.676,8.746
	c-1.242,0.758-1.977,1.568-2.637,2.564c-2.344,3.537-0.844,6.938,2.078,7.567c-0.024,0.625-8.142,7.926-11.247,12.29
	c-2.562,3.47-4.494,7.334-5.846,11.42c-1.848,5.3-2.88,11.146-2.88,17.31c0,13.255,4.75,25.104,12.214,33
	c2.02,2.333-2.76,8.604,2.646,13.755c0.758,0.725,3.006,2.555,5.822,4.182c0.174,6.026,0.253,144.619,0.427,150.879l181.165-0.752
	c7.869,1.294,11.627-48.137-0.677-47.313C247.582,335.247,263.896,155.497,258.892,157.189L258.892,157.189L258.892,157.189z
	 M252.24,368.068c1.141,0.188,2.27,0.371,3.393,0.553c-1.17,0.047-2.301-0.141-3.393-0.551V368.068z"/>
<path fill="none" stroke="#555555" stroke-width="3.7" stroke-miterlimit="10" d="M234.658,101.231
	c-5.056-41.817-27.181-73.664-58.386-73.664c-31.205,0-55.465,31.846-60.518,73.664H234.658z"/>
<path fill="#FCA9C5" stroke="#545454" stroke-width="3.7" stroke-linecap="round" stroke-linejoin="round" stroke-miterlimit="10" d="
	M166.05,96.351c4.68-35.57,25.173-62.657,54.081-62.657c28.902,0,51.375,27.087,56.056,62.658L166.05,96.351L166.05,96.351z"/>
<path fill="#FCA9C5" stroke="#545454" stroke-width="3.7" stroke-linecap="round" stroke-linejoin="round" stroke-miterlimit="10" d="
	M247.246,76.508c-1.248,6.396,2.924,12.587,9.313,13.834l9.885,1.934c6.396,1.246,12.589-2.926,13.834-9.32
	c1.853-9.485-4.631-12.92-9.317-13.836"/>
<path fill="#FFA4AF" stroke="#545454" stroke-width="3.7" stroke-linecap="round" stroke-linejoin="round" stroke-miterlimit="10" d="
	M176.206,65.165c-5.475,1.236-8.934,7.388-7.723,13.742c1.21,6.354,6.627,10.503,12.102,9.267l14.04-3.168"/>
<path fill="#FFA4AF" stroke="#545454" stroke-width="3.7" stroke-linecap="round" stroke-linejoin="round" stroke-miterlimit="10" d="
	M195.346,44.283c-7.05-3.45-15.332-0.027-18.5,7.648c-3.17,7.676-0.025,16.691,7.023,20.146"/>
<path fill="#FCA9C5" stroke="#545454" stroke-width="3.7" stroke-linecap="round" stroke-linejoin="round" stroke-miterlimit="10" d="
	M241.399,41.031c-0.104-7.729-8.979-13.877-19.83-13.738c-10.853,0.146-19.562,6.521-19.459,14.246"/>
<path fill="#FFB0CA" d="M234.658,99.658c-5.056-41.818-27.181-73.665-58.386-73.665c-31.205,0-55.465,31.846-60.516,73.665h118.9
	H234.658z"/>
<path fill="#FCA9C5" d="M239.003,42.893c3.479-2.771,7.887-4.428,12.682-4.428c11.238,0,20.354,9.104,20.354,20.323
	c0,5.303-2.035,10.13-5.367,13.75"/>
<path fill="none" stroke="#545454" stroke-width="3.7" stroke-linecap="round" stroke-linejoin="round" stroke-miterlimit="10" d="
	M239.253,41.784c3.479-2.77,7.887-4.424,12.682-4.424c11.24,0,20.354,9.098,20.354,20.322c0,5.302-2.035,10.13-5.365,13.75"/>
<path fill="#FFB0CA" d="M161.86,33.465c0.99-9.02,11.223-15.104,22.855-13.594c11.63,1.514,20.256,10.054,19.268,19.075"/>
<path fill="none" stroke="#545454" stroke-width="3.7" stroke-linecap="round" stroke-linejoin="round" stroke-miterlimit="10" d="
	M161.86,33.465c0.99-9.02,11.223-15.104,22.855-13.594c11.63,1.514,20.256,10.054,19.268,19.075"/>
<path fill="#FFB0CA" d="M147.762,74.665c1.346,7.521-3.158,14.8-10.06,16.268l-10.67,2.267c-6.9,1.465-13.587-3.44-14.933-10.958
	c-2-11.15,4.995-15.19,10.058-16.265"/>
<path fill="#FFB0CA" stroke="#545454" stroke-width="3.7" stroke-linecap="round" stroke-linejoin="round" stroke-miterlimit="10" d="
	M224.894,61.264c5.91,1.333,9.646,7.976,8.336,14.836c-1.307,6.856-7.151,11.338-13.062,10.004l-15.158-3.42"/>
<path fill="#FFB0CA" stroke="#545454" stroke-width="3.7" stroke-linecap="round" stroke-linejoin="round" stroke-miterlimit="10" d="
	M202.303,41.221c6.821-5.021,16.28-2.979,21.125,4.562c4.846,7.544,3.237,17.73-3.58,22.753"/>
<path fill="#FC819C" d="M135.8,93.847c-7.02-0.729-13.124-7.644-12.097-15.21c0.832-6.132,4.377-8.422,4.377-8.422l-2.94-2.076
	c-5.145-0.532-9.833-1.02-11.354,10.21c-1.03,7.563,4.932,14.479,11.95,15.206l10.85,1.116c1.43,0.147,2.837,0.023,4.185-0.312
	L135.8,93.847L135.8,93.847z"/>
<path fill="none" stroke="#545454" stroke-width="3.7" stroke-linecap="round" stroke-linejoin="round" stroke-miterlimit="10" d="
	M148.764,75.351c1.346,7.517-3.158,14.8-10.06,16.264l-10.67,2.267c-6.903,1.47-13.59-3.438-14.935-10.957
	c-2-11.146,4.997-15.188,10.06-16.265"/>
<path fill="#FFB0CA" d="M132.333,71.515c-5.697-0.948-9.033-5.604-11.184-10.247c-4.724-10.229,3.76-25.267,18.952-33.584
	c15.19-8.322,31.33-6.78,36.057,3.444"/>
<path fill="#FC819C" d="M137.73,33.914c6.052-6.854,14.49-9.746,21.138-11.148c-5.463,0.322-12.707,0.6-18.607,3.828
	c-15.192,8.32-23.675,23.356-18.952,33.584c1.717,3.719,4.2,7.431,8.033,9.257c-5.334-8.698-1.992-23.767,8.39-35.521H137.73z"/>
<path fill="none" stroke="#545454" stroke-width="3.7" stroke-linecap="round" stroke-linejoin="round" stroke-miterlimit="10" d="
	M130.49,69.957c-5.7-0.948-9.036-5.6-11.187-10.247c-4.723-10.229,3.762-25.264,18.953-33.585c15.19-8.322,31.332-6.78,36.057,3.448
	"/>
<path fill="none" stroke="#545454" stroke-width="3.7" stroke-linecap="round" stroke-linejoin="round" stroke-miterlimit="10" d="
	M132.55,74.251c-2.02-4.847,1.73-8.844,1.73-8.844 M262.414,70.321c5.022,1.521,5.726,6.96,5.726,6.96 M197.178,39.457
	c5.027,1.525,5.725,6.962,5.725,6.962"/>
<path fill="none" stroke="#FFFFFF" stroke-width="3.7" stroke-linecap="round" stroke-linejoin="round" stroke-miterlimit="10" d="
	M217.826,49.581c0.993,1.993,1.399,2.978,1.774,5.153 M214.925,45.638c0.113,0.053,0.229,0.104,0.342,0.16"/>
<path fill="none" stroke="#FF99B9" stroke-width="3.7" stroke-linecap="round" stroke-linejoin="round" stroke-miterlimit="10" d="
	M197.364,56.481c10.224,0.63,7.865,9.562,7.865,9.562 M162.077,63.604c7.666-6.794,12.328,1.185,12.328,1.185"/>
<path fill="none" stroke="#FF99B9" stroke-width="3.7" stroke-linecap="round" stroke-linejoin="round" stroke-miterlimit="10" d="
	M144.86,52.635c0.79-16.81,15.527-13.146,15.527-13.146"/>
<path fill="none" stroke="#F98AA7" stroke-width="3.7" stroke-linecap="round" stroke-linejoin="round" stroke-miterlimit="10" d="
	M234.356,50.503c9.422-4.016,11.314,5.03,11.314,5.03"/>
<path fill="none" stroke="#F98AA7" stroke-width="3.7" stroke-linecap="round" stroke-linejoin="round" stroke-miterlimit="10" d="
	M247.562,66.689c6.746-2.875,8.104,3.602,8.104,3.602"/>
<path fill="#FFFFFF" d="M288.621,373.684c2.953-0.526,5.166-2.688,5.166-5.272c0-2.979-2.938-5.396-6.565-5.396
	c-0.062,0-0.188-7.468-0.188-7.468c-32.334,12.604-39.399-145.157,0-199.658v-35.97c0-11.362-0.311-20.015-4.69-23.22
	C247.949,71.55,150.032,70.3,111.666,96.53c-3.863,2.64-4.633,11.88-4.633,23.393v215c-0.91-0.047-1.872,0.008-2.856,0.176
	c-4.695,0.803-8.086,3.883-7.572,6.877c0.354,2.062,2.47,3.551,5.29,4.008c-0.208,0.15-0.417,0.302-0.62,0.465
	c-6.236,4.988-8.713,12.258-5.53,16.232c1.466,1.828,3.884,2.635,6.67,2.486c-0.25,0.174-0.5,0.357-0.745,0.557
	c-3.72,2.977-5.197,7.312-3.3,9.684c1.65,2.062,5.298,1.962,8.665-0.049v6.482c0,0.573-0.38,3.294-0.37,3.862h2.002l0.148,10.362
	l176.954-0.729l0.049-9.636h1.351c3.099,0.563,5.582-2.388,6.44-4.351C294.681,378.904,292.46,375.551,288.621,373.684z"/>
<path fill="#E6EFEF" d="M133.25,87.317c-8.422,2.77-15.863,6.189-21.852,10.288c-3.863,2.64-4.633,11.88-4.633,23.394v215
	c-0.912-0.046-1.873,0.003-2.857,0.17c-4.695,0.81-8.084,3.888-7.572,6.878c0.354,2.064,2.47,3.555,5.29,4.012
	c-0.206,0.15-0.415,0.303-0.62,0.465c-6.236,4.983-8.713,12.256-5.53,16.229c1.466,1.835,3.884,2.638,6.67,2.49
	c-0.25,0.177-0.5,0.357-0.745,0.556c-3.718,2.979-5.194,7.312-3.298,9.687c1.648,2.061,5.297,1.959,8.664-0.051v6.486
	c0,0.57-0.129,12.58-0.121,13.148h26.5L133.25,87.317L133.25,87.317z M222.005,191.367
	c-18.779,17.896-34.609,140.646,10.557,152.896c21.41,5.346,15.229-5.18,33.104,0.944c17.125,5.376,40.787,21.146-13.896,15.655
	c-13.362-2.035-18.248-1.479-32.201-7.7c-45.062-17.229-35.338-156.231-9.062-178.33c16.65-13.992,26.393,2.3,11.5,16.53
	L222.005,191.367L222.005,191.367z"/>
<path fill="none" stroke="#555555" stroke-width="3.9" stroke-linecap="round" stroke-linejoin="round" stroke-miterlimit="10" d="
	M284.884,383.751c4.219,0.019,5.82-0.41,6.686-2.374c1.074-2.45-1.146-5.803-4.981-7.67c2.951-0.523,5.164-2.686,5.164-5.271
	c0-2.979-2.938-5.396-6.562-5.396c-0.062,0-0.127,0.006-0.188,0.008v-7.47c-32.336,12.604-39.403-145.163,0-199.663v-35.966
	c0-11.366-0.312-20.015-4.69-23.22C245.916,71.576,148,70.326,109.634,96.556c-3.863,2.64-4.633,11.88-4.633,23.394v215
	c-0.912-0.047-1.873,0.006-2.855,0.174c-4.696,0.802-8.087,3.882-7.573,6.876c0.352,2.063,2.47,3.55,5.29,4.008
	c-0.208,0.154-0.417,0.304-0.622,0.469c-6.236,4.983-8.713,12.257-5.53,16.229c1.466,1.833,3.884,2.636,6.67,2.489
	c-0.25,0.174-0.5,0.354-0.743,0.555c-3.72,2.979-5.197,7.312-3.3,9.688c1.647,2.061,5.296,1.96,8.663-0.054v6.75
	c0,0.569,0.02,11.812,0.02,11.812"/>
<g id="feather_4_">
	
		<path fill="#FFFFFF" stroke="#555555" stroke-width="3.7" stroke-linecap="round" stroke-linejoin="round" stroke-miterlimit="10" d="
		M369.679,53.594c1.812,5.062-17.184,15.957-34.42,8.222C335.259,61.812,367.435,47.295,369.679,53.594L369.679,53.594z"/>
	<path fill="none" stroke="#555555" stroke-width="3.7" stroke-linecap="round" stroke-linejoin="round" stroke-miterlimit="10" d="
		M330.755,57.791c1.672,3.271,4.73,4.104,4.73,4.104"/>
</g>
<g id="feather">
	
		<path fill="#FFFFFF" stroke="#555555" stroke-width="3.7" stroke-linecap="round" stroke-linejoin="round" stroke-miterlimit="10" d="
		M407.462,337.668c3.754,3.85-8.949,21.682-27.842,21.842C379.621,359.508,402.792,332.88,407.462,337.668L407.462,337.668z"/>
	<path fill="none" stroke="#555555" stroke-width="3.7" stroke-linecap="round" stroke-linejoin="round" stroke-miterlimit="10" d="
		M374.113,358.039c3.021,2.076,6.104,1.346,6.104,1.346"/>
</g>
<g id="feather_1_">
	
		<path fill="#FFFFFF" stroke="#555555" stroke-width="3.7" stroke-linecap="round" stroke-linejoin="round" stroke-miterlimit="10" d="
		M22.75,343.843c0.337-5.358,22.083-7.895,34.872,6.017C57.622,349.855,22.332,350.518,22.75,343.843L22.75,343.843z"/>
	<path fill="none" stroke="#555555" stroke-width="3.7" stroke-linecap="round" stroke-linejoin="round" stroke-miterlimit="10" d="
		M60.178,355.324c-0.248-3.662-2.73-5.631-2.73-5.631"/>
</g>
<g id="feather_2_">
	
		<path fill="#FFFFFF" stroke="#555555" stroke-width="3.7" stroke-linecap="round" stroke-linejoin="round" stroke-miterlimit="10" d="
		M1.584,285.581c1.904-7.226,32.242-4.812,45.94,17.59C47.524,303.171-0.786,294.57,1.584,285.581z"/>
	<path fill="none" stroke="#555555" stroke-width="3.7" stroke-linecap="round" stroke-linejoin="round" stroke-miterlimit="10" d="
		M49.536,311.32c0.648-5.062-2.207-8.414-2.207-8.414"/>
</g>
<g id="feather_3_">
	
		<path fill="#FFFFFF" stroke="#555555" stroke-width="3.7" stroke-linecap="round" stroke-linejoin="round" stroke-miterlimit="10" d="
		M48.688,3.501c5.457,5.234-11.58,30.896-38.137,32C10.551,35.501,41.901-3.012,48.688,3.501L48.688,3.501z"/>
	<path fill="none" stroke="#555555" stroke-width="3.7" stroke-linecap="round" stroke-linejoin="round" stroke-miterlimit="10" d="
		M2.354,33.279c4.16,3.062,8.53,2.182,8.53,2.182"/>
</g>
<path fill="#545454" d="M277.896,170.989c0.891-1.017,1.812-1.94,2.758-2.8l-0.006-0.351c-13.713,9.769-56.931,3.448-66.293,15.688
	c-13.894,18.103-24.021,141.015,10.203,152.763c14.139,4.452,38.854,1.67,53.94,4.814c-24.211-34.482-18.203-149.903-0.604-170.116
	L277.896,170.989L277.896,170.989z"/>
<path fill="#FFC34A" stroke="#555555" stroke-width="3.7" stroke-linecap="round" stroke-linejoin="round" stroke-miterlimit="10" d="
	M287.494,171.494c-21.272,22.237-25.22,153.96,5.342,168.39c21.408,5.864,6.17,15.925-7.778,9.104
	c-45.062-18.902-35.343-171.385-9.062-195.617C292.642,138.013,302.378,155.885,287.494,171.494L287.494,171.494z"/>
<g>
	<path fill="#4B4B4B" d="M245.667,308.307c-26.141-8.978-26.404-82.771-18.885-125.221c-1.684,0.92-3.074,2-4.068,3.304
		c-13.895,18.103-24.022,141.014,10.201,152.762c14.145,4.453,26.818-4.256,41.91-1.109c-5.688-5.188-10.928-19.616-12.846-27.23
		C251.226,310.545,253.405,310.744,245.667,308.307L245.667,308.307L245.667,308.307z M289.013,171.054l-0.006-0.352
		c-0.086,0.062-0.188,0.114-0.271,0.173l-0.104,0.54C288.757,171.299,288.882,171.171,289.013,171.054L289.013,171.054z"/>
</g>
<path fill="#FF7272" d="M196.99,264.516c0,0,39.571-26.272,73.28-23.646c79.402,6.196,78.003,50.42,41.003,31.67
	c-33.003-19-50.016-18.058-63.003-13c-21.347,7.692-40.319,41.979-40.319,41.979l-11.771-26.951l3.335-14.771"/>
<path fill="#F76371" d="M220.849,250.574c-7.174,3.635-14.279,8.318-16.871,9.97l-2.397,11.165l12.062,26.824
	c0,0-1.686-9.891,14.312-22.684C215.371,265.666,221.453,256.396,220.849,250.574L220.849,250.574z"/>
<path fill="none" stroke="#4B4B4B" stroke-width="3.7" stroke-linecap="round" stroke-linejoin="round" stroke-miterlimit="10" d="
	M197.06,264.169c0,0,39.57-26.271,73.279-23.646c79.406,6.19,78,50.42,41,31.67c-33-19-50.01-18.062-63-13
	c-21.344,7.688-40.32,41.979-40.32,41.979l-11.771-26.944l3.335-14.772"/>
<path fill="#FFE564" d="M301.526,138.694c21.669-11.333,41.677-1.24,45.312,14.312c7.006,29.917-102.055,15.49-116.939,29.722
	c-18.776,17.896-34.608,140.646,10.558,152.896c21.41,5.346,60.351-4.689,78.223,1.436c17.125,5.375,44.67,36.18-11.375,23.375
	c-19.874-4.375-65.891-9.686-79.842-15.9c-45.061-17.23-35.34-156.238-9.062-178.328C235.052,152.202,273.224,153.5,301.526,138.694
	z"/>
<path fill="#FFC34A" d="M247.787,350.18c-64.5-0.332-50.757-167.081-17.041-188.718c0.442-0.281,0.83-0.662,1.26-0.979
	c-4.979,1.854-9.323,4.084-12.752,6.965c-26.28,22.09-36,161.097,9.062,178.33c29.477,12.396,58.72,8.57,19.477,4.396
	L247.787,350.18L247.787,350.18z"/>
<path fill="#FFF3C2" d="M346.4,151.671c-5.683-14.834-26.664-22.13-46.511-8.28c17.191-7.299,33.599-0.11,38.515,12.736
	c2.043,5.34-0.107,9.7-5.041,13.365C343.593,165.018,349.339,159.362,346.4,151.671L346.4,151.671z M317.32,338.057
	c-4.025-1.385-9.123-1.938-14.845-2.035c2.771,0.328,5.306,0.845,7.513,1.605c13.521,4.314,33.539,24.74,13.748,26.729
	C355.005,366.664,332.22,342.734,317.32,338.057L317.32,338.057z"/>
<path fill="none" stroke="#4C4C4C" stroke-width="3.7" stroke-linecap="round" stroke-linejoin="round" stroke-miterlimit="10" d="
	M301.526,139.531c21.669-11.334,41.677-1.24,45.312,14.31c7.006,29.918-102.055,15.49-116.939,29.724
	c-18.776,17.896-34.608,140.646,10.558,152.896c21.41,5.35,60.351-4.689,78.223,1.436c17.125,5.375,44.67,36.18-11.375,23.375
	c-19.874-4.375-65.891-9.686-79.842-15.9c-45.061-17.229-35.34-156.238-9.062-178.328
	C235.052,153.039,273.224,154.335,301.526,139.531L301.526,139.531z"/>
<path fill="none" stroke="#FFDEE1" stroke-width="3.7" stroke-linecap="round" stroke-linejoin="round" stroke-miterlimit="10" d="
	M328.23,267.154c-0.439-0.617-1.474-1.922-2.603-2.828"/>
<path fill="#FFFFFF" stroke="#555555" stroke-width="3.7" stroke-linecap="round" stroke-linejoin="round" stroke-miterlimit="10" d="
	M150.012,181.849c0-23.248-13.17-42.184-29.64-43.022c-0.185-0.018-0.37-0.04-0.56-0.04c-0.103,0-0.202,0.008-0.304,0.01
	c-0.092-0.002-0.184-0.01-0.275-0.01c-1.81,0-3.582,0.23-5.307,0.65c-16.045,3.52-28.248,21.162-28.248,42.412
	s12.203,38.89,28.248,42.406c1.725,0.424,3.496,0.653,5.307,0.653c0.092,0,0.184-0.01,0.275-0.01c0.102,0,0.2,0.01,0.303,0.01
	c0.192,0,0.378-0.021,0.563-0.04c16.47-0.84,29.64-19.771,29.64-43.021L150.012,181.849L150.012,181.849z"/>
<ellipse transform="matrix(-0.2056 -0.9786 0.9786 -0.2056 -34.9385 314.6399)" fill="#545454" stroke="#555555" stroke-width="3.7" stroke-linecap="round" stroke-linejoin="round" stroke-miterlimit="10" cx="110.236" cy="171.501" rx="4.355" ry="4.266"/>
<path fill="#E1EAEA" d="M114.167,139.381c-10.422,7.368-17.494,21.785-17.494,37.934c0,21.25,12.203,38.89,28.248,42.41
	c1.726,0.42,3.497,0.649,5.308,0.649c0.092,0,0.184-0.01,0.275-0.01c0.102,0,0.2,0.01,0.303,0.01c0.19,0,0.377-0.021,0.562-0.04
	c0.652-0.034,1.3-0.098,1.94-0.186c-43.63,26.221-70.6-64.801-19.14-80.771L114.167,139.381z"/>
<path fill="#E6EFEF" d="M132.795,220.48c-8.963,5.844-16.12,6.457-27.803,0.17c-4.453-2.399-10.24,2.199-4.604,7.565
	c1.377,1.312,7.676,6.288,13.393,7.062"/>
<path fill="none" stroke="#D8E5E5" stroke-width="13" stroke-linecap="round" stroke-linejoin="round" stroke-miterlimit="10" d="
	M144.202,217.682c-10.895,13.331-26.186,18.539-42.078,7.754"/>
<path fill="#E6EFEF" d="M132.16,142.745c-8.735-6.125-12.862-5.88-23.634-2.138c-4.598,1.598-7.982-2.773-4.953-7.351
	c1.53-2.307,3.44-3.64,11.188-5.557"/>
<path fill="none" stroke="#555555" stroke-width="3.7" stroke-linecap="round" stroke-linejoin="round" stroke-miterlimit="10" d="
	M150.012,181.849c0-23.248-13.17-42.184-29.64-43.022c-0.185-0.018-0.37-0.04-0.56-0.04c-0.103,0-0.202,0.008-0.304,0.01
	c-0.092-0.002-0.184-0.01-0.275-0.01c-1.81,0-3.582,0.23-5.307,0.65c-16.045,3.52-28.248,21.162-28.248,42.412
	s12.203,38.89,28.248,42.406c1.725,0.424,3.496,0.653,5.307,0.653c0.092,0,0.184-0.01,0.275-0.01c0.102,0,0.2,0.01,0.303,0.01
	c0.192,0,0.378-0.021,0.563-0.04c16.47-0.84,29.64-19.771,29.64-43.021L150.012,181.849L150.012,181.849z M143.856,225.971
	c0.92-0.781,1.814-1.646,2.686-2.594 M126.215,235.598c4.25-0.613,8.047-2.123,11.305-4.572l0.238-0.185"/>
<path fill="#C3D1CF" d="M104.827,229.703c-3.646-2.27-2.758-5.633,0.78-6.002c-1.423-0.465-1.456-2.957-2.663-2.801
	c-5.44,0.709-6.525,6.131-2.305,8.557C110.523,235.143,109.255,232.462,104.827,229.703L104.827,229.703z"/>
<path fill="none" stroke="#555555" stroke-width="3.7" stroke-linecap="round" stroke-linejoin="round" stroke-miterlimit="10" d="
	M131.797,221.173c-8.963,5.847-16.12,6.455-27.8,0.168c-4.456-2.396-10.243,2.2-4.606,7.57c1.38,1.312,7.68,6.29,13.394,7.062"/>
<path fill="none" stroke="#555555" stroke-width="3.7" stroke-linecap="round" stroke-linejoin="round" stroke-miterlimit="10" d="
	M132.167,142.751c-8.736-6.126-12.863-5.882-23.635-2.14c-4.598,1.6-7.982-2.772-4.953-7.346c1.528-2.31,3.438-3.644,11.187-5.56"/>
<line fill="none" stroke="#555555" stroke-width="3.7" stroke-linecap="round" stroke-linejoin="round" stroke-miterlimit="10" x1="284.729" y1="384.816" x2="284.729" y2="393.816"/>
</svg>
