<?xml version="1.0" encoding="UTF-8"?>
<svg width="140px" height="47px" viewBox="0 0 140 47" version="1.1" xmlns="http://www.w3.org/2000/svg" xmlns:xlink="http://www.w3.org/1999/xlink">
    <!-- Generator: Sketch 41.2 (35397) - http://www.bohemiancoding.com/sketch -->
    <title>google</title>
    <desc>Created with Sketch.</desc>
    <defs>
        <polygon id="path-1" points="0 46.8463667 139.112399 46.8463667 139.112399 0.00033224138 0 0.00033224138"></polygon>
    </defs>
    <g id="Page-1" stroke="none" stroke-width="1" fill="none" fill-rule="evenodd">
        <g id="Desktop" transform="translate(-234.000000, -1897.000000)">
            <g id="logos" transform="translate(234.000000, 1897.000000)">
                <g id="google">
                    <path d="M55.0102801,24.4200736 C55.0102801,20.2952969 52.0161943,17.4729064 48.5400523,17.4729064 C45.0639104,17.4729064 42.0681566,20.2952969 42.0681566,24.4200736 C42.0681566,28.501659 45.0639104,31.3655797 48.5400523,31.3655797 C52.0161943,31.3655797 55.0102801,28.4966753 55.0102801,24.4200736 Z M60.0493515,24.4200736 C60.0493515,31.0200486 54.880175,35.88074 48.5400523,35.88074 C42.1965937,35.88074 37.0290851,31.0200486 37.0290851,24.4200736 C37.0290851,17.7735848 42.1965937,12.957746 48.5400523,12.957746 C54.880175,12.957746 60.0493515,17.7735848 60.0493515,24.4200736 Z" id="Fill-1" fill="#EB4335"></path>
                    <path d="M79.0295203,24.4200736 C79.0295203,20.2952969 76.0337665,17.4729064 72.5576245,17.4729064 C69.0831506,17.4729064 66.0873968,20.2952969 66.0873968,24.4200736 C66.0873968,28.501659 69.0831506,31.3655797 72.5576245,31.3655797 C76.0337665,31.3655797 79.0295203,28.4966753 79.0295203,24.4200736 M84.0685917,24.4200736 C84.0685917,31.0200486 78.9010832,35.88074 72.5576245,35.88074 C66.2158339,35.88074 61.0499934,31.0200486 61.0499934,24.4200736 C61.0499934,17.7785684 66.2158339,12.957746 72.5576245,12.957746 C78.9010832,12.957746 84.0685917,17.7735848 84.0685917,24.4200736" id="Fill-3" fill="#FBBC05"></path>
                    <path d="M103.653916,24.7023127 C103.653916,20.5808584 100.956737,17.5690903 97.5222953,17.5690903 C94.0428173,17.5690903 91.1271282,20.5808584 91.1271282,24.7023127 C91.1271282,28.7805756 94.0428173,31.7508135 97.5222953,31.7508135 C100.956737,31.7508135 103.653916,28.7805756 103.653916,24.7023127 L103.653916,24.7023127 Z M108.087498,13.6635928 L108.087498,34.6728765 C108.087498,43.3161359 103.085123,46.8462006 97.1703442,46.8462006 C91.6041803,46.8462006 88.2548074,43.0520041 86.9904525,39.9505308 L91.3823344,38.0883178 C92.1629651,39.9920609 94.0795136,42.2396739 97.1653402,42.2396739 C100.951733,42.2396739 103.296961,39.8608256 103.296961,35.3805506 L103.296961,33.697748 L103.12182,33.697748 C101.992574,35.1180799 99.8174831,36.3573403 97.0735994,36.3573403 C91.3289579,36.3573403 86.0697086,31.2590963 86.0697086,24.7023127 C86.0697086,18.0956928 91.3289579,12.9575799 97.0735994,12.9575799 C99.812479,12.9575799 101.98757,14.1968403 103.12182,15.5739808 L103.296961,15.5739808 L103.296961,13.6685765 L108.087498,13.6685765 L108.087498,13.6635928 Z" id="Fill-5" fill="#4285F4"></path>
                    <mask id="mask-2" fill="white">
                        <use xlink:href="#path-1"></use>
                    </mask>
                    <g id="Clip-8"></g>
                    <polygon id="Fill-7" fill="#34A853" mask="url(#mask-2)" points="111.089757 35.88074 116.093801 35.88074 116.093801 1.99211931 111.089757 1.99211931"></polygon>
                    <path d="M123.057594,24.5562926 L133.239154,20.119209 C132.682037,18.6241228 130.995674,17.5842072 129.012405,17.5842072 C126.468683,17.5842072 122.930825,19.9397986 123.057594,24.5562926 M135.012253,28.8588184 L138.897058,31.5782141 C137.642711,33.5234874 134.623605,36.8791253 129.40272,36.8791253 C122.930825,36.8791253 118.095251,31.6263891 118.095251,24.9184357 C118.095251,17.8051478 122.969189,12.957746 128.843936,12.957746 C134.757047,12.957746 137.647715,17.8965141 138.59348,20.5660736 L139.112232,21.9249409 L123.879925,28.5465116 C125.045867,30.9469555 126.858999,32.171265 129.40272,32.171265 C131.951446,32.171265 133.717874,30.8539279 135.012253,28.8588184" id="Fill-9" fill="#EB4335" mask="url(#mask-2)"></path>
                    <path d="M17.7104762,21.326408 L17.7104762,16.4241865 L33.7884668,16.4241865 C33.9452602,17.2780468 34.0269929,18.2897218 34.0269929,19.3844572 C34.0269929,23.060708 33.0478684,27.6090925 29.8953212,30.8484459 C26.8278428,34.1309908 22.908009,35.8819028 17.7154803,35.8819028 C8.09270535,35.8819028 -0.000500404312,27.8283718 -0.000500404312,17.9408684 C-0.000500404312,8.05336491 8.09270535,-0.00016612069 17.7154803,-0.00016612069 C23.0397822,-0.00016612069 26.8328469,2.14611319 29.6818154,4.9435856 L26.3157624,8.40221836 C24.2724448,6.43368819 21.5035409,4.90205543 17.7104762,4.90205543 C10.6831317,4.90205543 5.1870243,10.7212632 5.1870243,17.9408684 C5.1870243,25.1604735 10.6831317,30.9813425 17.7104762,30.9813425 C22.2691595,30.9813425 24.8662579,29.0991951 26.5292682,27.3898132 C27.8770239,26.0043666 28.7644075,24.024208 29.1146905,21.3214244 L17.7104762,21.326408 Z" id="Fill-10" fill="#4285F4" mask="url(#mask-2)"></path>
                </g>
            </g>
        </g>
    </g>
</svg>