<?xml version="1.0" encoding="utf-8"?>
<!-- Generator: Adobe Illustrator 16.0.0, SVG Export Plug-In . SVG Version: 6.00 Build 0)  -->
<!DOCTYPE svg PUBLIC "-//W3C//DTD SVG 1.1//EN" "http://www.w3.org/Graphics/SVG/1.1/DTD/svg11.dtd">
<svg version="1.1" id="Layer_1" xmlns="http://www.w3.org/2000/svg" xmlns:xlink="http://www.w3.org/1999/xlink" x="0px" y="0px"
	 width="187px" height="25px" viewBox="0 0 187 25" enable-background="new 0 0 187 25" xml:space="preserve">
<title>kots-logo</title>
<desc>Created with Sketch.</desc>
<g id="Page-1">
	<g id="New-LANDING" transform="translate(-940.000000, -2396.000000)">
		<g id="Group-12" transform="translate(151.000000, 2396.000000)">
			<g id="kots-logo" transform="translate(789.000000, 0.000000)">
				<g id="font-badge-white">
					<g id="Layer_1_1_">
						<g id="Group">
							<path id="Shape" fill="#545454" d="M5.303,16.667c0,0.828-0.262,1.457-0.783,1.894c-0.523,0.436-1.137,0.651-1.84,0.651
								c-0.727,0-1.35-0.217-1.873-0.651c-0.521-0.437-0.783-1.064-0.783-1.894V3.256c0-0.827,0.262-1.458,0.783-1.893
								C1.331,0.928,1.954,0.711,2.68,0.711c0.703,0,1.316,0.217,1.84,0.652c0.521,0.435,0.783,1.066,0.783,1.893v4.253L9.592,1.58
								C9.889,1.27,10.2,1.032,10.52,0.866s0.693-0.249,1.119-0.249c0.363,0,0.709,0.073,1.041,0.217
								c0.33,0.145,0.623,0.331,0.881,0.559c0.256,0.228,0.457,0.502,0.607,0.823c0.148,0.321,0.223,0.647,0.223,0.978
								c0,0.601-0.201,1.128-0.607,1.583L9.112,9.868l4.672,5.184c0.428,0.476,0.641,1.015,0.641,1.613
								c0,0.353-0.08,0.685-0.238,0.992c-0.16,0.311-0.369,0.579-0.625,0.809c-0.256,0.228-0.551,0.414-0.881,0.56
								c-0.33,0.146-0.666,0.219-1.008,0.219c-0.811,0-1.494-0.332-2.047-0.994l-4.32-5.834v4.252L5.303,16.667L5.303,16.667z"/>
							<path id="Shape_1_" fill="#545454" d="M21.817,16.667c0,0.828-0.264,1.457-0.785,1.894c-0.521,0.436-1.135,0.651-1.84,0.651
								c-0.727,0-1.35-0.217-1.871-0.651c-0.523-0.437-0.785-1.064-0.785-1.894V3.256c0-0.827,0.262-1.458,0.785-1.893
								c0.521-0.435,1.145-0.652,1.871-0.652c0.705,0,1.316,0.217,1.84,0.652c0.524,0.435,0.785,1.066,0.785,1.893V16.667z"/>
							<path id="Shape_2_" fill="#545454" d="M29.624,16.667c0,0.828-0.262,1.457-0.783,1.894c-0.523,0.436-1.146,0.651-1.873,0.651
								c-0.703,0-1.316-0.217-1.84-0.651c-0.521-0.437-0.783-1.064-0.783-1.894V3.256c0-0.827,0.262-1.458,0.783-1.893
								c0.523-0.435,1.137-0.652,1.84-0.652h0.129c0.938,0,1.609,0.383,2.018,1.148l4.799,7.046V3.256
								c0-0.827,0.262-1.458,0.785-1.893c0.521-0.435,1.135-0.652,1.84-0.652c0.725,0,1.348,0.217,1.871,0.652
								c0.521,0.435,0.783,1.066,0.783,1.893v13.41c0,0.828-0.262,1.459-0.783,1.895c-0.523,0.437-1.146,0.65-1.871,0.65
								c-0.363,0-0.672-0.041-0.93-0.123c-0.256-0.084-0.475-0.188-0.654-0.312c-0.182-0.123-0.326-0.248-0.434-0.37
								c-0.105-0.125-0.191-0.229-0.256-0.312l-4.641-6.704V16.667L29.624,16.667z"/>
							<path id="Shape_3_" fill="#545454" d="M55.448,16.667c0,0.808-0.256,1.438-0.77,1.894c-0.512,0.457-1.15,0.684-1.92,0.684
								h-1.92c-1.578,0-2.965-0.264-4.16-0.793c-1.193-0.527-2.189-1.215-2.99-2.062c-0.801-0.847-1.398-1.82-1.793-2.918
								s-0.592-2.224-0.592-3.383c0-1.18,0.207-2.328,0.623-3.445c0.416-1.118,1.035-2.121,1.857-3.011
								c0.818-0.889,1.854-1.603,3.104-2.142c1.248-0.538,2.703-0.807,4.367-0.807h1.504c0.449,0,0.838,0.073,1.168,0.217
								c0.332,0.145,0.609,0.341,0.832,0.59c0.225,0.249,0.396,0.528,0.514,0.838c0.115,0.311,0.176,0.632,0.176,0.962
								c0,0.331-0.061,0.652-0.176,0.962c-0.117,0.31-0.289,0.59-0.514,0.838c-0.223,0.249-0.5,0.445-0.832,0.59
								c-0.33,0.145-0.719,0.217-1.168,0.217h-1.92c-0.746,0-1.391,0.114-1.936,0.341c-0.545,0.228-1.004,0.533-1.375,0.916
								c-0.375,0.383-0.652,0.817-0.832,1.303c-0.184,0.487-0.273,0.989-0.273,1.506c0,0.476,0.08,0.942,0.24,1.396
								c0.16,0.456,0.395,0.875,0.705,1.257c0.309,0.383,0.697,0.702,1.168,0.961c0.469,0.26,1.012,0.42,1.631,0.481v-3.012
								c0-0.828,0.262-1.459,0.785-1.894c0.521-0.435,1.145-0.652,1.871-0.652c0.705,0,1.316,0.217,1.84,0.652
								c0.521,0.435,0.785,1.066,0.785,1.894v5.622h0.001V16.667z"/>
							<path id="Shape_4_" fill="#545454" d="M71.098,11.813c0.088,0.021,0.176,0.021,0.242,0.021c1.012,0,2.441-0.641,3.389-1.281
								l0.197,0.577c-0.836,0.875-2.289,1.516-3.873,1.771c-0.352,3.972-2.572,6.468-5.279,6.468c-2.047,0-3.521-0.938-3.521-3.371
								c0-2.455,1.496-7.537,6.029-7.537C70.153,8.462,71.077,9.593,71.098,11.813z M69.206,12.966
								c-0.461-0.107-0.594-0.471-0.594-0.896c0-0.599,0.287-0.982,0.684-1.131c-0.045-0.875-0.287-1.195-0.838-1.195
								c-1.561,0-2.926,3.8-2.926,5.892c0,1.408,0.287,1.729,1.123,1.729C67.733,17.365,68.875,15.484,69.206,12.966z"/>
							<path id="Shape_5_" fill="#545454" d="M79.61,6.435c0.021-0.213,0.045-0.384,0.045-0.577c0-0.491-0.396-0.726-0.836-0.726
								c-0.484,0-1.232,0.32-1.541,1.75l-0.373,1.687h1.604l-0.152,0.854h-1.629l-2.53,11.528c-0.66,3.053-2.486,3.629-3.939,3.629
								c-1.342,0-2.596-0.918-2.596-2.307c0-1.965,1.693-2.584,3.785-3.203L74.11,6.883c0.66-3.053,2.553-3.629,4.004-3.629
								c1.342,0,2.598,0.918,2.598,2.305c0,0.342-0.021,0.619-0.066,0.875L79.61,6.435L79.61,6.435z M69.752,22.68
								c0.461,0,0.967-0.406,1.254-1.666l0.285-1.238c-1.385,0.449-2.42,1.049-2.42,2.199C68.874,22.273,69.268,22.68,69.752,22.68z
								"/>
							<path id="Shape_6_" fill="#545454" d="M88.295,5.196l-0.748,3.373h1.32l-0.178,0.854h-1.32l-1.408,6.403
								c-0.064,0.277-0.088,0.492-0.088,0.684c0,0.6,0.287,0.791,0.902,0.791c0.857,0,1.65-0.812,1.98-1.879h0.924
								c-1.254,3.479-3.434,3.947-4.619,3.947c-1.32,0-2.355-0.768-2.355-2.561c0-0.406,0.066-0.875,0.176-1.39l1.32-6h-0.727
								l0.178-0.854h0.725l0.66-2.946L88.295,5.196z"/>
							<path id="Shape_7_" fill="#545454" d="M94.323,10.426c-0.793,0-1.387,0.896-1.717,1.964l-1.496,6.854h-3.168l3.189-14.516
								L94.387,4.3L93.2,9.679c0.923-1.024,1.892-1.195,2.573-1.195c1.406,0,2.441,0.704,2.441,2.412
								c0,1.729-1.057,4.312-1.057,5.506c0,0.535,0.221,0.896,0.881,0.896c0.967,0,1.361-0.768,1.848-1.879h0.926
								c-1.231,3.502-2.928,3.949-4.094,3.949c-1.914,0-2.598-1.195-2.598-2.412c0-1.451,0.988-4.076,0.988-5.442
								C95.113,10.811,94.85,10.426,94.323,10.426z"/>
							<path id="Shape_8_" fill="#545454" d="M102.855,15.591c0,0.854,0.265,1.75,1.363,1.75c0.836,0,1.893-0.532,2.598-1.131
								c-0.463,2.435-2.047,3.158-3.809,3.158c-2.045,0-3.41-0.979-3.41-3.394c0-2.436,1.432-7.515,5.941-7.515
								c1.957,0,2.42,0.982,2.42,2.049c0,2.434-2.42,4.271-5.062,4.419C102.877,15.143,102.855,15.357,102.855,15.591z
								 M105.715,9.593c-1.1,0-2.201,2.307-2.662,4.313c1.717-0.086,3.213-1.688,3.213-3.438
								C106.266,9.936,106.133,9.593,105.715,9.593z"/>
							<path id="Shape_9_" fill="#545454" d="M127.917,13.684c0,3.707-1.858,5.561-5.58,5.561h-4.92
								c-1.58,0-2.371-0.777-2.371-2.328v-0.088c0.041-1.609,0.843-2.414,2.399-2.414h5.16c0.34,0,0.59-0.094,0.75-0.275
								c0.158-0.186,0.24-0.385,0.24-0.598s-0.082-0.412-0.24-0.598c-0.16-0.186-0.41-0.275-0.75-0.275h-2.551
								c-3.52,0-5.279-1.755-5.279-5.268c0-3.705,1.882-5.558,5.642-5.558h3.959c1.58,0,2.371,0.776,2.371,2.328v0.087
								c-0.041,1.61-0.84,2.415-2.399,2.415h-4.261c-0.34,0-0.59,0.092-0.75,0.276c-0.16,0.185-0.239,0.383-0.239,0.597
								s0.079,0.413,0.239,0.597c0.16,0.185,0.41,0.276,0.75,0.276h2.552C126.157,8.417,127.917,10.173,127.917,13.684z"/>
							<path id="Shape_10_" fill="#545454" d="M137.907,16.828c0,0.775-0.246,1.367-0.736,1.773c-0.489,0.407-1.073,0.61-1.754,0.61
								c-0.66,0-1.235-0.203-1.726-0.61c-0.489-0.406-0.735-0.998-0.735-1.773V6.671h-1.74c-0.776,0-1.389-0.237-1.829-0.713
								c-0.438-0.475-0.658-1.042-0.658-1.702c0-0.66,0.223-1.227,0.658-1.703c0.44-0.475,1.053-0.713,1.829-0.713h8.371
								c0.779,0,1.392,0.238,1.83,0.713c0.438,0.476,0.66,1.043,0.66,1.703c0,0.66-0.222,1.227-0.66,1.702
								c-0.44,0.476-1.051,0.713-1.83,0.713h-1.68V16.828L137.907,16.828z"/>
							<path id="Shape_11_" fill="#545454" d="M151.497,15.869h-5.312l-0.75,1.859c-0.221,0.543-0.522,0.938-0.914,1.182
								c-0.393,0.24-0.813,0.361-1.272,0.361c-0.342,0-0.666-0.054-0.978-0.16c-0.312-0.104-0.598-0.262-0.854-0.465
								c-0.263-0.205-0.465-0.439-0.615-0.713c-0.149-0.271-0.225-0.582-0.225-0.933s0.067-0.668,0.209-0.959l5.909-12.659
								c0.261-0.543,0.609-0.95,1.052-1.222c0.438-0.271,0.89-0.408,1.351-0.408c0.459,0,0.903,0.136,1.334,0.408
								c0.432,0.272,0.756,0.679,0.979,1.222l5.43,12.659c0.141,0.291,0.211,0.608,0.211,0.959c0,0.33-0.076,0.638-0.228,0.918
								c-0.147,0.281-0.354,0.522-0.612,0.728c-0.263,0.205-0.551,0.358-0.871,0.469c-0.32,0.104-0.642,0.158-0.959,0.158
								c-0.461,0-0.893-0.121-1.291-0.363c-0.4-0.242-0.699-0.637-0.9-1.18L151.497,15.869z M147.747,12.083h2.397l-1.108-3.115
								L147.747,12.083z"/>
							<path id="Shape_12_" fill="#545454" d="M167.275,6.729c-0.698,0-1.307,0.107-1.813,0.32c-0.51,0.214-0.938,0.5-1.291,0.858
								c-0.351,0.359-0.608,0.767-0.778,1.222c-0.17,0.456-0.256,0.927-0.256,1.412s0.086,0.96,0.256,1.425
								c0.17,0.467,0.434,0.879,0.778,1.238c0.351,0.356,0.781,0.647,1.291,0.871c0.511,0.225,1.104,0.334,1.785,0.334h1.83
								c0.42,0,0.782,0.067,1.094,0.205c0.312,0.137,0.57,0.319,0.781,0.553c0.209,0.231,0.362,0.496,0.465,0.787
								c0.101,0.289,0.149,0.58,0.149,0.871c0,0.62-0.211,1.18-0.631,1.674c-0.422,0.494-1.041,0.742-1.858,0.742h-1.802
								c-1.479,0-2.778-0.248-3.899-0.742c-1.119-0.494-2.056-1.14-2.806-1.937c-0.75-0.795-1.311-1.707-1.682-2.733
								c-0.369-1.027-0.555-2.084-0.555-3.171c0-1.106,0.193-2.183,0.586-3.23c0.391-1.048,0.969-1.988,1.74-2.823
								c0.77-0.834,1.738-1.503,2.908-2.008c1.172-0.505,2.535-0.757,4.096-0.757h1.41c0.42,0,0.783,0.068,1.096,0.204
								c0.311,0.136,0.57,0.32,0.779,0.553c0.211,0.232,0.369,0.495,0.479,0.786c0.111,0.291,0.166,0.592,0.166,0.902
								c0,0.311-0.055,0.611-0.166,0.902c-0.107,0.291-0.27,0.553-0.479,0.786s-0.473,0.417-0.779,0.553
								c-0.312,0.136-0.676,0.204-1.096,0.204L167.275,6.729L167.275,6.729z"/>
							<path id="Shape_13_" fill="#545454" d="M178.254,16.828c0,0.775-0.244,1.367-0.732,1.773c-0.489,0.407-1.065,0.61-1.727,0.61
								c-0.68,0-1.268-0.203-1.756-0.61c-0.49-0.406-0.734-0.998-0.734-1.773V4.256c0-0.776,0.244-1.368,0.734-1.775
								c0.488-0.407,1.076-0.611,1.756-0.611c0.66,0,1.232,0.204,1.727,0.611c0.488,0.408,0.732,1,0.732,1.775v3.986l4.021-5.558
								c0.279-0.291,0.566-0.514,0.871-0.669c0.299-0.155,0.646-0.233,1.049-0.233c0.341,0,0.664,0.068,0.976,0.204
								c0.312,0.136,0.586,0.311,0.826,0.524c0.239,0.214,0.43,0.471,0.569,0.771c0.14,0.301,0.209,0.606,0.209,0.917
								c0,0.562-0.188,1.058-0.569,1.484l-4.379,4.772l4.379,4.858c0.399,0.446,0.601,0.951,0.601,1.514
								c0,0.33-0.072,0.641-0.226,0.932c-0.149,0.291-0.345,0.543-0.584,0.758c-0.24,0.215-0.517,0.389-0.826,0.523
								s-0.625,0.203-0.942,0.203c-0.763,0-1.4-0.311-1.922-0.932l-4.05-5.472v3.986h-0.002L178.254,16.828L178.254,16.828z"/>
						</g>
					</g>
				</g>
			</g>
		</g>
	</g>
</g>
</svg>
