<?xml version="1.0" encoding="UTF-8"?>
<svg width="21px" height="15px" viewBox="0 0 21 15" version="1.1" xmlns="http://www.w3.org/2000/svg" xmlns:xlink="http://www.w3.org/1999/xlink">
    <!-- Generator: Sketch 41.2 (35397) - http://www.bohemiancoding.com/sketch -->
    <title>mail</title>
    <desc>Created with Sketch.</desc>
    <defs></defs>
    <g id="Page-1" stroke="none" stroke-width="1" fill="none" fill-rule="evenodd">
        <g id="Desktop" transform="translate(-697.000000, -2564.000000)" fill="#545454">
            <g id="Group-12" transform="translate(151.000000, 2396.000000)">
                <g id="Group-13" transform="translate(540.000000, 159.000000)">
                    <path d="M7.41481763,11.5201439 L14.6730742,17.8352413 C15.5044374,18.5584405 16.7598249,18.5645461 17.5911882,17.8425575 L24.864235,11.5201439 L24.864235,21.4976083 C24.864235,21.901684 24.5609545,22.2049645 24.1568262,22.2049645 L8.12222644,22.2049645 C7.7180981,22.2049645 7.41481763,21.901684 7.41481763,21.4976083 L7.41481763,11.5201439 Z M8.29907864,10.4148176 L23.979974,10.4148176 L16.6627141,16.7741281 C16.3139047,17.0769875 15.9495155,17.076777 15.6016009,16.7741281 L8.29907864,10.4148176 Z M8.12222644,9 C6.95873895,9 6,9.95873895 6,11.1222264 L6,21.4976083 C6,22.6609905 6.95873895,23.6197821 8.12222644,23.6197821 L24.1568262,23.6197821 C25.3203137,23.6197821 26.279,22.6609905 26.279,21.4976083 L26.279,11.1222264 C26.279,9.95873895 25.3203137,9 24.1568262,9 L8.12222644,9 Z" id="mail"></path>
                </g>
            </g>
        </g>
    </g>
</svg>