<?xml version="1.0" encoding="UTF-8"?>
<svg width="182px" height="39px" viewBox="0 0 182 39" version="1.1" xmlns="http://www.w3.org/2000/svg" xmlns:xlink="http://www.w3.org/1999/xlink">
    <!-- Generator: Sketch 41.2 (35397) - http://www.bohemiancoding.com/sketch -->
    <title>microsoft</title>
    <desc>Created with Sketch.</desc>
    <defs>
        <polygon id="path-1" points="0 38.9461765 181.955292 38.9461765 181.955292 0 0 0"></polygon>
    </defs>
    <g id="Page-1" stroke="none" stroke-width="1" fill="none" fill-rule="evenodd">
        <g id="Desktop" transform="translate(-693.000000, -1901.000000)">
            <g id="logos" transform="translate(234.000000, 1897.000000)">
                <g id="microsoft" transform="translate(459.000000, 4.000000)">
                    <path d="M71.6694174,13.1764765 L71.6694174,31.1337706 L75.6737694,31.1337706 L75.6737694,7.79800588 L70.1317462,7.79800588 L63.0870789,25.1311235 L56.2508139,7.79800588 L50.4829629,7.79800588 L50.4829629,31.1337706 L54.2459977,31.1337706 L54.2459977,13.1747118 L54.3753691,13.1747118 L61.5942917,31.1337706 L64.4341253,31.1337706 L71.5402221,13.1764765 L71.6694174,13.1764765 Z M81.4592221,7.28606471 C80.8135973,7.28606471 80.2503478,7.5063 79.7876031,7.94324118 C79.3229222,8.38124118 79.0870615,8.93271176 79.0870615,9.58353529 C79.0870615,10.2241235 79.320106,10.7653588 79.7800344,11.1917118 C80.2373226,11.6168294 80.8023323,11.8323 81.4592221,11.8323 C82.1161118,11.8323 82.6832337,11.6168294 83.1459783,11.1924176 C83.6118913,10.7653588 83.847752,10.2241235 83.847752,9.58353529 C83.847752,8.95547647 83.6182279,8.40947647 83.165164,7.96071176 C82.7128043,7.51300588 82.1386418,7.28606471 81.4592221,7.28606471 Z M79.4572221,31.1337706 L83.381135,31.1337706 L83.381135,14.4103588 L79.4572221,14.4103588 L79.4572221,31.1337706 Z M95.0826437,14.0073 C93.2828855,14.0073 91.6770963,14.3943 90.3112162,15.1573588 C88.9426959,15.9218294 87.8843149,17.0134765 87.1642356,18.4015941 C86.4475006,19.7865353 86.0836766,21.4040647 86.0836766,23.2077706 C86.0836766,24.7878882 86.4364116,26.2381235 87.1337849,27.5159471 C87.8318623,28.7960647 88.8198371,29.7975353 90.070075,30.4921235 C91.3185528,31.1858294 92.7618797,31.5377118 94.3597482,31.5377118 C96.2242801,31.5377118 97.81634,31.1637706 99.0928043,30.4268294 L99.1443768,30.3970059 L99.1443768,26.7929471 L98.9794503,26.9136529 C98.4012395,27.3357706 97.7552627,27.6728294 97.0596495,27.9158294 C96.3663246,28.1584765 95.734077,28.2811235 95.1799803,28.2811235 C93.6401969,28.2811235 92.4042162,27.7979471 91.5070654,26.8460647 C90.6078023,25.8924176 90.1519222,24.5537118 90.1519222,22.8687706 C90.1519222,21.1732412 90.62734,19.8001235 91.5644464,18.7868294 C92.4983845,17.7763588 93.7368294,17.2640647 95.2445779,17.2640647 C96.5340673,17.2640647 97.7909938,17.7020647 98.9801544,18.5665941 L99.1443768,18.6864176 L99.1443768,14.8889471 L99.0912201,14.8589471 C98.6437888,14.6078294 98.0337191,14.4006529 97.2759725,14.2434176 C96.5217462,14.0865353 95.7838894,14.0073 95.0826437,14.0073 Z M106.033446,17.3064176 L106.033446,14.4103588 L102.109533,14.4103588 L102.109533,31.1337706 L106.033446,31.1337706 L106.033446,22.5790059 C106.033446,21.1243588 106.362067,19.9294765 107.011212,19.0266529 C107.652261,18.1349471 108.506288,17.6830059 109.549003,17.6830059 C109.902267,17.6830059 110.299005,17.7414176 110.728835,17.8570059 C111.154089,17.9718882 111.462116,18.0966529 111.64394,18.2277706 L111.808514,18.3475941 L111.808514,14.3815941 L111.744973,14.3542412 C111.379564,14.1985941 110.862783,14.1200647 110.208709,14.1200647 C109.222671,14.1200647 108.340129,14.4375353 107.584495,15.0629471 C106.921092,15.6128294 106.44145,16.3665353 106.074634,17.3064176 L106.033446,17.3064176 Z M120.90253,14.0073 C118.151056,14.0073 115.966352,14.8153588 114.409671,16.4090647 C112.85299,18.0031235 112.063032,20.2088294 112.063032,22.9658294 C112.063032,25.5851824 112.834156,27.6903 114.353522,29.2245353 C115.873415,30.7598294 117.941245,31.5373588 120.499982,31.5373588 C123.165737,31.5373588 125.307845,30.7180059 126.864878,29.1022412 C128.421031,27.4880647 129.21046,25.3033588 129.21046,22.6107706 C129.21046,19.9513588 128.469963,17.8294765 127.00921,16.3051235 C125.547754,14.7804176 123.492949,14.0073 120.90253,14.0073 Z M120.725282,28.2813 C119.283715,28.2813 118.146831,27.8018294 117.345785,26.8577118 C116.539634,25.9086529 116.131982,24.5563588 116.131982,22.8370059 C116.131982,21.0636529 116.539986,19.6758882 117.346841,18.7100647 C118.147535,17.7507706 119.273154,17.2638882 120.693247,17.2638882 C122.07004,17.2638882 123.166441,17.7288882 123.951998,18.6467118 C124.741251,19.5693 125.141686,20.9461235 125.141686,22.7401235 C125.141686,24.5563588 124.765013,25.9513588 124.022052,26.8845353 C123.284723,27.8106529 122.176002,28.2813 120.725282,28.2813 Z M137.47421,14.0073 C135.603342,14.0073 134.055638,14.4871235 132.873342,15.4331824 C131.683829,16.3848882 131.080624,17.6330647 131.080624,19.1434765 C131.080624,19.9285941 131.210876,20.6260059 131.466978,21.2173588 C131.725193,21.8111824 132.12422,22.3335353 132.654027,22.7718882 C133.180313,23.2068882 133.992448,23.6627118 135.068783,24.1261235 C135.973326,24.4993588 136.64817,24.8152412 137.076415,25.0640647 C137.495508,25.3077706 137.792798,25.5530647 137.960717,25.7916529 C138.123884,26.0254765 138.206787,26.3450647 138.206787,26.7398294 C138.206787,27.8634176 137.367545,28.4099471 135.640833,28.4099471 C135.000313,28.4099471 134.269497,28.2760059 133.469154,28.0114765 C132.668108,27.7474765 131.920042,27.3678882 131.245199,26.8810059 L131.080624,26.7625941 L131.080624,30.5965941 L131.140998,30.6248294 C131.703191,30.8849471 132.411653,31.1043 133.246671,31.2768882 C134.080456,31.4496529 134.837675,31.5377118 135.496149,31.5377118 C137.526135,31.5377118 139.161143,31.0554176 140.354,30.1038882 C141.554953,29.1456529 142.163439,27.8680059 142.163439,26.3051824 C142.163439,25.1778882 141.835698,24.2110059 141.190073,23.4313588 C140.549025,22.6580647 139.436079,21.9483 137.883622,21.3205941 C136.646762,20.8229471 135.854692,20.4098294 135.527655,20.0928882 C135.212764,19.7865353 135.052942,19.3533 135.052942,18.8046529 C135.052942,18.3183 135.250255,17.9288294 135.655619,17.6131235 C136.064326,17.2958294 136.63268,17.1347118 137.345895,17.1347118 C138.007713,17.1347118 138.685021,17.2393588 139.358456,17.4447706 C140.031539,17.6501824 140.622599,17.9251235 141.115795,18.2616529 L141.278081,18.3728294 L141.278081,14.7359471 L141.215947,14.7091235 C140.760419,14.5132412 140.160559,14.3459471 139.431326,14.2098882 C138.705263,14.0754176 138.046965,14.0073 137.47421,14.0073 Z M152.717679,14.0073 C149.967085,14.0073 147.782381,14.8153588 146.22482,16.4090647 C144.668139,18.0031235 143.878885,20.2088294 143.878885,22.9658294 C143.878885,25.5841235 144.649305,27.6903 146.169023,29.2245353 C147.688564,30.7598294 149.756746,31.5373588 152.315483,31.5373588 C154.981942,31.5373588 157.122994,30.7180059 158.680203,29.1022412 C160.236884,27.4880647 161.025961,25.3033588 161.025961,22.6107706 C161.025961,19.9513588 160.285816,17.8294765 158.825063,16.3051235 C157.363959,14.7804176 155.308802,14.0073 152.717679,14.0073 Z M152.541135,28.2813 C151.099216,28.2813 149.962684,27.8018294 149.161286,26.8577118 C148.355487,25.9086529 147.947131,24.5558294 147.947131,22.8370059 C147.947131,21.0636529 148.355487,19.6758882 149.16199,18.7100647 C149.963388,17.7507706 151.089183,17.2638882 152.508748,17.2638882 C153.885893,17.2638882 154.982294,17.7288882 155.767499,18.6467118 C156.557104,19.5693 156.957187,20.9461235 156.957187,22.7401235 C156.957187,24.5563588 156.580866,25.9513588 155.837905,26.8845353 C155.100576,27.8106529 153.991503,28.2813 152.541135,28.2813 Z M181.955257,17.6185941 L181.955257,14.4103588 L177.981532,14.4103588 L177.981532,9.42259412 L177.84776,9.46388824 L174.115352,10.6086529 L174.041777,10.6312412 L174.041777,14.4103588 L168.150715,14.4103588 L168.150715,12.3052412 C168.150715,11.3249471 168.369326,10.5747706 168.800212,10.0744765 C169.228106,9.58000588 169.840464,9.32871176 170.62074,9.32871176 C171.181878,9.32871176 171.763257,9.46141765 172.347628,9.72294706 L172.494073,9.78841765 L172.494073,6.40953529 L172.425251,6.3843 C171.879779,6.18753529 171.137874,6.08871176 170.218193,6.08871176 C169.059307,6.08871176 168.006031,6.34141765 167.087758,6.84259412 C166.168429,7.34447647 165.445533,8.06094706 164.939489,8.97188824 C164.434501,9.88177059 164.17875,10.9326529 164.17875,12.0955941 L164.17875,14.4103588 L161.411611,14.4103588 L161.411611,17.6185941 L164.17875,17.6185941 L164.17875,31.1343 L168.150715,31.1343 L168.150715,17.6185941 L174.041777,17.6185941 L174.041777,26.2075941 C174.041777,29.7449471 175.706003,31.5377118 178.987988,31.5377118 C179.527475,31.5377118 180.094949,31.4741824 180.674568,31.3499471 C181.264572,31.2227118 181.666415,31.0953 181.90298,30.9595941 L181.955257,30.9287118 L181.955257,27.6906529 L181.793675,27.7977706 C181.578056,27.9421235 181.309632,28.0596529 180.99474,28.1470059 C180.678793,28.2361235 180.414769,28.2809471 180.210239,28.2809471 C179.441228,28.2809471 178.872522,28.0730647 178.519435,27.6633 C178.162651,27.2496529 177.981532,26.5259471 177.981532,25.5142412 L177.981532,17.6185941 L181.955257,17.6185941 Z" id="Fill-1" fill="#777777"></path>
                    <mask id="mask-2" fill="white">
                        <use xlink:href="#path-1"></use>
                    </mask>
                    <g id="Clip-4"></g>
                    <polygon id="Fill-3" fill="#F35325" mask="url(#mask-2)" points="0 18.5061176 18.4583907 18.5061176 18.4583907 0 0 0"></polygon>
                    <polygon id="Fill-5" fill="#81BC06" mask="url(#mask-2)" points="20.3804797 18.5061176 38.8385184 18.5061176 38.8385184 0 20.3804797 0"></polygon>
                    <polygon id="Fill-6" fill="#05A6F0" mask="url(#mask-2)" points="0 38.9461765 18.4578627 38.9461765 18.4578627 20.4402353 0 20.4402353"></polygon>
                    <polygon id="Fill-7" fill="#FFBA07" mask="url(#mask-2)" points="20.3804797 38.9461765 38.8385184 38.9461765 38.8385184 20.4402353 20.3804797 20.4402353"></polygon>
                </g>
            </g>
        </g>
    </g>
</svg>