<?xml version="1.0" encoding="utf-8"?>
<!-- Generator: Adobe Illustrator 16.0.0, SVG Export Plug-In . SVG Version: 6.00 Build 0)  -->
<!DOCTYPE svg PUBLIC "-//W3C//DTD SVG 1.1//EN" "http://www.w3.org/Graphics/SVG/1.1/DTD/svg11.dtd">
<svg version="1.1" id="Layer_1" xmlns="http://www.w3.org/2000/svg" xmlns:xlink="http://www.w3.org/1999/xlink" x="0px" y="0px"
	 width="230px" height="102.814px" viewBox="75.398 0 230 102.814" enable-background="new 75.398 0 230 102.814"
	 xml:space="preserve">
<g>
	<path fill="#5A666D" d="M83.238,54.214c0.32-1.013,0.854-1.76,1.6-2.24s1.52-0.721,2.32-0.721c0.48,0,1.173,0.08,2.08,0.24
		c0.906,0.16,1.826,0.388,2.76,0.68c0.933,0.295,1.732,0.668,2.4,1.121c0.666,0.453,0.973,1,0.92,1.64
		c0,0.534-0.094,1.107-0.28,1.72c-0.188,0.613-0.308,1.268-0.36,1.96c-0.16,3.308,0.667,6.015,2.48,8.12
		c1.812,2.107,4.213,3.16,7.2,3.16c1.333,0,2.64-0.213,3.92-0.641c1.28-0.426,2.413-1.039,3.4-1.84c0.986-0.8,1.8-1.76,2.44-2.879
		c0.64-1.121,1.012-2.373,1.12-3.761c0.053-1.066-0.12-2.08-0.52-3.04c-0.4-0.96-0.894-1.946-1.48-2.96
		c-1.333-2.239-3.08-4.12-5.24-5.64c-2.16-1.521-4.414-3.026-6.76-4.521c-2.347-1.492-4.587-3.132-6.72-4.92
		c-2.134-1.786-3.814-4.04-5.04-6.76c-0.908-2.24-1.308-4.373-1.2-6.4c0.053-1.653,0.48-3.2,1.28-4.64
		c0.8-1.44,1.986-2.72,3.56-3.84c1.572-1.12,3.52-2.026,5.84-2.72c2.32-0.692,5.08-1.12,8.28-1.28c2.346,0,4.613,0.333,6.8,1
		c2.186,0.667,4.106,1.6,5.76,2.8c1.653,1.2,2.96,2.64,3.92,4.32c0.96,1.68,1.386,3.56,1.28,5.64c-0.054,1.014-0.28,1.947-0.68,2.8
		c-0.4,0.854-0.88,1.6-1.44,2.24s-1.174,1.134-1.84,1.48c-0.667,0.348-1.32,0.52-1.96,0.52c-0.694,0-1.548-0.106-2.56-0.32
		c-1.014-0.213-2.014-0.52-3-0.92c-0.988-0.4-1.868-0.866-2.64-1.4c-0.774-0.532-1.24-1.092-1.4-1.68c0-0.426,0.12-0.812,0.36-1.16
		c0.24-0.346,0.506-0.746,0.8-1.2c0.292-0.452,0.612-0.96,0.96-1.52c0.346-0.56,0.652-1.292,0.92-2.2
		c-0.428-0.693-1.147-1.292-2.16-1.8c-1.014-0.506-2.32-0.76-3.92-0.76c-0.908,0-1.854,0.08-2.84,0.24
		c-0.988,0.16-1.88,0.428-2.68,0.8c-0.8,0.374-1.467,0.827-2,1.36c-0.534,0.534-0.828,1.147-0.88,1.84
		c0,0.694,0.186,1.374,0.56,2.04c0.372,0.667,1.012,1.4,1.92,2.2c0.906,0.8,2.092,1.708,3.56,2.72c1.466,1.014,3.24,2.24,5.32,3.68
		c3.413,2.56,6.292,4.774,8.64,6.64c2.346,1.867,4.24,3.614,5.68,5.24c1.44,1.627,2.466,3.24,3.08,4.84
		c0.613,1.6,0.866,3.414,0.76,5.44c-0.107,2.134-0.76,4.28-1.96,6.44c-1.2,2.16-2.854,4.094-4.96,5.799
		c-2.108,1.708-4.588,3.107-7.44,4.201c-2.854,1.092-5.987,1.64-9.4,1.64c-2.88,0-5.614-0.56-8.2-1.681
		c-2.588-1.119-4.854-2.6-6.8-4.439c-1.947-1.84-3.466-3.946-4.56-6.32c-1.092-2.372-1.586-4.812-1.48-7.32
		c0-0.531,0.054-1.039,0.16-1.52C83.026,55.253,83.132,54.748,83.238,54.214z"/>
	<path fill="#5A666D" d="M158.438,81.894c-0.32,1.066-0.56,2.026-0.72,2.88c-0.16,0.853-0.348,1.692-0.56,2.521
		c-0.213,0.826-0.467,1.666-0.76,2.52c-0.294,0.853-0.708,1.812-1.24,2.88c-0.427,0.747-0.96,1.347-1.6,1.8
		c-0.64,0.453-1.494,0.76-2.56,0.92c-0.908,0.213-1.948,0.293-3.12,0.24c-1.174-0.054-2.134-0.293-2.88-0.72
		c-0.64-0.32-1.174-0.747-1.6-1.28c-0.428-0.533-0.667-1.174-0.72-1.92c0.053-1.494,0.227-3.147,0.52-4.96
		c0.292-1.813,0.586-3.694,0.88-5.64c0.292-1.947,0.56-3.881,0.8-5.801c0.24-1.92,0.333-3.732,0.28-5.439
		c-0.854,1.334-1.854,2.4-3,3.199c-1.147,0.801-2.414,1.201-3.8,1.201c-3.04,0-5.494-0.787-7.36-2.36s-3.253-3.8-4.16-6.681
		c-0.692-2.132-0.906-4.439-0.64-6.92c0.268-2.479,0.92-4.826,1.96-7.039s2.44-4.173,4.2-5.88c1.76-1.707,3.812-2.88,6.16-3.52
		c0.8-0.212,1.652-0.306,2.56-0.28c0.906,0.028,1.68,0.147,2.32,0.36c-0.428-1.386-0.56-2.48-0.4-3.28
		c0.16-0.8,0.88-1.146,2.16-1.04c1.546,0.107,2.893,0.52,4.04,1.24c1.146,0.72,2.066,1.534,2.76,2.44
		c0.426,1.014,0.786,2.12,1.08,3.32c0.292,1.2,0.572,2.388,0.84,3.561c0.266,1.547,0.506,3.387,0.72,5.52
		c0.213,2.134,0.373,4.294,0.48,6.48c0.106,2.188,0.2,4.279,0.28,6.279s0.12,3.641,0.12,4.92c0.586-0.906,1.4-2.186,2.44-3.84
		c1.04-1.652,2.08-3.359,3.12-5.119c1.04-1.761,1.986-3.44,2.84-5.041c0.853-1.6,1.44-2.826,1.76-3.68
		c0.16-0.373,0.28-0.666,0.36-0.88c0.08-0.212,0.172-0.399,0.28-0.56c0.212-0.906,0.56-1.44,1.04-1.601
		c0.48-0.159,0.946-0.12,1.4,0.12c0.453,0.24,0.866,0.561,1.24,0.96c0.373,0.399,0.586,0.708,0.64,0.92
		c0.48,1.28,0.267,2.974-0.64,5.08c-0.908,2.107-2.08,4.479-3.52,7.12s-2.934,5.414-4.48,8.32
		C160.41,76.121,159.238,79.014,158.438,81.894z M144.758,56.294c0-1.547,0-3.146,0-4.801c0-1.652-0.107-3.252-0.32-4.8
		c-0.374-0.052-0.988,0.054-1.84,0.32c-1.12,0.479-2.134,1.374-3.04,2.68c-0.907,1.308-1.627,2.761-2.16,4.36
		c-0.534,1.6-0.868,3.227-1,4.88c-0.134,1.653,0.012,3.094,0.44,4.319c0.532,1.761,1.706,2.641,3.52,2.641
		c0.906,0,1.706-0.252,2.4-0.76c0.692-0.506,1.226-1.133,1.6-1.881L144.758,56.294z"/>
	<path fill="#5A666D" d="M219.157,60.455c-0.427,0.319-1.134,0.493-2.12,0.52c-0.987,0.027-2.174-0.146-3.56-0.52
		c-0.64-0.16-1.308-0.347-2-0.561c-0.694-0.213-1.334-0.48-1.92-0.801c-0.64,3.681-1.72,6.574-3.24,8.681
		c-1.52,2.107-3.12,3.694-4.8,4.761c-1.68,1.066-3.294,1.732-4.84,2c-1.547,0.266-2.72,0.399-3.52,0.399
		c-2.027,0-3.76-0.399-5.2-1.2c-1.44-0.8-2.614-1.812-3.52-3.04c-1.067,0.907-2.147,1.64-3.24,2.2
		c-1.094,0.561-2.134,0.986-3.12,1.279c-0.988,0.293-1.88,0.493-2.68,0.601c-0.8,0.106-1.44,0.16-1.92,0.16
		c-2.08,0-3.814-0.32-5.2-0.96c-1.387-0.641-2.534-1.52-3.44-2.641c-0.906-1.119-1.626-2.452-2.16-4
		c-0.532-1.546-0.986-3.199-1.36-4.959c-0.32-1.812-0.56-3.881-0.72-6.201c-0.16-2.319-0.146-4.56,0.04-6.719
		c0.188-2.16,0.574-4.067,1.16-5.721c0.587-1.652,1.494-2.72,2.72-3.2c0.32-0.106,0.667-0.2,1.04-0.28s0.826-0.066,1.36,0.04
		c0.212,0.054,0.666,0.134,1.36,0.24c0.692,0.107,1.426,0.307,2.2,0.6c0.772,0.294,1.492,0.68,2.16,1.16
		c0.666,0.48,1.132,1.12,1.4,1.92c0.16,0.534,0.04,1.454-0.36,2.76c-0.4,1.307-0.787,2.867-1.16,4.68
		c-0.374,1.814-0.614,3.801-0.72,5.96c-0.107,2.16,0.212,4.36,0.96,6.601c0.373,0.959,0.812,1.787,1.32,2.479
		c0.506,0.694,1.212,1.04,2.12,1.04c0.906,0,1.827-0.199,2.76-0.6c0.933-0.4,1.8-1.026,2.6-1.881c-0.214-0.531-0.36-1.039-0.44-1.52
		c-0.08-0.48-0.174-0.933-0.28-1.359c-0.32-1.973-0.52-3.973-0.6-6s0.106-3.867,0.56-5.521c0.453-1.652,1.2-3.013,2.24-4.08
		c1.04-1.066,2.52-1.6,4.44-1.6c1.333,0,2.413,0.32,3.24,0.96c0.827,0.64,1.466,1.495,1.92,2.56c0.452,1.067,0.72,2.28,0.8,3.64
		c0.08,1.36,0.052,2.734-0.08,4.121c-0.134,1.387-0.348,2.747-0.64,4.08c-0.293,1.333-0.6,2.507-0.92,3.52
		c0.212,0.8,0.48,1.428,0.8,1.88c0.32,0.454,0.732,0.867,1.24,1.239c0.506,0.375,1.16,0.561,1.96,0.561
		c1.066,0,2.106-0.266,3.12-0.8c1.013-0.532,1.906-1.306,2.68-2.32c0.772-1.013,1.386-2.253,1.84-3.72
		c0.453-1.467,0.68-3.133,0.68-5c-1.708-0.692-3.134-1.76-4.28-3.2c-1.147-1.44-1.868-2.853-2.16-4.239
		c-0.293-1.387-0.12-2.613,0.52-3.681c0.64-1.066,1.893-1.6,3.76-1.6c1.76,0,3.2,0.24,4.32,0.72s1.986,1.188,2.6,2.12
		c0.612,0.934,1.013,2.067,1.2,3.399c0.186,1.334,0.226,2.881,0.12,4.641c0.426,0.268,0.92,0.52,1.48,0.76
		c0.56,0.24,1.08,0.439,1.56,0.6c0.747,0.16,1.4,0.148,1.96-0.039c0.561-0.188,1.133-0.201,1.721-0.041
		c1.226,0.588,2.025,1.08,2.399,1.48c0.372,0.4,0.612,0.734,0.72,1c0.32,0.748,0.373,1.334,0.16,1.76
		C219.984,60.001,219.638,60.294,219.157,60.455z"/>
	<path fill="#5A666D" d="M258.676,60.134c0.32,1.174,0.094,2.573-0.68,4.199c-0.773,1.628-1.84,3.201-3.199,4.721
		c-1.36,1.52-2.908,2.813-4.641,3.88c-1.733,1.065-3.373,1.601-4.92,1.601c-2.08,0-3.84-0.4-5.279-1.201
		c-1.44-0.799-2.561-2.292-3.36-4.479c-0.96,2.027-2.254,3.521-3.88,4.479c-1.628,0.961-3.214,1.493-4.76,1.601
		c-2.614,0-4.975-0.708-7.08-2.12c-2.107-1.412-3.666-3.641-4.681-6.68c-0.64-1.867-0.906-3.773-0.8-5.721
		c0.107-1.945,0.48-3.852,1.12-5.72c0.64-1.866,1.521-3.626,2.64-5.28c1.12-1.652,2.373-3.106,3.76-4.359
		c1.387-1.253,2.867-2.24,4.44-2.96c1.573-0.72,3.16-1.08,4.761-1.08c0.586,0,1.159,0.067,1.719,0.2
		c0.561,0.134,1.053,0.28,1.48,0.44l0.32-2.16c0.053-0.32,0.293-0.586,0.72-0.8c0.427-0.212,0.853-0.32,1.28-0.32
		c0.692,0,1.48,0.107,2.359,0.32c0.881,0.214,1.732,0.508,2.561,0.88c0.826,0.374,1.586,0.828,2.279,1.36
		c0.693,0.534,1.201,1.12,1.521,1.76c0.106,0.694,0.106,2.454,0,5.28c-0.107,2.827-0.374,7.067-0.8,12.72
		c-0.107,0.8-0.16,1.601-0.16,2.399c0,0.801,0,1.629,0,2.48c0.213,0.908,0.88,1.36,2,1.36c1.172,0,2.293-0.56,3.359-1.681
		c1.066-1.119,2.16-2.531,3.281-4.239l1.439-2.4c0.373-0.427,0.8-0.64,1.279-0.64c0.427,0,0.826,0.254,1.201,0.76
		C258.329,59.242,258.568,59.708,258.676,60.134z M230.597,66.214c1.12-0.053,1.972-0.28,2.56-0.68
		c0.586-0.4,1.013-0.934,1.28-1.601c0.267-0.667,0.452-1.44,0.56-2.32c0.106-0.88,0.213-1.8,0.32-2.76
		c0.053-2.08,0.133-4.12,0.24-6.12c0.105-2,0.186-4.012,0.24-6.04c-0.374-0.373-1.014-0.506-1.92-0.4
		c-1.389,0.32-2.588,1.147-3.601,2.48c-1.014,1.334-1.813,2.88-2.399,4.64c-0.588,1.76-0.947,3.548-1.08,5.36
		c-0.135,1.813,0.012,3.36,0.439,4.64c0.32,1.068,0.76,1.801,1.32,2.2C229.117,66.014,229.797,66.214,230.597,66.214z"/>
	<path fill="#5A666D" d="M280.355,74.854c-2.133-0.054-3.92-0.548-5.359-1.479c-1.44-0.934-2.708-2.121-3.801-3.561
		c-1.094-1.439-2.066-3.026-2.92-4.76c-0.854-1.732-1.76-3.453-2.72-5.16c-0.16,1.067-0.268,2.134-0.319,3.199
		c-0.055,1.068-0.08,2.108-0.08,3.121c0,0.64,0,1.467,0,2.479c0,1.014-0.094,2-0.281,2.96s-0.533,1.787-1.039,2.48
		c-0.508,0.692-1.32,1.039-2.44,1.039c-0.587,0-1.239-0.199-1.96-0.6c-0.72-0.4-1.414-0.906-2.08-1.52s-1.252-1.28-1.76-2
		c-0.506-0.721-0.84-1.4-1-2.04c-0.641-1.706-0.866-3.44-0.68-5.2c0.188-1.76,0.254-3.52,0.199-5.279
		c0.107-1.812,0.16-3.986,0.16-6.521c0-2.532,0.041-5.2,0.12-8c0.08-2.8,0.228-5.6,0.44-8.4c0.213-2.8,0.574-5.346,1.08-7.64
		c0.508-2.292,1.16-4.227,1.959-5.8c0.801-1.572,1.867-2.52,3.201-2.84c0.799-0.212,1.732-0.212,2.799,0
		c1.066,0.214,2.094,0.574,3.08,1.08c0.986,0.507,1.867,1.134,2.641,1.88c0.772,0.748,1.32,1.547,1.641,2.4
		c0.426,1.228,0.212,2.428-0.641,3.6c-0.641,1.014-1.254,2.374-1.84,4.08c-0.588,1.708-1.107,3.614-1.561,5.72
		c-0.453,2.108-0.84,4.294-1.16,6.56c-0.319,2.268-0.533,4.468-0.64,6.6c1.493-0.105,2.64-0.6,3.44-1.479
		c0.8-0.88,1.506-1.866,2.119-2.96c0.613-1.092,1.293-2.106,2.041-3.04c0.746-0.933,1.812-1.48,3.199-1.64
		c1.174-0.16,2.373-0.08,3.6,0.24c1.066,0.374,1.934,0.894,2.602,1.56c0.666,0.667,1.131,1.347,1.398,2.04
		c0.854,2.561,0.414,4.827-1.318,6.8c-1.734,1.974-4.602,3.653-8.602,5.04c0.641,1.12,1.293,2.214,1.961,3.279
		c0.666,1.068,1.346,2.041,2.039,2.921s1.414,1.587,2.16,2.12s1.521,0.8,2.32,0.8c0.586,0,1.252-0.066,2-0.2
		c0.746-0.133,1.492-0.492,2.24-1.08c0.801-0.692,1.492-1.439,2.08-2.24c0.586-0.8,1.092-1.546,1.52-2.24
		c0.426-0.691,0.787-1.266,1.08-1.719s0.572-0.681,0.84-0.681c0.48,0,1.041,0.134,1.68,0.399c0.641,0.268,1.014,0.694,1.121,1.281
		c0.213,1.174-0.055,2.573-0.801,4.199c-0.746,1.627-1.826,3.2-3.24,4.721c-1.412,1.52-3.039,2.812-4.879,3.879
		S282.275,74.854,280.355,74.854z"/>
</g>
</svg>
