<?xml version="1.0" encoding="utf-8"?>
<!-- Generator: Adobe Illustrator 16.0.0, SVG Export Plug-In . SVG Version: 6.00 Build 0)  -->
<!DOCTYPE svg PUBLIC "-//W3C//DTD SVG 1.1//EN" "http://www.w3.org/Graphics/SVG/1.1/DTD/svg11.dtd">
<svg version="1.1" id="Layer_1" xmlns="http://www.w3.org/2000/svg" xmlns:xlink="http://www.w3.org/1999/xlink" x="0px" y="0px"
	 width="230px" height="102.814px" viewBox="0 0 230 102.814" enable-background="new 0 0 230 102.814" xml:space="preserve">
<g>
	<path fill="#545454" d="M11.246,53.71c0.32-1.013,0.854-1.76,1.6-2.239c0.746-0.48,1.52-0.722,2.32-0.722
		c0.48,0,1.173,0.08,2.08,0.24c0.906,0.16,1.826,0.388,2.76,0.68c0.933,0.295,1.732,0.668,2.4,1.121c0.666,0.453,0.973,1,0.92,1.641
		c0,0.533-0.094,1.106-0.28,1.72c-0.188,0.613-0.308,1.268-0.36,1.96c-0.16,3.308,0.667,6.015,2.48,8.12
		c1.812,2.106,4.213,3.16,7.2,3.16c1.333,0,2.64-0.213,3.92-0.642c1.28-0.426,2.413-1.039,3.4-1.84c0.986-0.8,1.8-1.76,2.44-2.879
		c0.64-1.121,1.012-2.373,1.12-3.761c0.053-1.066-0.12-2.08-0.52-3.04c-0.4-0.96-0.894-1.946-1.48-2.96
		c-1.333-2.239-3.08-4.12-5.24-5.641s-4.414-3.025-6.76-4.521c-2.347-1.492-4.587-3.132-6.72-4.92
		c-2.134-1.786-3.814-4.04-5.04-6.76c-0.908-2.24-1.308-4.373-1.2-6.4c0.053-1.653,0.48-3.2,1.28-4.64
		c0.8-1.44,1.986-2.721,3.56-3.841c1.572-1.119,3.52-2.025,5.84-2.72c2.32-0.691,5.08-1.12,8.28-1.28c2.346,0,4.613,0.333,6.8,1
		c2.187,0.667,4.106,1.601,5.76,2.801c1.653,1.199,2.96,2.64,3.92,4.319c0.96,1.681,1.386,3.561,1.28,5.641
		c-0.055,1.014-0.28,1.946-0.68,2.8c-0.4,0.854-0.881,1.6-1.44,2.24c-0.56,0.64-1.174,1.134-1.84,1.479
		c-0.667,0.349-1.32,0.521-1.96,0.521c-0.694,0-1.549-0.106-2.561-0.32c-1.014-0.213-2.014-0.52-3-0.92
		c-0.988-0.4-1.868-0.866-2.64-1.4c-0.774-0.531-1.24-1.092-1.4-1.68c0-0.426,0.12-0.812,0.36-1.16c0.24-0.346,0.506-0.746,0.8-1.2
		c0.292-0.451,0.612-0.96,0.96-1.52c0.346-0.561,0.652-1.292,0.92-2.2c-0.428-0.693-1.147-1.292-2.16-1.8
		c-1.014-0.506-2.32-0.76-3.92-0.76c-0.908,0-1.854,0.08-2.84,0.239c-0.988,0.16-1.88,0.429-2.68,0.801
		c-0.8,0.374-1.467,0.826-2,1.359c-0.534,0.534-0.828,1.147-0.88,1.84c0,0.694,0.186,1.374,0.56,2.04
		c0.372,0.667,1.012,1.4,1.92,2.2c0.906,0.8,2.092,1.708,3.56,2.72c1.466,1.015,3.24,2.24,5.32,3.681
		c3.413,2.56,6.292,4.773,8.64,6.64c2.346,1.867,4.239,3.614,5.68,5.24c1.44,1.627,2.466,3.24,3.08,4.84
		c0.613,1.6,0.866,3.414,0.761,5.44c-0.107,2.134-0.761,4.279-1.961,6.439c-1.199,2.16-2.854,4.094-4.959,5.799
		c-2.109,1.708-4.589,3.107-7.44,4.201c-2.854,1.092-5.987,1.641-9.4,1.641c-2.88,0-5.614-0.561-8.2-1.682
		c-2.588-1.119-4.854-2.6-6.8-4.438c-1.947-1.841-3.466-3.946-4.56-6.32c-1.092-2.372-1.586-4.812-1.48-7.32
		c0-0.53,0.054-1.039,0.16-1.52C11.034,54.749,11.14,54.244,11.246,53.71z"/>
	<path fill="#545454" d="M86.445,81.39c-0.319,1.065-0.56,2.025-0.72,2.88c-0.159,0.853-0.348,1.691-0.56,2.521
		c-0.213,0.826-0.467,1.666-0.76,2.521c-0.295,0.853-0.709,1.812-1.24,2.88c-0.428,0.747-0.96,1.347-1.6,1.8
		c-0.641,0.453-1.494,0.76-2.561,0.92c-0.908,0.213-1.948,0.293-3.12,0.24c-1.174-0.054-2.134-0.293-2.88-0.72
		c-0.641-0.32-1.174-0.747-1.6-1.28c-0.428-0.533-0.668-1.174-0.721-1.92c0.053-1.494,0.227-3.147,0.521-4.96
		c0.292-1.813,0.586-3.694,0.88-5.641c0.292-1.946,0.561-3.881,0.8-5.801c0.24-1.92,0.333-3.731,0.28-5.438
		c-0.854,1.334-1.854,2.399-3,3.198c-1.146,0.802-2.414,1.201-3.801,1.201c-3.039,0-5.494-0.787-7.359-2.359
		c-1.866-1.573-3.253-3.801-4.16-6.682c-0.691-2.132-0.906-4.438-0.64-6.92c0.268-2.479,0.92-4.826,1.96-7.039
		s2.439-4.173,4.199-5.88c1.761-1.707,3.812-2.88,6.16-3.52c0.801-0.212,1.652-0.307,2.561-0.28c0.906,0.028,1.68,0.146,2.32,0.36
		c-0.428-1.387-0.561-2.48-0.4-3.28s0.88-1.146,2.16-1.04c1.546,0.106,2.893,0.52,4.04,1.24c1.146,0.72,2.065,1.533,2.76,2.439
		c0.426,1.015,0.786,2.12,1.08,3.32c0.292,1.2,0.571,2.388,0.84,3.561c0.267,1.548,0.506,3.388,0.72,5.521
		c0.213,2.134,0.373,4.294,0.48,6.479c0.105,2.188,0.199,4.279,0.279,6.279s0.121,3.641,0.121,4.92
		c0.586-0.906,1.399-2.186,2.439-3.84c1.04-1.652,2.08-3.359,3.12-5.119c1.04-1.761,1.985-3.439,2.84-5.041
		c0.853-1.6,1.44-2.826,1.761-3.68c0.159-0.373,0.279-0.666,0.359-0.88c0.08-0.212,0.172-0.399,0.279-0.561
		c0.213-0.905,0.561-1.439,1.041-1.601c0.479-0.159,0.945-0.12,1.399,0.12c0.453,0.239,0.866,0.561,1.24,0.96
		c0.373,0.398,0.586,0.708,0.64,0.92c0.48,1.28,0.268,2.974-0.64,5.08c-0.908,2.106-2.08,4.479-3.521,7.12
		c-1.439,2.641-2.934,5.414-4.479,8.319C88.418,75.617,87.246,78.51,86.445,81.39z M72.766,55.79c0-1.547,0-3.146,0-4.801
		c0-1.652-0.107-3.252-0.32-4.8c-0.373-0.052-0.987,0.054-1.84,0.32c-1.119,0.479-2.134,1.374-3.039,2.68
		c-0.908,1.308-1.627,2.761-2.16,4.359c-0.535,1.601-0.869,3.228-1,4.881c-0.135,1.652,0.012,3.094,0.439,4.318
		c0.532,1.762,1.706,2.642,3.52,2.642c0.906,0,1.707-0.252,2.4-0.761c0.692-0.506,1.227-1.133,1.6-1.881L72.766,55.79z"/>
	<path fill="#545454" d="M147.165,59.951c-0.427,0.319-1.134,0.493-2.12,0.521c-0.987,0.026-2.174-0.146-3.561-0.521
		c-0.64-0.16-1.308-0.347-2-0.561c-0.693-0.213-1.334-0.48-1.92-0.802c-0.64,3.682-1.72,6.574-3.24,8.682
		c-1.52,2.106-3.119,3.693-4.799,4.761c-1.681,1.066-3.295,1.732-4.841,2c-1.547,0.266-2.72,0.399-3.52,0.399
		c-2.027,0-3.761-0.399-5.2-1.2c-1.439-0.8-2.614-1.812-3.52-3.04c-1.067,0.907-2.147,1.64-3.24,2.2
		c-1.094,0.561-2.135,0.985-3.12,1.278c-0.988,0.293-1.88,0.493-2.681,0.602c-0.799,0.105-1.439,0.16-1.92,0.16
		c-2.08,0-3.813-0.32-5.199-0.96c-1.387-0.642-2.534-1.521-3.44-2.642c-0.905-1.119-1.626-2.452-2.16-4
		c-0.532-1.546-0.985-3.199-1.36-4.959c-0.319-1.812-0.56-3.881-0.719-6.201c-0.16-2.318-0.146-4.56,0.039-6.719
		c0.188-2.16,0.574-4.066,1.16-5.721c0.587-1.652,1.494-2.72,2.721-3.2c0.319-0.106,0.666-0.2,1.039-0.28s0.826-0.065,1.36,0.04
		c0.212,0.055,0.666,0.134,1.36,0.24c0.691,0.107,1.426,0.307,2.199,0.6c0.772,0.294,1.492,0.681,2.16,1.16
		c0.666,0.48,1.133,1.12,1.4,1.92c0.16,0.534,0.04,1.454-0.36,2.761c-0.399,1.307-0.786,2.866-1.159,4.68
		c-0.375,1.813-0.615,3.801-0.721,5.96c-0.107,2.16,0.212,4.36,0.96,6.601c0.373,0.959,0.812,1.787,1.32,2.479
		c0.506,0.694,1.212,1.04,2.12,1.04c0.906,0,1.826-0.199,2.76-0.601c0.934-0.399,1.8-1.025,2.6-1.881
		c-0.214-0.53-0.359-1.039-0.439-1.52s-0.174-0.934-0.28-1.359c-0.319-1.973-0.521-3.973-0.601-6
		c-0.079-2.026,0.106-3.867,0.561-5.521c0.453-1.652,1.2-3.014,2.24-4.08s2.52-1.601,4.439-1.601c1.334,0,2.414,0.32,3.24,0.96
		c0.827,0.641,1.467,1.495,1.92,2.561c0.452,1.066,0.721,2.28,0.801,3.64c0.08,1.36,0.051,2.734-0.08,4.121
		c-0.135,1.387-0.349,2.747-0.641,4.08c-0.293,1.333-0.6,2.507-0.92,3.52c0.212,0.801,0.48,1.429,0.801,1.881
		c0.319,0.454,0.731,0.866,1.239,1.238c0.506,0.375,1.16,0.562,1.96,0.562c1.066,0,2.105-0.267,3.12-0.8
		c1.013-0.532,1.906-1.307,2.681-2.32c0.771-1.013,1.385-2.253,1.84-3.72c0.453-1.468,0.68-3.134,0.68-5
		c-1.708-0.692-3.135-1.761-4.28-3.2c-1.147-1.44-1.868-2.854-2.16-4.239c-0.293-1.387-0.12-2.613,0.521-3.681
		c0.64-1.066,1.893-1.601,3.76-1.601c1.76,0,3.2,0.24,4.32,0.721c1.119,0.479,1.986,1.188,2.6,2.12
		c0.611,0.934,1.014,2.066,1.2,3.398c0.187,1.334,0.226,2.881,0.12,4.641c0.426,0.269,0.92,0.521,1.479,0.761
		c0.56,0.239,1.08,0.438,1.56,0.6c0.748,0.16,1.4,0.148,1.961-0.039s1.133-0.201,1.721-0.041c1.227,0.588,2.025,1.08,2.398,1.48
		c0.373,0.399,0.613,0.733,0.721,1c0.32,0.748,0.373,1.334,0.16,1.76C147.992,59.497,147.646,59.79,147.165,59.951z"/>
	<path fill="#545454" d="M186.684,59.63c0.32,1.175,0.094,2.573-0.68,4.199c-0.773,1.628-1.84,3.201-3.199,4.722
		c-1.359,1.52-2.908,2.812-4.641,3.88c-1.733,1.064-3.373,1.601-4.92,1.601c-2.08,0-3.84-0.4-5.279-1.201
		c-1.439-0.799-2.561-2.292-3.359-4.479c-0.961,2.026-2.255,3.521-3.881,4.479c-1.628,0.961-3.214,1.493-4.76,1.602
		c-2.614,0-4.975-0.708-7.08-2.12c-2.107-1.412-3.666-3.642-4.682-6.681c-0.639-1.866-0.905-3.772-0.799-5.721
		c0.106-1.945,0.479-3.852,1.119-5.72c0.641-1.866,1.521-3.626,2.641-5.28c1.119-1.652,2.373-3.105,3.76-4.358
		c1.387-1.254,2.867-2.24,4.439-2.961c1.574-0.72,3.16-1.079,4.762-1.079c0.586,0,1.158,0.066,1.719,0.199
		c0.561,0.135,1.053,0.28,1.48,0.44l0.319-2.16c0.054-0.32,0.294-0.586,0.72-0.8c0.428-0.212,0.854-0.32,1.28-0.32
		c0.692,0,1.48,0.107,2.359,0.32c0.881,0.214,1.731,0.508,2.562,0.88c0.825,0.374,1.586,0.828,2.278,1.36
		c0.692,0.533,1.201,1.12,1.521,1.76c0.106,0.694,0.106,2.454,0,5.28s-0.373,7.066-0.799,12.72c-0.107,0.8-0.16,1.601-0.16,2.398
		c0,0.802,0,1.63,0,2.48c0.213,0.908,0.879,1.36,2,1.36c1.172,0,2.293-0.561,3.358-1.682c1.065-1.119,2.16-2.53,3.281-4.238
		l1.438-2.4c0.373-0.427,0.801-0.64,1.279-0.64c0.428,0,0.826,0.254,1.201,0.76C186.337,58.738,186.576,59.204,186.684,59.63z
		 M158.605,65.71c1.119-0.053,1.971-0.279,2.56-0.68c0.586-0.4,1.013-0.934,1.28-1.601c0.267-0.667,0.451-1.44,0.56-2.32
		c0.106-0.88,0.213-1.8,0.319-2.76c0.054-2.08,0.134-4.12,0.24-6.12c0.105-2,0.187-4.012,0.24-6.04
		c-0.374-0.373-1.014-0.506-1.92-0.4c-1.389,0.32-2.588,1.147-3.602,2.48c-1.014,1.334-1.812,2.88-2.398,4.64
		c-0.588,1.76-0.947,3.548-1.08,5.36c-0.135,1.812,0.012,3.359,0.439,4.64c0.32,1.068,0.76,1.801,1.32,2.2
		C157.125,65.51,157.805,65.71,158.605,65.71z"/>
	<path fill="#545454" d="M208.363,74.35c-2.133-0.055-3.92-0.548-5.359-1.479c-1.439-0.934-2.708-2.121-3.801-3.561
		c-1.094-1.439-2.066-3.026-2.92-4.76c-0.854-1.732-1.76-3.453-2.721-5.16c-0.16,1.066-0.268,2.134-0.318,3.198
		c-0.055,1.068-0.08,2.108-0.08,3.121c0,0.641,0,1.468,0,2.479c0,1.014-0.094,2-0.281,2.96s-0.533,1.787-1.039,2.479
		c-0.508,0.692-1.32,1.039-2.439,1.039c-0.588,0-1.239-0.198-1.961-0.6c-0.72-0.4-1.414-0.906-2.08-1.521
		c-0.666-0.613-1.252-1.279-1.76-2c-0.506-0.721-0.84-1.399-1-2.039c-0.641-1.706-0.865-3.44-0.68-5.2
		c0.188-1.761,0.254-3.521,0.199-5.279c0.107-1.812,0.16-3.986,0.16-6.521c0-2.532,0.041-5.2,0.119-8
		c0.08-2.801,0.229-5.601,0.44-8.4c0.213-2.8,0.574-5.346,1.08-7.64c0.508-2.292,1.16-4.228,1.959-5.801
		c0.801-1.571,1.867-2.52,3.201-2.84c0.799-0.212,1.731-0.212,2.799,0c1.065,0.214,2.095,0.574,3.08,1.08
		c0.985,0.507,1.867,1.134,2.642,1.88c0.771,0.748,1.319,1.547,1.641,2.4c0.426,1.228,0.212,2.428-0.641,3.6
		c-0.642,1.015-1.255,2.374-1.841,4.08c-0.588,1.708-1.106,3.614-1.562,5.72c-0.452,2.108-0.84,4.294-1.159,6.561
		c-0.319,2.268-0.533,4.468-0.64,6.6c1.492-0.104,2.64-0.6,3.439-1.479c0.8-0.88,1.506-1.866,2.119-2.96
		c0.613-1.092,1.293-2.106,2.041-3.04c0.746-0.934,1.812-1.48,3.199-1.641c1.174-0.159,2.373-0.079,3.6,0.24
		c1.066,0.374,1.934,0.895,2.602,1.561c0.666,0.667,1.131,1.347,1.398,2.04c0.854,2.561,0.414,4.826-1.318,6.8
		c-1.733,1.974-4.602,3.652-8.602,5.04c0.641,1.12,1.293,2.214,1.961,3.278c0.666,1.068,1.346,2.041,2.039,2.922
		c0.693,0.88,1.414,1.587,2.16,2.119c0.746,0.533,1.521,0.801,2.32,0.801c0.586,0,1.252-0.066,2-0.2
		c0.746-0.133,1.492-0.492,2.239-1.08c0.802-0.692,1.492-1.439,2.08-2.24c0.586-0.8,1.093-1.546,1.521-2.24
		c0.426-0.69,0.787-1.266,1.08-1.719s0.571-0.681,0.84-0.681c0.479,0,1.041,0.134,1.68,0.398c0.641,0.269,1.014,0.694,1.121,1.281
		c0.213,1.174-0.055,2.573-0.801,4.199c-0.746,1.627-1.826,3.2-3.24,4.721c-1.412,1.521-3.039,2.812-4.879,3.879
		C212.162,73.815,210.283,74.35,208.363,74.35z"/>
</g>
</svg>
