<?xml version="1.0" encoding="utf-8"?>
<!-- Generator: Adobe Illustrator 16.0.0, SVG Export Plug-In . SVG Version: 6.00 Build 0)  -->
<!DOCTYPE svg PUBLIC "-//W3C//DTD SVG 1.1//EN" "http://www.w3.org/Graphics/SVG/1.1/DTD/svg11.dtd">
<svg version="1.1"
	 id="Layer_1" xmlns:dc="http://purl.org/dc/elements/1.1/" xmlns:rdf="http://www.w3.org/1999/02/22-rdf-syntax-ns#" xmlns:svg="http://www.w3.org/2000/svg" xmlns:sodipodi="http://sodipodi.sourceforge.net/DTD/sodipodi-0.dtd" xmlns:inkscape="http://www.inkscape.org/namespaces/inkscape" xmlns:cc="http://creativecommons.org/ns#"
	 xmlns="http://www.w3.org/2000/svg" xmlns:xlink="http://www.w3.org/1999/xlink" x="0px" y="0px" width="14.832px"
	 height="11.75px" viewBox="-0.26 -2.25 14.832 11.75" enable-background="new -0.26 -2.25 14.832 11.75" xml:space="preserve">
<g transform="translate(0,-952.36218)">
	<path fill="#5CD5FD" stroke="#5CD5FD" stroke-linecap="round" stroke-linejoin="round" stroke-miterlimit="10" d="M1.356,950.701
		l5.289,4.863c0.279,0.258,0.578,0.258,0.859,0l5.298-4.863C12.65,950.583,1.51,950.583,1.356,950.701z M0.335,952.183
		c-0.058,0.163-0.094,7.835-0.094,7.835c0,0.743,0.492,1.344,1.103,1.344h11.628c0.612,0,1.101-0.601,1.101-1.344
		c0,0-0.036-7.669-0.094-7.835l-5.954,5.708c-0.515,0.496-1.231,0.496-1.748,0L0.335,952.183z"/>
</g>
</svg>
