<?xml version="1.0" encoding="utf-8"?>
<!-- Generator: Adobe Illustrator 16.0.0, SVG Export Plug-In . SVG Version: 6.00 Build 0)  -->
<!DOCTYPE svg PUBLIC "-//W3C//DTD SVG 1.1//EN" "http://www.w3.org/Graphics/SVG/1.1/DTD/svg11.dtd">
<svg version="1.1" id="Layer_1" xmlns="http://www.w3.org/2000/svg" xmlns:xlink="http://www.w3.org/1999/xlink" x="0px" y="0px"
	 width="21px" height="23px" viewBox="0 0 21 23" enable-background="new 0 0 21 23" xml:space="preserve">
<title>train</title>
<desc>Created with Sketch.</desc>
<g id="Page-1">
	<g id="new-app---multiple-classes-selected" transform="translate(-800.000000, -92.000000)">
		<g id="train" transform="translate(801.000000, 92.000000)">
			<path fill="#10D385" d="M17.063,7.523c2.416,1.328,2.255,5.024-0.108,6.44L4.286,21.557C1.918,22.976,0,21.896,0,19.13V4.725
				c0-2.759,1.96-3.919,4.375-2.592L17.063,7.523z"/>
		</g>
	</g>
</g>
<g id="Page-1_1_">
	<g id="new-app---multiple-classes-selected_1_" transform="translate(-800.000000, -92.000000)">
		<g id="train_1_" transform="translate(801.000000, 92.000000)">
			<path fill="#3ADE8D" d="M16.865,7.409c2.416,1.328,2.453,3.555,0.09,4.971L4.286,19.973C1.919,21.392,0,20.312,0,17.546V3.141
				c0-2.759,1.96-3.919,4.375-2.592L16.865,7.409z"/>
		</g>
	</g>
</g>
</svg>
