<?xml version="1.0" encoding="UTF-8"?>
<svg width="15px" height="18px" viewBox="0 0 15 18" version="1.1" xmlns="http://www.w3.org/2000/svg" xmlns:xlink="http://www.w3.org/1999/xlink">
    <!-- Generator: Sketch 41.2 (35397) - http://www.bohemiancoding.com/sketch -->
    <title>delete class</title>
    <desc>Created with Sketch.</desc>
    <defs></defs>
    <g id="Page-1" stroke="none" stroke-width="1" fill="none" fill-rule="evenodd">
        <g id="new-app-click-delete" transform="translate(-760.000000, -103.000000)" fill="#FF7373">
            <g id="delete-class" transform="translate(760.000000, 103.000000)">
                <path d="M7.5,15 C7.776,15 8,14.775 8,14.5 L8,8.5 C8,8.224 7.776,8 7.5,8 C7.224,8 7,8.224 7,8.5 L7,14.5 C7,14.775 7.224,15 7.5,15 L7.5,15 Z M10.5,15 C10.775,15 11,14.775 11,14.5 L11,8.5 C11,8.224 10.775,8 10.5,8 C10.225,8 10,8.224 10,8.5 L10,14.5 C10,14.775 10.225,15 10.5,15 L10.5,15 Z M14,2 L10,2 L10,1 C10,0.448 9.553,0 9,0 L6,0 C5.447,0 5,0.448 5,1 L5,2 L1,2 C0.447,2 0,2.448 0,3 L0,6 L1,6 L1,16 C1,17.105 1.896,18 3,18 L12,18 C13.104,18 14,17.105 14,16 L14,6 L15,6 L15,3 C15,2.448 14.553,2 14,2 L14,2 Z M6,1.5 C6,1.224 6.224,1 6.5,1 L8.5,1 C8.775,1 9,1.224 9,1.5 L9,2 L6,2 L6,1.5 L6,1.5 Z M13,16 C13,16.553 12.553,17 12,17 L3,17 C2.447,17 2,16.553 2,16 L2,6 L13,6 L13,16 L13,16 Z M14,5 L1,5 L1,3.5 C1,3.224 1.224,3 1.5,3 L13.5,3 C13.775,3 14,3.224 14,3.5 L14,5 L14,5 Z M4.5,15 C4.776,15 5,14.775 5,14.5 L5,8.5 C5,8.224 4.776,8 4.5,8 C4.224,8 4,8.224 4,8.5 L4,14.5 C4,14.775 4.224,15 4.5,15 L4.5,15 Z" id="Shape"></path>
            </g>
        </g>
    </g>
</svg>