<?xml version="1.0" encoding="UTF-8"?>
<svg width="19px" height="20px" viewBox="0 0 19 20" version="1.1" xmlns="http://www.w3.org/2000/svg" xmlns:xlink="http://www.w3.org/1999/xlink">
    <!-- Generator: Sketch 41.2 (35397) - http://www.bohemiancoding.com/sketch -->
    <title>search</title>
    <desc>Created with Sketch.</desc>
    <defs></defs>
    <g id="Page-1" stroke="none" stroke-width="1" fill="none" fill-rule="evenodd">
        <g id="new-app" transform="translate(-50.000000, -158.000000)" fill="#D3DCE6">
            <g id="sidebar" transform="translate(-5.000000, 68.000000)">
                <g id="search-bar" transform="translate(55.000000, 90.000000)">
                    <path d="M11.0212046,14.4240813 C13.9790079,14.4240813 16.3768257,11.8782931 16.3768257,8.73797034 C16.3768257,5.59764763 13.9790079,3.05185937 11.0212046,3.05185937 C8.0633527,3.05185937 5.66558352,5.59764763 5.66558352,8.73797034 C5.66558352,11.8782931 8.0633527,14.4240813 11.0212046,14.4240813 L11.0212046,14.4240813 Z M4.04250144,12.847542 C3.40530513,11.6304098 3.04240926,10.2291746 3.04240926,8.73797034 C3.04240926,4.05948045 6.61463967,0.266830735 11.0212046,0.266830735 C15.4277696,0.266830735 19,4.05948045 19,8.73797034 C19,13.4164602 15.4277696,17.20911 11.0212046,17.20911 C9.37535337,17.20911 7.84587789,16.6800217 6.5755234,15.7733553 L3.17756474,19.4097048 C2.45099456,20.187197 1.2725925,20.1868846 0.545243884,19.4084032 C-0.181958774,18.6301821 -0.181131689,17.3674928 0.544027582,16.5914585 L4.04250144,12.847542 Z" id="search" transform="translate(9.500000, 10.129687) scale(-1, 1) translate(-9.500000, -10.129687) "></path>
                </g>
            </g>
        </g>
    </g>
</svg>