<?xml version="1.0" encoding="utf-8"?>
<!-- Generator: Adobe Illustrator 16.0.0, SVG Export Plug-In . SVG Version: 6.00 Build 0)  -->
<!DOCTYPE svg PUBLIC "-//W3C//DTD SVG 1.1//EN" "http://www.w3.org/Graphics/SVG/1.1/DTD/svg11.dtd">
<svg version="1.1" id="Layer_1" xmlns="http://www.w3.org/2000/svg" xmlns:xlink="http://www.w3.org/1999/xlink" x="0px" y="0px"
	 width="253.707px" height="227.547px" viewBox="0 0 253.707 227.547" enable-background="new 0 0 253.707 227.547"
	 xml:space="preserve">
<path fill="#FCC368" stroke="#515160" stroke-width="3" stroke-miterlimit="10" d="M136.75,101.781
	c-3.773-7.567-10.607-9.17-15.502-9.17H45.375c-4.896,0-8.866,3.934-8.866,8.783v99.043c0,7.674,6.578,17.348,14.844,18.134
	c8.531,0.812,87.648-9.351,87.648-9.351c4.896,0,8.865-3.934,8.865-8.783L136.75,101.781z"/>
<g id="file">
	<path fill="#8AF9F9" d="M128.897,54.116c-2.757-0.166-5.125,1.936-5.291,4.692l-7.083,118.296
		c-0.165,2.757,1.936,5.124,4.692,5.289l82.851,4.959c2.757,0.165,5.125-1.935,5.291-4.69l5.554-92.764L187.41,57.619
		L128.897,54.116z"/>
	<path fill="#68DEEA" d="M187.627,92.257l28.045,1.68L183.983,56.74l-1.762,29.422C182.03,89.338,184.451,92.067,187.627,92.257z"/>
	
		<path fill="#86F7A6" stroke="#515160" stroke-width="3" stroke-linecap="round" stroke-linejoin="round" stroke-miterlimit="10" d="
		M190.555,88.773l24.336,1.456l-27.5-32.279l-1.527,25.533C185.697,86.239,187.797,88.607,190.555,88.773z"/>
	<path fill="none" stroke="#474759" stroke-width="3" stroke-linecap="round" stroke-linejoin="round" stroke-miterlimit="10" d="
		M128.897,54.116c-2.757-0.166-5.125,1.936-5.291,4.692l-7.083,118.296c-0.165,2.757,1.936,5.124,4.692,5.289l82.851,4.959
		c2.757,0.165,5.125-1.935,5.291-4.69l5.554-92.764L187.41,57.619L128.897,54.116z"/>
	<circle fill="#515160" cx="138.873" cy="77.974" r="2.416"/>
	<circle fill="#515160" cx="164.683" cy="79.366" r="2.416"/>
	<path fill="#515160" d="M157.038,86.35c-0.334,3.579-3.509,6.213-7.09,5.878c-3.581-0.334-6.213-3.509-5.88-7.089
		C144.403,81.557,157.372,82.768,157.038,86.35z"/>
</g>
<path fill="#F9E76B" stroke="#515160" stroke-width="3" stroke-miterlimit="10" d="M225.606,210.271c0,5.521-4.479,10-10,10H54.939
	c-5.523,0-10-4.479-10-10v-91.462c0-5.522,4.477-10,10-10h160.667c5.521,0,10,4.478,10,10V210.271z"/>
<path fill="#FCC368" stroke="#515160" stroke-width="2.7" stroke-miterlimit="10" d="M170.284,180.984
	c0.036,3.568-3.673,6.495-8.281,6.54l-54.516,0.526c-4.607,0.047-8.372-2.811-8.406-6.379l-0.241-24.984
	c-0.034-3.568,3.674-6.498,8.28-6.543l54.517-0.527c4.607-0.044,8.371,2.812,8.406,6.381L170.284,180.984z"/>
<g enable-background="new    ">
	<path fill="#515160" d="M131.401,165.8c0.093-0.361,0.252-0.624,0.479-0.788s0.478-0.247,0.754-0.25
		c0.18-0.002,0.36,0.029,0.541,0.094s0.344,0.158,0.489,0.283c0.145,0.125,0.263,0.276,0.355,0.456
		c0.091,0.179,0.138,0.376,0.141,0.592c0.001,0.156-0.027,0.337-0.085,0.541l-2.462,7.891c-0.104,0.35-0.291,0.609-0.56,0.779
		c-0.269,0.171-0.552,0.258-0.852,0.261c-0.312,0.003-0.604-0.081-0.876-0.253c-0.271-0.171-0.47-0.424-0.593-0.76l-1.406-3.946
		l-1.24,3.973c-0.104,0.35-0.291,0.609-0.56,0.779c-0.269,0.171-0.553,0.258-0.853,0.261c-0.312,0.003-0.604-0.081-0.875-0.253
		c-0.272-0.171-0.47-0.424-0.592-0.76l-2.795-7.875c-0.062-0.203-0.094-0.377-0.095-0.521c-0.002-0.216,0.041-0.411,0.129-0.586
		c0.088-0.175,0.204-0.326,0.347-0.454c0.143-0.127,0.304-0.225,0.483-0.292c0.18-0.067,0.365-0.103,0.557-0.104
		c0.276-0.003,0.532,0.076,0.768,0.235c0.235,0.16,0.403,0.419,0.502,0.778l1.509,5.242l1.263-5.269
		c0.093-0.349,0.267-0.615,0.524-0.798c0.256-0.183,0.534-0.275,0.834-0.278c0.3-0.003,0.583,0.085,0.85,0.263
		c0.265,0.177,0.447,0.439,0.547,0.786l1.51,5.242L131.401,165.8z"/>
	<path fill="#515160" d="M140.819,173.431l-3.187,0.031l-0.438,1.156c-0.13,0.337-0.31,0.582-0.542,0.734
		c-0.233,0.152-0.487,0.229-0.763,0.232c-0.204,0.002-0.399-0.029-0.586-0.094c-0.188-0.063-0.359-0.158-0.517-0.283
		c-0.157-0.124-0.281-0.27-0.373-0.437c-0.092-0.168-0.139-0.359-0.141-0.575s0.038-0.415,0.12-0.595l3.47-7.865
		c0.153-0.337,0.361-0.591,0.623-0.762c0.263-0.17,0.531-0.257,0.808-0.26s0.544,0.079,0.804,0.244
		c0.26,0.166,0.457,0.416,0.592,0.75l3.334,7.799c0.086,0.179,0.13,0.377,0.132,0.593c0.002,0.204-0.041,0.394-0.129,0.568
		c-0.089,0.175-0.211,0.326-0.365,0.453c-0.155,0.128-0.328,0.226-0.519,0.293c-0.192,0.068-0.384,0.104-0.575,0.105
		c-0.276,0.002-0.535-0.07-0.776-0.218c-0.242-0.147-0.425-0.389-0.547-0.724L140.819,173.431z M138.545,171.113l1.44-0.014
		l-0.685-1.92L138.545,171.113z"/>
	<path fill="#515160" d="M150.337,165.617c0.129-0.338,0.31-0.586,0.543-0.743c0.232-0.158,0.485-0.239,0.762-0.242
		c0.191-0.002,0.385,0.032,0.577,0.103s0.368,0.168,0.524,0.292c0.157,0.125,0.282,0.273,0.374,0.446
		c0.092,0.174,0.139,0.368,0.141,0.584c0.002,0.204-0.038,0.396-0.121,0.577l-3.128,7.807c-0.281,0.663-0.734,0.998-1.358,1.004
		c-0.636,0.006-1.144-0.319-1.521-0.976l-3.279-7.745c-0.086-0.179-0.13-0.37-0.132-0.574c-0.002-0.217,0.041-0.412,0.129-0.587
		c0.089-0.174,0.21-0.326,0.365-0.453c0.154-0.128,0.324-0.229,0.51-0.302c0.186-0.074,0.38-0.112,0.584-0.114
		c0.276-0.003,0.532,0.073,0.768,0.227s0.421,0.398,0.556,0.732l1.9,4.734L150.337,165.617z"/>
</g>
<path fill="#8AF9F9" stroke="#515160" stroke-width="2.8083" stroke-linecap="round" stroke-linejoin="round" stroke-miterlimit="10" d="
	M188.036,100.913c2.199,10.523-8.193,39.678-8.193,39.678c-0.498,1.013-2.09,1.604-3.726,1.309l0,0
	c-1.637-0.295-3.059-1.725-2.387-3.117c0.565-1.176,9.438-31.379,6.97-39.212"/>
<circle fill="#515160" cx="115.852" cy="174.029" r="2.416"/>
<g id="Layer_2">
	<path fill="#B3F2EF" stroke="#B3F2EF" stroke-width="1.5" stroke-miterlimit="10" d="M196.02,47.727l0.566-4.29l3.969,0.525
		c0.466,0.062,0.896-0.297,0.963-0.8c0.066-0.504-0.256-0.961-0.723-1.023l-3.967-0.525l0.567-4.291
		c0.065-0.504-0.257-0.962-0.722-1.022c-0.469-0.062-0.898,0.295-0.965,0.8l-0.568,4.29l-3.969-0.526
		c-0.465-0.062-0.896,0.296-0.963,0.801c-0.065,0.503,0.256,0.96,0.724,1.022l3.967,0.526l-0.565,4.29
		c-0.068,0.503,0.256,0.962,0.721,1.024C195.522,48.589,195.952,48.23,196.02,47.727z"/>
	<path fill="#B3F2EF" stroke="#B3F2EF" stroke-width="1.5" stroke-miterlimit="10" d="M22.671,85.101l0.464-3.509l3.246,0.43
		c0.381,0.049,0.734-0.244,0.789-0.654c0.054-0.413-0.21-0.789-0.592-0.838l-3.246-0.432l0.465-3.509
		c0.054-0.411-0.21-0.786-0.59-0.836c-0.382-0.051-0.735,0.242-0.789,0.654l-0.465,3.51l-3.245-0.431
		c-0.381-0.049-0.734,0.243-0.789,0.656c-0.055,0.411,0.21,0.786,0.591,0.836l3.245,0.43l-0.464,3.51
		c-0.055,0.412,0.209,0.787,0.59,0.837C22.264,85.806,22.617,85.513,22.671,85.101z"/>
	<circle fill="#B3F2EF" cx="70.477" cy="39.014" r="3.399"/>
	<circle fill="#B3F2EF" cx="246.639" cy="101.491" r="4.562"/>
	<circle fill="#B3F2EF" cx="233.499" cy="35.67" r="2.642"/>
	<circle fill="#B3F2EF" cx="4.999" cy="56.738" r="2.997"/>
	<path fill="#B3F2EF" stroke="#B3F2EF" stroke-width="1.5" stroke-miterlimit="10" d="M157.17,17.128l0.465-3.509l3.246,0.43
		c0.381,0.049,0.733-0.244,0.789-0.654c0.053-0.413-0.211-0.789-0.592-0.838l-3.246-0.432l0.465-3.509
		c0.055-0.411-0.209-0.786-0.59-0.836c-0.384-0.051-0.734,0.242-0.789,0.654l-0.465,3.51l-3.246-0.431
		c-0.381-0.049-0.732,0.243-0.788,0.656c-0.056,0.411,0.209,0.786,0.591,0.836l3.246,0.43l-0.465,3.51
		c-0.056,0.412,0.209,0.787,0.592,0.837C156.764,17.833,157.116,17.54,157.17,17.128z"/>
</g>
</svg>
