<?xml version="1.0" encoding="utf-8"?>
<!-- Generator: Adobe Illustrator 16.0.0, SVG Export Plug-In . SVG Version: 6.00 Build 0)  -->
<!DOCTYPE svg PUBLIC "-//W3C//DTD SVG 1.1//EN" "http://www.w3.org/Graphics/SVG/1.1/DTD/svg11.dtd">
<svg version="1.1" id="Layer_1" xmlns="http://www.w3.org/2000/svg" xmlns:xlink="http://www.w3.org/1999/xlink" x="0px" y="0px"
	 width="23.921px" height="22.322px" viewBox="0 -2.434 23.921 22.322" enable-background="new 0 -2.434 23.921 22.322"
	 xml:space="preserve">
<path fill="#FFD140" d="M3.179,19.394C2.086,20.485,0,19.649,0,18.049V0.09c0-1.239,0.395-2.518,2.314-2.518h17.983
	c1.717,0,2.737,1.786,1.173,3.351L3.179,19.394z"/>
<path fill="#FFE564" d="M21.629,16.564c1.093,1.093,0.996,3.318-1.427,3.318H2.245C1.006,19.883,0,19.556,0,17.638V-0.297
	c0-1.865,2.212-2.861,3.555-1.52L21.629,16.564z"/>
<line fill="none" stroke="#FFE564" stroke-width="2" stroke-linecap="round" stroke-linejoin="round" stroke-miterlimit="10" x1="22.921" y1="12.006" x2="20.038" y2="10.658"/>
<line fill="none" stroke="#FFE564" stroke-width="2" stroke-linecap="round" stroke-linejoin="round" stroke-miterlimit="10" x1="19.912" y1="6.754" x2="22.909" y2="5.357"/>
</svg>
