<?xml version="1.0" encoding="utf-8"?>
<!-- Generator: Adobe Illustrator 16.0.0, SVG Export Plug-In . SVG Version: 6.00 Build 0)  -->
<!DOCTYPE svg PUBLIC "-//W3C//DTD SVG 1.1//EN" "http://www.w3.org/Graphics/SVG/1.1/DTD/svg11.dtd">
<svg version="1.1" id="Layer_1" xmlns="http://www.w3.org/2000/svg" xmlns:xlink="http://www.w3.org/1999/xlink" x="0px" y="0px"
	 width="21.421px" height="19.888px" viewBox="0 0 21.421 19.888" enable-background="new 0 0 21.421 19.888" xml:space="preserve">
<path fill="#FFD140" d="M2.832,19.448C1.859,20.42,0,19.676,0,18.249v-16c0-1.104,0.352-2.243,2.062-2.243h16.021
	c1.53,0,2.439,1.59,1.045,2.985L2.832,19.448z"/>
<path fill="#FFE564" d="M19.27,16.927c0.973,0.973,0.887,2.957-1.27,2.957H2c-1.104,0-2-0.291-2-2V1.905
	c0-1.662,1.971-2.549,3.167-1.354L19.27,16.927z"/>
<line fill="none" stroke="#FFE564" stroke-width="2" stroke-linecap="round" stroke-linejoin="round" stroke-miterlimit="10" x1="20.421" y1="12.865" x2="17.852" y2="11.665"/>
<line fill="none" stroke="#FFE564" stroke-width="2" stroke-linecap="round" stroke-linejoin="round" stroke-miterlimit="10" x1="17.74" y1="8.186" x2="20.41" y2="6.942"/>
<g>
</g>
<g>
</g>
<g>
</g>
<g>
</g>
<g>
</g>
<g>
</g>
<g>
</g>
<g>
</g>
<g>
</g>
<g>
</g>
<g>
</g>
<g>
</g>
<g>
</g>
<g>
</g>
<g>
</g>
</svg>
