<?xml version="1.0" encoding="UTF-8"?>
<svg width="357px" height="334px" viewBox="0 0 357 334" version="1.1" xmlns="http://www.w3.org/2000/svg" xmlns:xlink="http://www.w3.org/1999/xlink">
    <!-- Generator: Sketch 41.2 (35397) - http://www.bohemiancoding.com/sketch -->
    <title>train-model-landing</title>
    <desc>Created with Sketch.</desc>
    <defs>
        <rect id="path-1" x="29" y="25" width="129.158615" height="121.453188" rx="5"></rect>
        <mask id="mask-2" maskContentUnits="userSpaceOnUse" maskUnits="objectBoundingBox" x="0" y="0" width="129.158615" height="121.453188" fill="white">
            <use xlink:href="#path-1"></use>
        </mask>
        <rect id="path-3" x="197.467759" y="25" width="129.158615" height="121.453188" rx="5"></rect>
        <mask id="mask-4" maskContentUnits="userSpaceOnUse" maskUnits="objectBoundingBox" x="0" y="0" width="129.158615" height="121.453188" fill="white">
            <use xlink:href="#path-3"></use>
        </mask>
        <rect id="path-5" x="197" y="186" width="129.158615" height="121.453188" rx="5"></rect>
        <mask id="mask-6" maskContentUnits="userSpaceOnUse" maskUnits="objectBoundingBox" x="0" y="0" width="129.158615" height="121.453188" fill="white">
            <use xlink:href="#path-5"></use>
        </mask>
        <rect id="path-7" x="29" y="185.813018" width="129.158615" height="121.453188" rx="5"></rect>
        <mask id="mask-8" maskContentUnits="userSpaceOnUse" maskUnits="objectBoundingBox" x="0" y="0" width="129.158615" height="121.453188" fill="white">
            <use xlink:href="#path-7"></use>
        </mask>
    </defs>
    <g id="Page-1" stroke="none" stroke-width="1" fill="none" fill-rule="evenodd">
        <g id="Desktop" transform="translate(-181.000000, -987.000000)">
            <g id="train-model-landing" transform="translate(181.000000, 988.000000)">
                <rect id="Rectangle-3" fill="#FFFFFF" x="0" y="0" width="357" height="333"></rect>
                <use id="Rectangle-6-Copy" stroke="#9DE5FE" mask="url(#mask-2)" stroke-width="2" fill="#FFFFFF" xlink:href="#path-1"></use>
                <text id="Chirping" font-family="FaktSoftPro-Normal, Fakt Soft Pro" font-size="14" font-weight="normal" fill="#545454">
                    <tspan x="67.1860253" y="111.221393">Chirping</tspan>
                </text>
                <g id="Page-1" transform="translate(71.678499, 58.736997)">
                    <polygon id="Fill-1" fill="#FFB6BF" points="8.38372244 0.0502761194 0.0491517895 6.14095782 0.0491517895 16.9440967 8.51348316 24.7742558 38.3333824 24.7742558 44.8433403 17.6414946 44.8433403 6.14095782 37.8117836 0.0502761194"></polygon>
                    <g id="Group-10" transform="translate(0.000000, 0.017877)" stroke-linecap="round" stroke="#545454" stroke-linejoin="round">
                        <polygon id="Stroke-2" points="0.0491517895 6.12305085 8.38372244 0.0323691436 37.8117836 0.0323691436 44.8433403 6.12305085 44.8433403 17.623688 38.3333824 24.7564493 8.51348316 24.7564493 0.0491517895 16.9261897"></polygon>
                        <polyline id="Stroke-4" points="8.51353231 24.7564192 8.51353231 12.385742 38.3334315 12.385742 38.3334315 24.7564192"></polyline>
                        <path d="M8.51353231,12.385762 L0.0492009413,6.1230408" id="Stroke-6"></path>
                        <path d="M38.333402,12.385762 L44.8433599,6.1230408" id="Stroke-8"></path>
                    </g>
                    <polygon id="Fill-11" fill="#FC7A8C" points="8.51348316 24.774296 38.3333824 24.774296 38.3333824 12.4037192 8.51348316 12.4037192"></polygon>
                    <polygon id="Stroke-12" stroke="#545454" stroke-linecap="round" stroke-linejoin="round" points="8.51348316 24.774296 38.3333824 24.774296 38.3333824 12.4036188 8.51348316 12.4036188"></polygon>
                    <polygon id="Fill-14" fill="#FC7A8C" points="0.049191111 16.9440766 8.51352248 24.7742357 8.51352248 12.403659 0.049191111 6.21827016"></polygon>
                    <polygon id="Stroke-15" stroke="#545454" stroke-linecap="round" stroke-linejoin="round" points="8.51353231 24.774296 0.0492009413 16.9440365 0.0492009413 6.21833042 8.51353231 12.4036188"></polygon>
                    <polygon id="Fill-17" fill="#FC7A8C" points="38.3334119 12.4036791 38.3334119 24.7742558 44.8433698 17.6414946 44.8433698 6.14095782"></polygon>
                    <polygon id="Stroke-18" stroke="#545454" stroke-linecap="round" stroke-linejoin="round" points="38.333402 24.774296 44.8433599 17.6415348 44.8433599 6.14089756 38.333402 12.4036188"></polygon>
                </g>
                <use id="Rectangle-6-Copy" stroke="#D3DCE6" mask="url(#mask-4)" stroke-width="2" fill="#FFFFFF" xlink:href="#path-3"></use>
                <text id="Dolphin-laugin…" font-family="FaktSoftPro-Normal, Fakt Soft Pro" font-size="14" font-weight="normal" fill="#545454">
                    <tspan x="212.191416" y="111.221393">Dolphin laugin…</tspan>
                </text>
                <use id="Rectangle-6-Copy" stroke="#D3DCE6" mask="url(#mask-6)" stroke-width="2" fill="#FFFFFF" xlink:href="#path-5"></use>
                <text id="Horse-snorting" font-family="FaktSoftPro-Normal, Fakt Soft Pro" font-size="14" font-weight="normal" fill="#545454">
                    <tspan x="215.339249" y="272.221393">Horse snorting</tspan>
                </text>
                <use id="Rectangle-6-Copy" stroke="#D3DCE6" mask="url(#mask-8)" stroke-width="2" fill="#FFFFFF" xlink:href="#path-7"></use>
                <text id="Cow-mooing" font-family="FaktSoftPro-Normal, Fakt Soft Pro" font-size="14" font-weight="normal" fill="#545454">
                    <tspan x="54.831723" y="272.034411">Cow mooing</tspan>
                </text>
                <g id="Page-1" transform="translate(76.170972, 213.927182)">
                    <polygon id="Fill-1" fill="#E0E0FC" points="0.236635134 2.73716057 0.236635134 23.460559 14.5293216 31.0525658 35.6117907 27.1227471 35.6117907 14.9748742 35.6117907 3.71973346 20.1572087 0.236753727"></polygon>
                    <g id="Group-6" transform="translate(0.000000, 0.081519)" stroke-linecap="round" stroke="#545454" stroke-linejoin="round">
                        <polygon id="Stroke-2" points="35.6118852 3.63845132 20.1568304 0.154998745 0.23625682 2.65587843 0.23625682 23.3792768 14.5294161 30.9712837 35.6118852 27.041465 35.6118852 14.893592"></polygon>
                        <path d="M14.5294161,6.85394237 L14.5294161,30.9714255" id="Stroke-4"></path>
                    </g>
                    <polygon id="Fill-7" fill="#BDBDF9" points="0.236635134 23.2198333 14.5293216 31.0525185 14.5293216 6.93550821 0.236635134 2.73711329"></polygon>
                    <polygon id="Stroke-8" stroke="#545454" stroke-linecap="round" stroke-linejoin="round" points="14.5294161 31.0528968 0.23625682 23.2197388 0.23625682 2.73749156 14.5294161 6.93541364"></polygon>
                    <polygon id="Fill-10" fill="#BDBDF9" points="0.236635134 2.73716057 14.5293216 6.93508265 35.6117907 3.71973346 20.1572087 0.236753727"></polygon>
                    <polygon id="Stroke-11" stroke="#545454" stroke-linecap="round" stroke-linejoin="round" points="35.6118852 3.71996988 20.1568304 0.236517304 0.23625682 2.73739699 14.5294161 6.93531907"></polygon>
                </g>
                <polygon id="Fill-1" fill="#FFD83B" points="260.745256 50.3027261 245 67.3326963 260.745256 86.0719899 275.173159 68.1875093"></polygon>
                <polygon id="Stroke-2" stroke="#545454" stroke-linecap="round" stroke-linejoin="round" points="260.745256 50.3027261 245 67.3326963 260.745256 86.0719899 275.173159 68.1875093"></polygon>
                <polygon id="Fill-4" fill="#FFEC8B" points="260.745402 50.3027261 255.294627 70.3496657 260.745402 86.0719899 275.177387 68.1875093"></polygon>
                <g id="Group-11" transform="translate(245.000000, 50.051156)" stroke-linecap="round" stroke="#545454" stroke-linejoin="round">
                    <polygon id="Stroke-5" points="15.7454017 0.251570506 10.2946274 20.2985101 15.7454017 36.0208343 30.1773866 18.1363537"></polygon>
                    <polyline id="Stroke-7" points="30.1731296 18.1364748 10.2944524 20.2986311 -2.91578818e-05 17.2813591"></polyline>
                    <polyline id="Stroke-9" points="15.7452559 0.251570506 10.2944816 20.2985101 15.7452559 36.0208343"></polyline>
                </g>
                <g id="Page-1" transform="translate(246.794651, 216.435851)">
                    <polygon id="Fill-1" fill="#D7FFFB" points="0.679262003 26.2373973 24.8636145 33.1494332 31.1100083 22.3974523 18.2774529 0.670151703"></polygon>
                    <polygon id="Stroke-2" stroke="#545454" stroke-width="0.985999942" stroke-linecap="round" stroke-linejoin="round" points="18.2775896 0.670151703 0.678715093 26.2373973 24.8637512 33.1494332 31.110145 22.3981271"></polygon>
                    <polygon id="Fill-4" fill="#94EDE8" points="18.186871 0.802063361 24.5829814 33.0694765 24.8639563 33.1490958 31.1103501 22.3977897 18.2771111 0.670489073"></polygon>
                    <polygon id="Stroke-5" stroke="#545454" stroke-linecap="round" stroke-linejoin="round" points="18.2775896 0.670151703 18.1866659 0.802400731 24.5834599 33.0698139 24.8637512 33.1494332 31.110145 22.3981271"></polygon>
                </g>
                <ellipse id="Oval-5" fill="#D3DCE6" cx="315.925551" cy="197.422514" rx="1.40389799" ry="1.48839692"></ellipse>
                <ellipse id="Oval-5" fill="#D3DCE6" cx="310.746727" cy="197.422514" rx="1.40389799" ry="1.48839692"></ellipse>
                <ellipse id="Oval-5" fill="#D3DCE6" cx="305.567904" cy="197.422514" rx="1.40389799" ry="1.48839692"></ellipse>
                <ellipse id="Oval-5" fill="#D3DCE6" cx="145.972222" cy="37.8529412" rx="1.75" ry="1.85294118"></ellipse>
                <ellipse id="Oval-5" fill="#D3DCE6" cx="140.361111" cy="37.8529412" rx="1.75" ry="1.85294118"></ellipse>
                <ellipse id="Oval-5" fill="#D3DCE6" cx="134.75" cy="37.8529412" rx="1.75" ry="1.85294118"></ellipse>
                <ellipse id="Oval-5" fill="#D3DCE6" cx="314.972222" cy="37.8529412" rx="1.75" ry="1.85294118"></ellipse>
                <ellipse id="Oval-5" fill="#D3DCE6" cx="309.361111" cy="37.8529412" rx="1.75" ry="1.85294118"></ellipse>
                <ellipse id="Oval-5" fill="#D3DCE6" cx="303.75" cy="37.8529412" rx="1.75" ry="1.85294118"></ellipse>
                <ellipse id="Oval-5" fill="#D3DCE6" cx="146.972222" cy="197.852941" rx="1.75" ry="1.85294118"></ellipse>
                <ellipse id="Oval-5" fill="#D3DCE6" cx="141.361111" cy="197.852941" rx="1.75" ry="1.85294118"></ellipse>
                <ellipse id="Oval-5" fill="#D3DCE6" cx="135.75" cy="197.852941" rx="1.75" ry="1.85294118"></ellipse>
                <circle id="Oval-5" fill="#3ADE8D" cx="43.5" cy="41.5" r="4.5"></circle>
                <circle id="Oval-5" fill="#3ADE8D" cx="213.5" cy="41.5" r="4.5"></circle>
                <circle id="Oval-5" fill="#3FE599" cx="213.5" cy="201.5" r="4.5"></circle>
                <circle id="Oval-5" fill="#3ADE8D" cx="43.5" cy="201.5" r="4.5"></circle>
                <path d="M39.0289975,26.4 L41.7416376,32.0012143 C42.3640999,33.2865101 43.3673875,33.2818443 43.9875902,32.0012143 L46.7002303,26.4 L81.0062757,26.4 C82.655808,26.4 84,25.0570376 84,23.4004095 L84,3.36164871 C84,1.70714157 82.659664,0.362058174 81.0062757,0.362058174 L3.56906679,0.362058174 C1.91953445,0.362058174 0.575342466,1.7050206 0.575342466,3.36164871 L0.575342466,23.4004095 C0.575342466,25.0549166 1.9156785,26.4 3.56906679,26.4 L39.0289975,26.4 Z" id="Combined-Shape" stroke="#88E9BC" fill="#D7FFE4"></path>
                <text id="All-trained!" font-family="FaktSoftPro-Normal, Fakt Soft Pro" font-size="12" font-weight="normal" fill="#545454">
                    <tspan x="13.3100274" y="16.7282759">All trained!</tspan>
                </text>
                <text id="300-sounds" font-family="FaktSoftPro-Normal, Fakt Soft Pro" font-size="12" font-weight="normal" fill="#959FA9">
                    <tspan x="62.444" y="129">300 sounds</tspan>
                </text>
                <text id="300-sounds" font-family="FaktSoftPro-Normal, Fakt Soft Pro" font-size="12" font-weight="normal" fill="#959FA9">
                    <tspan x="231.444" y="129">300 sounds</tspan>
                </text>
                <text id="300-sounds" font-family="FaktSoftPro-Normal, Fakt Soft Pro" font-size="12" font-weight="normal" fill="#959FA9">
                    <tspan x="231.444" y="289">300 sounds</tspan>
                </text>
                <text id="300-sounds" font-family="FaktSoftPro-Normal, Fakt Soft Pro" font-size="12" font-weight="normal" fill="#959FA9">
                    <tspan x="62.444" y="289">300 sounds</tspan>
                </text>
            </g>
        </g>
    </g>
</svg>