<?xml version="1.0" encoding="utf-8"?>
<!-- Generator: Adobe Illustrator 16.0.0, SVG Export Plug-In . SVG Version: 6.00 Build 0)  -->
<!DOCTYPE svg PUBLIC "-//W3C//DTD SVG 1.1//EN" "http://www.w3.org/Graphics/SVG/1.1/DTD/svg11.dtd">
<svg version="1.1" id="Layer_1" xmlns="http://www.w3.org/2000/svg" xmlns:xlink="http://www.w3.org/1999/xlink" x="0px" y="0px"
	 width="46px" height="40px" viewBox="0 0 46 40" enable-background="new 0 0 46 40" xml:space="preserve">
<path fill="#C5C5FF" stroke="#545454" d="M13.778,34.215c0,2.619-2.122,4.741-4.742,4.741c-2.619,0-4.742-2.122-4.742-4.741
	c0-2.62,2.124-4.742,4.742-4.742C11.656,29.473,13.778,31.596,13.778,34.215L13.778,34.215z"/>
<path fill="#C5C5FF" stroke="#545454" d="M42.228,34.215c0,2.619-2.123,4.741-4.741,4.741c-2.62,0-4.743-2.122-4.743-4.741
	c0-2.62,2.123-4.742,4.743-4.742C40.104,29.473,42.228,31.596,42.228,34.215L42.228,34.215z"/>
<path fill="none" stroke="#545454" stroke-linecap="round" d="M3.504,26.311H0.343"/>
<path fill="#FC7A8C" stroke="#545454" d="M0.343,24.104v8.367c0,0.962,0.779,1.743,1.743,1.743h2.207
	c0-2.619,2.124-4.742,4.742-4.742c2.619,0,4.742,2.122,4.742,4.742h18.966c0-2.619,2.123-4.742,4.743-4.742
	c2.617,0,4.741,2.122,4.741,4.742h2.206c0.964,0,1.745-0.781,1.745-1.743v-8.367c0-0.963-0.78-1.743-1.745-1.743H2.087
	C1.124,22.361,0.343,23.142,0.343,24.104L0.343,24.104z"/>
<path fill="none" stroke="#545454" stroke-linecap="round" d="M23.261,26.311h3.951"/>
<path fill="#545454" d="M9.827,34.215c0,0.436-0.354,0.789-0.791,0.789c-0.435,0-0.79-0.354-0.79-0.789
	c0-0.437,0.354-0.791,0.79-0.791C9.473,33.424,9.827,33.778,9.827,34.215"/>
<path fill="#545454" d="M38.275,34.215c0,0.436-0.354,0.789-0.789,0.789c-0.437,0-0.789-0.354-0.789-0.789
	c0-0.437,0.353-0.791,0.789-0.791C37.922,33.424,38.275,33.778,38.275,34.215"/>
<path fill="none" stroke="#545454" stroke-linecap="round" stroke-linejoin="round" d="M46.179,28.683h-2.372
	c-0.871,0-1.579-0.707-1.579-1.581s0.706-1.581,1.579-1.581h2.372V28.683L46.179,28.683z"/>
<path fill="none" stroke="#545454" stroke-linecap="round" stroke-linejoin="round" d="M23.261,26.311v0.791"/>
<path fill="none" stroke="#545454" stroke-linecap="round" stroke-linejoin="round" d="M27.212,26.311v0.791"/>
<path fill="#C7F7FF" stroke="#545454" stroke-linecap="round" stroke-linejoin="round" d="M36.694,22.361H7.456v-7.879
	c0-1.322,1.071-2.396,2.395-2.396H23.52c3.324,0,6.462,1.545,8.488,4.18L36.694,22.361L36.694,22.361z"/>
<path fill="#D4D4FC" stroke="#545454" d="M23.719,22.361h3.328l-1.425-4.308c-0.272-0.825-1.172-1.278-1.996-1.005
	c-0.825,0.273-1.277,1.172-1.004,1.997L23.719,22.361L23.719,22.361z"/>
<path fill="#D4D4FC" stroke="#545454" d="M12.675,22.361h3.361l-1.562-4.325c-0.295-0.818-1.206-1.247-2.023-0.95
	c-0.818,0.295-1.244,1.206-0.949,2.024L12.675,22.361L12.675,22.361z"/>
<circle fill="#FFFFFF" stroke="#545454" cx="38.268" cy="6.084" r="3.959"/>
<line fill="none" stroke="#545454" stroke-linecap="round" stroke-linejoin="round" x1="38.035" y1="4.22" x2="38.035" y2="5.932"/>
<line fill="none" stroke="#545454" stroke-linecap="round" stroke-linejoin="round" x1="38.038" y1="6.104" x2="39.373" y2="7.095"/>
</svg>
