<?xml version="1.0" encoding="utf-8"?>
<!-- Generator: Adobe Illustrator 16.0.0, SVG Export Plug-In . SVG Version: 6.00 Build 0)  -->
<!DOCTYPE svg PUBLIC "-//W3C//DTD SVG 1.1//EN" "http://www.w3.org/Graphics/SVG/1.1/DTD/svg11.dtd">
<svg version="1.1" id="Layer_1" xmlns="http://www.w3.org/2000/svg" xmlns:xlink="http://www.w3.org/1999/xlink" x="0px" y="0px"
	 width="46px" height="40px" viewBox="0 0 46 40" enable-background="new 0 0 46 40" xml:space="preserve">
<path fill="#FFE664" stroke="#545454" stroke-linecap="round" stroke-linejoin="round" stroke-miterlimit="10" d="M37.031,13.333
	c0,0.569-0.479,1.032-1.068,1.032H20.471V8.088h15.492c0.59,0,1.068,0.462,1.068,1.032V13.333z"/>
<path fill="#8AF0BE" stroke="#545454" stroke-width="0.9962" stroke-linecap="round" stroke-linejoin="round" stroke-miterlimit="10" d="
	M9.3,13.29c0,0.569-0.421,1.032-0.941,1.032H4.826c-0.521,0-0.943-0.462-0.943-1.032V9.163c0-0.569,0.422-1.032,0.943-1.032h3.534
	c0.52,0,0.941,0.463,0.941,1.032V13.29z"/>
<path fill="#A6EF8B" stroke="#545454" stroke-width="0.9962" stroke-linecap="round" stroke-linejoin="round" stroke-miterlimit="10" d="
	M19.542,5.99h-9.218C9.757,5.99,9.3,6.453,9.3,7.022v7.998c0.448,1.532,2.074,4.042,3.334,4.042h6.905
	c0.566,0,1.023-0.46,1.023-1.031V7.023C20.565,6.453,20.105,5.99,19.542,5.99z"/>
<path fill="none" stroke="#545454" stroke-linecap="round" stroke-linejoin="round" stroke-miterlimit="10" d="M18.045,19.236
	c-0.237,3.987-4.14,6.115-7.351,5.451"/>
<path fill="#545454" d="M14.696,20.685c0.258,0.368,0.167,0.875-0.204,1.131l-0.056,0.038c-0.367,0.259-0.875,0.166-1.131-0.201
	l-1.084-1.558c-0.256-0.367-0.165-0.875,0.204-1.13l0.057-0.038c0.368-0.258,0.875-0.167,1.13,0.202L14.696,20.685z"/>
<path fill="#68E081" stroke="#545454" stroke-width="0.9962" stroke-linecap="round" stroke-linejoin="round" stroke-miterlimit="10" d="
	M9.068,14.074L9.068,14.074c-3.325,2.837-7.345,8.193-8.373,17.887c-0.092,0.599,0.418,1.265,1.128,1.265h6.574
	c0.582,0,1.072-0.448,1.127-1.027c0.438-5.048,1.393-9.3,2.976-13.174C10.925,19.024,8.777,15.112,9.068,14.074z"/>
<line fill="none" stroke="#545454" stroke-width="0.9962" stroke-linecap="round" stroke-linejoin="round" stroke-miterlimit="10" x1="39.382" y1="10.065" x2="42.994" y2="10.065"/>
<line fill="none" stroke="#545454" stroke-width="0.9962" stroke-linecap="round" stroke-linejoin="round" stroke-miterlimit="10" x1="44.251" y1="12.526" x2="45.315" y2="12.526"/>
<line fill="none" stroke="#545454" stroke-width="0.9962" stroke-linecap="round" stroke-linejoin="round" stroke-miterlimit="10" x1="39.382" y1="12.526" x2="42.591" y2="12.526"/>
</svg>
