<?xml version="1.0" encoding="utf-8"?>
<!-- Generator: Adobe Illustrator 16.0.0, SVG Export Plug-In . SVG Version: 6.00 Build 0)  -->
<!DOCTYPE svg PUBLIC "-//W3C//DTD SVG 1.1//EN" "http://www.w3.org/Graphics/SVG/1.1/DTD/svg11.dtd">
<svg version="1.1" id="Layer_1" xmlns="http://www.w3.org/2000/svg" xmlns:xlink="http://www.w3.org/1999/xlink" x="0px" y="0px"
	 width="46px" height="40px" viewBox="0 0 46 40" enable-background="new 0 0 46 40" xml:space="preserve">
<g id="Layer_1_1_">
</g>
<g id="Layer_2">
	
		<line fill="none" stroke="#545454" stroke-linecap="round" stroke-linejoin="round" stroke-miterlimit="10" x1="3.236" y1="37.331" x2="42.214" y2="37.331"/>
	
		<line fill="none" stroke="#545454" stroke-linecap="round" stroke-linejoin="round" stroke-miterlimit="10" x1="0.572" y1="37.331" x2="1.299" y2="37.331"/>
	
		<line fill="none" stroke="#545454" stroke-linecap="round" stroke-linejoin="round" stroke-miterlimit="10" x1="43.761" y1="37.331" x2="45.71" y2="37.331"/>
	<ellipse fill="#BFAAF9" stroke="#545454" stroke-miterlimit="10" cx="22.449" cy="27.731" rx="14.222" ry="8.329"/>
	<path fill="#D6CDFC" stroke="#545454" stroke-width="0.7" stroke-miterlimit="10" d="M14.785,25.802
		c-0.795,0-1.44,0.646-1.44,1.442c0,0.79,0.645,1.439,1.44,1.439c0.796,0,1.442-0.649,1.442-1.439
		C16.227,26.448,15.582,25.802,14.785,25.802"/>
	<path fill="#D6CDFC" stroke="#545454" stroke-width="0.7" stroke-miterlimit="10" d="M30.825,25.802
		c-0.796,0-1.442,0.646-1.442,1.442c0,0.79,0.646,1.439,1.442,1.439c0.795,0,1.441-0.649,1.441-1.439
		C32.267,26.448,31.62,25.802,30.825,25.802"/>
	<path fill="#8AE9FF" stroke="#545454" stroke-width="0.7" stroke-miterlimit="10" d="M14.781,32.396
		c-2.841,0-5.155-2.312-5.155-5.153c0-2.844,2.313-5.155,5.155-5.155c2.843,0,5.154,2.312,5.154,5.155
		C19.936,30.085,17.624,32.396,14.781,32.396L14.781,32.396z M16.96,17.153h11.529V14.27H16.96V17.153z M38.58,17.153h-7.208V12.83
		c0-0.796-0.643-1.442-1.44-1.442H15.518c-0.797,0-1.44,0.646-1.44,1.442v4.323H6.87c-0.797,0-1.442,0.646-1.442,1.442v17.294
		c0,0.796,0.646,1.442,1.442,1.442h31.71c0.795,0,1.441-0.646,1.441-1.442V18.595C40.021,17.799,39.375,17.153,38.58,17.153
		L38.58,17.153z M30.722,32.398c-2.843,0-5.155-2.312-5.155-5.154c0-2.844,2.312-5.154,5.155-5.154c2.844,0,5.155,2.311,5.155,5.154
		C35.877,30.086,33.565,32.398,30.722,32.398L30.722,32.398z"/>
	
		<rect x="16.96" y="13.712" fill="#FFFFFF" stroke="#545454" stroke-width="0.8" stroke-linecap="round" stroke-linejoin="round" stroke-miterlimit="10" width="11.529" height="3.441"/>
	
		<line fill="none" stroke="#545454" stroke-width="0.8" stroke-linecap="round" stroke-linejoin="round" stroke-miterlimit="10" x1="21.894" y1="30.712" x2="23.567" y2="30.712"/>
	
		<line fill="none" stroke="#545454" stroke-width="0.8" stroke-linecap="round" stroke-linejoin="round" stroke-miterlimit="10" x1="21.888" y1="33.357" x2="23.562" y2="33.357"/>
	
		<circle fill="#B9F2FC" stroke="#545454" stroke-width="0.7" stroke-linecap="round" stroke-linejoin="round" stroke-miterlimit="10" cx="40.303" cy="8.314" r="1.63"/>
	
		<circle fill="#B9F2FC" stroke="#545454" stroke-width="0.7" stroke-linecap="round" stroke-linejoin="round" stroke-miterlimit="10" cx="33.198" cy="7.612" r="1.63"/>
	
		<line fill="none" stroke="#545454" stroke-width="0.7" stroke-linecap="round" stroke-linejoin="round" stroke-miterlimit="10" x1="34.782" y1="7.984" x2="36.231" y2="1.813"/>
	
		<line fill="none" stroke="#545454" stroke-width="0.7" stroke-linecap="round" stroke-linejoin="round" stroke-miterlimit="10" x1="41.903" y1="8.636" x2="43.034" y2="3.818"/>
	<path fill="#8AE9FF" stroke="#545454" stroke-width="0.7" stroke-miterlimit="10" d="M43.084,3.606
		c-0.073,0.312-0.384,0.505-0.696,0.432l-5.764-1.353c-0.31-0.073-0.504-0.385-0.431-0.697l0.298-1.27
		c0.073-0.313,0.386-0.505,0.696-0.432L42.95,1.64c0.313,0.073,0.505,0.386,0.432,0.696L43.084,3.606z"/>
</g>
</svg>
