<?xml version="1.0" encoding="utf-8"?>
<!-- Generator: Adobe Illustrator 16.0.0, SVG Export Plug-In . SVG Version: 6.00 Build 0)  -->
<!DOCTYPE svg PUBLIC "-//W3C//DTD SVG 1.1//EN" "http://www.w3.org/Graphics/SVG/1.1/DTD/svg11.dtd">
<svg version="1.1" id="Layer_1" xmlns="http://www.w3.org/2000/svg" xmlns:xlink="http://www.w3.org/1999/xlink" x="0px" y="0px"
	 width="46px" height="40px" viewBox="0 0 46 40" enable-background="new 0 0 46 40" xml:space="preserve">
<path fill="#9AE3F4" d="M26.695,19.75c0-1.916-1.529-3.446-3.445-3.446c-1.915,0-3.445,1.53-3.445,3.446
	c0,1.913,1.531,3.443,3.445,3.443C25.166,23.193,26.695,21.664,26.695,19.75z"/>
<path fill="#71E1FF" stroke="#545454" stroke-width="0.8" stroke-linecap="round" stroke-linejoin="round" stroke-miterlimit="10" d="
	M23.249,0.134C12.42,0.134,3.634,8.921,3.634,19.75c0,10.831,8.787,19.616,19.615,19.616c4.988,0,9.542-1.862,13.003-4.93
	c0.047-0.042,0.096-0.085,0.143-0.127c0.497-0.449,0.972-0.924,1.419-1.423c0.169-0.188,0.334-0.377,0.496-0.571
	c2.844-3.401,4.556-7.785,4.556-12.564C42.865,8.921,34.079,0.134,23.249,0.134z M9.2,14.934
	c1.968-6.083,7.663-10.231,14.064-10.231c6.4,0,12.093,4.148,14.029,10.231c0.106,0.353,0.069,0.668-0.141,0.95
	c-0.211,0.282-0.492,0.422-0.845,0.422h-7.229c-1.151-2.031-3.328-3.404-5.829-3.404s-4.678,1.374-5.829,3.404h-7.201
	c-0.352,0-0.667-0.14-0.844-0.422C9.165,15.602,9.094,15.251,9.2,14.934z M21.674,33.443c0,0.294-0.098,0.556-0.329,0.755
	c-0.23,0.196-0.493,0.26-0.788,0.229c-6.701-1.052-11.659-6.832-11.659-13.631c0-0.557,0.426-0.984,0.985-0.984h6.676
	c0.097,3.054,2.23,5.584,5.089,6.289c0.021,0.089,0.033,0.182,0.026,0.28L21.674,33.443L21.674,33.443z M26.181,34.428
	c-0.295,0.03-0.559-0.033-0.788-0.229c-0.196-0.199-0.328-0.461-0.328-0.755v-7.095c0-0.112,0.019-0.216,0.052-0.316
	c2.723-0.789,4.727-3.255,4.824-6.209c0.018-0.001,0.032-0.01,0.051-0.01h6.899c0.555,0,0.984,0.427,0.984,0.984
	C37.874,27.596,32.915,33.376,26.181,34.428z"/>
<g>
	<g>
		<path fill="#545454" d="M23.07,17.79l-1.37,0.96h-0.8c-0.221,0-0.4,0.178-0.4,0.4v1.199c0,0.221,0.179,0.4,0.4,0.4h0.8l1.37,0.959
			c0.18,0.13,0.43,0.085,0.556-0.096c0.049-0.068,0.073-0.149,0.073-0.23v-3.264c0-0.22-0.178-0.4-0.4-0.4
			C23.219,17.716,23.138,17.743,23.07,17.79z"/>
		<path fill="#545454" d="M25.099,19.75c0-0.34-0.214-0.643-0.534-0.754c-0.107-0.032-0.218,0.027-0.25,0.133
			c-0.03,0.101,0.022,0.208,0.118,0.245c0.207,0.077,0.313,0.308,0.236,0.516c-0.04,0.109-0.127,0.194-0.236,0.233
			c-0.104,0.035-0.163,0.149-0.127,0.253c0.027,0.082,0.106,0.138,0.193,0.138c0.022,0,0.042-0.005,0.065-0.012
			C24.885,20.392,25.099,20.089,25.099,19.75z"/>
		<path fill="#545454" d="M25.099,18.252c-0.101-0.046-0.218,0-0.263,0.1c-0.042,0.091-0.009,0.198,0.076,0.252
			c0.632,0.335,0.873,1.118,0.538,1.752c-0.129,0.245-0.334,0.44-0.585,0.562c-0.097,0.053-0.129,0.174-0.073,0.271
			c0.048,0.087,0.152,0.124,0.247,0.087c0.843-0.405,1.199-1.419,0.793-2.262C25.676,18.688,25.419,18.421,25.099,18.252z"/>
	</g>
</g>
</svg>
