<?xml version="1.0" encoding="utf-8"?>
<!-- Generator: Adobe Illustrator 16.0.0, SVG Export Plug-In . SVG Version: 6.00 Build 0)  -->
<!DOCTYPE svg PUBLIC "-//W3C//DTD SVG 1.1//EN" "http://www.w3.org/Graphics/SVG/1.1/DTD/svg11.dtd">
<svg version="1.1" id="Layer_1" xmlns="http://www.w3.org/2000/svg" xmlns:xlink="http://www.w3.org/1999/xlink" x="0px" y="0px"
	 width="46px" height="40px" viewBox="0 0 46 40" enable-background="new 0 0 46 40" xml:space="preserve">
<circle fill="#FFECE6" stroke="#545454" stroke-miterlimit="10" cx="38.78" cy="20.35" r="4.029"/>
<circle fill="#FFECE6" stroke="#545454" stroke-miterlimit="10" cx="7.189" cy="20.08" r="4.03"/>
<circle fill="#FFECE6" stroke="#545454" stroke-miterlimit="10" cx="22.925" cy="21.781" r="16.305"/>
<circle fill="#545454" cx="30.341" cy="19.91" r="1.214"/>
<path fill="#545454" d="M28.235,26.883c0,3.085-2.33,5.205-5.205,5.205c-2.875,0-5.206-2.12-5.206-5.205
	C17.827,23.801,28.235,23.801,28.235,26.883z"/>
<g>
	<path fill="none" d="M14.495,9.133c-0.319-0.227-0.521-0.504-0.606-0.738c-0.019-0.034-0.037-0.067-0.05-0.107
		c-0.499-1.289-0.755-2.801-0.699-4.146c0.063-1.501,0.504-2.64,1.242-3.208c0.404-0.328,1.074-0.397,1.566-0.397
		c1.074,0,2.679,0.328,3.959,1.244c0.764,0.549,1.607,1.045,2.369,1.459c0.251-0.094,0.536-0.143,0.854-0.143
		c0.304,0,0.578,0.046,0.818,0.131c0.765-0.413,1.613-0.911,2.378-1.461c1.282-0.917,2.887-1.246,3.96-1.246
		c0.495,0,1.166,0.07,1.566,0.399c0.74,0.566,1.18,1.706,1.243,3.206c0.053,1.345-0.196,2.857-0.697,4.146
		c-0.013,0.037-0.029,0.074-0.05,0.107c-0.079,0.217-0.251,0.469-0.526,0.683c2.595-1.386,4.232-3.375,4.232-5.593
		c0-4.187-5.805-7.582-12.963-7.582c-7.161,0-12.963,3.395-12.963,7.582C10.13,5.726,11.822,7.746,14.495,9.133z"/>
	<path fill="none" d="M23.133,4.225c-0.795,0-0.898,0.433-0.898,0.81c0,0.626,0.428,1.389,0.927,1.389
		c0.434,0,0.845-0.672,0.845-1.389C24.005,4.636,23.902,4.225,23.133,4.225z"/>
	<path fill="none" d="M30.123,9.564c-1.491,0-3.599-0.724-6.301-2.165c-0.211,0.1-0.434,0.152-0.661,0.152
		c-0.243,0-0.477-0.058-0.696-0.163c-2.72,1.457-4.847,2.19-6.346,2.19c-0.152,0-0.302-0.011-0.44-0.025
		C15.652,9.586,15.628,9.619,15.6,9.65c2.119,0.881,4.701,1.403,7.496,1.403c2.812,0,5.41-0.528,7.533-1.419
		c-0.025-0.03-0.049-0.063-0.077-0.094C30.415,9.557,30.273,9.564,30.123,9.564z"/>
	<path fill="#FF97AB" stroke="#545454" stroke-width="0.9" stroke-miterlimit="10" d="M32.351,8.381
		c0.02-0.035,0.036-0.068,0.05-0.107c0.5-1.29,0.753-2.801,0.697-4.146c-0.064-1.5-0.504-2.64-1.242-3.206
		c-0.402-0.329-1.071-0.399-1.565-0.399c-1.074,0-2.676,0.328-3.962,1.247c-0.764,0.548-1.611,1.049-2.377,1.46
		c-0.242-0.086-0.516-0.131-0.818-0.131c-0.318,0-0.603,0.05-0.854,0.143c-0.761-0.414-1.605-0.91-2.369-1.459
		c-1.279-0.916-2.885-1.244-3.959-1.244c-0.493,0-1.163,0.068-1.565,0.397c-0.739,0.567-1.181,1.706-1.243,3.208
		c-0.055,1.346,0.199,2.858,0.699,4.146c0.014,0.039,0.032,0.072,0.05,0.107c0.085,0.234,0.286,0.512,0.606,0.738
		c0.351,0.184,1.156,0.453,1.184,0.422c0.14,0.015,0.288,0.024,0.44,0.024c1.498,0,3.625-0.732,6.346-2.189
		c0.221,0.105,0.455,0.163,0.696,0.163c0.228,0,0.451-0.053,0.662-0.151c2.7,1.441,4.809,2.164,6.301,2.164
		c0.15,0,0.291-0.006,0.43-0.023c0.025,0.031,0.893-0.272,1.272-0.477C32.1,8.85,32.271,8.597,32.351,8.381z"/>
</g>
<circle fill="#FCB1D6" stroke="#545454" stroke-width="0.7" stroke-miterlimit="10" cx="23.095" cy="5.097" r="1.856"/>
<path fill="#FF97AB" stroke="#545454" stroke-width="0.9" stroke-miterlimit="10" d="M35.623,28.068
	c0,0.728-0.314,1.317-0.705,1.317h-2.82c-0.39,0-0.705-0.591-0.705-1.317l0,0c0-0.727,0.315-1.315,0.705-1.315h2.82
	C35.309,26.753,35.623,27.343,35.623,28.068L35.623,28.068z"/>
<path fill="#FF97AB" stroke="#545454" stroke-width="0.9" stroke-miterlimit="10" d="M44.086,28.104
	c0,0.709-0.316,1.283-0.705,1.283h-2.82c-0.39,0-0.705-0.572-0.705-1.283l0,0c0-0.707,0.315-1.283,0.705-1.283h2.82
	C43.77,26.82,44.086,27.396,44.086,28.104L44.086,28.104z"/>
<path fill="#FC7A8C" stroke="#545454" stroke-linecap="round" stroke-linejoin="round" stroke-miterlimit="10" d="M45.73,38.827
	c0,0.524-0.383,0.946-0.854,0.946H30.838c-0.473,0-0.855-0.422-0.855-0.946v-9c0-0.521,0.384-0.945,0.855-0.945h14.039
	c0.473,0,0.854,0.425,0.854,0.945V38.827z"/>
<circle fill="#545454" cx="14.796" cy="20.351" r="1.214"/>
</svg>
