<?xml version="1.0" encoding="utf-8"?>
<!-- Generator: Adobe Illustrator 16.0.0, SVG Export Plug-In . SVG Version: 6.00 Build 0)  -->
<!DOCTYPE svg PUBLIC "-//W3C//DTD SVG 1.1//EN" "http://www.w3.org/Graphics/SVG/1.1/DTD/svg11.dtd">
<svg version="1.1" id="Layer_1" xmlns="http://www.w3.org/2000/svg" xmlns:xlink="http://www.w3.org/1999/xlink" x="0px" y="0px"
	 width="46px" height="40px" viewBox="0 0 46 40" enable-background="new 0 0 46 40" xml:space="preserve">
<path fill="#FFE664" stroke="#545454" stroke-linecap="round" stroke-linejoin="round" stroke-miterlimit="10" d="M27.438,16.417
	H5.528c-2.88,0-5.217-2.578-5.217-5.839V8.216c0-3.261,2.337-5.905,5.217-5.905h21.909V16.417z"/>
<path fill="#F9F191" stroke="#545454" stroke-linecap="round" stroke-linejoin="round" stroke-miterlimit="10" d="M37.745,9.568
	c0,2.397-1.943,4.341-4.341,4.341h-5.967v-8.68h5.967C35.802,5.229,37.745,7.172,37.745,9.568L37.745,9.568z"/>
<rect x="14.23" y="16.417" fill="#F9A45F" stroke="#545454" stroke-width="0.9" stroke-linecap="round" stroke-linejoin="round" stroke-miterlimit="10" width="3.255" height="4.34"/>
<rect x="7.315" y="30.521" fill="#ABF4EE" stroke="#545454" stroke-linecap="round" stroke-linejoin="round" stroke-miterlimit="10" width="4.34" height="3.255"/>
<polygon fill="#FCC05E" stroke="#545454" stroke-linecap="round" stroke-linejoin="round" stroke-miterlimit="10" points="
	13.283,31.609 6.23,31.609 6.23,16.417 15.182,16.417 "/>
<rect x="27.931" y="5.771" fill="#F9F191" width="4.205" height="7.595"/>
<line fill="none" stroke="#545454" stroke-width="1.4" stroke-linecap="round" stroke-linejoin="round" stroke-miterlimit="10" x1="38.239" y1="9.568" x2="45.834" y2="9.568"/>
<line fill="none" stroke="#545454" stroke-linecap="round" stroke-linejoin="round" stroke-miterlimit="10" x1="4.603" y1="7.782" x2="8.942" y2="7.782"/>
<line fill="none" stroke="#545454" stroke-linecap="round" stroke-linejoin="round" stroke-miterlimit="10" x1="4.603" y1="10.945" x2="8.942" y2="10.945"/>
<line fill="none" stroke="#545454" stroke-linecap="round" stroke-linejoin="round" stroke-miterlimit="10" x1="6.23" y1="20.802" x2="8.062" y2="20.802"/>
<line fill="none" stroke="#545454" stroke-linecap="round" stroke-linejoin="round" stroke-miterlimit="10" x1="6.23" y1="24.149" x2="8.062" y2="24.149"/>
<line fill="none" stroke="#545454" stroke-linecap="round" stroke-linejoin="round" stroke-miterlimit="10" x1="6.23" y1="27.222" x2="8.062" y2="27.222"/>
<path fill="none" stroke="#545454" stroke-linecap="round" stroke-linejoin="round" stroke-miterlimit="10" d="M9.083,33.988
	c2.922,4.325,7.132,3.941,11.776,1.61c4.645-2.331,7.801-1.443,9.72,1.33"/>
</svg>
