<?xml version="1.0" encoding="utf-8"?>
<!-- Generator: Adobe Illustrator 16.0.0, SVG Export Plug-In . SVG Version: 6.00 Build 0)  -->
<!DOCTYPE svg PUBLIC "-//W3C//DTD SVG 1.1//EN" "http://www.w3.org/Graphics/SVG/1.1/DTD/svg11.dtd">
<svg version="1.1" xmlns="http://www.w3.org/2000/svg" xmlns:xlink="http://www.w3.org/1999/xlink" x="0px" y="0px" width="46px"
	 height="40px" viewBox="0 0 46 40" enable-background="new 0 0 46 40" xml:space="preserve">
<g id="Layer_1">
	<path fill="#41D877" stroke="#545454" stroke-linecap="round" stroke-linejoin="round" stroke-miterlimit="10" d="M40,8.5
		c0,0.552-0.447,1-1,1H6c-0.552,0-1-0.448-1-1v-2c0-0.552,0.448-1,1-1h33c0.553,0,1,0.448,1,1V8.5z"/>
</g>
<g id="Layer_2">
	<path fill="#68E081" stroke="#545454" stroke-linecap="round" stroke-linejoin="round" stroke-miterlimit="10" d="M31.5,15
		c0,0.552-0.447,1-1,1h-16c-0.552,0-1-0.448-1-1V4c0-0.552,0.448-1,1-1h16c0.553,0,1,0.448,1,1V15z"/>
	<path fill="#8AF0BE" stroke="#545454" stroke-linecap="round" stroke-linejoin="round" stroke-miterlimit="10" d="M29,18
		c0,0.552-0.447,1-1,1H17c-0.552,0-1-0.448-1-1v-1c0-0.552,0.448-1,1-1h11c0.553,0,1,0.448,1,1V18z"/>
	<path fill="#8AF0BE" stroke="#545454" stroke-linecap="round" stroke-linejoin="round" stroke-miterlimit="10" d="M26,27.889
		C26,28.503,25.553,29,25,29h-5c-0.552,0-1-0.497-1-1.111V19h7V27.889z"/>
	<polygon fill="#BDF9F4" stroke="#545454" stroke-linecap="round" stroke-linejoin="round" stroke-miterlimit="10" points="
		24,37.898 22.5,39 21,37.898 21,29.085 24,29.085 	"/>
	
		<line fill="none" stroke="#545454" stroke-linecap="round" stroke-linejoin="round" stroke-miterlimit="10" x1="19.5" y1="3.5" x2="19.5" y2="5.5"/>
	
		<line fill="none" stroke="#545454" stroke-linecap="round" stroke-linejoin="round" stroke-miterlimit="10" x1="22.5" y1="3.5" x2="22.5" y2="5.5"/>
	
		<line fill="none" stroke="#545454" stroke-linecap="round" stroke-linejoin="round" stroke-miterlimit="10" x1="25.5" y1="3.5" x2="25.5" y2="5.5"/>
	
		<line fill="none" stroke="#545454" stroke-linecap="round" stroke-linejoin="round" stroke-miterlimit="10" x1="22.5" y1="19.5" x2="22.5" y2="21.5"/>
	<g>
	</g>
	<g>
	</g>
	<g>
	</g>
	<g>
	</g>
	<g>
	</g>
	<g>
	</g>
	<g>
	</g>
	<g>
	</g>
	<g>
	</g>
	<g>
	</g>
	<g>
	</g>
	<g>
	</g>
	<g>
	</g>
	<g>
	</g>
	<g>
	</g>
</g>
</svg>
