<?xml version="1.0" encoding="utf-8"?>
<!-- Generator: Adobe Illustrator 16.0.0, SVG Export Plug-In . SVG Version: 6.00 Build 0)  -->
<!DOCTYPE svg PUBLIC "-//W3C//DTD SVG 1.1//EN" "http://www.w3.org/Graphics/SVG/1.1/DTD/svg11.dtd">
<svg version="1.1"
	 id="Layer_1" xmlns:dc="http://purl.org/dc/elements/1.1/" xmlns:rdf="http://www.w3.org/1999/02/22-rdf-syntax-ns#" xmlns:svg="http://www.w3.org/2000/svg" xmlns:sodipodi="http://sodipodi.sourceforge.net/DTD/sodipodi-0.dtd" xmlns:inkscape="http://www.inkscape.org/namespaces/inkscape" xmlns:cc="http://creativecommons.org/ns#"
	 xmlns="http://www.w3.org/2000/svg" xmlns:xlink="http://www.w3.org/1999/xlink" x="0px" y="0px" width="46px" height="40px"
	 viewBox="0 0 46 40" enable-background="new 0 0 46 40" xml:space="preserve">
<path fill="#FC7A8C" d="M38.582,34.247c-9.792,0.342-18.496,0.515-29.375,0V21.272c0-7.048,6.7-12.76,14.688-12.76l0,0
	c7.985,0,14.688,5.713,14.688,12.76V34.247z"/>
<path fill="none" stroke="#545454" stroke-linecap="round" stroke-linejoin="round" stroke-miterlimit="10" d="M38.038,34.247
	c-9.792,0.342-18.496,0.515-29.375,0V21.272c0-7.048,6.7-12.76,14.687-12.76l0,0c7.986,0,14.688,5.713,14.688,12.76V34.247z"/>
<path fill="#FF9A83" stroke="#545454" stroke-linecap="round" stroke-linejoin="round" stroke-miterlimit="10" d="M28.039,32.263
	c0,2.394-2.28,4.328-4.689,4.328l0,0c-2.404,0-4.687-1.935-4.687-4.328v-8.605c0-2.392,2.281-4.33,4.687-4.33l0,0
	c2.409,0,4.689,1.938,4.689,4.33V32.263z"/>
<path fill="#FFDB80" stroke="#545454" stroke-linecap="round" stroke-linejoin="round" stroke-miterlimit="10" d="M40.758,34.984
	c0,0.889-0.721,1.606-1.608,1.606H7.552c-0.887,0-1.608-0.717-1.608-1.606v-0.049c0-0.888,0.72-1.608,1.608-1.608h31.598
	c0.886,0,1.608,0.721,1.608,1.608V34.984z"/>
<line fill="none" stroke="#545454" stroke-linecap="round" stroke-linejoin="round" stroke-miterlimit="10" x1="22.806" y1="5.585" x2="22.806" y2="3.409"/>
<line fill="none" stroke="#545454" stroke-linecap="round" stroke-linejoin="round" stroke-miterlimit="10" x1="34.856" y1="9.221" x2="36.735" y2="7.367"/>
<line fill="none" stroke="#545454" stroke-linecap="round" stroke-linejoin="round" stroke-miterlimit="10" x1="12.075" y1="9.231" x2="10.221" y2="7.355"/>
<line fill="none" stroke="#545454" stroke-linecap="round" stroke-linejoin="round" stroke-miterlimit="10" x1="40.281" y1="18.033" x2="43.105" y2="17.35"/>
<line fill="none" stroke="#545454" stroke-linecap="round" stroke-linejoin="round" stroke-miterlimit="10" x1="2.894" y1="17.25" x2="5.663" y2="18.134"/>
</svg>
