<?xml version="1.0" encoding="utf-8"?>
<!-- Generator: Adobe Illustrator 16.0.0, SVG Export Plug-In . SVG Version: 6.00 Build 0)  -->
<!DOCTYPE svg PUBLIC "-//W3C//DTD SVG 1.1//EN" "http://www.w3.org/Graphics/SVG/1.1/DTD/svg11.dtd">
<svg version="1.1" id="Layer_1" xmlns="http://www.w3.org/2000/svg" xmlns:xlink="http://www.w3.org/1999/xlink" x="0px" y="0px"
	 width="46px" height="40px" viewBox="0 0 46 40" enable-background="new 0 0 46 40" xml:space="preserve">
<g id="Layer_1_1_">
</g>
<g id="Layer_2">
	
		<line fill="none" stroke="#545454" stroke-linecap="round" stroke-linejoin="round" stroke-miterlimit="10" x1="3.236" y1="37.331" x2="42.214" y2="37.331"/>
	
		<line fill="none" stroke="#545454" stroke-linecap="round" stroke-linejoin="round" stroke-miterlimit="10" x1="0.572" y1="37.331" x2="1.299" y2="37.331"/>
	
		<line fill="none" stroke="#545454" stroke-linecap="round" stroke-linejoin="round" stroke-miterlimit="10" x1="43.762" y1="37.331" x2="45.71" y2="37.331"/>
	<ellipse fill="#BFAAF9" stroke="#545454" stroke-miterlimit="10" cx="22.565" cy="27.248" rx="14.938" ry="8.749"/>
	<path fill="#D6CDFC" stroke="#545454" stroke-width="0.7" stroke-miterlimit="10" d="M14.516,25.222
		c-0.835,0-1.513,0.679-1.513,1.515c0,0.83,0.678,1.512,1.513,1.512c0.836,0,1.515-0.682,1.515-1.512
		C16.03,25.9,15.353,25.222,14.516,25.222"/>
	<path fill="#D6CDFC" stroke="#545454" stroke-width="0.7" stroke-miterlimit="10" d="M31.363,25.222
		c-0.836,0-1.515,0.679-1.515,1.515c0,0.83,0.679,1.512,1.515,1.512c0.835,0,1.513-0.682,1.513-1.512
		C32.878,25.9,32.198,25.222,31.363,25.222"/>
	<path fill="#8AE9FF" stroke="#545454" stroke-width="0.7" stroke-miterlimit="10" d="M14.511,32.148
		c-2.983,0-5.414-2.43-5.414-5.413c0-2.988,2.429-5.415,5.414-5.415c2.987,0,5.414,2.429,5.414,5.415
		C19.926,29.72,17.498,32.148,14.511,32.148L14.511,32.148z M16.8,16.137h12.108v-3.028H16.8V16.137z M39.509,16.137h-7.571v-4.54
		c0-0.836-0.676-1.515-1.513-1.515h-15.14c-0.837,0-1.512,0.679-1.512,1.515v4.54H6.202c-0.837,0-1.515,0.679-1.515,1.515v18.165
		c0,0.837,0.679,1.515,1.515,1.515h33.307c0.835,0,1.514-0.678,1.514-1.515V17.651C41.022,16.815,40.344,16.137,39.509,16.137
		L39.509,16.137z M31.256,32.15c-2.987,0-5.416-2.43-5.416-5.414c0-2.987,2.429-5.414,5.416-5.414c2.986,0,5.413,2.427,5.413,5.414
		C36.669,29.721,34.24,32.15,31.256,32.15L31.256,32.15z"/>
	
		<rect x="16.8" y="12.523" fill="#FFFFFF" stroke="#545454" stroke-width="0.8" stroke-linecap="round" stroke-linejoin="round" stroke-miterlimit="10" width="12.108" height="3.614"/>
	
		<line fill="none" stroke="#545454" stroke-width="0.8" stroke-linecap="round" stroke-linejoin="round" stroke-miterlimit="10" x1="21.982" y1="30.379" x2="23.738" y2="30.379"/>
	
		<line fill="none" stroke="#545454" stroke-width="0.8" stroke-linecap="round" stroke-linejoin="round" stroke-miterlimit="10" x1="21.976" y1="33.157" x2="23.734" y2="33.157"/>
	
		<circle fill="#B9F2FC" stroke="#545454" stroke-width="0.7" stroke-linecap="round" stroke-linejoin="round" stroke-miterlimit="10" cx="42.318" cy="8.452" r="1.63"/>
	
		<circle fill="#B9F2FC" stroke="#545454" stroke-width="0.7" stroke-linecap="round" stroke-linejoin="round" stroke-miterlimit="10" cx="35.214" cy="7.75" r="1.63"/>
	
		<line fill="none" stroke="#545454" stroke-width="0.7" stroke-linecap="round" stroke-linejoin="round" stroke-miterlimit="10" x1="36.798" y1="8.122" x2="38.246" y2="1.951"/>
	
		<line fill="none" stroke="#545454" stroke-width="0.7" stroke-linecap="round" stroke-linejoin="round" stroke-miterlimit="10" x1="43.949" y1="8.65" x2="45.081" y2="3.832"/>
	
		<path fill="#B9F2FC" stroke="#545454" stroke-width="0.7" stroke-linecap="round" stroke-linejoin="round" stroke-miterlimit="10" d="
		M45.1,3.744c-0.072,0.312-0.384,0.505-0.695,0.432L38.64,2.823c-0.31-0.073-0.504-0.385-0.431-0.697l0.298-1.27
		c0.073-0.312,0.386-0.505,0.696-0.432l5.763,1.354c0.313,0.073,0.505,0.386,0.432,0.696L45.1,3.744z"/>
</g>
</svg>
