<?xml version="1.0" encoding="utf-8"?>
<!-- Generator: Adobe Illustrator 16.0.0, SVG Export Plug-In . SVG Version: 6.00 Build 0)  -->
<!DOCTYPE svg PUBLIC "-//W3C//DTD SVG 1.1//EN" "http://www.w3.org/Graphics/SVG/1.1/DTD/svg11.dtd">
<svg version="1.1" id="Layer_1" xmlns="http://www.w3.org/2000/svg" xmlns:xlink="http://www.w3.org/1999/xlink" x="0px" y="0px"
	 width="13.801px" height="14.25px" viewBox="0.001 -3.25 13.801 14.25" enable-background="new 0.001 -3.25 13.801 14.25"
	 xml:space="preserve">
<path fill="#5CD5FD" d="M12.742,1.908h-2.023V0.233c0-1.925-1.703-3.483-3.809-3.483c-2.106,0-3.808,1.558-3.808,3.483v1.675H1.078
	c-0.594,0-1.077,0.382-1.077,0.865l0.063,7.242C0.064,10.559,0.482,11,1.012,11h11.776c0.53,0,0.947-0.44,0.947-0.984l0.065-7.242
	C13.82,2.29,13.337,1.908,12.742,1.908z M8.613,1.908H5.207V0.233c0-0.853,0.771-1.558,1.705-1.558c0.931,0,1.702,0.705,1.702,1.558
	V1.908L8.613,1.908z"/>
</svg>
