<?xml version="1.0" encoding="utf-8"?>
<svg version="1.1" id="Layer_1" xmlns="http://www.w3.org/2000/svg" xmlns:xlink="http://www.w3.org/1999/xlink" x="0px" y="0px"
	 width="21.709px" height="35.535px" viewBox="0 -16.375 21.709 35.535" enable-background="new 0 -16.375 21.709 35.535"
	 xml:space="preserve">
<g id="Page-1">
	<g id="new-app-click-test" transform="translate(-632.000000, -291.000000)">
		<g id="record" transform="translate(577.000000, 242.000000)">
			<g id="microphone" transform="translate(55.000000, 49.000000)">
				<path id="Fill-1" fill="#FF7373" d="M10.854,5.252c3.591,0,6.512-2.902,6.512-6.471v-8.687c0-3.567-2.922-6.47-6.512-6.47
					c-3.59,0-6.512,2.903-6.512,6.47v8.687C4.343,2.351,7.264,5.252,10.854,5.252"/>
				<path id="Fill-3" fill="#FF7373" d="M21.701-3.915c-0.045-0.546-0.501-0.978-1.062-0.978c-0.563,0-1.017,0.432-1.062,0.978
					h-0.007v0.086v0.399v2.498c0,4.773-3.91,8.658-8.715,8.658c-4.804,0-8.713-3.885-8.713-8.658V-3.43v-0.399v-0.086H2.133
					C2.087-4.461,1.632-4.893,1.07-4.893S0.054-4.461,0.008-3.915H0v0.086v0.399v2.498C0,4.656,4.3,9.262,9.783,9.798v4.162H4.119
					c-0.239,0-1.887,0.08-1.887,1.888v1.728c0,0,0.134,1.585,2.32,1.585h12.815c0,0,2.112-0.078,2.112-1.451v-1.994
					c0-1.679-1.621-1.754-1.869-1.755h-5.685V9.798c5.484-0.534,9.784-5.142,9.784-10.73V-3.43v-0.399v-0.086H21.701z"/>
			</g>
		</g>
	</g>
</g>
</svg>
