<?xml version="1.0" encoding="utf-8"?>
<!-- Generator: Adobe Illustrator 16.0.0, SVG Export Plug-In . SVG Version: 6.00 Build 0)  -->
<!DOCTYPE svg PUBLIC "-//W3C//DTD SVG 1.1//EN" "http://www.w3.org/Graphics/SVG/1.1/DTD/svg11.dtd">
<svg version="1.1" id="Layer_1" xmlns="http://www.w3.org/2000/svg" xmlns:xlink="http://www.w3.org/1999/xlink" x="0px" y="0px"
	 width="30.177px" height="24.092px" viewBox="0.171 -0.167 30.177 24.092" enable-background="new 0.171 -0.167 30.177 24.092"
	 xml:space="preserve">
<path fill="#66E5F2" stroke="#66E5F2" stroke-width="0.9344" stroke-linecap="round" stroke-linejoin="round" stroke-miterlimit="10" d="
	M23.078,3.42l0.01,0.011l0.006,0.005l0.002,0.002l0.008,0.007l0.002,0.001l0.002,0.003c0.021,0.012,0.023,0.021,0.035,0.032
	c1.993,1.994,3.143,4.725,3.186,7.547l3.18-0.022c0.15,0,0.29,0.092,0.344,0.229c0.059,0.139,0.029,0.3-0.08,0.409l-5.195,5.194
	c-0.146,0.148-0.385,0.146-0.527,0.002l-5.134-5.132l-0.014-0.012c-0.146-0.146-0.146-0.382,0-0.528
	c0.099-0.098,0.236-0.13,0.361-0.098l3.132-0.019c-0.031-1.813-0.748-3.506-2.071-4.827c-2.709-2.678-7.112-2.665-9.852,0.072
	C9.633,5.458,9.572,5.321,7.729,3.478C11.944-0.736,18.823-0.763,23.078,3.42"/>
<path fill="#66E5F2" stroke="#66E5F2" stroke-width="0.9344" stroke-linecap="round" stroke-linejoin="round" stroke-miterlimit="10" d="
	M7.438,20.336l-0.011-0.01l-0.005-0.006l-0.002-0.004l-0.006-0.006l-0.001-0.002L7.41,20.305c-0.021-0.01-0.024-0.02-0.035-0.029
	c-1.995-1.996-3.144-4.727-3.186-7.547L1.011,12.75c-0.152,0-0.291-0.093-0.345-0.229c-0.057-0.139-0.027-0.301,0.08-0.408
	l5.195-5.196c0.146-0.146,0.383-0.145,0.527,0l5.132,5.132l0.012,0.012c0.145,0.146,0.145,0.382,0,0.527
	c-0.099,0.099-0.238,0.131-0.36,0.095l-3.133,0.022c0.032,1.812,0.75,3.502,2.07,4.824c2.71,2.682,7.114,2.668,9.852-0.07
	c0.819,0.82,1.84,1.918,2.739,2.82C18.571,24.491,11.692,24.52,7.438,20.336"/>
<g>
	
		<path fill="#55D8E5" stroke="#55D8E5" stroke-width="0.2298" stroke-linecap="round" stroke-linejoin="round" stroke-miterlimit="10" d="
		M7.716,19.868l-0.011-0.012L7.7,19.852l-0.002-0.006l-0.007-0.004L7.69,19.84l-0.002-0.002c-0.021-0.012-0.024-0.021-0.035-0.031
		c-1.995-1.994-3.144-4.725-3.186-7.546H1.005c-0.151,0-0.71-0.01-0.71,0.299c0,0.448,0.375,0.512,0.527,0.512l3.091,0.045
		c0.042,2.821,1.278,5.485,3.273,7.479c0.011,0.012,0.013,0.021,0.035,0.031l0.002,0.002l0.001,0.002l0.007,0.006l0.002,0.004
		l0.006,0.006l0.011,0.01c4.254,4.184,11.508,4.254,16.032-0.252c-0.062-0.062-0.271-0.371-0.332-0.438
		C18.399,24.37,11.757,23.84,7.716,19.868z"/>
</g>
<g>
	
		<path fill="#55D8E5" stroke="#55D8E5" stroke-width="0.2444" stroke-linecap="round" stroke-linejoin="round" stroke-miterlimit="10" d="
		M24.762,16.694l-5.855-5.6c-0.129-0.035-0.279-0.001-0.385,0.103c-0.151,0.156-0.151,0.406,0,0.562l0.014,0.012l5.462,5.456
		c0.154,0.152,0.406,0.154,0.562-0.002l0.487-0.369C24.962,16.846,24.826,16.756,24.762,16.694z"/>
	
		<path fill="#55D8E5" stroke="#55D8E5" stroke-width="0.2298" stroke-linecap="round" stroke-linejoin="round" stroke-miterlimit="10" d="
		M21.951,10.525l0.775,0.009c-0.182-1.483-0.713-3.203-2.013-4.543c-2.461-2.515-6.368-2.348-9.149-0.251
		c2.707-1.555,6.241-1.472,8.442,0.425C21.291,7.27,21.834,8.902,21.951,10.525z"/>
</g>
</svg>
