<?xml version="1.0" encoding="utf-8"?>
<!-- Generator: Adobe Illustrator 16.0.0, SVG Export Plug-In . SVG Version: 6.00 Build 0)  -->
<!DOCTYPE svg PUBLIC "-//W3C//DTD SVG 1.1//EN" "http://www.w3.org/Graphics/SVG/1.1/DTD/svg11.dtd">
<svg version="1.1" id="green" xmlns="http://www.w3.org/2000/svg" xmlns:xlink="http://www.w3.org/1999/xlink" x="0px" y="0px"
	 width="60px" height="55px" viewBox="0 0 60 55" enable-background="new 0 0 60 55" xml:space="preserve">
<g>
	<polygon fill="#FFBCC4" stroke="#545454" stroke-linecap="round" stroke-linejoin="round" stroke-miterlimit="10" points="
		53.738,11.598 32.854,6.89 5.932,10.27 5.932,38.277 25.248,48.539 53.738,43.229 53.738,26.809 	"/>
	
		<line fill="none" stroke="#545454" stroke-linecap="round" stroke-linejoin="round" stroke-miterlimit="10" x1="25.248" y1="15.943" x2="25.248" y2="48.539"/>
	<polygon fill="#FC8495" stroke="#545454" stroke-linecap="round" stroke-linejoin="round" stroke-miterlimit="10" points="
		25.248,48.539 5.932,38.277 5.932,10.27 25.248,15.943 	"/>
	<polygon fill="#FC8495" stroke="#545454" stroke-linecap="round" stroke-linejoin="round" stroke-miterlimit="10" points="
		53.738,11.598 32.854,6.89 5.932,10.27 25.248,15.943 	"/>
</g>
<g>
	<polygon fill="#E5E0FC" stroke="#595454" stroke-linecap="round" stroke-linejoin="round" stroke-miterlimit="10" points="
		53.806,10.932 32.921,6.224 5.999,9.604 5.999,37.612 25.314,47.873 53.806,42.562 53.806,26.143 	"/>
	
		<line fill="none" stroke="#595454" stroke-linecap="round" stroke-linejoin="round" stroke-miterlimit="10" x1="25.314" y1="15.277" x2="25.314" y2="47.873"/>
	<polygon fill="#C2BDF9" stroke="#595454" stroke-linecap="round" stroke-linejoin="round" stroke-miterlimit="10" points="
		25.314,47.873 5.999,37.612 5.999,9.604 25.314,15.277 	"/>
	<polygon fill="#C2BDF9" stroke="#595454" stroke-linecap="round" stroke-linejoin="round" stroke-miterlimit="10" points="
		53.806,10.932 32.921,6.224 5.999,9.604 25.314,15.277 	"/>
</g>
</svg>
