<?xml version="1.0" encoding="utf-8"?>
<!-- Generator: Adobe Illustrator 16.0.0, SVG Export Plug-In . SVG Version: 6.00 Build 0)  -->
<!DOCTYPE svg PUBLIC "-//W3C//DTD SVG 1.1//EN" "http://www.w3.org/Graphics/SVG/1.1/DTD/svg11.dtd">
<svg version="1.1" id="Layer_1" xmlns="http://www.w3.org/2000/svg" xmlns:xlink="http://www.w3.org/1999/xlink" x="0px" y="0px"
	 width="46px" height="40px" viewBox="0 0 46 40" enable-background="new 0 0 46 40" xml:space="preserve">
<path fill="#B9F9F6" stroke="#545454" stroke-miterlimit="10" d="M45.555,22.096c0,3.123-2.986,5.654-6.211,5.654H6.663
	c-3.223,0-6.108-2.531-6.108-5.654V9.656c0-3.123,2.885-5.905,6.108-5.905h32.681c3.225,0,6.211,2.782,6.211,5.905V22.096z"/>
<line fill="none" stroke="#545454" stroke-linecap="round" stroke-linejoin="round" stroke-miterlimit="10" x1="4.514" y1="23.75" x2="41.514" y2="23.75"/>
<line fill="none" stroke="#545454" stroke-linecap="round" stroke-linejoin="round" stroke-miterlimit="10" x1="4.514" y1="19.75" x2="41.514" y2="19.75"/>
<path fill="#5CD5FD" stroke="#545454" stroke-miterlimit="10" d="M45.555,9.406c0-3.124-2.986-5.655-6.211-5.655H6.663
	c-3.223,0-6.108,2.531-6.108,5.655v5.762l45,0.083V9.406z"/>
<line fill="none" stroke="#545454" stroke-width="1.2" stroke-linecap="round" stroke-linejoin="round" stroke-miterlimit="10" x1="13.199" y1="9.25" x2="15.058" y2="9.25"/>
<line fill="none" stroke="#545454" stroke-width="1.2" stroke-linecap="round" stroke-linejoin="round" stroke-miterlimit="10" x1="7.058" y1="9.25" x2="10.652" y2="9.25"/>
<path fill="none" stroke="#545454" stroke-linecap="round" stroke-linejoin="round" stroke-miterlimit="10" d="M18.473,30.25
	c-0.386,0.656-0.705,1.826,0,2.906c1.062,1.625,0.331,2.771,0,3.094"/>
<path fill="none" stroke="#545454" stroke-linecap="round" stroke-linejoin="round" stroke-miterlimit="10" d="M23.556,30.25
	c-0.386,0.656-0.705,1.826,0,2.906c1.062,1.625,0.331,2.771,0,3.094"/>
<path fill="none" stroke="#545454" stroke-linecap="round" stroke-linejoin="round" stroke-miterlimit="10" d="M28.556,30.25
	c-0.387,0.656-0.705,1.826,0,2.906c1.062,1.625,0.33,2.771,0,3.094"/>
<line fill="none" stroke="#5CD5FD" stroke-linecap="round" stroke-linejoin="round" stroke-miterlimit="10" x1="7.32" y1="33.964" x2="7.99" y2="36.825"/>
<line fill="none" stroke="#5CD5FD" stroke-linecap="round" stroke-linejoin="round" stroke-miterlimit="10" x1="6.322" y1="35.707" x2="8.988" y2="35.084"/>
<line fill="none" stroke="#5CD5FD" stroke-linecap="round" stroke-linejoin="round" stroke-miterlimit="10" x1="36.509" y1="30.866" x2="35.851" y2="34.364"/>
<line fill="none" stroke="#5CD5FD" stroke-linecap="round" stroke-linejoin="round" stroke-miterlimit="10" x1="34.548" y1="32.311" x2="37.806" y2="32.921"/>
<line fill="none" stroke="#5CD5FD" stroke-width="0.7" stroke-linecap="round" stroke-linejoin="round" stroke-miterlimit="10" x1="42.018" y1="33.884" x2="42.339" y2="35.641"/>
<line fill="none" stroke="#5CD5FD" stroke-width="0.7" stroke-linecap="round" stroke-linejoin="round" stroke-miterlimit="10" x1="41.357" y1="34.916" x2="42.995" y2="34.615"/>
<path fill="#5CD5FD" d="M12.995,30.895c0,0.354-0.288,0.643-0.645,0.643l0,0c-0.355,0-0.644-0.288-0.644-0.643l0,0
	c0-0.354,0.288-0.645,0.644-0.645l0,0C12.707,30.25,12.995,30.541,12.995,30.895L12.995,30.895z"/>
</svg>
