<?xml version="1.0" encoding="utf-8"?>
<!-- Generator: Adobe Illustrator 16.0.0, SVG Export Plug-In . SVG Version: 6.00 Build 0)  -->
<!DOCTYPE svg PUBLIC "-//W3C//DTD SVG 1.1//EN" "http://www.w3.org/Graphics/SVG/1.1/DTD/svg11.dtd">
<svg version="1.1" id="Layer_1" xmlns="http://www.w3.org/2000/svg" xmlns:xlink="http://www.w3.org/1999/xlink" x="0px" y="0px"
	 width="46px" height="40px" viewBox="0 0 46 40" enable-background="new 0 0 46 40" xml:space="preserve">
<g>
	<path fill="#FFC871" stroke="#545454" stroke-linecap="round" stroke-linejoin="round" stroke-miterlimit="10" d="M41.27,14.022
		c-1.693,2.004-4.637,3.032-7.453,3.413c-3.707,0.379-9.25,0.79-11.554-1.076l0,0c1.789,1.665,4.117,2.475,6.394,2.775
		c-1.619,1-3.373,2.698-4.525,4.482c-2.636,4.219-2.185,7.599-0.972,12.15c0,0,0,0,0.007,0.06c-4.312,1.178-8.92,1.493-13.364,1.242
		c0.686-2.089,0.684-4.382,0.693-6.558c1.414,0.175,2.74-0.305,3.557-1.863c0.959-1.88,0.573-4.304,0.015-6.225
		c-0.648-2.146-4.95-12.2-1.199-13.062c1.408-0.309-1.803,1.206-1.392,4.292c0.293,2.195,1.574,5.764,2.276,7.847
		c1.117,3.025,2.029,9.847-3.525,8.897c-3.949-1.526-8.534-11.092-8.703-15.056C1.289,9.94,4.594,5.754,9.078,3.162
		c4.76-2.81,9.497-4.408,14.074-0.43c2.868,2.456,5.155,4.204,9.118,4.04c2.039-0.092,6.184-1.19,6.24-1.198
		c8.1-2.549,4.873,4.602,4.873,4.602C42.838,11.631,42.299,12.797,41.27,14.022z"/>
	<g>
		<path fill="#FF9CAF" d="M31.631,23.486c-0.797,0-1.25-0.765-1.73-1.571c-0.383-0.647-0.818-1.379-1.48-1.9
			c-1.576-1.238-2.836-1.465-2.846-1.467c-0.188-0.032-0.328-0.184-0.346-0.37c-0.018-0.188,0.094-0.362,0.268-0.427
			c0.324-0.121,0.711-0.181,1.15-0.181c1.529,0,3.545,0.745,4.904,1.81c1.172,0.921,1.766,1.945,1.631,2.807
			c-0.084,0.554-0.469,0.981-1.078,1.21C31.943,23.455,31.785,23.486,31.631,23.486L31.631,23.486z"/>
		<path fill="#545454" d="M26.646,17.984c1.402,0,3.314,0.675,4.646,1.722c1.689,1.33,1.988,2.808,0.664,3.301
			c-0.117,0.044-0.225,0.064-0.328,0.064c-1.053,0-1.412-2.167-2.953-3.381c-1.693-1.333-3.037-1.551-3.037-1.551
			C25.922,18.034,26.266,17.984,26.646,17.984 M26.646,17.156c-0.492,0-0.926,0.07-1.295,0.207
			c-0.354,0.131-0.572,0.483-0.537,0.857c0.035,0.374,0.32,0.676,0.691,0.738c0.004,0.001,1.18,0.223,2.658,1.384
			c0.6,0.473,1.016,1.169,1.381,1.784c0.518,0.871,1.055,1.773,2.086,1.773c0.203,0,0.412-0.039,0.617-0.115
			c0.756-0.282,1.232-0.826,1.342-1.533c0.158-1.016-0.492-2.182-1.785-3.197C30.359,17.918,28.287,17.156,26.646,17.156
			L26.646,17.156z"/>
	</g>
	<path fill="#FF9971" d="M36.219,8.839c0.354-0.047,0.676,0.198,0.723,0.551c0.047,0.35-0.201,0.674-0.555,0.721
		c-0.346,0.047-0.67-0.2-0.717-0.552C35.621,9.208,35.871,8.887,36.219,8.839z"/>
	<circle fill="#FF9971" cx="39.779" cy="10.242" r="0.642"/>
	<circle fill="#FF9971" cx="37.48" cy="12.431" r="0.642"/>
	
		<ellipse transform="matrix(-0.749 0.6626 -0.6626 -0.749 78.4936 -16.0451)" fill="#545454" cx="42.286" cy="6.846" rx="1.569" ry="2.806"/>
</g>
<path fill="#FCF792" stroke="#545454" stroke-linecap="round" stroke-linejoin="round" stroke-miterlimit="10" d="M24.58,35.568
	c0.059,0.979-0.533,1.7-1.667,1.878c-3.121,0.951-11.38,1.156-13,0.774c-1.348-0.044-1.82-0.688-1.879-1.667l0,0
	c-0.059-0.979,0.605-2.023,1.668-1.878c2.254,0.66,10.933,0.247,13-0.772C23.617,33.48,24.523,34.59,24.58,35.568L24.58,35.568z"/>
<line fill="none" stroke="#545454" stroke-width="0.7" stroke-linecap="round" stroke-linejoin="round" stroke-miterlimit="10" x1="36.041" y1="24.032" x2="40.096" y2="27.146"/>
<line fill="none" stroke="#545454" stroke-width="0.7" stroke-linecap="round" stroke-linejoin="round" stroke-miterlimit="10" x1="33.742" y1="26.785" x2="37.125" y2="31.085"/>
<line fill="none" stroke="#545454" stroke-width="0.7" stroke-linecap="round" stroke-linejoin="round" stroke-miterlimit="10" x1="37.928" y1="20.882" x2="43.785" y2="23.142"/>
<circle fill="#545454" cx="20.63" cy="9.879" r="1"/>
</svg>
