<?xml version="1.0" encoding="utf-8"?>
<!-- Generator: Adobe Illustrator 16.0.0, SVG Export Plug-In . SVG Version: 6.00 Build 0)  -->
<!DOCTYPE svg PUBLIC "-//W3C//DTD SVG 1.1//EN" "http://www.w3.org/Graphics/SVG/1.1/DTD/svg11.dtd">
<svg version="1.1" id="Layer_1" xmlns="http://www.w3.org/2000/svg" xmlns:xlink="http://www.w3.org/1999/xlink" x="0px" y="0px"
	 width="46px" height="40px" viewBox="0 0 46 40" enable-background="new 0 0 46 40" xml:space="preserve">
<path fill="#C5C5FF" stroke="#545454" d="M13.533,32.132c0,2.571-2.083,4.655-4.656,4.655c-2.571,0-4.656-2.084-4.656-4.655
	c0-2.572,2.085-4.656,4.656-4.656C11.449,27.476,13.533,29.561,13.533,32.132L13.533,32.132z"/>
<path fill="#C5C5FF" stroke="#545454" d="M41.467,32.132c0,2.571-2.085,4.655-4.656,4.655s-4.656-2.084-4.656-4.655
	c0-2.572,2.085-4.656,4.656-4.656C39.38,27.476,41.467,29.561,41.467,32.132L41.467,32.132z"/>
<path fill="none" stroke="#545454" stroke-linecap="round" d="M3.445,24.371H0.342"/>
<path fill="#FC7A8C" stroke="#545454" d="M0.342,22.204v8.215c0,0.945,0.765,1.712,1.711,1.712H4.22
	c0-2.571,2.085-4.655,4.656-4.655c2.571,0,4.656,2.083,4.656,4.655h18.622c0-2.571,2.085-4.655,4.657-4.655
	c2.569,0,4.654,2.083,4.654,4.655h2.167c0.945,0,1.712-0.767,1.712-1.712v-8.215c0-0.945-0.765-1.711-1.712-1.711H2.054
	C1.109,20.493,0.342,21.261,0.342,22.204L0.342,22.204z"/>
<path fill="none" stroke="#545454" stroke-linecap="round" d="M22.844,24.371h3.879"/>
<path fill="#545454" d="M9.654,32.132c0,0.428-0.348,0.774-0.777,0.774c-0.427,0-0.775-0.347-0.775-0.774
	c0-0.43,0.348-0.776,0.775-0.776C9.306,31.355,9.654,31.702,9.654,32.132"/>
<path fill="#545454" d="M37.585,32.132c0,0.428-0.348,0.774-0.774,0.774c-0.43,0-0.775-0.347-0.775-0.774
	c0-0.43,0.347-0.776,0.775-0.776C37.238,31.355,37.585,31.702,37.585,32.132"/>
<path fill="none" stroke="#545454" stroke-linecap="round" stroke-linejoin="round" d="M45.346,26.701h-2.33
	c-0.855,0-1.549-0.694-1.549-1.554c0-0.857,0.691-1.551,1.549-1.551h2.33V26.701L45.346,26.701z"/>
<path fill="none" stroke="#545454" stroke-linecap="round" stroke-linejoin="round" d="M22.844,24.371v0.776"/>
<path fill="none" stroke="#545454" stroke-linecap="round" stroke-linejoin="round" d="M26.723,24.371v0.776"/>
<path fill="#C7F7FF" stroke="#545454" stroke-linecap="round" stroke-linejoin="round" d="M36.032,20.493H7.326v-7.736
	c0-1.298,1.051-2.353,2.352-2.353h13.42c3.264,0,6.345,1.517,8.334,4.104L36.032,20.493L36.032,20.493z"/>
<path fill="#D4D4FC" stroke="#545454" d="M23.293,20.493h3.268l-1.398-4.23c-0.268-0.81-1.151-1.254-1.96-0.986
	c-0.81,0.268-1.253,1.15-0.985,1.96L23.293,20.493L23.293,20.493z"/>
<path fill="#D4D4FC" stroke="#545454" d="M12.45,20.493h3.3l-1.534-4.246c-0.29-0.804-1.184-1.225-1.986-0.933
	c-0.803,0.29-1.221,1.184-0.932,1.987L12.45,20.493L12.45,20.493z"/>
<circle fill="#FFFFFF" stroke="#545454" cx="37.577" cy="4.512" r="3.887"/>
<line fill="none" stroke="#545454" stroke-linecap="round" stroke-linejoin="round" x1="37.35" y1="2.682" x2="37.35" y2="4.363"/>
<line fill="none" stroke="#545454" stroke-linecap="round" stroke-linejoin="round" x1="37.353" y1="4.532" x2="38.663" y2="5.504"/>
</svg>
