<?xml version="1.0" encoding="utf-8"?>
<!-- Generator: Adobe Illustrator 16.0.0, SVG Export Plug-In . SVG Version: 6.00 Build 0)  -->
<!DOCTYPE svg PUBLIC "-//W3C//DTD SVG 1.1//EN" "http://www.w3.org/Graphics/SVG/1.1/DTD/svg11.dtd">
<svg version="1.1" id="Layer_1" xmlns="http://www.w3.org/2000/svg" xmlns:xlink="http://www.w3.org/1999/xlink" x="0px" y="0px"
	 width="46px" height="40px" viewBox="0 0 46 40" enable-background="new 0 0 46 40" xml:space="preserve">
<path fill="#B9F9F6" stroke="#545454" stroke-miterlimit="10" d="M45.555,22.096c0,3.123-2.986,5.654-6.211,5.654H6.663
	c-3.223,0-6.108-2.531-6.108-5.654V9.656c0-3.123,2.885-5.905,6.108-5.905h32.681c3.225,0,6.211,2.782,6.211,5.905V22.096z"/>
<line fill="none" stroke="#545454" stroke-linecap="round" stroke-linejoin="round" stroke-miterlimit="10" x1="4.514" y1="23.75" x2="41.514" y2="23.75"/>
<line fill="none" stroke="#545454" stroke-linecap="round" stroke-linejoin="round" stroke-miterlimit="10" x1="4.514" y1="19.75" x2="41.514" y2="19.75"/>
<path fill="#5CD5FD" stroke="#545454" stroke-miterlimit="10" d="M45.555,9.406c0-3.124-2.986-5.655-6.211-5.655H6.663
	c-3.223,0-6.108,2.531-6.108,5.655v5.762l45,0.083V9.406z"/>
<line fill="none" stroke="#545454" stroke-width="1.2" stroke-linecap="round" stroke-linejoin="round" stroke-miterlimit="10" x1="13.199" y1="9.25" x2="15.058" y2="9.25"/>
<line fill="none" stroke="#545454" stroke-width="1.2" stroke-linecap="round" stroke-linejoin="round" stroke-miterlimit="10" x1="7.058" y1="9.25" x2="10.652" y2="9.25"/>
<path fill="none" stroke="#545454" stroke-width="0.8" stroke-linecap="round" stroke-linejoin="round" stroke-miterlimit="10" d="
	M17.472,30.25c-0.386,0.656-0.705,1.826,0,2.906c1.062,1.625,0.331,2.771,0,3.094"/>
<path fill="none" stroke="#545454" stroke-width="0.8" stroke-linecap="round" stroke-linejoin="round" stroke-miterlimit="10" d="
	M22.555,30.25c-0.386,0.656-0.705,1.826,0,2.906c1.062,1.625,0.331,2.771,0,3.094"/>
<path fill="none" stroke="#545454" stroke-width="0.8" stroke-linecap="round" stroke-linejoin="round" stroke-miterlimit="10" d="
	M27.555,30.25c-0.387,0.656-0.705,1.826,0,2.906c1.062,1.625,0.33,2.771,0,3.094"/>
<line fill="none" stroke="#5CD5FD" stroke-width="0.7337" stroke-linecap="round" stroke-linejoin="round" stroke-miterlimit="10" x1="7.6" y1="33.32" x2="8.154" y2="35.686"/>
<line fill="none" stroke="#5CD5FD" stroke-width="0.7337" stroke-linecap="round" stroke-linejoin="round" stroke-miterlimit="10" x1="6.775" y1="34.762" x2="8.979" y2="34.246"/>
<line fill="none" stroke="#5CD5FD" stroke-width="0.698" stroke-linecap="round" stroke-linejoin="round" stroke-miterlimit="10" x1="32.15" y1="30.65" x2="31.722" y2="32.922"/>
<line fill="none" stroke="#5CD5FD" stroke-width="0.698" stroke-linecap="round" stroke-linejoin="round" stroke-miterlimit="10" x1="30.877" y1="31.588" x2="32.992" y2="31.984"/>
<line fill="none" stroke="#5CD5FD" stroke-width="0.4871" stroke-linecap="round" stroke-linejoin="round" stroke-miterlimit="10" x1="13.444" y1="35.118" x2="12.957" y2="36.213"/>
<line fill="none" stroke="#5CD5FD" stroke-width="0.4871" stroke-linecap="round" stroke-linejoin="round" stroke-miterlimit="10" x1="12.69" y1="35.438" x2="13.709" y2="35.893"/>
<line fill="none" stroke="#5CD5FD" stroke-width="0.4716" stroke-linecap="round" stroke-linejoin="round" stroke-miterlimit="10" x1="36.93" y1="34.434" x2="37.139" y2="35.574"/>
<line fill="none" stroke="#5CD5FD" stroke-width="0.4716" stroke-linecap="round" stroke-linejoin="round" stroke-miterlimit="10" x1="36.501" y1="35.104" x2="37.564" y2="34.908"/>
<path fill="#5CD5FD" d="M12.291,30.783c0,0.293-0.238,0.531-0.533,0.531l0,0c-0.294,0-0.533-0.238-0.533-0.531l0,0
	c0-0.293,0.238-0.533,0.533-0.533l0,0C12.053,30.25,12.291,30.49,12.291,30.783L12.291,30.783z"/>
<path fill="#5CD5FD" d="M4.842,30.742c0,0.236-0.192,0.432-0.431,0.432l0,0c-0.239,0-0.431-0.193-0.431-0.432l0,0
	c0-0.238,0.191-0.432,0.431-0.432l0,0C4.65,30.312,4.842,30.504,4.842,30.742L4.842,30.742z"/>
<path fill="#5CD5FD" d="M39.93,30.766c0,0.285-0.23,0.518-0.516,0.518l0,0c-0.286,0-0.517-0.232-0.517-0.518l0,0
	c0-0.283,0.229-0.516,0.517-0.516l0,0C39.699,30.25,39.93,30.48,39.93,30.766L39.93,30.766z"/>
</svg>
