<?xml version="1.0" encoding="UTF-8"?>
<svg width="9px" height="16px" viewBox="0 0 9 16" version="1.1" xmlns="http://www.w3.org/2000/svg" xmlns:xlink="http://www.w3.org/1999/xlink">
    <!-- Generator: Sketch 41.2 (35397) - http://www.bohemiancoding.com/sketch -->
    <title>fblittle</title>
    <desc>Created with Sketch.</desc>
    <defs></defs>
    <g id="Page-1" stroke="none" stroke-width="1" fill="none" fill-rule="evenodd">
        <g id="Desktop" transform="translate(-752.000000, -2563.000000)" fill="#545454">
            <g id="Group-12" transform="translate(151.000000, 2396.000000)">
                <g id="Group-13" transform="translate(540.000000, 159.000000)">
                    <g id="Page-1" transform="translate(61.000000, 8.000000)">
                        <path d="M8.65435545,0.00334857143 L6.49735545,5.71428609e-06 C4.07400891,5.71428609e-06 2.5079198,1.54532 2.5079198,3.93749143 L2.5079198,5.75289143 L0.339187129,5.75289143 C0.151761386,5.75289143 8.91089076e-06,5.89912 8.91089076e-06,6.07946286 L8.91089076e-06,8.70983429 C8.91089076e-06,8.89017714 0.151939604,9.03594857 0.339187129,9.03594857 L2.5079198,9.03594857 L2.5079198,15.6736629 C2.5079198,15.8540057 2.65970198,16.0000057 2.84709802,16.0000057 L5.67675149,16.0000057 C5.86417723,16.0000057 6.0159297,15.8538057 6.0159297,15.6736629 L6.0159297,9.03594857 L8.55173168,9.03594857 C8.73912772,9.03594857 8.8909099,8.89017714 8.8909099,8.70983429 L8.8919495,6.07946286 C8.8919495,5.99286286 8.85612772,5.90983429 8.79259307,5.84889143 C8.72911782,5.78749143 8.64259307,5.75289143 8.55259307,5.75289143 L6.0159297,5.75289143 L6.0159297,4.21429143 C6.0159297,3.47432 6.19919703,3.09889143 7.2009297,3.09889143 L8.65399901,3.09820571 C8.84124653,3.09820571 8.99296931,2.95223429 8.99296931,2.77186286 L8.99296931,0.329462857 C8.99296931,0.149548571 8.84142475,0.00357714286 8.65435545,0.00334857143" id="fblittle"></path>
                    </g>
                </g>
            </g>
        </g>
    </g>
</svg>