<?xml version="1.0" encoding="utf-8"?>
<!-- Generator: Adobe Illustrator 16.0.0, SVG Export Plug-In . SVG Version: 6.00 Build 0)  -->
<!DOCTYPE svg PUBLIC "-//W3C//DTD SVG 1.1//EN" "http://www.w3.org/Graphics/SVG/1.1/DTD/svg11.dtd">
<svg version="1.1" id="Layer_1" xmlns="http://www.w3.org/2000/svg" xmlns:xlink="http://www.w3.org/1999/xlink" x="0px" y="0px"
	 width="308px" height="283px" viewBox="0 0 308 283" enable-background="new 0 0 308 283" xml:space="preserve">
<path fill="#FFFFFF" stroke="#D3DCE6" stroke-miterlimit="10" d="M307.5,278.866c0,2.007-1.533,3.634-4.041,3.634H5.542
	c-2.508,0-5.042-1.627-5.042-3.634V4.134C0.5,2.127,3.033,0.5,5.542,0.5h297.917c2.508,0,4.041,1.627,4.041,3.634V278.866z"/>
<path fill="#F8FCFF" stroke="#D3DCE6" stroke-miterlimit="10" d="M307.5,278.895c0,1.715-1.533,3.605-4.041,3.605H5.542
	c-2.508,0-5.042-1.891-5.042-3.605V44.5h307V278.895z"/>
<g>
	<path fill="#545454" d="M19.63,25.233v-0.167c0-0.129,0.035-0.228,0.105-0.297c0.07-0.069,0.166-0.104,0.287-0.104h0.21
		c0.121,0,0.217,0.034,0.287,0.104c0.07,0.069,0.105,0.167,0.105,0.296v0.152c0,0.68,0.163,1.171,0.49,1.475
		s0.742,0.455,1.246,0.455c0.476,0,0.882-0.156,1.218-0.469c0.336-0.312,0.504-0.812,0.504-1.502v-6.421
		c0-0.12,0.033-0.213,0.098-0.282c0.065-0.069,0.163-0.104,0.294-0.104h0.196c0.131,0,0.231,0.034,0.301,0.104
		c0.07,0.069,0.105,0.163,0.105,0.283v6.444c0,1.003-0.257,1.723-0.77,2.16c-0.514,0.438-1.162,0.656-1.946,0.656
		c-0.793,0-1.447-0.217-1.96-0.65S19.63,26.22,19.63,25.233z"/>
	<path fill="#545454" d="M26.966,25.602c-0.038-0.164-0.017-0.281,0.063-0.354c0.079-0.073,0.184-0.109,0.315-0.109h0.154
		c0.131,0,0.231,0.034,0.301,0.102c0.07,0.068,0.124,0.161,0.161,0.278c0.103,0.534,0.38,0.946,0.833,1.236s1.062,0.434,1.827,0.434
		c0.812,0,1.447-0.167,1.904-0.503c0.458-0.335,0.686-0.788,0.686-1.359c0-0.707-0.315-1.165-0.945-1.373
		c-0.63-0.208-1.323-0.383-2.079-0.523c-0.756-0.141-1.449-0.362-2.079-0.666c-0.63-0.303-0.945-0.908-0.945-1.814
		c0-0.743,0.308-1.361,0.924-1.855c0.616-0.494,1.442-0.741,2.478-0.741c0.961,0,1.734,0.196,2.317,0.586
		c0.583,0.391,0.936,0.94,1.057,1.649c0.037,0.164,0.016,0.279-0.063,0.347c-0.079,0.068-0.18,0.103-0.301,0.103h-0.182
		c-0.122,0-0.217-0.034-0.287-0.102c-0.07-0.068-0.124-0.161-0.161-0.278c-0.122-0.488-0.385-0.857-0.791-1.106
		c-0.406-0.249-0.936-0.373-1.589-0.373c-0.69,0-1.26,0.149-1.708,0.448c-0.448,0.299-0.672,0.716-0.672,1.25
		c0,0.68,0.317,1.114,0.952,1.305c0.634,0.19,1.328,0.355,2.079,0.496c0.751,0.14,1.444,0.374,2.079,0.7
		c0.635,0.327,0.952,0.961,0.952,1.903c0,0.807-0.32,1.463-0.959,1.971s-1.528,0.761-2.667,0.761c-1.092,0-1.948-0.218-2.569-0.654
		C27.43,26.924,27.068,26.338,26.966,25.602z"/>
	<path fill="#545454" d="M35.478,23.184c0-0.689,0.112-1.331,0.336-1.925c0.224-0.594,0.537-1.104,0.938-1.531
		c0.401-0.426,0.886-0.762,1.456-1.006c0.569-0.245,1.199-0.368,1.89-0.368c0.672,0,1.293,0.123,1.862,0.368
		c0.569,0.245,1.057,0.581,1.463,1.006c0.406,0.426,0.723,0.937,0.952,1.531c0.229,0.594,0.343,1.236,0.343,1.925
		s-0.114,1.331-0.343,1.925c-0.229,0.594-0.546,1.104-0.952,1.53c-0.406,0.426-0.894,0.762-1.463,1.007
		c-0.569,0.245-1.19,0.368-1.862,0.368c-0.69,0-1.321-0.123-1.89-0.368c-0.57-0.245-1.055-0.581-1.456-1.007
		c-0.401-0.426-0.714-0.937-0.938-1.53C35.59,24.515,35.478,23.874,35.478,23.184z M36.514,23.184c0,1.117,0.332,2.05,0.994,2.798
		s1.526,1.122,2.59,1.122c1.055,0,1.916-0.374,2.583-1.122s1.001-1.681,1.001-2.798c0-1.118-0.333-2.05-1.001-2.798
		c-0.667-0.748-1.528-1.122-2.583-1.122c-1.064,0-1.927,0.374-2.59,1.122C36.845,21.134,36.514,22.066,36.514,23.184z"/>
	<path fill="#545454" d="M46.65,27.608V18.76c0-0.121,0.035-0.217,0.105-0.287c0.07-0.07,0.166-0.105,0.287-0.105h0.266
		c0.13,0,0.235,0.03,0.315,0.091c0.079,0.061,0.166,0.161,0.259,0.301l5.348,7.588h0.042L53.23,18.76
		c0-0.121,0.033-0.217,0.098-0.287c0.065-0.07,0.163-0.105,0.294-0.105h0.196c0.131,0,0.231,0.035,0.301,0.105
		c0.07,0.07,0.105,0.166,0.105,0.287v8.848c0,0.122-0.035,0.217-0.105,0.287c-0.07,0.07-0.17,0.105-0.301,0.105h-0.252
		c-0.131,0-0.236-0.03-0.315-0.091c-0.08-0.061-0.166-0.161-0.259-0.301l-5.348-7.588h-0.042l0.042,7.588
		c0,0.122-0.035,0.217-0.105,0.287C47.469,27.965,47.373,28,47.252,28h-0.21c-0.122,0-0.217-0.035-0.287-0.105
		C46.685,27.825,46.65,27.729,46.65,27.608z"/>
	<path fill="#545454" d="M59.795,27.608V18.76c0-0.121,0.035-0.217,0.105-0.287c0.07-0.07,0.166-0.105,0.287-0.105h3.22
		c1.054,0,1.857,0.245,2.408,0.735c0.551,0.49,0.826,1.169,0.826,2.037c0,0.728-0.196,1.342-0.588,1.841
		c-0.392,0.5-0.961,0.824-1.708,0.973l2.226,3.486c0.112,0.177,0.131,0.315,0.056,0.413S66.45,28,66.319,28h-0.182
		c-0.131,0-0.236-0.033-0.315-0.098c-0.079-0.065-0.166-0.168-0.259-0.308l-2.254-3.528h-2.52v3.542
		c0,0.122-0.035,0.217-0.105,0.287C60.614,27.965,60.519,28,60.397,28h-0.21c-0.122,0-0.217-0.035-0.287-0.105
		C59.831,27.825,59.795,27.729,59.795,27.608z M60.79,23.198h2.66c0.718,0,1.264-0.196,1.638-0.588
		c0.373-0.392,0.56-0.882,0.56-1.47c0-0.588-0.189-1.052-0.567-1.393s-0.922-0.511-1.631-0.511h-2.66V23.198z"/>
	<path fill="#545454" d="M67.846,24.584c0-1.013,0.303-1.838,0.91-2.475c0.606-0.636,1.354-0.955,2.24-0.955
		c0.849,0,1.551,0.265,2.106,0.795s0.833,1.264,0.833,2.204c0,0.121-0.033,0.211-0.098,0.271c-0.065,0.06-0.164,0.09-0.295,0.09
		H68.84c0.009,0.812,0.215,1.46,0.615,1.946c0.402,0.485,0.934,0.728,1.597,0.728c0.457,0,0.837-0.103,1.142-0.308
		c0.303-0.205,0.515-0.466,0.637-0.784c0.056-0.122,0.113-0.208,0.175-0.259c0.061-0.051,0.142-0.077,0.245-0.077h0.238
		c0.158,0,0.254,0.049,0.286,0.147c0.032,0.098,0.03,0.193-0.007,0.287c-0.178,0.542-0.514,0.98-1.008,1.316
		c-0.495,0.336-1.064,0.504-1.708,0.504c-1.026,0-1.817-0.314-2.373-0.942C68.123,26.445,67.846,25.615,67.846,24.584z
		 M68.896,23.786h4.074c-0.047-0.606-0.25-1.059-0.608-1.358c-0.359-0.299-0.814-0.448-1.365-0.448
		c-0.532,0-0.992,0.162-1.379,0.485C69.229,22.788,68.988,23.229,68.896,23.786z"/>
	<path fill="#545454" d="M75.195,26.333c-0.019-0.118,0.008-0.208,0.077-0.271c0.069-0.063,0.165-0.095,0.287-0.095h0.168
		c0.093,0,0.173,0.02,0.237,0.06c0.066,0.04,0.117,0.1,0.154,0.18c0.149,0.408,0.381,0.685,0.693,0.832s0.684,0.219,1.113,0.219
		c0.578,0,1.031-0.104,1.357-0.314c0.326-0.209,0.49-0.511,0.49-0.904c0-0.321-0.104-0.557-0.309-0.709s-0.508-0.259-0.909-0.321
		l-1.261-0.214c-0.467-0.08-0.904-0.238-1.315-0.475c-0.411-0.236-0.616-0.649-0.616-1.238c0-0.616,0.252-1.091,0.756-1.425
		c0.504-0.335,1.12-0.502,1.848-0.502c0.626,0,1.195,0.129,1.709,0.387c0.513,0.258,0.816,0.667,0.91,1.227
		c0.009,0.118-0.02,0.208-0.084,0.271c-0.066,0.063-0.159,0.095-0.281,0.095h-0.182c-0.094,0-0.172-0.024-0.238-0.073
		c-0.064-0.049-0.116-0.117-0.153-0.206c-0.103-0.328-0.311-0.567-0.623-0.718c-0.313-0.151-0.665-0.226-1.058-0.226
		c-0.476,0-0.872,0.091-1.189,0.274c-0.317,0.183-0.477,0.466-0.477,0.85c0,0.304,0.11,0.531,0.33,0.683
		c0.219,0.152,0.533,0.259,0.944,0.321l1.274,0.214c0.541,0.089,0.988,0.257,1.344,0.502c0.354,0.246,0.532,0.658,0.532,1.238
		c0,0.669-0.265,1.174-0.791,1.513c-0.527,0.339-1.197,0.509-2.009,0.509c-0.7,0-1.31-0.14-1.827-0.42
		C75.58,27.314,75.279,26.894,75.195,26.333z"/>
	<path fill="#545454" d="M83.413,29.204v1.484c0,0.121-0.034,0.217-0.104,0.287c-0.07,0.07-0.166,0.105-0.287,0.105h-0.168
		c-0.131,0-0.229-0.035-0.295-0.105c-0.064-0.07-0.098-0.166-0.098-0.287v-9.142c0-0.121,0.033-0.214,0.098-0.28
		c0.066-0.065,0.159-0.098,0.281-0.098h0.168c0.121,0,0.212,0.033,0.272,0.098s0.091,0.159,0.091,0.28v0.896h0.042
		c0.215-0.438,0.539-0.762,0.974-0.972c0.434-0.21,0.912-0.316,1.435-0.316c0.84,0,1.547,0.298,2.121,0.895
		c0.573,0.597,0.86,1.424,0.86,2.482s-0.301,1.903-0.902,2.536c-0.602,0.632-1.323,0.948-2.163,0.948
		c-0.522,0-0.987-0.105-1.394-0.316c-0.405-0.21-0.716-0.534-0.931-0.972h-0.042c0.01,0.187,0.017,0.406,0.021,0.658
		c0.004,0.252,0.009,0.497,0.014,0.735c0.005,0.238,0.007,0.457,0.007,0.658S83.413,29.12,83.413,29.204z M83.413,24.584
		c0,0.824,0.212,1.464,0.638,1.92c0.424,0.456,0.944,0.684,1.561,0.684s1.137-0.239,1.561-0.717c0.425-0.478,0.637-1.125,0.637-1.94
		s-0.214-1.444-0.643-1.886c-0.43-0.443-0.948-0.665-1.555-0.665c-0.616,0-1.137,0.228-1.561,0.684
		C83.625,23.121,83.413,23.76,83.413,24.584z"/>
	<path fill="#545454" d="M90.119,24.584c0-1.031,0.311-1.86,0.932-2.488c0.62-0.628,1.393-0.942,2.316-0.942
		c0.98,0,1.766,0.314,2.359,0.942c0.592,0.628,0.889,1.457,0.889,2.488s-0.311,1.861-0.932,2.488
		c-0.62,0.628-1.393,0.942-2.316,0.942c-0.98,0-1.767-0.314-2.359-0.942C90.415,26.445,90.119,25.615,90.119,24.584z M91.113,24.584
		c0,0.771,0.21,1.397,0.63,1.88c0.42,0.483,0.961,0.724,1.624,0.724c0.645,0,1.181-0.241,1.609-0.724
		c0.43-0.482,0.645-1.109,0.645-1.88c0-0.797-0.21-1.43-0.63-1.9c-0.42-0.469-0.962-0.704-1.624-0.704
		c-0.645,0-1.182,0.242-1.609,0.724C91.328,23.187,91.113,23.813,91.113,24.584z"/>
	<path fill="#545454" d="M98.337,27.608v-6.062c0-0.121,0.03-0.214,0.091-0.28s0.152-0.098,0.273-0.098h0.168
		c0.121,0,0.215,0.036,0.279,0.109c0.065,0.072,0.098,0.176,0.098,0.311v0.885h0.043c0.195-0.444,0.492-0.774,0.889-0.992
		c0.396-0.217,0.848-0.326,1.352-0.326c0.672,0,1.252,0.206,1.742,0.618s0.735,1.121,0.735,2.126v3.718
		c0,0.119-0.035,0.213-0.104,0.281c-0.07,0.069-0.166,0.103-0.287,0.103h-0.168c-0.131,0-0.229-0.034-0.295-0.103
		c-0.064-0.068-0.098-0.162-0.098-0.28v-3.585c0-0.748-0.161-1.277-0.482-1.587c-0.322-0.31-0.735-0.465-1.239-0.465
		c-0.56,0-1.041,0.221-1.442,0.664s-0.602,1.07-0.602,1.881v3.092c0,0.118-0.035,0.212-0.105,0.28S99.018,28,98.896,28h-0.168
		c-0.131,0-0.229-0.035-0.294-0.105S98.337,27.729,98.337,27.608z"/>
	<path fill="#545454" d="M105.617,26.333c-0.02-0.118,0.007-0.208,0.076-0.271c0.07-0.063,0.166-0.095,0.287-0.095h0.168
		c0.094,0,0.173,0.02,0.238,0.06c0.065,0.04,0.117,0.1,0.154,0.18c0.148,0.408,0.38,0.685,0.693,0.832
		c0.312,0.146,0.684,0.219,1.112,0.219c0.579,0,1.031-0.104,1.358-0.314c0.326-0.209,0.49-0.511,0.49-0.904
		c0-0.321-0.104-0.557-0.309-0.709s-0.509-0.259-0.91-0.321l-1.26-0.214c-0.467-0.08-0.905-0.238-1.316-0.475
		c-0.41-0.236-0.615-0.649-0.615-1.238c0-0.616,0.252-1.091,0.756-1.425c0.504-0.335,1.119-0.502,1.848-0.502
		c0.625,0,1.195,0.129,1.708,0.387s0.817,0.667,0.91,1.227c0.009,0.118-0.019,0.208-0.084,0.271
		c-0.065,0.063-0.159,0.095-0.28,0.095h-0.182c-0.094,0-0.173-0.024-0.238-0.073s-0.117-0.117-0.154-0.206
		c-0.103-0.328-0.311-0.567-0.623-0.718s-0.664-0.226-1.057-0.226c-0.477,0-0.873,0.091-1.189,0.274
		c-0.318,0.183-0.477,0.466-0.477,0.85c0,0.304,0.109,0.531,0.329,0.683s0.534,0.259,0.944,0.321l1.275,0.214
		c0.541,0.089,0.988,0.257,1.344,0.502c0.354,0.246,0.531,0.658,0.531,1.238c0,0.669-0.264,1.174-0.791,1.513
		s-1.197,0.509-2.009,0.509c-0.7,0-1.31-0.14-1.827-0.42C106.002,27.314,105.701,26.894,105.617,26.333z"/>
	<path fill="#545454" d="M112.365,24.584c0-1.013,0.303-1.838,0.91-2.475c0.605-0.636,1.353-0.955,2.239-0.955
		c0.849,0,1.552,0.265,2.106,0.795c0.556,0.53,0.834,1.264,0.834,2.204c0,0.121-0.033,0.211-0.098,0.271
		c-0.066,0.06-0.164,0.09-0.295,0.09h-4.703c0.008,0.812,0.214,1.46,0.615,1.946s0.934,0.728,1.596,0.728
		c0.457,0,0.838-0.103,1.142-0.308c0.303-0.205,0.515-0.466,0.637-0.784c0.056-0.122,0.114-0.208,0.175-0.259
		s0.143-0.077,0.245-0.077h0.238c0.159,0,0.254,0.049,0.286,0.147c0.033,0.098,0.031,0.193-0.006,0.287
		c-0.178,0.542-0.514,0.98-1.008,1.316c-0.496,0.336-1.064,0.504-1.709,0.504c-1.026,0-1.817-0.314-2.373-0.942
		C112.643,26.445,112.365,25.615,112.365,24.584z M113.414,23.786h4.074c-0.047-0.606-0.25-1.059-0.608-1.358
		c-0.359-0.299-0.814-0.448-1.365-0.448c-0.532,0-0.991,0.162-1.379,0.485S113.508,23.229,113.414,23.786z"/>
</g>
<g>
	<path fill="#545454" d="M32.232,85.711v-12.88c0-0.121,0.03-0.212,0.091-0.273c0.061-0.061,0.151-0.091,0.273-0.091h2.464
		c0.121,0,0.212,0.03,0.273,0.091c0.061,0.061,0.091,0.152,0.091,0.273v0.28c0,0.121-0.03,0.212-0.091,0.273
		c-0.061,0.061-0.152,0.091-0.273,0.091h-1.708v11.592h1.708c0.121,0,0.212,0.03,0.273,0.091c0.061,0.061,0.091,0.151,0.091,0.273
		v0.28c0,0.122-0.03,0.212-0.091,0.273c-0.061,0.061-0.152,0.091-0.273,0.091h-2.464c-0.122,0-0.212-0.03-0.273-0.091
		C32.262,85.923,32.232,85.833,32.232,85.711z"/>
	<path fill="#545454" d="M68.848,100.747v-2.464c0-0.588-0.076-1.031-0.23-1.33s-0.451-0.467-0.889-0.504l-0.141-0.014
		c-0.094-0.009-0.168-0.04-0.225-0.091c-0.055-0.051-0.084-0.124-0.084-0.217v-0.224c0-0.093,0.029-0.166,0.084-0.217
		c0.057-0.051,0.131-0.082,0.225-0.091l0.141-0.014c0.447-0.037,0.746-0.205,0.896-0.504s0.224-0.742,0.224-1.33v-2.352
		c0-0.672,0.154-1.195,0.463-1.568c0.308-0.374,0.881-0.56,1.722-0.56h0.364c0.121,0,0.212,0.03,0.272,0.091
		c0.061,0.061,0.091,0.152,0.091,0.273v0.28c0,0.121-0.03,0.212-0.091,0.273s-0.151,0.091-0.272,0.091h-0.309
		c-0.43,0-0.723,0.089-0.882,0.266s-0.238,0.462-0.238,0.854v2.688c0,0.504-0.104,0.913-0.315,1.225
		c-0.209,0.313-0.571,0.539-1.084,0.679v0.056c0.513,0.14,0.875,0.367,1.084,0.679c0.211,0.313,0.315,0.721,0.315,1.225v2.8
		c0,0.392,0.079,0.676,0.238,0.854c0.159,0.177,0.452,0.266,0.882,0.266h0.309c0.121,0,0.212,0.03,0.272,0.091
		c0.061,0.061,0.091,0.151,0.091,0.273v0.28c0,0.122-0.03,0.212-0.091,0.273c-0.061,0.061-0.151,0.091-0.272,0.091h-0.364
		c-0.841,0-1.414-0.187-1.722-0.56C69.002,101.941,68.848,101.419,68.848,100.747z"/>
	<path fill="#545454" d="M104.455,110.491c-0.104,0-0.191-0.04-0.266-0.119c-0.075-0.079-0.117-0.17-0.127-0.273l-0.111-1.4
		c-0.01-0.103-0.021-0.252-0.035-0.448c-0.014-0.196-0.021-0.345-0.021-0.448v-0.448c0-0.103,0.04-0.193,0.119-0.273
		c0.08-0.079,0.17-0.119,0.273-0.119h0.447c0.104,0,0.194,0.04,0.273,0.119c0.08,0.08,0.119,0.17,0.119,0.273v0.448
		c0,0.103-0.007,0.252-0.021,0.448c-0.014,0.196-0.025,0.346-0.035,0.448l-0.111,1.4c-0.01,0.103-0.051,0.194-0.126,0.273
		c-0.075,0.08-0.163,0.119-0.267,0.119H104.455z M106.919,110.491c-0.103,0-0.191-0.04-0.267-0.119
		c-0.074-0.079-0.116-0.17-0.125-0.273l-0.112-1.4c-0.009-0.103-0.021-0.252-0.035-0.448c-0.014-0.196-0.021-0.345-0.021-0.448
		v-0.448c0-0.103,0.039-0.193,0.119-0.273c0.078-0.079,0.17-0.119,0.272-0.119h0.448c0.103,0,0.193,0.04,0.273,0.119
		c0.078,0.08,0.118,0.17,0.118,0.273v0.448c0,0.103-0.007,0.252-0.021,0.448c-0.014,0.196-0.025,0.346-0.035,0.448l-0.112,1.4
		c-0.009,0.103-0.052,0.194-0.126,0.273c-0.074,0.08-0.163,0.119-0.266,0.119H106.919z"/>
	<path fill="#545454" d="M109.551,116.091v-9.24c0-0.168,0.042-0.294,0.126-0.378s0.21-0.126,0.378-0.126h0.225
		c0.168,0,0.293,0.042,0.377,0.126s0.127,0.21,0.127,0.378v9.24c0,0.168-0.043,0.294-0.127,0.378s-0.209,0.126-0.377,0.126h-0.225
		c-0.168,0-0.294-0.042-0.378-0.126S109.551,116.259,109.551,116.091z"/>
	<path fill="#545454" d="M112.463,114.8c0-0.532,0.175-0.964,0.524-1.297c0.351-0.333,0.922-0.565,1.716-0.698l1.344-0.213
		c0.363-0.062,0.604-0.124,0.721-0.186c0.117-0.062,0.175-0.168,0.175-0.319c0-0.417-0.124-0.743-0.371-0.978
		c-0.247-0.235-0.608-0.353-1.085-0.353c-0.504,0-0.852,0.09-1.043,0.27c-0.191,0.18-0.348,0.371-0.469,0.572
		c-0.047,0.088-0.109,0.171-0.189,0.25c-0.079,0.079-0.212,0.118-0.398,0.118h-0.196c-0.187,0-0.301-0.061-0.343-0.183
		c-0.042-0.122-0.045-0.25-0.008-0.385c0.15-0.487,0.461-0.884,0.932-1.19c0.471-0.307,1.043-0.46,1.715-0.46
		c0.896,0,1.568,0.208,2.016,0.623c0.449,0.416,0.672,0.993,0.672,1.732v4.025c0,0.155-0.039,0.271-0.118,0.349
		s-0.198,0.116-0.356,0.116h-0.225c-0.158,0-0.277-0.046-0.357-0.139c-0.079-0.092-0.119-0.231-0.119-0.416v-0.506h-0.056
		c-0.196,0.354-0.485,0.621-0.868,0.802s-0.821,0.272-1.316,0.272c-0.727,0-1.292-0.167-1.693-0.499S112.463,115.341,112.463,114.8z
		 M113.694,114.656c0,0.271,0.107,0.497,0.322,0.676c0.214,0.18,0.536,0.269,0.966,0.269c0.532,0,0.992-0.157,1.379-0.472
		c0.387-0.315,0.581-0.788,0.581-1.418v-0.617c-0.065,0.079-0.161,0.142-0.286,0.19c-0.127,0.048-0.273,0.085-0.441,0.111
		l-1.288,0.21c-0.448,0.07-0.766,0.195-0.952,0.374C113.787,114.16,113.694,114.385,113.694,114.656z"/>
	<path fill="#545454" d="M120.135,116.119v-9.268c0-0.168,0.042-0.294,0.126-0.378s0.21-0.126,0.378-0.126h0.225
		c0.168,0,0.293,0.041,0.377,0.122s0.127,0.203,0.127,0.365v1.622c0,0.226-0.003,0.543-0.008,0.953
		c-0.004,0.41-0.021,0.832-0.049,1.264h0.057c0.224-0.336,0.543-0.574,0.959-0.714c0.415-0.14,0.861-0.21,1.336-0.21
		c0.869,0,1.59,0.297,2.164,0.891c0.574,0.594,0.861,1.422,0.861,2.485c0,1.063-0.307,1.91-0.918,2.539
		c-0.611,0.63-1.351,0.945-2.219,0.945c-0.477,0-0.902-0.093-1.281-0.28c-0.378-0.187-0.679-0.504-0.902-0.952h-0.057v0.673
		c0,0.182-0.039,0.318-0.119,0.409c-0.079,0.091-0.198,0.136-0.356,0.136h-0.224c-0.159,0-0.278-0.04-0.357-0.119
		C120.174,116.397,120.135,116.278,120.135,116.119z M121.367,113.179c0,0.763,0.195,1.348,0.588,1.755
		c0.392,0.408,0.867,0.611,1.428,0.611s1.036-0.212,1.428-0.638c0.393-0.425,0.588-1.019,0.588-1.781
		c0-0.763-0.195-1.339-0.588-1.729c-0.392-0.39-0.867-0.585-1.428-0.585s-1.036,0.204-1.428,0.611
		C121.562,111.832,121.367,112.417,121.367,113.179z"/>
	<path fill="#545454" d="M127.918,113.179c0-1.009,0.311-1.833,0.932-2.472c0.621-0.639,1.393-0.958,2.316-0.958
		c0.896,0,1.625,0.264,2.185,0.791s0.84,1.257,0.84,2.191c0,0.154-0.042,0.27-0.126,0.347s-0.21,0.116-0.378,0.116h-4.479
		c0.027,0.709,0.223,1.279,0.588,1.708c0.363,0.429,0.84,0.644,1.428,0.644c0.392,0,0.711-0.072,0.959-0.217
		c0.247-0.145,0.436-0.329,0.566-0.553c0.084-0.149,0.166-0.254,0.245-0.315c0.079-0.061,0.18-0.091,0.302-0.091h0.321
		c0.215,0,0.339,0.068,0.371,0.203s0.026,0.254-0.021,0.357c-0.215,0.504-0.567,0.91-1.058,1.218
		c-0.489,0.308-1.052,0.462-1.687,0.462c-1.055,0-1.869-0.313-2.443-0.938S127.918,114.215,127.918,113.179z M129.276,112.269h3.653
		c-0.055-0.508-0.237-0.878-0.545-1.109c-0.309-0.231-0.715-0.347-1.219-0.347c-0.457,0-0.858,0.129-1.203,0.387
		C129.617,111.458,129.389,111.814,129.276,112.269z"/>
	<path fill="#545454" d="M135.758,116.091v-9.24c0-0.168,0.043-0.294,0.127-0.378s0.209-0.126,0.377-0.126h0.225
		c0.168,0,0.294,0.042,0.378,0.126s0.126,0.21,0.126,0.378v9.24c0,0.168-0.042,0.294-0.126,0.378s-0.21,0.126-0.378,0.126h-0.225
		c-0.168,0-0.293-0.042-0.377-0.126S135.758,116.259,135.758,116.091z"/>
	<path fill="#545454" d="M139.51,110.491c-0.103,0-0.191-0.04-0.266-0.119c-0.074-0.079-0.117-0.17-0.126-0.273l-0.112-1.4
		c-0.01-0.103-0.021-0.252-0.035-0.448c-0.014-0.196-0.021-0.345-0.021-0.448v-0.448c0-0.103,0.04-0.193,0.119-0.273
		c0.079-0.079,0.17-0.119,0.272-0.119h0.448c0.103,0,0.194,0.04,0.272,0.119c0.08,0.08,0.119,0.17,0.119,0.273v0.448
		c0,0.103-0.006,0.252-0.021,0.448c-0.015,0.196-0.026,0.346-0.035,0.448l-0.112,1.4c-0.009,0.103-0.051,0.194-0.125,0.273
		c-0.075,0.08-0.164,0.119-0.267,0.119H139.51z M141.975,110.491c-0.104,0-0.191-0.04-0.267-0.119
		c-0.075-0.079-0.116-0.17-0.126-0.273l-0.111-1.4c-0.01-0.103-0.021-0.252-0.035-0.448c-0.014-0.196-0.021-0.345-0.021-0.448
		v-0.448c0-0.103,0.039-0.193,0.119-0.273c0.079-0.079,0.17-0.119,0.273-0.119h0.447c0.104,0,0.193,0.04,0.273,0.119
		c0.079,0.08,0.119,0.17,0.119,0.273v0.448c0,0.103-0.008,0.252-0.021,0.448c-0.014,0.196-0.025,0.346-0.035,0.448l-0.111,1.4
		c-0.01,0.103-0.052,0.194-0.127,0.273c-0.074,0.08-0.162,0.119-0.266,0.119H141.975z"/>
	<path fill="#545454" d="M145.193,111.387c-0.195,0-0.342-0.049-0.44-0.147s-0.147-0.245-0.147-0.441v-0.448
		c0-0.196,0.049-0.343,0.147-0.441s0.245-0.147,0.44-0.147h0.393c0.196,0,0.344,0.049,0.441,0.147s0.146,0.245,0.146,0.441v0.448
		c0,0.196-0.049,0.343-0.146,0.441s-0.245,0.147-0.441,0.147H145.193z M144.605,116.007v-0.448c0-0.196,0.049-0.343,0.147-0.441
		s0.245-0.147,0.44-0.147h0.393c0.196,0,0.344,0.049,0.441,0.147s0.146,0.245,0.146,0.441v0.448c0,0.196-0.049,0.343-0.146,0.441
		s-0.245,0.147-0.441,0.147h-0.393c-0.195,0-0.342-0.049-0.44-0.147S144.605,116.203,144.605,116.007z"/>
	<path fill="#4DC4E8" d="M151.773,110.491c-0.104,0-0.191-0.04-0.266-0.119c-0.075-0.079-0.117-0.17-0.127-0.273l-0.111-1.4
		c-0.01-0.103-0.021-0.252-0.035-0.448c-0.014-0.196-0.021-0.345-0.021-0.448v-0.448c0-0.103,0.04-0.193,0.119-0.273
		c0.08-0.079,0.17-0.119,0.273-0.119h0.447c0.104,0,0.194,0.04,0.273,0.119c0.08,0.08,0.119,0.17,0.119,0.273v0.448
		c0,0.103-0.007,0.252-0.021,0.448c-0.014,0.196-0.025,0.346-0.035,0.448l-0.111,1.4c-0.01,0.103-0.051,0.194-0.126,0.273
		c-0.075,0.08-0.163,0.119-0.267,0.119H151.773z M154.237,110.491c-0.103,0-0.191-0.04-0.267-0.119
		c-0.074-0.079-0.116-0.17-0.125-0.273l-0.112-1.4c-0.009-0.103-0.021-0.252-0.035-0.448c-0.014-0.196-0.021-0.345-0.021-0.448
		v-0.448c0-0.103,0.039-0.193,0.119-0.273c0.078-0.079,0.17-0.119,0.272-0.119h0.448c0.103,0,0.193,0.04,0.273,0.119
		c0.078,0.08,0.118,0.17,0.118,0.273v0.448c0,0.103-0.007,0.252-0.021,0.448c-0.014,0.196-0.025,0.346-0.035,0.448l-0.112,1.4
		c-0.009,0.103-0.052,0.194-0.126,0.273c-0.074,0.08-0.163,0.119-0.266,0.119H154.237z"/>
	<path fill="#4DC4E8" d="M156.491,114.276c-0.047-0.228-0.021-0.386,0.077-0.478c0.098-0.091,0.23-0.136,0.398-0.136h0.225
		c0.168,0,0.296,0.042,0.385,0.127c0.088,0.085,0.161,0.204,0.217,0.357c0.149,0.421,0.422,0.76,0.819,1.016
		c0.396,0.255,0.95,0.383,1.659,0.383c0.756,0,1.346-0.151,1.771-0.453s0.638-0.709,0.638-1.223c0-0.639-0.313-1.054-0.938-1.243
		c-0.626-0.189-1.307-0.356-2.044-0.5s-1.419-0.376-2.044-0.696c-0.626-0.32-0.938-0.93-0.938-1.832
		c0-0.757,0.317-1.387,0.952-1.892c0.635-0.504,1.484-0.757,2.548-0.757c0.98,0,1.762,0.193,2.346,0.581
		c0.583,0.387,0.963,0.921,1.141,1.604c0.057,0.219,0.035,0.373-0.062,0.464c-0.099,0.091-0.231,0.136-0.399,0.136h-0.238
		c-0.168,0-0.294-0.042-0.378-0.127c-0.084-0.085-0.158-0.204-0.224-0.356c-0.178-0.413-0.438-0.722-0.784-0.928
		s-0.812-0.31-1.4-0.31c-0.615,0-1.134,0.131-1.554,0.392s-0.63,0.635-0.63,1.122c0,0.622,0.312,1.019,0.938,1.189
		c0.625,0.171,1.312,0.329,2.059,0.473c0.746,0.144,1.433,0.387,2.058,0.73c0.626,0.342,0.938,0.986,0.938,1.933
		c0,0.811-0.334,1.473-1.002,1.987c-0.666,0.514-1.584,0.771-2.75,0.771c-1.139,0-2.014-0.218-2.625-0.655
		C157.035,115.518,156.65,114.958,156.491,114.276z"/>
	<path fill="#4DC4E8" d="M165.661,116.091v-5.852c0-0.159,0.04-0.278,0.119-0.357s0.198-0.119,0.356-0.119h0.225
		c0.158,0,0.277,0.046,0.357,0.137c0.078,0.091,0.119,0.228,0.119,0.41v0.612h0.055c0.197-0.391,0.475-0.684,0.834-0.88
		c0.359-0.195,0.791-0.293,1.295-0.293c0.672,0,1.26,0.208,1.764,0.623c0.504,0.416,0.756,1.139,0.756,2.17v3.56
		c0,0.164-0.042,0.287-0.126,0.37c-0.084,0.082-0.21,0.123-0.378,0.123h-0.225c-0.168,0-0.293-0.041-0.377-0.123
		c-0.084-0.082-0.127-0.205-0.127-0.368v-3.382c0-0.709-0.142-1.205-0.426-1.487c-0.285-0.282-0.666-0.423-1.142-0.423
		c-0.532,0-0.974,0.214-1.323,0.641s-0.525,0.996-0.525,1.705v2.946c0,0.164-0.041,0.286-0.125,0.368
		c-0.084,0.082-0.211,0.123-0.379,0.123h-0.224c-0.168,0-0.294-0.042-0.378-0.126S165.661,116.259,165.661,116.091z"/>
	<path fill="#4DC4E8" d="M173.053,113.179c0-1.036,0.317-1.867,0.953-2.492c0.634-0.625,1.437-0.938,2.407-0.938
		c1.026,0,1.843,0.313,2.45,0.938c0.606,0.625,0.91,1.456,0.91,2.492s-0.318,1.867-0.952,2.492
		c-0.635,0.625-1.438,0.938-2.408,0.938c-1.026,0-1.843-0.313-2.45-0.938C173.356,115.046,173.053,114.215,173.053,113.179z
		 M174.342,113.179c0,0.71,0.19,1.282,0.573,1.715c0.383,0.434,0.882,0.651,1.498,0.651s1.115-0.217,1.498-0.651
		c0.383-0.434,0.574-1.005,0.574-1.715c0-0.736-0.191-1.314-0.574-1.735c-0.383-0.421-0.882-0.631-1.498-0.631
		s-1.115,0.217-1.498,0.651C174.532,111.898,174.342,112.47,174.342,113.179z"/>
	<path fill="#4DC4E8" d="M181.396,116.091v-5.852c0-0.159,0.04-0.278,0.119-0.357c0.08-0.079,0.199-0.119,0.357-0.119h0.225
		c0.158,0,0.277,0.046,0.356,0.137s0.119,0.229,0.119,0.412v0.613h0.042c0.168-0.373,0.403-0.663,0.707-0.868
		c0.303-0.205,0.67-0.308,1.099-0.308c0.084,0,0.168,0.005,0.252,0.014s0.159,0.019,0.224,0.028
		c0.131,0.038,0.234,0.096,0.309,0.175s0.094,0.193,0.057,0.342l-0.113,0.447c-0.027,0.103-0.067,0.174-0.119,0.216
		c-0.051,0.042-0.104,0.063-0.16,0.063c-0.112,0-0.22-0.018-0.322-0.055c-0.103-0.036-0.238-0.054-0.406-0.054
		c-0.504,0-0.882,0.216-1.134,0.647s-0.378,0.906-0.378,1.424v3.107c0,0.164-0.042,0.286-0.126,0.368
		c-0.084,0.082-0.21,0.123-0.378,0.123H181.9c-0.168,0-0.293-0.042-0.377-0.126S181.396,116.259,181.396,116.091z"/>
	<path fill="#4DC4E8" d="M187.221,114.579v-3.808h-0.882c-0.14,0-0.243-0.032-0.308-0.098c-0.065-0.065-0.099-0.168-0.099-0.308
		v-0.196c0-0.14,0.033-0.243,0.099-0.308c0.064-0.065,0.168-0.098,0.308-0.098h0.882v-1.568c0-0.168,0.042-0.294,0.126-0.378
		s0.21-0.126,0.378-0.126h0.225c0.168,0,0.293,0.042,0.377,0.126s0.127,0.21,0.127,0.378v1.568h1.386
		c0.14,0,0.243,0.033,0.308,0.098c0.065,0.065,0.098,0.168,0.098,0.308v0.196c0,0.14-0.032,0.243-0.098,0.308
		c-0.064,0.065-0.168,0.098-0.308,0.098h-1.386v3.752c0,0.364,0.074,0.623,0.224,0.777c0.149,0.154,0.392,0.231,0.728,0.231h0.406
		c0.149,0,0.26,0.035,0.329,0.105c0.07,0.07,0.104,0.18,0.104,0.329v0.196c0,0.149-0.034,0.259-0.104,0.329
		c-0.069,0.07-0.18,0.105-0.329,0.105h-0.574c-0.672,0-1.176-0.168-1.512-0.504S187.221,115.251,187.221,114.579z"/>
	<path fill="#4DC4E8" d="M192.093,107.747c-0.168,0-0.294-0.042-0.378-0.126s-0.127-0.21-0.127-0.378v-0.392
		c0-0.168,0.043-0.294,0.127-0.378s0.21-0.126,0.378-0.126h0.336c0.168,0,0.294,0.042,0.378,0.126s0.126,0.21,0.126,0.378v0.392
		c0,0.168-0.042,0.294-0.126,0.378s-0.21,0.126-0.378,0.126H192.093z M191.645,116.091v-5.824c0-0.168,0.042-0.294,0.126-0.378
		s0.21-0.126,0.378-0.126h0.225c0.168,0,0.293,0.042,0.377,0.126s0.127,0.21,0.127,0.378v5.824c0,0.168-0.043,0.294-0.127,0.378
		s-0.209,0.126-0.377,0.126h-0.225c-0.168,0-0.294-0.042-0.378-0.126S191.645,116.259,191.645,116.091z"/>
	<path fill="#4DC4E8" d="M195.004,116.091v-5.852c0-0.159,0.04-0.278,0.119-0.357c0.08-0.079,0.199-0.119,0.357-0.119h0.225
		c0.158,0,0.277,0.046,0.356,0.137c0.079,0.091,0.119,0.228,0.119,0.41v0.612h0.056c0.196-0.391,0.474-0.684,0.833-0.88
		c0.359-0.195,0.791-0.293,1.295-0.293c0.673,0,1.261,0.208,1.765,0.623c0.504,0.416,0.756,1.139,0.756,2.17v3.56
		c0,0.164-0.043,0.287-0.127,0.37c-0.084,0.082-0.209,0.123-0.377,0.123h-0.225c-0.168,0-0.294-0.041-0.378-0.123
		c-0.084-0.082-0.126-0.205-0.126-0.368v-3.382c0-0.709-0.143-1.205-0.427-1.487c-0.285-0.282-0.665-0.423-1.142-0.423
		c-0.531,0-0.973,0.214-1.322,0.641s-0.525,0.996-0.525,1.705v2.946c0,0.164-0.042,0.286-0.126,0.368
		c-0.084,0.082-0.21,0.123-0.378,0.123h-0.225c-0.168,0-0.293-0.042-0.377-0.126S195.004,116.259,195.004,116.091z"/>
	<path fill="#4DC4E8" d="M202.984,117.295h0.28c0.121,0,0.222,0.021,0.301,0.064s0.151,0.131,0.217,0.264
		c0.159,0.343,0.371,0.603,0.638,0.779c0.266,0.176,0.655,0.264,1.168,0.264c0.598,0,1.111-0.182,1.541-0.546
		c0.429-0.364,0.644-1.022,0.644-1.974v-0.728h-0.056c-0.225,0.433-0.544,0.739-0.959,0.919c-0.416,0.18-0.861,0.271-1.338,0.271
		c-0.867,0-1.588-0.297-2.162-0.891c-0.574-0.594-0.861-1.422-0.861-2.485s0.306-1.909,0.917-2.539
		c0.611-0.629,1.351-0.945,2.219-0.945c0.476,0,0.903,0.073,1.281,0.22s0.679,0.395,0.903,0.747h0.056v-0.526
		c0-0.142,0.04-0.249,0.118-0.319c0.08-0.071,0.199-0.106,0.357-0.106h0.225c0.158,0,0.277,0.04,0.357,0.118
		c0.078,0.079,0.119,0.196,0.119,0.353v5.953c0,1.273-0.334,2.173-1.002,2.7c-0.668,0.526-1.453,0.789-2.359,0.789
		c-0.736,0-1.369-0.151-1.896-0.453c-0.527-0.303-0.88-0.751-1.057-1.346c-0.037-0.142-0.028-0.273,0.027-0.396
		C202.719,117.356,202.826,117.295,202.984,117.295z M203.685,113.232c0,0.762,0.196,1.338,0.588,1.729
		c0.392,0.39,0.868,0.585,1.428,0.585s1.036-0.204,1.429-0.611c0.392-0.407,0.588-0.992,0.588-1.755
		c0-0.762-0.196-1.347-0.588-1.755c-0.393-0.407-0.869-0.611-1.429-0.611s-1.036,0.213-1.428,0.638
		C203.881,111.876,203.685,112.47,203.685,113.232z"/>
	<path fill="#4DC4E8" d="M211.469,110.491c-0.103,0-0.191-0.04-0.266-0.119c-0.075-0.079-0.117-0.17-0.126-0.273l-0.112-1.4
		c-0.01-0.103-0.021-0.252-0.035-0.448c-0.014-0.196-0.021-0.345-0.021-0.448v-0.448c0-0.103,0.039-0.193,0.118-0.273
		c0.079-0.079,0.171-0.119,0.273-0.119h0.448c0.103,0,0.193,0.04,0.272,0.119c0.079,0.08,0.119,0.17,0.119,0.273v0.448
		c0,0.103-0.007,0.252-0.021,0.448c-0.015,0.196-0.026,0.346-0.035,0.448l-0.112,1.4c-0.01,0.103-0.052,0.194-0.126,0.273
		c-0.075,0.08-0.163,0.119-0.266,0.119H211.469z M213.933,110.491c-0.103,0-0.191-0.04-0.266-0.119
		c-0.075-0.079-0.117-0.17-0.126-0.273l-0.112-1.4c-0.01-0.103-0.021-0.252-0.035-0.448c-0.014-0.196-0.021-0.345-0.021-0.448
		v-0.448c0-0.103,0.039-0.193,0.118-0.273c0.08-0.079,0.171-0.119,0.273-0.119h0.448c0.103,0,0.193,0.04,0.272,0.119
		c0.079,0.08,0.119,0.17,0.119,0.273v0.448c0,0.103-0.007,0.252-0.021,0.448c-0.015,0.196-0.026,0.346-0.035,0.448l-0.112,1.4
		c-0.009,0.103-0.051,0.194-0.126,0.273c-0.074,0.08-0.163,0.119-0.266,0.119H213.933z"/>
	<path fill="#545454" d="M216.564,116.007v-0.448c0-0.196,0.049-0.343,0.146-0.441s0.245-0.147,0.441-0.147h0.392
		c0.196,0,0.343,0.049,0.441,0.147c0.098,0.098,0.146,0.245,0.146,0.441v0.448c0,0.149-0.009,0.303-0.028,0.462
		c-0.019,0.159-0.042,0.289-0.069,0.392l-0.435,1.582c-0.019,0.093-0.058,0.173-0.118,0.238c-0.062,0.065-0.143,0.098-0.245,0.098
		h-0.099c-0.093,0-0.168-0.035-0.224-0.105c-0.056-0.07-0.075-0.147-0.056-0.231l0.378-1.848h-0.084
		c-0.196,0-0.344-0.049-0.441-0.147S216.564,116.203,216.564,116.007z"/>
	<path fill="#545454" d="M104.455,127.291c-0.104,0-0.191-0.04-0.266-0.119c-0.075-0.079-0.117-0.17-0.127-0.273l-0.111-1.4
		c-0.01-0.103-0.021-0.252-0.035-0.448c-0.014-0.196-0.021-0.345-0.021-0.448v-0.448c0-0.103,0.04-0.193,0.119-0.273
		c0.08-0.079,0.17-0.119,0.273-0.119h0.447c0.104,0,0.194,0.04,0.273,0.119c0.08,0.08,0.119,0.17,0.119,0.273v0.448
		c0,0.103-0.007,0.252-0.021,0.448c-0.014,0.196-0.025,0.346-0.035,0.448l-0.111,1.4c-0.01,0.103-0.051,0.194-0.126,0.273
		c-0.075,0.08-0.163,0.119-0.267,0.119H104.455z M106.919,127.291c-0.103,0-0.191-0.04-0.267-0.119
		c-0.074-0.079-0.116-0.17-0.125-0.273l-0.112-1.4c-0.009-0.103-0.021-0.252-0.035-0.448c-0.014-0.196-0.021-0.345-0.021-0.448
		v-0.448c0-0.103,0.039-0.193,0.119-0.273c0.078-0.079,0.17-0.119,0.272-0.119h0.448c0.103,0,0.193,0.04,0.273,0.119
		c0.078,0.08,0.118,0.17,0.118,0.273v0.448c0,0.103-0.007,0.252-0.021,0.448c-0.014,0.196-0.025,0.346-0.035,0.448l-0.112,1.4
		c-0.009,0.103-0.052,0.194-0.126,0.273c-0.074,0.08-0.163,0.119-0.266,0.119H106.919z"/>
	<path fill="#545454" d="M110.783,134.627v1.344c0,0.168-0.043,0.294-0.127,0.378s-0.209,0.126-0.377,0.126h-0.225
		c-0.168,0-0.294-0.042-0.378-0.126s-0.126-0.21-0.126-0.378v-8.932c0-0.159,0.039-0.278,0.119-0.357
		c0.079-0.079,0.198-0.119,0.357-0.119h0.224c0.158,0,0.277,0.04,0.356,0.119c0.08,0.079,0.119,0.198,0.119,0.357v0.588h0.057
		c0.224-0.392,0.543-0.669,0.959-0.833c0.415-0.163,0.861-0.245,1.336-0.245c0.869,0,1.59,0.297,2.164,0.891
		c0.574,0.594,0.861,1.422,0.861,2.485c0,1.063-0.307,1.91-0.918,2.539c-0.611,0.63-1.351,0.945-2.219,0.945
		c-0.477,0-0.902-0.082-1.281-0.245c-0.378-0.163-0.679-0.441-0.902-0.833h-0.057c0.028,0.448,0.045,0.884,0.049,1.309
		C110.78,134.064,110.783,134.394,110.783,134.627z M110.783,129.979c0,0.763,0.195,1.348,0.588,1.755
		c0.392,0.408,0.867,0.611,1.428,0.611s1.036-0.212,1.428-0.638c0.393-0.425,0.588-1.019,0.588-1.781
		c0-0.763-0.195-1.339-0.588-1.729c-0.392-0.39-0.867-0.585-1.428-0.585s-1.036,0.204-1.428,0.611
		C110.979,128.632,110.783,129.217,110.783,129.979z"/>
	<path fill="#545454" d="M117.727,132.891v-5.852c0-0.159,0.039-0.278,0.119-0.357c0.079-0.079,0.198-0.119,0.357-0.119h0.224
		c0.158,0,0.277,0.046,0.356,0.137c0.08,0.091,0.119,0.229,0.119,0.412v0.613h0.043c0.168-0.373,0.402-0.663,0.706-0.868
		c0.304-0.205,0.67-0.308,1.099-0.308c0.084,0,0.168,0.005,0.252,0.014s0.159,0.019,0.225,0.028
		c0.131,0.038,0.233,0.096,0.309,0.175c0.074,0.079,0.093,0.193,0.056,0.342l-0.112,0.447c-0.027,0.103-0.068,0.174-0.119,0.216
		s-0.105,0.063-0.16,0.063c-0.113,0-0.221-0.018-0.322-0.055c-0.104-0.036-0.238-0.054-0.406-0.054
		c-0.504,0-0.883,0.216-1.135,0.647s-0.377,0.906-0.377,1.424v3.107c0,0.164-0.043,0.286-0.127,0.368
		c-0.084,0.082-0.209,0.123-0.377,0.123h-0.225c-0.168,0-0.294-0.042-0.378-0.126S117.727,133.059,117.727,132.891z"/>
	<path fill="#545454" d="M121.982,129.979c0-1.036,0.316-1.867,0.952-2.492c0.634-0.625,1.437-0.938,2.407-0.938
		c1.027,0,1.844,0.313,2.451,0.938c0.605,0.625,0.909,1.456,0.909,2.492s-0.317,1.867-0.952,2.492s-1.438,0.938-2.408,0.938
		c-1.026,0-1.843-0.313-2.449-0.938C122.285,131.846,121.982,131.015,121.982,129.979z M123.271,129.979
		c0,0.71,0.19,1.282,0.573,1.715c0.383,0.434,0.883,0.651,1.498,0.651c0.617,0,1.115-0.217,1.498-0.651
		c0.383-0.434,0.574-1.005,0.574-1.715c0-0.736-0.191-1.314-0.574-1.735c-0.383-0.421-0.881-0.631-1.498-0.631
		c-0.615,0-1.115,0.217-1.498,0.651C123.461,128.698,123.271,129.27,123.271,129.979z"/>
	<path fill="#545454" d="M130.326,132.919v-9.268c0-0.168,0.042-0.294,0.126-0.378s0.21-0.126,0.378-0.126h0.225
		c0.168,0,0.293,0.041,0.377,0.122s0.127,0.203,0.127,0.365v1.622c0,0.226-0.003,0.543-0.008,0.953
		c-0.004,0.41-0.021,0.832-0.049,1.264h0.057c0.224-0.336,0.543-0.574,0.959-0.714c0.415-0.14,0.861-0.21,1.336-0.21
		c0.869,0,1.59,0.297,2.164,0.891c0.574,0.594,0.861,1.422,0.861,2.485c0,1.063-0.307,1.91-0.918,2.539
		c-0.611,0.63-1.351,0.945-2.219,0.945c-0.477,0-0.902-0.093-1.281-0.28c-0.378-0.187-0.679-0.504-0.902-0.952h-0.057v0.673
		c0,0.182-0.039,0.318-0.119,0.409c-0.079,0.091-0.198,0.136-0.356,0.136h-0.224c-0.159,0-0.278-0.04-0.357-0.119
		C130.365,133.197,130.326,133.078,130.326,132.919z M131.559,129.979c0,0.763,0.195,1.348,0.588,1.755
		c0.392,0.408,0.867,0.611,1.428,0.611s1.036-0.212,1.428-0.638c0.393-0.425,0.588-1.019,0.588-1.781
		c0-0.763-0.195-1.339-0.588-1.729c-0.392-0.39-0.867-0.585-1.428-0.585s-1.036,0.204-1.428,0.611
		C131.754,128.632,131.559,129.217,131.559,129.979z"/>
	<path fill="#545454" d="M138.109,131.6c0-0.532,0.176-0.964,0.525-1.297s0.922-0.565,1.715-0.698l1.344-0.213
		c0.365-0.062,0.605-0.124,0.722-0.186c0.116-0.062,0.175-0.168,0.175-0.319c0-0.417-0.123-0.743-0.371-0.978
		c-0.247-0.235-0.609-0.353-1.085-0.353c-0.504,0-0.852,0.09-1.043,0.27c-0.191,0.18-0.348,0.371-0.469,0.572
		c-0.047,0.088-0.11,0.171-0.188,0.25c-0.08,0.079-0.213,0.118-0.399,0.118h-0.196c-0.187,0-0.301-0.061-0.343-0.183
		c-0.042-0.122-0.044-0.25-0.007-0.385c0.148-0.487,0.459-0.884,0.931-1.19c0.472-0.307,1.043-0.46,1.715-0.46
		c0.896,0,1.568,0.208,2.017,0.623c0.447,0.416,0.672,0.993,0.672,1.732v4.025c0,0.155-0.04,0.271-0.119,0.349
		c-0.08,0.078-0.199,0.116-0.357,0.116h-0.224c-0.159,0-0.278-0.046-0.356-0.139c-0.08-0.092-0.119-0.231-0.119-0.416v-0.506h-0.057
		c-0.195,0.354-0.485,0.621-0.867,0.802c-0.383,0.181-0.822,0.272-1.316,0.272c-0.729,0-1.293-0.167-1.694-0.499
		S138.109,132.141,138.109,131.6z M139.342,131.456c0,0.271,0.107,0.497,0.322,0.676c0.215,0.18,0.537,0.269,0.966,0.269
		c0.532,0,0.991-0.157,1.379-0.472c0.388-0.315,0.581-0.788,0.581-1.418v-0.617c-0.065,0.079-0.16,0.142-0.287,0.19
		c-0.126,0.048-0.273,0.085-0.441,0.111l-1.287,0.21c-0.448,0.07-0.766,0.195-0.952,0.374
		C139.436,130.959,139.342,131.185,139.342,131.456z"/>
	<path fill="#545454" d="M145.781,132.919v-9.268c0-0.168,0.043-0.294,0.127-0.378s0.209-0.126,0.377-0.126h0.225
		c0.168,0,0.294,0.041,0.378,0.122s0.126,0.203,0.126,0.365v1.622c0,0.226-0.002,0.543-0.007,0.953
		c-0.005,0.41-0.021,0.832-0.049,1.264h0.056c0.225-0.336,0.543-0.574,0.959-0.714c0.416-0.14,0.861-0.21,1.337-0.21
		c0.868,0,1.589,0.297,2.163,0.891c0.574,0.594,0.861,1.422,0.861,2.485c0,1.063-0.307,1.91-0.917,2.539
		c-0.612,0.63-1.351,0.945-2.22,0.945c-0.476,0-0.902-0.093-1.28-0.28c-0.378-0.187-0.679-0.504-0.903-0.952h-0.056v0.673
		c0,0.182-0.04,0.318-0.119,0.409s-0.198,0.136-0.356,0.136h-0.225c-0.158,0-0.277-0.04-0.357-0.119
		C145.821,133.197,145.781,133.078,145.781,132.919z M147.014,129.979c0,0.763,0.196,1.348,0.588,1.755
		c0.393,0.408,0.868,0.611,1.428,0.611c0.561,0,1.037-0.212,1.429-0.638c0.392-0.425,0.588-1.019,0.588-1.781
		c0-0.763-0.196-1.339-0.588-1.729c-0.392-0.39-0.868-0.585-1.429-0.585c-0.56,0-1.035,0.204-1.428,0.611
		C147.21,128.632,147.014,129.217,147.014,129.979z"/>
	<path fill="#545454" d="M154.406,124.547c-0.168,0-0.295-0.042-0.379-0.126s-0.126-0.21-0.126-0.378v-0.392
		c0-0.168,0.042-0.294,0.126-0.378s0.211-0.126,0.379-0.126h0.336c0.168,0,0.293,0.042,0.377,0.126s0.127,0.21,0.127,0.378v0.392
		c0,0.168-0.043,0.294-0.127,0.378s-0.209,0.126-0.377,0.126H154.406z M153.957,132.891v-5.824c0-0.168,0.043-0.294,0.127-0.378
		s0.209-0.126,0.377-0.126h0.225c0.168,0,0.294,0.042,0.378,0.126s0.126,0.21,0.126,0.378v5.824c0,0.168-0.042,0.294-0.126,0.378
		s-0.21,0.126-0.378,0.126h-0.225c-0.168,0-0.293-0.042-0.377-0.126S153.957,133.059,153.957,132.891z"/>
	<path fill="#545454" d="M157.317,132.891v-9.24c0-0.168,0.042-0.294,0.126-0.378s0.21-0.126,0.378-0.126h0.224
		c0.168,0,0.295,0.042,0.379,0.126s0.125,0.21,0.125,0.378v9.24c0,0.168-0.041,0.294-0.125,0.378s-0.211,0.126-0.379,0.126h-0.224
		c-0.168,0-0.294-0.042-0.378-0.126S157.317,133.059,157.317,132.891z"/>
	<path fill="#545454" d="M161.125,124.547c-0.168,0-0.294-0.042-0.378-0.126s-0.126-0.21-0.126-0.378v-0.392
		c0-0.168,0.042-0.294,0.126-0.378s0.21-0.126,0.378-0.126h0.336c0.168,0,0.295,0.042,0.379,0.126s0.125,0.21,0.125,0.378v0.392
		c0,0.168-0.041,0.294-0.125,0.378s-0.211,0.126-0.379,0.126H161.125z M160.678,132.891v-5.824c0-0.168,0.041-0.294,0.125-0.378
		s0.211-0.126,0.379-0.126h0.224c0.168,0,0.294,0.042,0.378,0.126s0.126,0.21,0.126,0.378v5.824c0,0.168-0.042,0.294-0.126,0.378
		s-0.21,0.126-0.378,0.126h-0.224c-0.168,0-0.295-0.042-0.379-0.126S160.678,133.059,160.678,132.891z"/>
	<path fill="#545454" d="M164.205,131.379v-3.808h-0.882c-0.14,0-0.243-0.032-0.308-0.098c-0.065-0.065-0.099-0.168-0.099-0.308
		v-0.196c0-0.14,0.033-0.243,0.099-0.308c0.064-0.065,0.168-0.098,0.308-0.098h0.882v-1.568c0-0.168,0.042-0.294,0.126-0.378
		s0.21-0.126,0.378-0.126h0.225c0.168,0,0.293,0.042,0.377,0.126s0.127,0.21,0.127,0.378v1.568h1.386
		c0.14,0,0.243,0.033,0.308,0.098c0.065,0.065,0.098,0.168,0.098,0.308v0.196c0,0.14-0.032,0.243-0.098,0.308
		c-0.064,0.065-0.168,0.098-0.308,0.098h-1.386v3.752c0,0.364,0.074,0.623,0.224,0.777c0.149,0.154,0.392,0.231,0.728,0.231h0.406
		c0.149,0,0.26,0.035,0.329,0.105c0.07,0.07,0.104,0.18,0.104,0.329v0.196c0,0.149-0.034,0.259-0.104,0.329
		c-0.069,0.07-0.18,0.105-0.329,0.105h-0.574c-0.672,0-1.176-0.168-1.512-0.504S164.205,132.051,164.205,131.379z"/>
	<path fill="#545454" d="M170.421,134.028l0.154-0.428l-2.478-6.457c-0.066-0.175-0.063-0.315,0.006-0.421
		c0.07-0.106,0.185-0.159,0.344-0.159h0.336c0.168,0,0.296,0.032,0.385,0.097c0.089,0.064,0.17,0.198,0.245,0.4l1.722,4.922h0.057
		l1.736-4.922c0.055-0.166,0.123-0.29,0.202-0.373s0.203-0.125,0.371-0.125h0.267c0.158,0,0.272,0.053,0.342,0.159
		c0.07,0.106,0.072,0.247,0.008,0.422l-2.688,7.227c-0.178,0.498-0.461,0.973-0.848,1.426c-0.387,0.452-0.926,0.678-1.617,0.678
		h-0.182c-0.149,0-0.269-0.035-0.357-0.105c-0.088-0.07-0.133-0.18-0.133-0.329v-0.196c0-0.149,0.037-0.259,0.112-0.329
		c0.074-0.07,0.187-0.105,0.336-0.105h0.042c0.373,0,0.695-0.106,0.966-0.318C170.02,134.881,170.244,134.526,170.421,134.028z"/>
	<path fill="#545454" d="M175.797,127.291c-0.104,0-0.191-0.04-0.266-0.119c-0.075-0.079-0.117-0.17-0.127-0.273l-0.111-1.4
		c-0.01-0.103-0.021-0.252-0.035-0.448c-0.014-0.196-0.021-0.345-0.021-0.448v-0.448c0-0.103,0.04-0.193,0.119-0.273
		c0.08-0.079,0.17-0.119,0.273-0.119h0.447c0.104,0,0.194,0.04,0.273,0.119c0.08,0.08,0.119,0.17,0.119,0.273v0.448
		c0,0.103-0.007,0.252-0.021,0.448c-0.014,0.196-0.025,0.346-0.035,0.448l-0.111,1.4c-0.01,0.103-0.051,0.194-0.126,0.273
		c-0.075,0.08-0.163,0.119-0.267,0.119H175.797z M178.261,127.291c-0.103,0-0.191-0.04-0.267-0.119
		c-0.074-0.079-0.116-0.17-0.125-0.273l-0.112-1.4c-0.009-0.103-0.021-0.252-0.035-0.448c-0.014-0.196-0.021-0.345-0.021-0.448
		v-0.448c0-0.103,0.039-0.193,0.119-0.273c0.078-0.079,0.17-0.119,0.272-0.119h0.448c0.103,0,0.193,0.04,0.273,0.119
		c0.078,0.08,0.118,0.17,0.118,0.273v0.448c0,0.103-0.007,0.252-0.021,0.448c-0.014,0.196-0.025,0.346-0.035,0.448l-0.112,1.4
		c-0.009,0.103-0.052,0.194-0.126,0.273c-0.074,0.08-0.163,0.119-0.266,0.119H178.261z"/>
	<path fill="#545454" d="M181.48,128.187c-0.195,0-0.343-0.049-0.441-0.147c-0.098-0.098-0.146-0.245-0.146-0.441v-0.448
		c0-0.196,0.049-0.343,0.146-0.441c0.099-0.098,0.246-0.147,0.441-0.147h0.393c0.195,0,0.343,0.049,0.44,0.147
		c0.099,0.098,0.147,0.245,0.147,0.441v0.448c0,0.196-0.049,0.343-0.147,0.441c-0.098,0.098-0.245,0.147-0.44,0.147H181.48z
		 M180.893,132.807v-0.448c0-0.196,0.049-0.343,0.146-0.441c0.099-0.098,0.246-0.147,0.441-0.147h0.393
		c0.195,0,0.343,0.049,0.44,0.147c0.099,0.098,0.147,0.245,0.147,0.441v0.448c0,0.196-0.049,0.343-0.147,0.441
		c-0.098,0.098-0.245,0.147-0.44,0.147h-0.393c-0.195,0-0.343-0.049-0.441-0.147C180.941,133.15,180.893,133.003,180.893,132.807z"
		/>
	<path fill="#545454" d="M187.43,132.933c0.084-0.907,0.324-1.621,0.721-2.144c0.396-0.522,0.932-1.012,1.604-1.47l1.064-0.714
		c0.494-0.339,0.889-0.643,1.183-0.914c0.294-0.27,0.44-0.68,0.44-1.229c0-0.385-0.139-0.756-0.42-1.113
		c-0.279-0.357-0.736-0.536-1.371-0.536c-0.532,0-0.957,0.13-1.274,0.391s-0.522,0.624-0.616,1.09
		c-0.027,0.146-0.086,0.256-0.175,0.33c-0.089,0.073-0.208,0.109-0.356,0.109h-0.196c-0.149,0-0.262-0.037-0.337-0.11
		c-0.074-0.074-0.102-0.184-0.084-0.332c0.131-0.94,0.495-1.598,1.093-1.976c0.597-0.377,1.246-0.566,1.946-0.566
		c0.877,0,1.6,0.238,2.17,0.715c0.568,0.477,0.854,1.137,0.854,1.98c0,0.825-0.222,1.433-0.665,1.822s-0.912,0.754-1.407,1.093
		l-1.063,0.715c-0.728,0.486-1.192,0.91-1.394,1.272c-0.2,0.362-0.314,0.69-0.342,0.983h4.577c0.149,0,0.264,0.04,0.343,0.119
		c0.08,0.079,0.119,0.194,0.119,0.343v0.14c0,0.149-0.039,0.264-0.119,0.343c-0.079,0.08-0.193,0.119-0.343,0.119h-5.487
		c-0.15,0-0.267-0.04-0.351-0.119C187.458,133.197,187.42,133.083,187.43,132.933z"/>
	<path fill="#545454" d="M195.383,132.933c0.084-0.907,0.324-1.621,0.721-2.144c0.396-0.522,0.931-1.012,1.603-1.47l1.063-0.714
		c0.495-0.339,0.89-0.643,1.184-0.914c0.294-0.27,0.441-0.68,0.441-1.229c0-0.385-0.141-0.756-0.42-1.113
		c-0.28-0.357-0.738-0.536-1.373-0.536c-0.531,0-0.956,0.13-1.273,0.391s-0.523,0.624-0.616,1.09
		c-0.028,0.146-0.086,0.256-0.175,0.33c-0.089,0.073-0.208,0.109-0.357,0.109h-0.195c-0.149,0-0.262-0.037-0.336-0.11
		c-0.075-0.074-0.104-0.184-0.084-0.332c0.131-0.94,0.494-1.598,1.092-1.976c0.598-0.377,1.246-0.566,1.945-0.566
		c0.878,0,1.602,0.238,2.17,0.715c0.57,0.477,0.854,1.137,0.854,1.98c0,0.825-0.222,1.433-0.665,1.822s-0.912,0.754-1.406,1.093
		l-1.064,0.715c-0.729,0.486-1.192,0.91-1.393,1.272c-0.201,0.362-0.315,0.69-0.344,0.983h4.578c0.149,0,0.264,0.04,0.344,0.119
		c0.078,0.079,0.118,0.194,0.118,0.343v0.14c0,0.149-0.04,0.264-0.118,0.343c-0.08,0.08-0.194,0.119-0.344,0.119h-5.488
		c-0.148,0-0.266-0.04-0.35-0.119C195.41,133.197,195.373,133.083,195.383,132.933z"/>
	<path fill="#545454" d="M203.572,132.807v-0.448c0-0.196,0.049-0.343,0.146-0.441c0.099-0.098,0.246-0.147,0.441-0.147h0.393
		c0.195,0,0.343,0.049,0.44,0.147c0.099,0.098,0.147,0.245,0.147,0.441v0.448c0,0.196-0.049,0.343-0.147,0.441
		c-0.098,0.098-0.245,0.147-0.44,0.147h-0.393c-0.195,0-0.343-0.049-0.441-0.147C203.621,133.15,203.572,133.003,203.572,132.807z"
		/>
	<path fill="#545454" d="M207.114,130.987c-0.149,0-0.265-0.04-0.343-0.119c-0.08-0.079-0.119-0.194-0.119-0.343v-0.182
		c0-0.122,0.023-0.224,0.07-0.308c0.046-0.084,0.102-0.173,0.168-0.266l4.172-5.684c0.074-0.093,0.148-0.17,0.224-0.231
		c0.074-0.061,0.173-0.091,0.294-0.091h0.266c0.149,0,0.264,0.04,0.344,0.119c0.079,0.08,0.118,0.194,0.118,0.343v5.698h0.952
		c0.149,0,0.264,0.04,0.344,0.119c0.079,0.08,0.118,0.194,0.118,0.343v0.14c0,0.149-0.039,0.264-0.118,0.343
		c-0.08,0.079-0.194,0.119-0.344,0.119h-0.952v1.946c0,0.149-0.039,0.264-0.118,0.343c-0.08,0.08-0.194,0.119-0.344,0.119h-0.308
		c-0.149,0-0.264-0.04-0.343-0.119c-0.08-0.079-0.119-0.193-0.119-0.343v-1.946H207.114z M207.912,129.923h3.164v-4.242
		L207.912,129.923z"/>
	<path fill="#545454" d="M69.016,151.147v-2.8c0-0.504,0.105-0.912,0.314-1.225c0.211-0.312,0.572-0.539,1.086-0.679v-0.056
		c-0.514-0.14-0.875-0.366-1.086-0.679c-0.209-0.312-0.314-0.721-0.314-1.225v-2.688c0-0.392-0.08-0.677-0.238-0.854
		s-0.453-0.266-0.882-0.266h-0.308c-0.121,0-0.213-0.03-0.273-0.091s-0.091-0.152-0.091-0.273v-0.28c0-0.121,0.03-0.212,0.091-0.273
		c0.061-0.061,0.152-0.091,0.273-0.091h0.363c0.84,0,1.414,0.187,1.723,0.56c0.308,0.373,0.462,0.896,0.462,1.568v2.352
		c0,0.588,0.077,1.031,0.231,1.33c0.153,0.299,0.449,0.467,0.889,0.504l0.14,0.014c0.093,0.01,0.168,0.04,0.224,0.091
		c0.057,0.051,0.084,0.124,0.084,0.217v0.224c0,0.093-0.027,0.166-0.084,0.217c-0.056,0.052-0.131,0.082-0.224,0.091l-0.14,0.014
		c-0.448,0.038-0.747,0.206-0.896,0.504s-0.224,0.742-0.224,1.33v2.464c0,0.672-0.154,1.194-0.462,1.568
		c-0.309,0.373-0.883,0.56-1.723,0.56h-0.363c-0.121,0-0.213-0.03-0.273-0.091c-0.061-0.061-0.091-0.151-0.091-0.273v-0.28
		c0-0.122,0.03-0.212,0.091-0.273c0.061-0.061,0.152-0.091,0.273-0.091h0.308c0.429,0,0.724-0.088,0.882-0.266
		C68.936,151.824,69.016,151.54,69.016,151.147z"/>
	<path fill="#545454" d="M73.047,149.607v-0.448c0-0.196,0.049-0.343,0.147-0.441s0.245-0.147,0.44-0.147h0.393
		c0.196,0,0.344,0.049,0.441,0.147s0.146,0.245,0.146,0.441v0.448c0,0.149-0.01,0.303-0.027,0.462
		c-0.02,0.159-0.043,0.289-0.07,0.392l-0.434,1.582c-0.02,0.093-0.059,0.173-0.119,0.238c-0.061,0.065-0.143,0.098-0.246,0.098
		h-0.098c-0.094,0-0.168-0.035-0.224-0.105c-0.056-0.07-0.075-0.147-0.056-0.231l0.377-1.848h-0.084
		c-0.195,0-0.342-0.049-0.44-0.147S73.047,149.803,73.047,149.607z"/>
	<path fill="#545454" d="M68.848,184.747v-2.464c0-0.588-0.077-1.031-0.23-1.33c-0.154-0.299-0.451-0.467-0.89-0.504l-0.14-0.014
		c-0.094-0.009-0.168-0.04-0.225-0.091c-0.056-0.051-0.084-0.124-0.084-0.217v-0.224c0-0.093,0.028-0.166,0.084-0.217
		c0.057-0.051,0.131-0.082,0.225-0.091l0.14-0.014c0.448-0.037,0.747-0.205,0.896-0.504c0.149-0.299,0.225-0.742,0.225-1.33v-2.352
		c0-0.672,0.154-1.195,0.462-1.568c0.308-0.374,0.882-0.56,1.722-0.56h0.364c0.121,0,0.212,0.03,0.272,0.091
		c0.061,0.061,0.092,0.152,0.092,0.273v0.28c0,0.121-0.031,0.212-0.092,0.273s-0.151,0.091-0.272,0.091h-0.308
		c-0.43,0-0.724,0.089-0.883,0.266c-0.158,0.177-0.238,0.462-0.238,0.854v2.688c0,0.504-0.104,0.913-0.314,1.225
		c-0.21,0.313-0.572,0.539-1.085,0.679v0.056c0.513,0.14,0.875,0.367,1.085,0.679c0.21,0.313,0.314,0.721,0.314,1.225v2.8
		c0,0.392,0.08,0.676,0.238,0.854c0.159,0.177,0.453,0.266,0.883,0.266h0.308c0.121,0,0.212,0.03,0.272,0.091
		c0.061,0.061,0.092,0.151,0.092,0.273v0.28c0,0.122-0.031,0.212-0.092,0.273c-0.061,0.061-0.151,0.091-0.272,0.091h-0.364
		c-0.84,0-1.414-0.187-1.722-0.56C69.002,185.941,68.848,185.419,68.848,184.747z"/>
	<path fill="#545454" d="M104.455,194.491c-0.104,0-0.191-0.04-0.266-0.119c-0.075-0.079-0.117-0.17-0.127-0.273l-0.111-1.4
		c-0.01-0.103-0.021-0.252-0.035-0.448c-0.014-0.196-0.021-0.345-0.021-0.448v-0.448c0-0.103,0.04-0.193,0.119-0.273
		c0.08-0.079,0.17-0.119,0.273-0.119h0.447c0.104,0,0.194,0.04,0.273,0.119c0.08,0.08,0.119,0.17,0.119,0.273v0.448
		c0,0.103-0.007,0.252-0.021,0.448c-0.014,0.196-0.025,0.346-0.035,0.448l-0.111,1.4c-0.01,0.103-0.051,0.194-0.126,0.273
		c-0.075,0.08-0.163,0.119-0.267,0.119H104.455z M106.919,194.491c-0.103,0-0.191-0.04-0.267-0.119
		c-0.074-0.079-0.116-0.17-0.125-0.273l-0.112-1.4c-0.009-0.103-0.021-0.252-0.035-0.448c-0.014-0.196-0.021-0.345-0.021-0.448
		v-0.448c0-0.103,0.039-0.193,0.119-0.273c0.078-0.079,0.17-0.119,0.272-0.119h0.448c0.103,0,0.193,0.04,0.273,0.119
		c0.078,0.08,0.118,0.17,0.118,0.273v0.448c0,0.103-0.007,0.252-0.021,0.448c-0.014,0.196-0.025,0.346-0.035,0.448l-0.112,1.4
		c-0.009,0.103-0.052,0.194-0.126,0.273c-0.074,0.08-0.163,0.119-0.266,0.119H106.919z"/>
	<path fill="#545454" d="M109.551,200.091v-9.24c0-0.168,0.042-0.294,0.126-0.378s0.21-0.126,0.378-0.126h0.225
		c0.168,0,0.293,0.042,0.377,0.126s0.127,0.21,0.127,0.378v9.24c0,0.168-0.043,0.294-0.127,0.378s-0.209,0.126-0.377,0.126h-0.225
		c-0.168,0-0.294-0.042-0.378-0.126S109.551,200.259,109.551,200.091z"/>
	<path fill="#545454" d="M112.463,198.8c0-0.532,0.175-0.964,0.524-1.297c0.351-0.333,0.922-0.565,1.716-0.698l1.344-0.213
		c0.363-0.062,0.604-0.124,0.721-0.186c0.117-0.062,0.175-0.168,0.175-0.319c0-0.417-0.124-0.743-0.371-0.978
		c-0.247-0.235-0.608-0.353-1.085-0.353c-0.504,0-0.852,0.09-1.043,0.27c-0.191,0.18-0.348,0.371-0.469,0.572
		c-0.047,0.088-0.109,0.171-0.189,0.25c-0.079,0.079-0.212,0.118-0.398,0.118h-0.196c-0.187,0-0.301-0.061-0.343-0.183
		c-0.042-0.122-0.045-0.25-0.008-0.385c0.15-0.487,0.461-0.884,0.932-1.19c0.471-0.307,1.043-0.46,1.715-0.46
		c0.896,0,1.568,0.208,2.016,0.623c0.449,0.416,0.672,0.993,0.672,1.732v4.025c0,0.155-0.039,0.271-0.118,0.349
		s-0.198,0.116-0.356,0.116h-0.225c-0.158,0-0.277-0.046-0.357-0.139c-0.079-0.092-0.119-0.231-0.119-0.416v-0.506h-0.056
		c-0.196,0.354-0.485,0.621-0.868,0.802s-0.821,0.272-1.316,0.272c-0.727,0-1.292-0.167-1.693-0.499S112.463,199.341,112.463,198.8z
		 M113.694,198.656c0,0.271,0.107,0.497,0.322,0.676c0.214,0.18,0.536,0.269,0.966,0.269c0.532,0,0.992-0.157,1.379-0.472
		c0.387-0.315,0.581-0.788,0.581-1.418v-0.617c-0.065,0.079-0.161,0.142-0.286,0.19c-0.127,0.048-0.273,0.085-0.441,0.111
		l-1.288,0.21c-0.448,0.07-0.766,0.195-0.952,0.374C113.787,198.16,113.694,198.385,113.694,198.656z"/>
	<path fill="#545454" d="M120.135,200.119v-9.268c0-0.168,0.042-0.294,0.126-0.378s0.21-0.126,0.378-0.126h0.225
		c0.168,0,0.293,0.041,0.377,0.122s0.127,0.203,0.127,0.365v1.622c0,0.226-0.003,0.543-0.008,0.953
		c-0.004,0.41-0.021,0.832-0.049,1.264h0.057c0.224-0.336,0.543-0.574,0.959-0.714c0.415-0.14,0.861-0.21,1.336-0.21
		c0.869,0,1.59,0.297,2.164,0.891c0.574,0.594,0.861,1.422,0.861,2.485c0,1.063-0.307,1.91-0.918,2.539
		c-0.611,0.63-1.351,0.945-2.219,0.945c-0.477,0-0.902-0.093-1.281-0.28c-0.378-0.187-0.679-0.504-0.902-0.952h-0.057v0.673
		c0,0.182-0.039,0.318-0.119,0.409c-0.079,0.091-0.198,0.136-0.356,0.136h-0.224c-0.159,0-0.278-0.04-0.357-0.119
		C120.174,200.397,120.135,200.278,120.135,200.119z M121.367,197.179c0,0.763,0.195,1.348,0.588,1.755
		c0.392,0.408,0.867,0.611,1.428,0.611s1.036-0.212,1.428-0.638c0.393-0.425,0.588-1.019,0.588-1.781
		c0-0.763-0.195-1.339-0.588-1.729c-0.392-0.39-0.867-0.585-1.428-0.585s-1.036,0.204-1.428,0.611
		C121.562,195.832,121.367,196.417,121.367,197.179z"/>
	<path fill="#545454" d="M127.918,197.179c0-1.009,0.311-1.833,0.932-2.472c0.621-0.639,1.393-0.958,2.316-0.958
		c0.896,0,1.625,0.264,2.185,0.791s0.84,1.257,0.84,2.191c0,0.154-0.042,0.27-0.126,0.347s-0.21,0.116-0.378,0.116h-4.479
		c0.027,0.709,0.223,1.279,0.588,1.708c0.363,0.429,0.84,0.644,1.428,0.644c0.392,0,0.711-0.072,0.959-0.217
		c0.247-0.145,0.436-0.329,0.566-0.553c0.084-0.149,0.166-0.254,0.245-0.315c0.079-0.061,0.18-0.091,0.302-0.091h0.321
		c0.215,0,0.339,0.068,0.371,0.203s0.026,0.254-0.021,0.357c-0.215,0.504-0.567,0.91-1.058,1.218
		c-0.489,0.308-1.052,0.462-1.687,0.462c-1.055,0-1.869-0.313-2.443-0.938S127.918,198.215,127.918,197.179z M129.276,196.269h3.653
		c-0.055-0.508-0.237-0.878-0.545-1.109c-0.309-0.231-0.715-0.347-1.219-0.347c-0.457,0-0.858,0.129-1.203,0.387
		C129.617,195.458,129.389,195.814,129.276,196.269z"/>
	<path fill="#545454" d="M135.758,200.091v-9.24c0-0.168,0.043-0.294,0.127-0.378s0.209-0.126,0.377-0.126h0.225
		c0.168,0,0.294,0.042,0.378,0.126s0.126,0.21,0.126,0.378v9.24c0,0.168-0.042,0.294-0.126,0.378s-0.21,0.126-0.378,0.126h-0.225
		c-0.168,0-0.293-0.042-0.377-0.126S135.758,200.259,135.758,200.091z"/>
	<path fill="#545454" d="M139.51,194.491c-0.103,0-0.191-0.04-0.266-0.119c-0.074-0.079-0.117-0.17-0.126-0.273l-0.112-1.4
		c-0.01-0.103-0.021-0.252-0.035-0.448c-0.014-0.196-0.021-0.345-0.021-0.448v-0.448c0-0.103,0.04-0.193,0.119-0.273
		c0.079-0.079,0.17-0.119,0.272-0.119h0.448c0.103,0,0.194,0.04,0.272,0.119c0.08,0.08,0.119,0.17,0.119,0.273v0.448
		c0,0.103-0.006,0.252-0.021,0.448c-0.015,0.196-0.026,0.346-0.035,0.448l-0.112,1.4c-0.009,0.103-0.051,0.194-0.125,0.273
		c-0.075,0.08-0.164,0.119-0.267,0.119H139.51z M141.975,194.491c-0.104,0-0.191-0.04-0.267-0.119
		c-0.075-0.079-0.116-0.17-0.126-0.273l-0.111-1.4c-0.01-0.103-0.021-0.252-0.035-0.448c-0.014-0.196-0.021-0.345-0.021-0.448
		v-0.448c0-0.103,0.039-0.193,0.119-0.273c0.079-0.079,0.17-0.119,0.273-0.119h0.447c0.104,0,0.193,0.04,0.273,0.119
		c0.079,0.08,0.119,0.17,0.119,0.273v0.448c0,0.103-0.008,0.252-0.021,0.448c-0.014,0.196-0.025,0.346-0.035,0.448l-0.111,1.4
		c-0.01,0.103-0.052,0.194-0.127,0.273c-0.074,0.08-0.162,0.119-0.266,0.119H141.975z"/>
	<path fill="#545454" d="M145.193,195.387c-0.195,0-0.342-0.049-0.44-0.147s-0.147-0.245-0.147-0.441v-0.448
		c0-0.196,0.049-0.343,0.147-0.441s0.245-0.147,0.44-0.147h0.393c0.196,0,0.344,0.049,0.441,0.147s0.146,0.245,0.146,0.441v0.448
		c0,0.196-0.049,0.343-0.146,0.441s-0.245,0.147-0.441,0.147H145.193z M144.605,200.007v-0.448c0-0.196,0.049-0.343,0.147-0.441
		s0.245-0.147,0.44-0.147h0.393c0.196,0,0.344,0.049,0.441,0.147s0.146,0.245,0.146,0.441v0.448c0,0.196-0.049,0.343-0.146,0.441
		s-0.245,0.147-0.441,0.147h-0.393c-0.195,0-0.342-0.049-0.44-0.147S144.605,200.203,144.605,200.007z"/>
	<path fill="#4DC4E8" d="M151.773,194.491c-0.104,0-0.191-0.04-0.266-0.119c-0.075-0.079-0.117-0.17-0.127-0.273l-0.111-1.4
		c-0.01-0.103-0.021-0.252-0.035-0.448c-0.014-0.196-0.021-0.345-0.021-0.448v-0.448c0-0.103,0.04-0.193,0.119-0.273
		c0.08-0.079,0.17-0.119,0.273-0.119h0.447c0.104,0,0.194,0.04,0.273,0.119c0.08,0.08,0.119,0.17,0.119,0.273v0.448
		c0,0.103-0.007,0.252-0.021,0.448c-0.014,0.196-0.025,0.346-0.035,0.448l-0.111,1.4c-0.01,0.103-0.051,0.194-0.126,0.273
		c-0.075,0.08-0.163,0.119-0.267,0.119H151.773z M154.237,194.491c-0.103,0-0.191-0.04-0.267-0.119
		c-0.074-0.079-0.116-0.17-0.125-0.273l-0.112-1.4c-0.009-0.103-0.021-0.252-0.035-0.448c-0.014-0.196-0.021-0.345-0.021-0.448
		v-0.448c0-0.103,0.039-0.193,0.119-0.273c0.078-0.079,0.17-0.119,0.272-0.119h0.448c0.103,0,0.193,0.04,0.273,0.119
		c0.078,0.08,0.118,0.17,0.118,0.273v0.448c0,0.103-0.007,0.252-0.021,0.448c-0.014,0.196-0.025,0.346-0.035,0.448l-0.112,1.4
		c-0.009,0.103-0.052,0.194-0.126,0.273c-0.074,0.08-0.163,0.119-0.266,0.119H154.237z"/>
	<path fill="#4DC4E8" d="M156.491,198.276c-0.047-0.228-0.021-0.386,0.077-0.478c0.098-0.091,0.23-0.136,0.398-0.136h0.225
		c0.168,0,0.296,0.042,0.385,0.127c0.088,0.085,0.161,0.204,0.217,0.357c0.149,0.421,0.422,0.76,0.819,1.016
		c0.396,0.255,0.95,0.383,1.659,0.383c0.756,0,1.346-0.151,1.771-0.453s0.638-0.709,0.638-1.223c0-0.639-0.313-1.054-0.938-1.243
		c-0.626-0.189-1.307-0.356-2.044-0.5s-1.419-0.376-2.044-0.696c-0.626-0.32-0.938-0.93-0.938-1.832
		c0-0.757,0.317-1.387,0.952-1.892c0.635-0.504,1.484-0.757,2.548-0.757c0.98,0,1.762,0.193,2.346,0.581
		c0.583,0.387,0.963,0.921,1.141,1.604c0.057,0.219,0.035,0.373-0.062,0.464c-0.099,0.091-0.231,0.136-0.399,0.136h-0.238
		c-0.168,0-0.294-0.042-0.378-0.127c-0.084-0.085-0.158-0.204-0.224-0.356c-0.178-0.413-0.438-0.722-0.784-0.928
		s-0.812-0.31-1.4-0.31c-0.615,0-1.134,0.131-1.554,0.392s-0.63,0.635-0.63,1.122c0,0.622,0.312,1.019,0.938,1.189
		c0.625,0.171,1.312,0.329,2.059,0.473c0.746,0.144,1.433,0.387,2.058,0.73c0.626,0.342,0.938,0.986,0.938,1.933
		c0,0.811-0.334,1.473-1.002,1.987c-0.666,0.514-1.584,0.771-2.75,0.771c-1.139,0-2.014-0.218-2.625-0.655
		C157.035,199.518,156.65,198.958,156.491,198.276z"/>
	<path fill="#4DC4E8" d="M165.157,197.233c0-1.063,0.306-1.909,0.917-2.539c0.611-0.629,1.352-0.945,2.219-0.945
		c0.477,0,0.903,0.082,1.281,0.245c0.378,0.164,0.679,0.441,0.902,0.833h0.057v-0.588c0-0.159,0.039-0.278,0.119-0.357
		c0.079-0.079,0.198-0.119,0.357-0.119h0.224c0.158,0,0.277,0.04,0.356,0.119c0.08,0.079,0.119,0.198,0.119,0.357v8.932
		c0,0.168-0.042,0.294-0.126,0.378s-0.21,0.126-0.378,0.126h-0.225c-0.168,0-0.293-0.042-0.377-0.126s-0.127-0.21-0.127-0.378
		v-1.344c0-0.233,0.003-0.562,0.008-0.987c0.004-0.425,0.021-0.861,0.049-1.309h-0.057c-0.224,0.392-0.543,0.67-0.959,0.833
		c-0.415,0.164-0.86,0.245-1.336,0.245c-0.869,0-1.59-0.297-2.164-0.891C165.444,199.125,165.157,198.296,165.157,197.233z
		 M166.445,197.232c0,0.762,0.195,1.338,0.588,1.729c0.393,0.39,0.868,0.585,1.428,0.585c0.561,0,1.036-0.204,1.428-0.611
		c0.393-0.407,0.588-0.992,0.588-1.755c0-0.762-0.195-1.347-0.588-1.755c-0.392-0.407-0.867-0.611-1.428-0.611
		c-0.56,0-1.035,0.213-1.428,0.638C166.641,195.876,166.445,196.47,166.445,197.232z"/>
	<path fill="#4DC4E8" d="M174.578,200.035l-1.596-5.698c-0.047-0.177-0.032-0.317,0.043-0.42c0.074-0.103,0.195-0.154,0.363-0.154
		h0.309c0.168,0,0.291,0.047,0.371,0.14c0.078,0.093,0.142,0.233,0.188,0.42l1.26,4.984h0.056l1.387-4.984
		c0.056-0.187,0.121-0.327,0.195-0.42c0.075-0.093,0.196-0.14,0.364-0.14h0.7c0.168,0,0.289,0.047,0.364,0.14
		c0.074,0.093,0.14,0.233,0.196,0.42l1.386,4.984h0.056l1.26-4.984c0.047-0.187,0.109-0.327,0.189-0.42
		c0.079-0.093,0.203-0.14,0.371-0.14h0.238c0.168,0,0.289,0.051,0.363,0.154c0.074,0.103,0.089,0.243,0.042,0.42l-1.581,5.698
		c-0.057,0.187-0.122,0.327-0.197,0.42c-0.074,0.094-0.195,0.14-0.363,0.14h-0.7c-0.196,0-0.336-0.046-0.42-0.14
		c-0.084-0.093-0.149-0.233-0.196-0.42l-1.357-5.04h-0.057l-1.357,5.04c-0.047,0.187-0.112,0.327-0.196,0.42
		c-0.084,0.094-0.224,0.14-0.42,0.14h-0.7c-0.168,0-0.289-0.046-0.363-0.14C174.7,200.362,174.635,200.222,174.578,200.035z"/>
	<path fill="#4DC4E8" d="M183.427,198.8c0-0.532,0.175-0.964,0.524-1.297c0.351-0.333,0.922-0.565,1.716-0.698l1.344-0.213
		c0.364-0.062,0.604-0.124,0.722-0.186c0.116-0.062,0.174-0.168,0.174-0.319c0-0.417-0.123-0.743-0.371-0.978
		c-0.246-0.235-0.608-0.353-1.084-0.353c-0.504,0-0.852,0.09-1.043,0.27c-0.191,0.18-0.348,0.371-0.469,0.572
		c-0.047,0.088-0.11,0.171-0.189,0.25c-0.08,0.079-0.213,0.118-0.398,0.118h-0.197c-0.186,0-0.301-0.061-0.342-0.183
		c-0.043-0.122-0.045-0.25-0.008-0.385c0.149-0.487,0.46-0.884,0.932-1.19c0.471-0.307,1.043-0.46,1.715-0.46
		c0.896,0,1.568,0.208,2.016,0.623c0.448,0.416,0.672,0.993,0.672,1.732v4.025c0,0.155-0.039,0.271-0.119,0.349
		c-0.079,0.078-0.198,0.116-0.356,0.116h-0.224c-0.159,0-0.278-0.046-0.357-0.139c-0.08-0.092-0.119-0.231-0.119-0.416v-0.506
		h-0.057c-0.195,0.354-0.484,0.621-0.867,0.802s-0.822,0.272-1.316,0.272c-0.728,0-1.293-0.167-1.693-0.499
		C183.627,199.778,183.427,199.341,183.427,198.8z M184.658,198.656c0,0.271,0.107,0.497,0.322,0.676
		c0.215,0.18,0.537,0.269,0.967,0.269c0.531,0,0.991-0.157,1.379-0.472c0.387-0.315,0.58-0.788,0.58-1.418v-0.617
		c-0.064,0.079-0.16,0.142-0.286,0.19c-0.126,0.048-0.273,0.085-0.441,0.111l-1.288,0.21c-0.447,0.07-0.766,0.195-0.951,0.374
		C184.752,198.16,184.658,198.385,184.658,198.656z"/>
	<path fill="#4DC4E8" d="M191.099,200.091v-9.24c0-0.168,0.042-0.294,0.126-0.378s0.21-0.126,0.378-0.126h0.224
		c0.168,0,0.295,0.042,0.379,0.126s0.125,0.21,0.125,0.378v6.202l2.521-2.786c0.149-0.168,0.28-0.294,0.392-0.378
		c0.112-0.084,0.252-0.126,0.42-0.126h0.379c0.168,0,0.277,0.054,0.328,0.161c0.052,0.107,0.017,0.231-0.104,0.371l-2.044,2.198
		l2.395,3.5c0.121,0.177,0.153,0.322,0.098,0.434c-0.057,0.112-0.168,0.168-0.336,0.168h-0.434c-0.168,0-0.297-0.042-0.386-0.126
		s-0.194-0.21-0.315-0.378l-1.861-2.702l-1.051,1.148v1.554c0,0.168-0.041,0.294-0.125,0.378s-0.211,0.126-0.379,0.126h-0.224
		c-0.168,0-0.294-0.042-0.378-0.126S191.099,200.259,191.099,200.091z"/>
	<path fill="#4DC4E8" d="M198.533,191.747c-0.168,0-0.295-0.042-0.379-0.126s-0.126-0.21-0.126-0.378v-0.392
		c0-0.168,0.042-0.294,0.126-0.378s0.211-0.126,0.379-0.126h0.336c0.168,0,0.293,0.042,0.377,0.126s0.127,0.21,0.127,0.378v0.392
		c0,0.168-0.043,0.294-0.127,0.378s-0.209,0.126-0.377,0.126H198.533z M198.084,200.091v-5.824c0-0.168,0.043-0.294,0.127-0.378
		s0.209-0.126,0.377-0.126h0.225c0.168,0,0.294,0.042,0.378,0.126s0.126,0.21,0.126,0.378v5.824c0,0.168-0.042,0.294-0.126,0.378
		s-0.21,0.126-0.378,0.126h-0.225c-0.168,0-0.293-0.042-0.377-0.126S198.084,200.259,198.084,200.091z"/>
	<path fill="#4DC4E8" d="M201.444,200.091v-5.852c0-0.159,0.04-0.278,0.119-0.357s0.198-0.119,0.356-0.119h0.225
		c0.158,0,0.277,0.046,0.357,0.137c0.078,0.091,0.119,0.228,0.119,0.41v0.612h0.055c0.197-0.391,0.475-0.684,0.834-0.88
		c0.359-0.195,0.791-0.293,1.295-0.293c0.672,0,1.26,0.208,1.764,0.623c0.504,0.416,0.756,1.139,0.756,2.17v3.56
		c0,0.164-0.042,0.287-0.126,0.37c-0.084,0.082-0.21,0.123-0.378,0.123h-0.225c-0.168,0-0.293-0.041-0.377-0.123
		c-0.084-0.082-0.127-0.205-0.127-0.368v-3.382c0-0.709-0.142-1.205-0.426-1.487c-0.285-0.282-0.666-0.423-1.142-0.423
		c-0.532,0-0.974,0.214-1.323,0.641s-0.525,0.996-0.525,1.705v2.946c0,0.164-0.041,0.286-0.125,0.368
		c-0.084,0.082-0.211,0.123-0.379,0.123h-0.224c-0.168,0-0.294-0.042-0.378-0.126S201.444,200.259,201.444,200.091z"/>
	<path fill="#4DC4E8" d="M209.425,201.295h0.279c0.121,0,0.222,0.021,0.301,0.064c0.08,0.043,0.152,0.131,0.218,0.264
		c0.158,0.343,0.371,0.603,0.637,0.779s0.655,0.264,1.169,0.264c0.598,0,1.11-0.182,1.54-0.546c0.429-0.364,0.644-1.022,0.644-1.974
		v-0.728h-0.056c-0.224,0.433-0.544,0.739-0.959,0.919s-0.861,0.271-1.337,0.271c-0.868,0-1.589-0.297-2.163-0.891
		c-0.574-0.594-0.861-1.422-0.861-2.485s0.306-1.909,0.917-2.539c0.611-0.629,1.352-0.945,2.22-0.945c0.476,0,0.902,0.073,1.28,0.22
		c0.379,0.146,0.68,0.395,0.903,0.747h0.056v-0.526c0-0.142,0.04-0.249,0.119-0.319s0.198-0.106,0.357-0.106h0.224
		c0.159,0,0.278,0.04,0.357,0.118c0.079,0.079,0.119,0.196,0.119,0.353v5.953c0,1.273-0.334,2.173-1.001,2.7
		c-0.668,0.526-1.454,0.789-2.359,0.789c-0.737,0-1.37-0.151-1.896-0.453c-0.528-0.303-0.88-0.751-1.058-1.346
		c-0.037-0.142-0.028-0.273,0.028-0.396C209.158,201.356,209.266,201.295,209.425,201.295z M210.124,197.232
		c0,0.762,0.196,1.338,0.588,1.729c0.393,0.39,0.868,0.585,1.429,0.585c0.56,0,1.036-0.204,1.428-0.611
		c0.392-0.407,0.588-0.992,0.588-1.755c0-0.762-0.196-1.347-0.588-1.755c-0.392-0.407-0.868-0.611-1.428-0.611
		c-0.561,0-1.036,0.213-1.429,0.638C210.32,195.876,210.124,196.47,210.124,197.232z"/>
	<path fill="#4DC4E8" d="M217.908,194.491c-0.103,0-0.191-0.04-0.266-0.119c-0.075-0.079-0.117-0.17-0.126-0.273l-0.112-1.4
		c-0.01-0.103-0.021-0.252-0.035-0.448c-0.014-0.196-0.021-0.345-0.021-0.448v-0.448c0-0.103,0.039-0.193,0.118-0.273
		c0.079-0.079,0.171-0.119,0.273-0.119h0.448c0.103,0,0.193,0.04,0.272,0.119c0.079,0.08,0.119,0.17,0.119,0.273v0.448
		c0,0.103-0.007,0.252-0.021,0.448c-0.015,0.196-0.026,0.346-0.035,0.448l-0.112,1.4c-0.01,0.103-0.052,0.194-0.126,0.273
		c-0.075,0.08-0.163,0.119-0.266,0.119H217.908z M220.372,194.491c-0.103,0-0.191-0.04-0.266-0.119
		c-0.075-0.079-0.117-0.17-0.126-0.273l-0.112-1.4c-0.01-0.103-0.021-0.252-0.035-0.448c-0.014-0.196-0.021-0.345-0.021-0.448
		v-0.448c0-0.103,0.039-0.193,0.118-0.273c0.08-0.079,0.171-0.119,0.273-0.119h0.448c0.103,0,0.193,0.04,0.272,0.119
		c0.079,0.08,0.119,0.17,0.119,0.273v0.448c0,0.103-0.007,0.252-0.021,0.448c-0.015,0.196-0.026,0.346-0.035,0.448l-0.112,1.4
		c-0.009,0.103-0.051,0.194-0.126,0.273c-0.074,0.08-0.163,0.119-0.266,0.119H220.372z"/>
	<path fill="#545454" d="M223.005,200.007v-0.448c0-0.196,0.049-0.343,0.146-0.441s0.245-0.147,0.441-0.147h0.392
		c0.196,0,0.343,0.049,0.441,0.147c0.098,0.098,0.146,0.245,0.146,0.441v0.448c0,0.149-0.009,0.303-0.028,0.462
		c-0.019,0.159-0.042,0.289-0.069,0.392l-0.435,1.582c-0.019,0.093-0.058,0.173-0.118,0.238c-0.062,0.065-0.143,0.098-0.245,0.098
		h-0.099c-0.093,0-0.168-0.035-0.224-0.105c-0.056-0.07-0.075-0.147-0.056-0.231l0.378-1.848h-0.084
		c-0.196,0-0.344-0.049-0.441-0.147S223.005,200.203,223.005,200.007z"/>
	<path fill="#545454" d="M104.455,211.291c-0.104,0-0.191-0.04-0.266-0.119c-0.075-0.079-0.117-0.17-0.127-0.273l-0.111-1.4
		c-0.01-0.103-0.021-0.252-0.035-0.448c-0.014-0.196-0.021-0.345-0.021-0.448v-0.448c0-0.103,0.04-0.193,0.119-0.273
		c0.08-0.079,0.17-0.119,0.273-0.119h0.447c0.104,0,0.194,0.04,0.273,0.119c0.08,0.08,0.119,0.17,0.119,0.273v0.448
		c0,0.103-0.007,0.252-0.021,0.448c-0.014,0.196-0.025,0.346-0.035,0.448l-0.111,1.4c-0.01,0.103-0.051,0.194-0.126,0.273
		c-0.075,0.08-0.163,0.119-0.267,0.119H104.455z M106.919,211.291c-0.103,0-0.191-0.04-0.267-0.119
		c-0.074-0.079-0.116-0.17-0.125-0.273l-0.112-1.4c-0.009-0.103-0.021-0.252-0.035-0.448c-0.014-0.196-0.021-0.345-0.021-0.448
		v-0.448c0-0.103,0.039-0.193,0.119-0.273c0.078-0.079,0.17-0.119,0.272-0.119h0.448c0.103,0,0.193,0.04,0.273,0.119
		c0.078,0.08,0.118,0.17,0.118,0.273v0.448c0,0.103-0.007,0.252-0.021,0.448c-0.014,0.196-0.025,0.346-0.035,0.448l-0.112,1.4
		c-0.009,0.103-0.052,0.194-0.126,0.273c-0.074,0.08-0.163,0.119-0.266,0.119H106.919z"/>
	<path fill="#545454" d="M110.783,218.627v1.344c0,0.168-0.043,0.294-0.127,0.378s-0.209,0.126-0.377,0.126h-0.225
		c-0.168,0-0.294-0.042-0.378-0.126s-0.126-0.21-0.126-0.378v-8.932c0-0.159,0.039-0.278,0.119-0.357
		c0.079-0.079,0.198-0.119,0.357-0.119h0.224c0.158,0,0.277,0.04,0.356,0.119c0.08,0.079,0.119,0.198,0.119,0.357v0.588h0.057
		c0.224-0.392,0.543-0.669,0.959-0.833c0.415-0.163,0.861-0.245,1.336-0.245c0.869,0,1.59,0.297,2.164,0.891
		c0.574,0.594,0.861,1.422,0.861,2.485c0,1.063-0.307,1.91-0.918,2.539c-0.611,0.63-1.351,0.945-2.219,0.945
		c-0.477,0-0.902-0.082-1.281-0.245c-0.378-0.163-0.679-0.441-0.902-0.833h-0.057c0.028,0.448,0.045,0.884,0.049,1.309
		C110.78,218.064,110.783,218.394,110.783,218.627z M110.783,213.979c0,0.763,0.195,1.348,0.588,1.755
		c0.392,0.408,0.867,0.611,1.428,0.611s1.036-0.212,1.428-0.638c0.393-0.425,0.588-1.019,0.588-1.781
		c0-0.763-0.195-1.339-0.588-1.729c-0.392-0.39-0.867-0.585-1.428-0.585s-1.036,0.204-1.428,0.611
		C110.979,212.632,110.783,213.217,110.783,213.979z"/>
	<path fill="#545454" d="M117.727,216.891v-5.852c0-0.159,0.039-0.278,0.119-0.357c0.079-0.079,0.198-0.119,0.357-0.119h0.224
		c0.158,0,0.277,0.046,0.356,0.137c0.08,0.091,0.119,0.229,0.119,0.412v0.613h0.043c0.168-0.373,0.402-0.663,0.706-0.868
		c0.304-0.205,0.67-0.308,1.099-0.308c0.084,0,0.168,0.005,0.252,0.014s0.159,0.019,0.225,0.028
		c0.131,0.038,0.233,0.096,0.309,0.175c0.074,0.079,0.093,0.193,0.056,0.342l-0.112,0.447c-0.027,0.103-0.068,0.174-0.119,0.216
		s-0.105,0.063-0.16,0.063c-0.113,0-0.221-0.018-0.322-0.055c-0.104-0.036-0.238-0.054-0.406-0.054
		c-0.504,0-0.883,0.216-1.135,0.647s-0.377,0.906-0.377,1.424v3.107c0,0.164-0.043,0.286-0.127,0.368
		c-0.084,0.082-0.209,0.123-0.377,0.123h-0.225c-0.168,0-0.294-0.042-0.378-0.126S117.727,217.059,117.727,216.891z"/>
	<path fill="#545454" d="M121.982,213.979c0-1.036,0.316-1.867,0.952-2.492c0.634-0.625,1.437-0.938,2.407-0.938
		c1.027,0,1.844,0.313,2.451,0.938c0.605,0.625,0.909,1.456,0.909,2.492s-0.317,1.867-0.952,2.492s-1.438,0.938-2.408,0.938
		c-1.026,0-1.843-0.313-2.449-0.938C122.285,215.846,121.982,215.015,121.982,213.979z M123.271,213.979
		c0,0.71,0.19,1.282,0.573,1.715c0.383,0.434,0.883,0.651,1.498,0.651c0.617,0,1.115-0.217,1.498-0.651
		c0.383-0.434,0.574-1.005,0.574-1.715c0-0.736-0.191-1.314-0.574-1.735c-0.383-0.421-0.881-0.631-1.498-0.631
		c-0.615,0-1.115,0.217-1.498,0.651C123.461,212.698,123.271,213.27,123.271,213.979z"/>
	<path fill="#545454" d="M130.326,216.919v-9.268c0-0.168,0.042-0.294,0.126-0.378s0.21-0.126,0.378-0.126h0.225
		c0.168,0,0.293,0.041,0.377,0.122s0.127,0.203,0.127,0.365v1.622c0,0.226-0.003,0.543-0.008,0.953
		c-0.004,0.41-0.021,0.832-0.049,1.264h0.057c0.224-0.336,0.543-0.574,0.959-0.714c0.415-0.14,0.861-0.21,1.336-0.21
		c0.869,0,1.59,0.297,2.164,0.891c0.574,0.594,0.861,1.422,0.861,2.485c0,1.063-0.307,1.91-0.918,2.539
		c-0.611,0.63-1.351,0.945-2.219,0.945c-0.477,0-0.902-0.093-1.281-0.28c-0.378-0.187-0.679-0.504-0.902-0.952h-0.057v0.673
		c0,0.182-0.039,0.318-0.119,0.409c-0.079,0.091-0.198,0.136-0.356,0.136h-0.224c-0.159,0-0.278-0.04-0.357-0.119
		C130.365,217.197,130.326,217.078,130.326,216.919z M131.559,213.979c0,0.763,0.195,1.348,0.588,1.755
		c0.392,0.408,0.867,0.611,1.428,0.611s1.036-0.212,1.428-0.638c0.393-0.425,0.588-1.019,0.588-1.781
		c0-0.763-0.195-1.339-0.588-1.729c-0.392-0.39-0.867-0.585-1.428-0.585s-1.036,0.204-1.428,0.611
		C131.754,212.632,131.559,213.217,131.559,213.979z"/>
	<path fill="#545454" d="M138.109,215.6c0-0.532,0.176-0.964,0.525-1.297s0.922-0.565,1.715-0.698l1.344-0.213
		c0.365-0.062,0.605-0.124,0.722-0.186c0.116-0.062,0.175-0.168,0.175-0.319c0-0.417-0.123-0.743-0.371-0.978
		c-0.247-0.235-0.609-0.353-1.085-0.353c-0.504,0-0.852,0.09-1.043,0.27c-0.191,0.18-0.348,0.371-0.469,0.572
		c-0.047,0.088-0.11,0.171-0.188,0.25c-0.08,0.079-0.213,0.118-0.399,0.118h-0.196c-0.187,0-0.301-0.061-0.343-0.183
		c-0.042-0.122-0.044-0.25-0.007-0.385c0.148-0.487,0.459-0.884,0.931-1.19c0.472-0.307,1.043-0.46,1.715-0.46
		c0.896,0,1.568,0.208,2.017,0.623c0.447,0.416,0.672,0.993,0.672,1.732v4.025c0,0.155-0.04,0.271-0.119,0.349
		c-0.08,0.078-0.199,0.116-0.357,0.116h-0.224c-0.159,0-0.278-0.046-0.356-0.139c-0.08-0.092-0.119-0.231-0.119-0.416v-0.506h-0.057
		c-0.195,0.354-0.485,0.621-0.867,0.802c-0.383,0.181-0.822,0.272-1.316,0.272c-0.729,0-1.293-0.167-1.694-0.499
		S138.109,216.141,138.109,215.6z M139.342,215.456c0,0.271,0.107,0.497,0.322,0.676c0.215,0.18,0.537,0.269,0.966,0.269
		c0.532,0,0.991-0.157,1.379-0.472c0.388-0.315,0.581-0.788,0.581-1.418v-0.617c-0.065,0.079-0.16,0.142-0.287,0.19
		c-0.126,0.048-0.273,0.085-0.441,0.111l-1.287,0.21c-0.448,0.07-0.766,0.195-0.952,0.374
		C139.436,214.959,139.342,215.185,139.342,215.456z"/>
	<path fill="#545454" d="M145.781,216.919v-9.268c0-0.168,0.043-0.294,0.127-0.378s0.209-0.126,0.377-0.126h0.225
		c0.168,0,0.294,0.041,0.378,0.122s0.126,0.203,0.126,0.365v1.622c0,0.226-0.002,0.543-0.007,0.953
		c-0.005,0.41-0.021,0.832-0.049,1.264h0.056c0.225-0.336,0.543-0.574,0.959-0.714c0.416-0.14,0.861-0.21,1.337-0.21
		c0.868,0,1.589,0.297,2.163,0.891c0.574,0.594,0.861,1.422,0.861,2.485c0,1.063-0.307,1.91-0.917,2.539
		c-0.612,0.63-1.351,0.945-2.22,0.945c-0.476,0-0.902-0.093-1.28-0.28c-0.378-0.187-0.679-0.504-0.903-0.952h-0.056v0.673
		c0,0.182-0.04,0.318-0.119,0.409s-0.198,0.136-0.356,0.136h-0.225c-0.158,0-0.277-0.04-0.357-0.119
		C145.821,217.197,145.781,217.078,145.781,216.919z M147.014,213.979c0,0.763,0.196,1.348,0.588,1.755
		c0.393,0.408,0.868,0.611,1.428,0.611c0.561,0,1.037-0.212,1.429-0.638c0.392-0.425,0.588-1.019,0.588-1.781
		c0-0.763-0.196-1.339-0.588-1.729c-0.392-0.39-0.868-0.585-1.429-0.585c-0.56,0-1.035,0.204-1.428,0.611
		C147.21,212.632,147.014,213.217,147.014,213.979z"/>
	<path fill="#545454" d="M154.406,208.547c-0.168,0-0.295-0.042-0.379-0.126s-0.126-0.21-0.126-0.378v-0.392
		c0-0.168,0.042-0.294,0.126-0.378s0.211-0.126,0.379-0.126h0.336c0.168,0,0.293,0.042,0.377,0.126s0.127,0.21,0.127,0.378v0.392
		c0,0.168-0.043,0.294-0.127,0.378s-0.209,0.126-0.377,0.126H154.406z M153.957,216.891v-5.824c0-0.168,0.043-0.294,0.127-0.378
		s0.209-0.126,0.377-0.126h0.225c0.168,0,0.294,0.042,0.378,0.126s0.126,0.21,0.126,0.378v5.824c0,0.168-0.042,0.294-0.126,0.378
		s-0.21,0.126-0.378,0.126h-0.225c-0.168,0-0.293-0.042-0.377-0.126S153.957,217.059,153.957,216.891z"/>
	<path fill="#545454" d="M157.317,216.891v-9.24c0-0.168,0.042-0.294,0.126-0.378s0.21-0.126,0.378-0.126h0.224
		c0.168,0,0.295,0.042,0.379,0.126s0.125,0.21,0.125,0.378v9.24c0,0.168-0.041,0.294-0.125,0.378s-0.211,0.126-0.379,0.126h-0.224
		c-0.168,0-0.294-0.042-0.378-0.126S157.317,217.059,157.317,216.891z"/>
	<path fill="#545454" d="M161.125,208.547c-0.168,0-0.294-0.042-0.378-0.126s-0.126-0.21-0.126-0.378v-0.392
		c0-0.168,0.042-0.294,0.126-0.378s0.21-0.126,0.378-0.126h0.336c0.168,0,0.295,0.042,0.379,0.126s0.125,0.21,0.125,0.378v0.392
		c0,0.168-0.041,0.294-0.125,0.378s-0.211,0.126-0.379,0.126H161.125z M160.678,216.891v-5.824c0-0.168,0.041-0.294,0.125-0.378
		s0.211-0.126,0.379-0.126h0.224c0.168,0,0.294,0.042,0.378,0.126s0.126,0.21,0.126,0.378v5.824c0,0.168-0.042,0.294-0.126,0.378
		s-0.21,0.126-0.378,0.126h-0.224c-0.168,0-0.295-0.042-0.379-0.126S160.678,217.059,160.678,216.891z"/>
	<path fill="#545454" d="M164.205,215.379v-3.808h-0.882c-0.14,0-0.243-0.032-0.308-0.098c-0.065-0.065-0.099-0.168-0.099-0.308
		v-0.196c0-0.14,0.033-0.243,0.099-0.308c0.064-0.065,0.168-0.098,0.308-0.098h0.882v-1.568c0-0.168,0.042-0.294,0.126-0.378
		s0.21-0.126,0.378-0.126h0.225c0.168,0,0.293,0.042,0.377,0.126s0.127,0.21,0.127,0.378v1.568h1.386
		c0.14,0,0.243,0.033,0.308,0.098c0.065,0.065,0.098,0.168,0.098,0.308v0.196c0,0.14-0.032,0.243-0.098,0.308
		c-0.064,0.065-0.168,0.098-0.308,0.098h-1.386v3.752c0,0.364,0.074,0.623,0.224,0.777c0.149,0.154,0.392,0.231,0.728,0.231h0.406
		c0.149,0,0.26,0.035,0.329,0.105c0.07,0.07,0.104,0.18,0.104,0.329v0.196c0,0.149-0.034,0.259-0.104,0.329
		c-0.069,0.07-0.18,0.105-0.329,0.105h-0.574c-0.672,0-1.176-0.168-1.512-0.504S164.205,216.051,164.205,215.379z"/>
	<path fill="#545454" d="M170.421,218.028l0.154-0.428l-2.478-6.457c-0.066-0.175-0.063-0.315,0.006-0.421
		c0.07-0.106,0.185-0.159,0.344-0.159h0.336c0.168,0,0.296,0.032,0.385,0.097c0.089,0.064,0.17,0.198,0.245,0.4l1.722,4.922h0.057
		l1.736-4.922c0.055-0.166,0.123-0.29,0.202-0.373s0.203-0.125,0.371-0.125h0.267c0.158,0,0.272,0.053,0.342,0.159
		c0.07,0.106,0.072,0.247,0.008,0.422l-2.688,7.227c-0.178,0.498-0.461,0.973-0.848,1.426c-0.387,0.452-0.926,0.678-1.617,0.678
		h-0.182c-0.149,0-0.269-0.035-0.357-0.105c-0.088-0.07-0.133-0.18-0.133-0.329v-0.196c0-0.149,0.037-0.259,0.112-0.329
		c0.074-0.07,0.187-0.105,0.336-0.105h0.042c0.373,0,0.695-0.106,0.966-0.318C170.02,218.881,170.244,218.526,170.421,218.028z"/>
	<path fill="#545454" d="M175.797,211.291c-0.104,0-0.191-0.04-0.266-0.119c-0.075-0.079-0.117-0.17-0.127-0.273l-0.111-1.4
		c-0.01-0.103-0.021-0.252-0.035-0.448c-0.014-0.196-0.021-0.345-0.021-0.448v-0.448c0-0.103,0.04-0.193,0.119-0.273
		c0.08-0.079,0.17-0.119,0.273-0.119h0.447c0.104,0,0.194,0.04,0.273,0.119c0.08,0.08,0.119,0.17,0.119,0.273v0.448
		c0,0.103-0.007,0.252-0.021,0.448c-0.014,0.196-0.025,0.346-0.035,0.448l-0.111,1.4c-0.01,0.103-0.051,0.194-0.126,0.273
		c-0.075,0.08-0.163,0.119-0.267,0.119H175.797z M178.261,211.291c-0.103,0-0.191-0.04-0.267-0.119
		c-0.074-0.079-0.116-0.17-0.125-0.273l-0.112-1.4c-0.009-0.103-0.021-0.252-0.035-0.448c-0.014-0.196-0.021-0.345-0.021-0.448
		v-0.448c0-0.103,0.039-0.193,0.119-0.273c0.078-0.079,0.17-0.119,0.272-0.119h0.448c0.103,0,0.193,0.04,0.273,0.119
		c0.078,0.08,0.118,0.17,0.118,0.273v0.448c0,0.103-0.007,0.252-0.021,0.448c-0.014,0.196-0.025,0.346-0.035,0.448l-0.112,1.4
		c-0.009,0.103-0.052,0.194-0.126,0.273c-0.074,0.08-0.163,0.119-0.266,0.119H178.261z"/>
	<path fill="#545454" d="M181.48,212.187c-0.195,0-0.343-0.049-0.441-0.147c-0.098-0.098-0.146-0.245-0.146-0.441v-0.448
		c0-0.196,0.049-0.343,0.146-0.441c0.099-0.098,0.246-0.147,0.441-0.147h0.393c0.195,0,0.343,0.049,0.44,0.147
		c0.099,0.098,0.147,0.245,0.147,0.441v0.448c0,0.196-0.049,0.343-0.147,0.441c-0.098,0.098-0.245,0.147-0.44,0.147H181.48z
		 M180.893,216.807v-0.448c0-0.196,0.049-0.343,0.146-0.441c0.099-0.098,0.246-0.147,0.441-0.147h0.393
		c0.195,0,0.343,0.049,0.44,0.147c0.099,0.098,0.147,0.245,0.147,0.441v0.448c0,0.196-0.049,0.343-0.147,0.441
		c-0.098,0.098-0.245,0.147-0.44,0.147h-0.393c-0.195,0-0.343-0.049-0.441-0.147C180.941,217.15,180.893,217.003,180.893,216.807z"
		/>
	<path fill="#545454" d="M188.83,216.835l3.766-7.952h-4.773c-0.159,0-0.28-0.042-0.364-0.126s-0.126-0.205-0.126-0.364v-0.14
		c0-0.159,0.042-0.28,0.126-0.364s0.205-0.126,0.364-0.126h5.628c0.158,0,0.28,0.042,0.364,0.126s0.125,0.205,0.125,0.364v0.126
		c0,0.122-0.016,0.231-0.049,0.329c-0.032,0.098-0.072,0.198-0.119,0.301l-3.682,7.882c-0.074,0.168-0.16,0.294-0.259,0.378
		s-0.231,0.126-0.399,0.126h-0.266c-0.168,0-0.287-0.049-0.357-0.147S188.746,217.012,188.83,216.835z"/>
	<path fill="#545454" d="M196.782,216.835l3.767-7.952h-4.775c-0.158,0-0.279-0.042-0.363-0.126s-0.126-0.205-0.126-0.364v-0.14
		c0-0.159,0.042-0.28,0.126-0.364s0.205-0.126,0.363-0.126h5.629c0.158,0,0.279,0.042,0.363,0.126s0.127,0.205,0.127,0.364v0.126
		c0,0.122-0.017,0.231-0.049,0.329c-0.033,0.098-0.073,0.198-0.119,0.301l-3.683,7.882c-0.075,0.168-0.161,0.294-0.259,0.378
		s-0.23,0.126-0.398,0.126h-0.267c-0.168,0-0.287-0.049-0.356-0.147C196.691,217.15,196.698,217.012,196.782,216.835z"/>
	<path fill="#545454" d="M203.572,216.807v-0.448c0-0.196,0.049-0.343,0.146-0.441c0.099-0.098,0.246-0.147,0.441-0.147h0.393
		c0.195,0,0.343,0.049,0.44,0.147c0.099,0.098,0.147,0.245,0.147,0.441v0.448c0,0.196-0.049,0.343-0.147,0.441
		c-0.098,0.098-0.245,0.147-0.44,0.147h-0.393c-0.195,0-0.343-0.049-0.441-0.147C203.621,217.15,203.572,217.003,203.572,216.807z"
		/>
	<path fill="#545454" d="M210.404,217.409c-0.477,0-0.929-0.079-1.358-0.237c-0.43-0.159-0.803-0.418-1.12-0.78
		s-0.571-0.839-0.763-1.432s-0.287-1.313-0.287-2.164c0-0.931,0.104-1.721,0.315-2.367c0.21-0.646,0.482-1.167,0.818-1.561
		c0.336-0.393,0.724-0.678,1.162-0.854s0.887-0.265,1.344-0.265c0.831,0,1.475,0.178,1.933,0.534
		c0.457,0.356,0.751,0.803,0.882,1.341c0.047,0.191,0.023,0.326-0.07,0.403c-0.093,0.078-0.215,0.117-0.363,0.117h-0.252
		c-0.149,0-0.267-0.033-0.351-0.098c-0.084-0.066-0.149-0.165-0.196-0.296c-0.103-0.271-0.277-0.495-0.524-0.671
		s-0.6-0.265-1.058-0.265c-0.56,0-1.082,0.26-1.567,0.778c-0.485,0.52-0.747,1.422-0.784,2.709v0.013h0.028
		c0.205-0.373,0.534-0.672,0.986-0.896c0.453-0.224,0.917-0.336,1.394-0.336c0.942,0,1.691,0.287,2.247,0.861
		c0.555,0.574,0.833,1.333,0.833,2.275c0,0.514-0.091,0.969-0.273,1.365c-0.182,0.397-0.425,0.73-0.728,1.001
		c-0.304,0.271-0.651,0.476-1.043,0.616C211.216,217.339,210.814,217.409,210.404,217.409z M208.388,214.273
		c0,0.616,0.194,1.115,0.581,1.498c0.388,0.383,0.848,0.574,1.379,0.574c0.569,0,1.058-0.185,1.464-0.553
		c0.405-0.369,0.608-0.894,0.608-1.575c0-0.616-0.193-1.115-0.581-1.498c-0.387-0.383-0.847-0.574-1.379-0.574
		c-0.569,0-1.057,0.185-1.463,0.553S208.388,213.592,208.388,214.273z"/>
	<path fill="#545454" d="M72.096,235.147v-2.8c0-0.504,0.105-0.912,0.314-1.225c0.211-0.312,0.572-0.539,1.086-0.679v-0.056
		c-0.514-0.14-0.875-0.366-1.086-0.679c-0.209-0.312-0.314-0.721-0.314-1.225v-2.688c0-0.392-0.08-0.677-0.238-0.854
		s-0.453-0.266-0.882-0.266h-0.308c-0.121,0-0.213-0.03-0.273-0.091s-0.091-0.152-0.091-0.273v-0.28c0-0.121,0.03-0.212,0.091-0.273
		c0.061-0.061,0.152-0.091,0.273-0.091h0.363c0.84,0,1.414,0.187,1.723,0.56c0.308,0.373,0.462,0.896,0.462,1.568v2.352
		c0,0.588,0.077,1.031,0.231,1.33c0.153,0.299,0.449,0.467,0.889,0.504l0.14,0.014c0.093,0.01,0.168,0.04,0.224,0.091
		c0.057,0.051,0.084,0.124,0.084,0.217v0.224c0,0.093-0.027,0.166-0.084,0.217c-0.056,0.052-0.131,0.082-0.224,0.091l-0.14,0.014
		c-0.448,0.038-0.747,0.206-0.896,0.504s-0.224,0.742-0.224,1.33v2.464c0,0.672-0.154,1.194-0.462,1.568
		c-0.309,0.373-0.883,0.56-1.723,0.56h-0.363c-0.121,0-0.213-0.03-0.273-0.091s-0.091-0.151-0.091-0.273v-0.279
		c0-0.122,0.03-0.213,0.091-0.273s0.152-0.091,0.273-0.091h0.308c0.429,0,0.724-0.089,0.882-0.266
		C72.016,235.824,72.096,235.54,72.096,235.147z"/>
	<path fill="#545454" d="M31.588,253.067h1.708v-11.592h-1.708c-0.121,0-0.212-0.03-0.273-0.091s-0.091-0.152-0.091-0.273v-0.28
		c0-0.121,0.03-0.212,0.091-0.272s0.152-0.091,0.273-0.091h2.464c0.122,0,0.212,0.03,0.273,0.091
		c0.061,0.061,0.091,0.151,0.091,0.272v12.88c0,0.122-0.03,0.213-0.091,0.273c-0.061,0.061-0.152,0.091-0.273,0.091h-2.464
		c-0.121,0-0.212-0.03-0.273-0.091s-0.091-0.151-0.091-0.273v-0.279c0-0.122,0.03-0.213,0.091-0.273S31.467,253.067,31.588,253.067z
		"/>
</g>
<g>
</g>
<g>
</g>
<g>
</g>
<g>
</g>
<g>
</g>
<g>
</g>
<g>
</g>
<g>
</g>
<g>
</g>
<g>
</g>
<g>
</g>
<g>
</g>
<g>
</g>
<g>
</g>
<g>
</g>
</svg>
