<?xml version="1.0" encoding="UTF-8"?>
<svg width="132px" height="39px" viewBox="0 0 132 39" version="1.1" xmlns="http://www.w3.org/2000/svg" xmlns:xlink="http://www.w3.org/1999/xlink">
    <!-- Generator: Sketch 41.2 (35397) - http://www.bohemiancoding.com/sketch -->
    <title>amazon</title>
    <desc>Created with Sketch.</desc>
    <defs></defs>
    <g id="Page-1" stroke="none" stroke-width="1" fill="none" fill-rule="evenodd">
        <g id="Desktop" transform="translate(-953.000000, -1909.000000)">
            <g id="logos" transform="translate(234.000000, 1897.000000)">
                <g id="amazon" transform="translate(719.000000, 12.000000)">
                    <g id="D0EB18C6-B711-4B1D-9B1D-5BA87FB5F7CA">
                        <g id="Symbols">
                            <g id="img/logo_amazon">
                                <g id="Group-3">
                                    <path d="M81.9301471,30.193436 C74.2036335,35.9361117 63.0042841,39 53.3619819,39 C39.8417422,39 27.6703695,33.9576289 18.4618683,25.5715593 C17.7384252,24.9122133 18.3865877,24.0133481 19.2548519,24.5271127 C29.1923153,30.3568255 41.4798099,33.8645814 54.172406,33.8645814 C62.732303,33.8645814 72.1492053,32.0786489 80.8073422,28.3727777 C82.115368,27.8124894 83.2092528,29.2362493 81.9301471,30.193436" id="path8" fill="#FF9900"></path>
                                    <path d="M85.5395932,26.227857 C84.5576668,24.9688543 79.0245552,25.6328324 76.5407686,25.927591 C75.7840002,26.020116 75.6685573,25.3616456 76.3501995,24.888005 C80.7570812,21.7866506 87.9885706,22.6815009 88.8317009,23.7210868 C89.6750516,24.7666208 88.6122711,32.0148636 84.4708643,35.4744224 C83.8354872,36.005781 83.228971,35.7226982 83.5120707,35.0184057 C84.4420036,32.6964654 86.5272476,27.4925875 85.5395932,26.227857" id="path10" fill="#FF9900"></path>
                                    <path d="M76.6816144,3.61974215 L76.6816144,0.73066182 C76.6816144,0.293446961 77.0343049,0 77.4576233,0 L91.1950672,0 C91.6358744,0 91.9885651,0.298935897 91.9885651,0.73066182 L91.9885651,3.20469414 C91.9827355,3.61974215 91.6123319,4.16230235 90.9540359,5.02026527 L83.8356503,14.5898029 C86.4809416,14.5287912 89.27287,14.8997166 91.6713004,16.1727275 C92.2121076,16.4604744 92.3589686,16.8812225 92.4,17.2962706 L92.4,20.3791525 C92.4,20.7996895 91.9065022,21.292427 91.3890135,21.0376137 C87.162556,18.9511847 81.548879,18.7242383 76.8757848,21.0597806 C76.3997758,21.3034048 75.9,20.8161562 75.9,20.3956192 L75.9,17.4679053 C75.9,16.9973346 75.9056054,16.1948944 76.4053811,15.4809105 L84.6524664,4.34491502 L77.4751121,4.34491502 C77.0343049,4.34470392 76.6816144,4.05146807 76.6816144,3.61974215" id="path12" fill="#221F1F"></path>
                                    <path d="M28.0084482,22.75 L23.8439751,22.75 C23.4456245,22.721424 23.1294909,22.429556 23.1,22.0580677 L23.1,1.18972213 C23.1,0.77220688 23.4574656,0.440637824 23.90251,0.440637824 L27.7859259,0.440637824 C28.1900853,0.457652552 28.5122511,0.760863729 28.5415187,1.13824167 L28.5415187,3.86605157 L28.6177035,3.86605157 C29.6311181,1.2296413 31.534622,0 34.1001071,0 C36.7067009,0 38.3349562,1.2296413 39.506326,3.86605157 C40.5137085,1.2296413 42.8039452,0 45.2581694,0 C47.0037181,0 48.9130306,0.703493557 50.078815,2.28171864 C51.3967458,4.03750768 51.1273061,6.58797175 51.1273061,8.82409965 L51.1214972,21.9945897 C51.1214972,22.412105 50.7642552,22.7495637 50.3189872,22.7495637 L46.1600995,22.7495637 C45.7443225,22.7209877 45.410539,22.3950903 45.410539,21.9945897 L45.410539,10.9345803 C45.410539,10.0539591 45.4925326,7.8579685 45.293469,7.022938 C44.9829209,5.62184061 44.0517233,5.2272298 42.8450538,5.2272298 C41.8376714,5.2272298 40.7833716,5.88491447 40.3557535,6.93720996 C39.9281353,7.98950542 39.9692439,9.75074791 39.9692439,10.9345803 L39.9692439,21.995026 C39.9692439,22.4125413 39.6117784,22.75 39.1667338,22.75 L35.0078461,22.75 C34.5862602,22.721424 34.2582857,22.3955266 34.2582857,21.995026 L34.2522535,10.9345803 C34.2522535,8.60705279 34.6445718,5.18142092 31.6867681,5.18142092 C28.6936648,5.18142092 28.8107348,8.52132474 28.8107348,10.9345803 L28.8107348,21.995026 C28.8107348,22.4125413 28.4534926,22.75 28.0084482,22.75" id="path14" fill="#221F1F"></path>
                                    <path d="M103.051928,0 C108.987402,0 112.2,5.08409544 112.2,11.549022 C112.2,17.7947622 108.649832,22.75 103.051928,22.75 C97.2231114,22.75 94.05,17.6659046 94.05,11.3302637 C94.05,4.95502381 97.2623837,0 103.051928,0 M103.08562,4.18059398 C100.137412,4.18059398 99.9515667,8.18738004 99.9515667,10.6844774 C99.9515667,13.1873542 99.9122944,18.5295929 103.051713,18.5295929 C106.151645,18.5295929 106.298004,14.2199273 106.298004,11.5935442 C106.298004,9.86509729 106.224825,7.79995107 105.701624,6.16140483 C105.251603,4.73605151 104.35714,4.18059398 103.08562,4.18059398" id="path16" fill="#221F1F"></path>
                                    <path d="M120.228075,22.75 L116.228689,22.75 C115.827716,22.7214237 115.505602,22.3955231 115.505602,21.9950188 L115.5,1.12101955 C115.534043,0.737966364 115.867361,0.440423909 116.273936,0.440423909 L119.996455,0.440423909 C120.346579,0.457438802 120.634866,0.697828672 120.713724,1.02372928 L120.713724,4.2148939 L120.787196,4.2148939 C121.911472,1.36119128 123.487353,0 126.260767,0 C128.062667,0 129.819535,0.65769098 130.949197,2.45908803 C132,4.12894688 132,6.93705833 132,8.95572246 L132,22.0920908 C131.954753,22.4581292 131.621435,22.75 131.226064,22.75 L127.198668,22.75 C126.831523,22.7214237 126.52643,22.4465678 126.486785,22.0920908 L126.486785,10.7573376 C126.486785,8.47559713 126.746631,5.13566128 123.973218,5.13566128 C122.995887,5.13566128 122.097845,5.79924202 121.651626,6.80573827 C121.086687,8.08098254 121.013215,9.35077331 121.013215,10.7575558 L121.013215,21.9952369 C121.007398,22.412538 120.657273,22.75 120.228075,22.75" id="path18" fill="#221F1F"></path>
                                    <path d="M72.3834748,18.724075 C71.6260586,17.7162055 70.8219706,16.8988467 70.8219706,15.0343202 L70.8219706,8.83012421 C70.8219706,6.20419597 71.0142139,3.79077676 68.9984379,1.9822074 C67.4078196,0.515147532 64.7739759,0 62.7579777,0 C58.8191026,0 54.4143988,1.41088914 53.4936315,6.09206808 C53.3947318,6.59034305 53.7734398,6.8534698 54.1112545,6.92629953 L58.1256934,7.34063876 C58.5044016,7.32397976 58.7782092,6.97115068 58.8482169,6.61276861 C59.1918101,5.00026286 60.5961858,4.22198857 62.1752474,4.22198857 C63.0317855,4.22198857 63.9990024,4.52441348 64.4999461,5.25783663 C65.0826764,6.07540908 65.0068904,7.19519288 65.0068904,8.14133863 L65.0068904,8.65648617 C62.6064056,8.91961293 59.4658399,9.08769797 57.2167051,10.0396103 C54.6179766,11.1147565 52.8,13.3152395 52.8,16.5460176 C52.8,20.6840704 55.5094074,22.75 58.9995668,22.75 C61.9418885,22.75 63.5558428,22.0838535 65.8283135,19.8549648 C66.5799512,20.9021326 66.8306453,21.411727 68.2054623,22.5092988 C68.514385,22.6660642 68.9106505,22.6491917 69.1844583,22.4142571 L69.1900145,22.425363 C70.0176604,21.719705 71.5207137,20.4600282 72.3654728,19.7825623 C72.7039541,19.5136688 72.6457256,19.0824571 72.3834748,18.724075 L72.3834748,18.724075 Z M64.232139,16.9323783 C63.5736225,18.0523756 62.5248411,18.7409475 61.365381,18.7409475 C59.7747627,18.7409475 58.8424384,17.5763126 58.8424384,15.857232 C58.8424384,12.4641355 62.00634,11.8481797 65.0068904,11.8481797 L65.0068904,12.7106033 C65.0068904,14.2613853 65.0477837,15.5550207 64.232139,16.9323783 L64.232139,16.9323783 Z" id="Shape" fill="#221F1F"></path>
                                    <path d="M19.578371,18.724075 C18.8211524,17.7162055 18.017274,16.8988467 18.017274,15.0343202 L18.017274,8.83012421 C18.017274,6.20419597 18.2094672,3.79077676 16.1939943,1.9822074 C14.6037904,0.515147532 11.9708555,0 9.95538261,0 C6.01753398,0 1.61975493,1.41088914 0.693450635,6.09206808 C0.600353609,6.59034305 0.973186088,6.8534698 1.31091277,6.92629953 L5.33008243,7.34063876 C5.70291492,7.32397976 5.97665127,6.97115068 6.04664069,6.61276861 C6.39014427,5.00026286 7.79993097,4.22198857 9.37858099,4.22198857 C10.229119,4.22198857 11.1960838,4.52441348 11.7026738,5.25783663 C12.2794754,6.07540908 12.2037091,7.19519288 12.2037091,8.14133863 L12.2037091,8.65648617 C9.80385,8.91961293 6.66410281,9.08769797 4.41555414,10.0396103 C1.82327968,11.1147565 0,13.3152395 0,16.5460176 C0,20.6840704 2.71447818,22.75 6.19795112,22.75 C9.14550516,22.75 10.7530397,22.0838535 13.0249182,19.8549648 C13.7821369,20.9021326 14.0267666,21.411727 15.4014475,22.5092988 C15.7102897,22.6660642 16.1062298,22.6491917 16.3799661,22.4142571 L16.3917421,22.425363 C17.2189502,21.719705 18.7218341,20.4600282 19.5663729,19.7825623 C19.904544,19.5136688 19.8463305,19.0824571 19.578371,18.724075 L19.578371,18.724075 Z M11.4289374,16.9323783 C10.7708148,18.0523756 9.72808368,18.7409475 8.56292663,18.7409475 C6.97272279,18.7409475 6.04664069,17.5763126 6.04664069,15.857232 C6.04664069,12.4641355 9.20949548,11.8481797 12.2037091,11.8481797 L12.2037091,12.7106033 C12.2037091,14.2613853 12.2445918,15.5550207 11.4289374,16.9323783 L11.4289374,16.9323783 Z" id="Shape" fill="#221F1F"></path>
                                </g>
                            </g>
                        </g>
                    </g>
                </g>
            </g>
        </g>
    </g>
</svg>