<?xml version="1.0" encoding="UTF-8"?>
<svg width="164px" height="35px" viewBox="0 0 164 35" version="1.1" xmlns="http://www.w3.org/2000/svg" xmlns:xlink="http://www.w3.org/1999/xlink">
    <defs>
        <polygon id="path-1" points="163.693655 33.85692 163.693655 0.736 0.00054930757 0.736 0.00054930757 33.85692"></polygon>
    </defs>
    <g id="Page-1" stroke="none" stroke-width="1" fill="none" fill-rule="evenodd">
        <g id="Desktop" transform="translate(-451.000000, -1903.000000)">
            <g id="logos" transform="translate(234.000000, 1897.000000)">
                <g id="facebook" transform="translate(217.000000, 5.000000)">
                    <g id="Group-3" transform="translate(0.000000, 0.304184)">
                        <mask id="mask-2" fill="white">
                            <use xlink:href="#path-1"></use>
                        </mask>
                        <g id="Clip-2"></g>
                        <path d="M131.089138,16.8314 C128.758243,16.8314 127.945268,18.08996 127.945268,19.65764 L127.945268,25.37636 C127.945268,26.94588 128.758243,28.20996 131.089138,28.20996 C133.420034,28.20996 134.243995,26.94588 134.243995,25.37636 L134.243995,19.65764 C134.243995,18.08996 133.420034,16.8314 131.089138,16.8314 L131.089138,16.8314 Z M163.694205,33.55148 L156.247425,33.55148 L149.95236,23.1794 L149.95236,33.55148 L143.080523,33.55148 L143.080523,2.4334 L149.95236,1.30364 L149.95236,21.33572 L156.247425,11.48804 L163.694205,11.48804 L156.820536,22.23548 L163.694205,33.55148 Z M141.114002,24.71948 C141.114002,29.33052 139.18227,33.80356 131.112942,33.80356 C123.039952,33.80356 121.071599,29.33052 121.071599,24.71948 L121.071599,20.26852 C121.071599,15.65564 123.039952,11.1826 131.112942,11.1826 C139.18227,11.1826 141.114002,15.65564 141.114002,20.26852 L141.114002,24.71948 Z M119.112402,24.71948 C119.112402,29.33052 117.180671,33.80356 109.111343,33.80356 C101.036521,33.80356 99.0718313,29.33052 99.0718313,24.71948 L99.0718313,20.26852 C99.0718313,15.65564 101.036521,11.1826 109.111343,11.1826 C117.180671,11.1826 119.112402,15.65564 119.112402,20.26852 L119.112402,24.71948 Z M97.0943241,24.60356 C97.0943241,29.94692 95.5452767,33.84588 86.1685965,33.84588 C82.7811999,33.84588 80.7945375,33.55148 77.057415,32.98292 L77.057415,2.4334 L83.9255906,1.30364 L83.9255906,11.98852 C85.4105521,11.44572 87.3312976,11.16788 89.0799267,11.16788 C95.9499333,11.16788 97.0943241,14.20756 97.0943241,19.09092 L97.0943241,24.60356 Z M74.7594783,24.49868 L62.1583627,24.49868 L62.1583627,24.955 C62.1583627,27.53468 63.0903546,28.20996 66.170139,28.20996 C68.9386491,28.20996 70.6268544,28.0738 74.1845364,27.46844 L74.1845364,32.98292 C70.7550262,33.67292 68.9661145,33.85692 65.6006902,33.85692 C58.2234895,33.85692 55.2901871,30.02788 55.2901871,24.49868 L55.2901871,19.97044 C55.2901871,15.13124 57.4672761,11.16788 65.0257482,11.16788 C72.5842204,11.16788 74.7594783,15.08524 74.7594783,19.97044 L74.7594783,24.49868 Z M53.2577491,17.5582 C49.694574,16.95468 48.6710309,16.8222 46.9571913,16.8222 C43.8774068,16.8222 42.945415,17.49196 42.945415,20.07348 L42.945415,24.955 C42.945415,27.53468 43.8774068,28.20996 46.9571913,28.20996 C48.6710309,28.20996 49.694574,28.0738 53.2577491,27.46844 L53.2577491,32.98292 C50.1376821,33.67292 48.1034131,33.85692 46.3840804,33.85692 C39.0068797,33.85692 36.0754084,30.02788 36.0754084,24.49868 L36.0754084,20.539 C36.0754084,15.00244 39.0068797,11.16788 46.3840804,11.16788 C48.1034131,11.16788 50.1376821,11.35004 53.2577491,12.04372 L53.2577491,17.5582 Z M33.7847958,33.5938 L28.0591799,33.5938 L27.8119915,32.16412 C25.1954564,33.5938 22.8627303,33.82564 21.3228381,33.82564 C17.1242972,33.82564 14.8886154,31.05644 14.8886154,27.22924 C14.8886154,22.71204 17.4959954,21.1002 22.1632787,21.1002 L26.9111271,21.1002 L26.9111271,20.125 C26.9111271,17.81948 26.6437974,17.14236 23.0513259,17.14236 L17.177397,17.14236 L17.7505079,11.48804 L24.1719133,11.48804 C32.056308,11.48804 33.7847958,13.94444 33.7847958,20.16916 L33.7847958,33.5938 Z M10.3037283,33.55148 L3.43372161,33.55148 L3.43372161,17.14236 L0.00054930757,17.14236 L0.00054930757,11.48804 L3.43372161,11.48804 L3.43372161,8.0914 C3.43372161,3.47852 5.3709463,0.73508 10.8786702,0.73508 L15.4635574,0.73508 L15.4635574,6.39124 L12.5980029,6.39124 C10.4538723,6.39124 10.3128834,7.18244 10.3128834,8.65812 L10.3037283,11.48804 L15.4965158,11.48804 L14.8886154,17.14236 L10.3037283,17.14236 L10.3037283,33.55148 Z M109.087539,16.8314 C106.751151,16.8314 105.941838,18.08996 105.941838,19.65764 L105.941838,25.37636 C105.941838,26.94588 106.751151,28.20996 109.087539,28.20996 C111.420265,28.20996 112.235072,26.94588 112.235072,25.37636 L112.235072,19.65764 C112.235072,18.08996 111.420265,16.8314 109.087539,16.8314 L109.087539,16.8314 Z M21.7586221,27.14092 C21.7586221,28.3774 22.3500432,29.0214 23.6573953,29.0214 C25.0581296,29.0214 25.889415,28.5706 26.9111271,28.10692 L26.9111271,25.6266 L23.8459909,25.6266 C22.3958189,25.6266 21.7586221,25.89524 21.7586221,27.14092 L21.7586221,27.14092 Z M65.0257482,16.261 C62.6930221,16.261 62.1583627,17.52508 62.1583627,19.09092 L62.1583627,19.97044 L67.8876407,19.97044 L67.8876407,19.09092 C67.8876407,17.52508 67.3566433,16.261 65.0257482,16.261 L65.0257482,16.261 Z M87.362425,16.8314 C85.9616907,16.8314 84.9491337,17.28588 83.9255906,17.74772 L83.9255906,28.19892 C84.9051891,28.29092 85.4691449,28.29092 86.4011367,28.29092 C89.7647301,28.29092 90.2243174,26.76924 90.2243174,24.64956 L90.2243174,19.65764 C90.2243174,18.08996 89.6988132,16.8314 87.362425,16.8314 L87.362425,16.8314 Z" id="Fill-1" fill="#3B5998" mask="url(#mask-2)"></path>
                    </g>
                    <path d="M152.297904,32.97504 L152.585375,32.97504 C152.909466,32.97504 153.185951,32.85728 153.185951,32.55184 C153.185951,32.33656 153.028483,32.12128 152.585375,32.12128 C152.455372,32.12128 152.365652,32.13048 152.297904,32.14152 L152.297904,32.97504 Z M152.297904,34.3348 L151.902402,34.3348 L151.902402,31.87472 C152.109308,31.84712 152.307059,31.81768 152.603685,31.81768 C152.979045,31.81768 153.226233,31.8968 153.376378,32.00536 C153.52286,32.11208 153.601594,32.27768 153.601594,32.51136 C153.601594,32.83704 153.385533,33.03208 153.118203,33.1112 L153.118203,33.1296 C153.334264,33.16824 153.482577,33.36512 153.533846,33.72576 C153.590607,34.10848 153.651031,34.25384 153.691314,34.3348 L153.275671,34.3348 C153.217078,34.25384 153.158486,34.0312 153.107217,33.70736 C153.050455,33.3964 152.889325,33.2768 152.572557,33.2768 L152.297904,33.2768 L152.297904,34.3348 Z M152.715377,31.19024 C151.733948,31.19024 150.93379,32.02376 150.93379,33.05232 C150.93379,34.09928 151.733948,34.9236 152.720871,34.9236 C153.709624,34.92912 154.498796,34.09928 154.498796,33.06152 C154.498796,32.02376 153.709624,31.19024 152.720871,31.19024 L152.715377,31.19024 Z M152.720871,30.848 C153.938502,30.848 154.905284,31.82872 154.905284,33.05232 C154.905284,34.29616 153.938502,35.264 152.715377,35.264 C151.497746,35.264 150.508992,34.29616 150.508992,33.05232 C150.508992,31.82872 151.497746,30.848 152.715377,30.848 L152.720871,30.848 Z" id="Fill-4" fill="#3B5998"></path>
                </g>
            </g>
        </g>
    </g>
</svg>