<?xml version="1.0" encoding="utf-8"?>
<!-- Generator: Adobe Illustrator 16.0.0, SVG Export Plug-In . SVG Version: 6.00 Build 0)  -->
<!DOCTYPE svg PUBLIC "-//W3C//DTD SVG 1.1//EN" "http://www.w3.org/Graphics/SVG/1.1/DTD/svg11.dtd">
<svg version="1.1" id="Layer_1" xmlns="http://www.w3.org/2000/svg" xmlns:xlink="http://www.w3.org/1999/xlink" x="0px" y="0px"
	 width="206.99px" height="190.095px" viewBox="0 0 206.99 190.095" enable-background="new 0 0 206.99 190.095"
	 xml:space="preserve">
<path fill="#FCC368" stroke="#515160" stroke-width="3" stroke-miterlimit="10" d="M110.546,63.227
	c-3.775-7.567-10.608-9.17-15.504-9.17H19.17c-4.896,0-8.866,3.934-8.866,8.783v99.042c0,7.674,6.578,17.348,14.844,18.135
	c8.531,0.812,87.649-9.352,87.649-9.352c4.896,0,8.865-3.932,8.865-8.783L110.546,63.227z"/>
<g id="file">
	<path fill="#8AF9F9" d="M102.692,15.562c-2.756-0.166-5.125,1.936-5.29,4.692L90.319,138.55c-0.165,2.756,1.936,5.123,4.692,5.289
		l82.851,4.959c2.756,0.164,5.125-1.934,5.291-4.691l5.554-92.763l-27.5-32.279L102.692,15.562z"/>
	<path fill="#68DEEA" d="M161.424,53.702l28.044,1.68l-31.69-37.197l-1.762,29.422C155.826,50.783,158.247,53.513,161.424,53.702z"
		/>
	
		<path fill="#86F7A6" stroke="#515160" stroke-width="3" stroke-linecap="round" stroke-linejoin="round" stroke-miterlimit="10" d="
		M164.351,50.219l24.336,1.456l-27.5-32.279l-1.528,25.533C159.493,47.685,161.594,50.053,164.351,50.219z"/>
	<path fill="none" stroke="#474759" stroke-width="3" stroke-linecap="round" stroke-linejoin="round" stroke-miterlimit="10" d="
		M102.692,15.562c-2.756-0.166-5.125,1.936-5.29,4.692L90.319,138.55c-0.165,2.756,1.936,5.123,4.692,5.289l82.851,4.959
		c2.756,0.164,5.125-1.934,5.291-4.691l5.554-92.763l-27.5-32.279L102.692,15.562z"/>
	<circle fill="#515160" cx="112.669" cy="39.42" r="2.416"/>
	<circle fill="#515160" cx="138.479" cy="40.812" r="2.416"/>
	<path fill="#515160" d="M130.834,47.796c-0.334,3.579-3.509,6.213-7.09,5.878c-3.581-0.334-6.213-3.509-5.88-7.089
		C118.199,43.003,131.168,44.214,130.834,47.796z"/>
</g>
<path fill="#F9E76B" stroke="#515160" stroke-width="3" stroke-miterlimit="10" d="M199.401,171.716c0,5.523-4.477,10-10,10H28.734
	c-5.523,0-10-4.477-10-10V80.255c0-5.523,4.477-10,10-10h160.667c5.523,0,10,4.477,10,10V171.716z"/>
<path fill="#FCC368" stroke="#515160" stroke-width="2.7" stroke-miterlimit="10" d="M144.08,142.429
	c0.036,3.568-3.673,6.496-8.282,6.541l-54.515,0.527c-4.607,0.045-8.372-2.811-8.406-6.381l-0.241-24.984
	c-0.034-3.568,3.674-6.498,8.28-6.543l54.517-0.527c4.607-0.043,8.372,2.814,8.407,6.381L144.08,142.429z"/>
<g>
	<path fill="#515160" d="M105.197,127.245c0.092-0.361,0.252-0.624,0.478-0.787c0.227-0.165,0.478-0.248,0.754-0.25
		c0.18-0.002,0.36,0.029,0.541,0.094c0.181,0.064,0.344,0.158,0.489,0.283c0.146,0.125,0.264,0.277,0.355,0.456
		c0.092,0.18,0.139,0.377,0.141,0.593c0.001,0.156-0.027,0.336-0.084,0.541l-2.462,7.891c-0.104,0.35-0.291,0.609-0.559,0.78
		c-0.269,0.17-0.553,0.257-0.853,0.26c-0.312,0.003-0.604-0.081-0.875-0.253c-0.272-0.171-0.47-0.424-0.593-0.759l-1.406-3.947
		l-1.239,3.972c-0.105,0.35-0.292,0.609-0.56,0.78c-0.269,0.171-0.553,0.257-0.853,0.26c-0.312,0.003-0.604-0.081-0.876-0.253
		c-0.271-0.171-0.469-0.424-0.592-0.759l-2.794-7.875c-0.062-0.203-0.093-0.377-0.095-0.521c-0.002-0.215,0.041-0.41,0.129-0.585
		c0.088-0.175,0.204-0.326,0.347-0.454c0.143-0.127,0.304-0.225,0.483-0.292c0.179-0.067,0.365-0.103,0.557-0.104
		c0.276-0.002,0.531,0.076,0.767,0.236c0.236,0.159,0.403,0.419,0.502,0.778l1.509,5.241l1.263-5.268
		c0.093-0.348,0.267-0.614,0.523-0.797s0.535-0.275,0.834-0.278s0.583,0.084,0.849,0.262c0.266,0.177,0.448,0.44,0.548,0.787
		l1.509,5.241L105.197,127.245z"/>
	<path fill="#515160" d="M115.333,134.87l-3.186,0.031l-0.439,1.156c-0.129,0.337-0.309,0.582-0.542,0.734
		c-0.232,0.153-0.487,0.23-0.762,0.232c-0.204,0.002-0.399-0.029-0.586-0.093c-0.187-0.064-0.359-0.159-0.516-0.283
		c-0.158-0.125-0.282-0.27-0.374-0.438c-0.091-0.167-0.138-0.358-0.14-0.575c-0.002-0.216,0.038-0.414,0.12-0.595l3.47-7.864
		c0.152-0.337,0.36-0.591,0.623-0.762c0.263-0.171,0.532-0.257,0.808-0.26c0.276-0.003,0.544,0.079,0.804,0.244
		c0.259,0.166,0.457,0.416,0.592,0.75l3.333,7.798c0.085,0.179,0.129,0.376,0.132,0.592c0.002,0.205-0.042,0.394-0.129,0.569
		c-0.089,0.175-0.21,0.326-0.365,0.453c-0.155,0.127-0.328,0.226-0.52,0.293c-0.191,0.067-0.383,0.103-0.575,0.104
		c-0.276,0.002-0.535-0.069-0.776-0.218c-0.242-0.147-0.424-0.389-0.547-0.724L115.333,134.87z M113.06,132.551l1.44-0.014
		l-0.685-1.919L113.06,132.551z"/>
	<path fill="#515160" d="M125.572,127.048c0.128-0.337,0.309-0.585,0.542-0.743c0.232-0.158,0.487-0.239,0.763-0.242
		c0.192-0.002,0.384,0.033,0.577,0.103c0.192,0.07,0.368,0.167,0.525,0.292c0.157,0.125,0.282,0.274,0.374,0.447
		c0.091,0.173,0.139,0.367,0.141,0.583c0.002,0.204-0.039,0.396-0.12,0.577l-3.129,7.807c-0.282,0.663-0.734,0.998-1.358,1.003
		c-0.636,0.006-1.144-0.319-1.521-0.976l-3.278-7.745c-0.086-0.179-0.13-0.371-0.132-0.575c-0.002-0.216,0.041-0.411,0.129-0.586
		c0.088-0.174,0.209-0.326,0.365-0.454c0.154-0.127,0.324-0.228,0.51-0.302c0.185-0.074,0.379-0.112,0.584-0.114
		c0.275-0.002,0.531,0.074,0.766,0.227c0.236,0.154,0.421,0.398,0.557,0.732l1.9,4.734L125.572,127.048z"/>
</g>
<path fill="#8AF9F9" stroke="#515160" stroke-width="2.5" stroke-linecap="round" stroke-linejoin="round" stroke-miterlimit="10" d="
	M163.86,64.004c1.375,10.375-7.987,39.716-7.987,39.716c-0.435,1.023-1.728,1.67-3.024,1.436l0,0
	c-1.297-0.234-2.381-1.604-1.794-3.012c0.495-1.188,8.681-31.515,6.992-39.208"/>
<circle fill="#515160" cx="89.648" cy="135.474" r="2.416"/>

</svg>
