<?xml version="1.0" encoding="UTF-8"?>
<svg width="350px" height="281px" viewBox="0 0 350 281" version="1.1" xmlns="http://www.w3.org/2000/svg" xmlns:xlink="http://www.w3.org/1999/xlink">
    <defs>
        <rect id="path-1" x="0" y="0" width="349.625" height="281" rx="5"></rect>
        <mask id="mask-2" maskContentUnits="userSpaceOnUse" maskUnits="objectBoundingBox" x="0" y="0" width="349.625" height="281" fill="white">
            <use xlink:href="#path-1"></use>
        </mask>
        <rect id="path-3" x="0" y="0" width="197" height="6.8582996" rx="3.4291498"></rect>
        <mask id="mask-4" maskContentUnits="userSpaceOnUse" maskUnits="objectBoundingBox" x="0" y="0" width="197" height="6.8582996" fill="white">
            <use xlink:href="#path-3"></use>
        </mask>
    </defs>
    <g id="Page-1" stroke="none" stroke-width="1" fill="none" fill-rule="evenodd">
        <g id="Desktop" transform="translate(-186.000000, -1001.000000)">
            <g id="fileupload" transform="translate(186.000000, 1001.000000)">
                <use id="Rectangle-7" stroke="#73D7E5" mask="url(#mask-2)" stroke-width="2" stroke-dasharray="6" fill="#F8FCFF" xlink:href="#path-1"></use>
                <g id="Group" transform="translate(124.000000, 165.000000)">
                    <text id="Drag-&amp;-drop" font-family="FaktSoftPro-Normal, Fakt Soft Pro" font-size="16" font-weight="normal" fill="#545454">
                        <tspan x="7" y="16">Drag &amp; drop</tspan>
                    </text>
                    <text id="37-files-uploaded…" font-family="FaktSoftPro-Blond, Fakt Soft Pro" font-size="12" font-weight="normal" fill="#959FA9">
                        <tspan x="1" y="73.7246964">37 files uploaded…</tspan>
                    </text>
                    <text id=".wav-files-or-browse" font-family="FaktSoftPro-Blond, Fakt Soft Pro" font-size="12" font-weight="normal" fill="#959FA9">
                        <tspan x="0" y="39.4331984">.wav files or browse</tspan>
                    </text>
                    <path d="M63,43.1093117 L99,43.1093117" id="Line" stroke="#A5DFFA" stroke-width="2" stroke-linecap="round"></path>
                </g>
                <g id="loading-bar" transform="translate(76.000000, 250.000000)">
                    <rect id="Rectangle-9" fill="#A5DFFA" x="0" y="0" width="130.560784" height="6.8582996" rx="3.4291498"></rect>
                    <use id="Rectangle-9" stroke="#A5DFFA" mask="url(#mask-4)" stroke-width="2" xlink:href="#path-3"></use>
                </g>
                <g id="Page-1" transform="translate(92.000000, 12.000000)">
                    <path d="M83.004768,58.4481196 C80.6806,53.7806243 76.470856,52.7918579 73.455536,52.7918579 L26.717768,52.7918579 C23.701832,52.7918579 21.256312,55.2184374 21.256312,58.2094093 L21.256312,119.301353 C21.256312,124.034849 25.30836,130.001989 30.400216,130.486194 C35.655312,130.987671 84.391384,124.718288 84.391384,124.718288 C87.406704,124.718288 89.852224,122.292325 89.852224,119.301353 L83.004768,58.4481196 Z" id="Fill-1" fill="#FCC368"></path>
                    <path d="M83.004768,58.4481196 C80.6806,53.7806243 76.470856,52.7918579 73.455536,52.7918579 L26.717768,52.7918579 C23.701832,52.7918579 21.256312,55.2184374 21.256312,58.2094093 L21.256312,119.301353 C21.256312,124.034849 25.30836,130.001989 30.400216,130.486194 C35.655312,130.987671 84.391384,124.718288 84.391384,124.718288 C87.406704,124.718288 89.852224,122.292325 89.852224,119.301353 L83.004768,58.4481196 Z" id="Stroke-3" stroke="#515160" stroke-width="2"></path>
                    <path d="M78.167012,29.0472168 C76.469316,28.9448243 75.010012,30.241385 74.907756,31.9413477 L70.544628,104.908357 C70.442988,106.609553 71.737204,108.069572 73.4349,108.170731 L124.471732,111.229553 C126.170044,111.331946 127.628732,110.036619 127.730988,108.337273 L131.152252,51.118357 L114.211636,31.2079458 L78.167012,29.0472168 Z" id="Fill-5" fill="#8AF9F9"></path>
                    <path d="M114.345,52.5732561 L131.62072,53.6095178 L112.09968,30.6655738 L111.014904,48.8137234 C110.896632,50.7727514 112.388584,52.4560598 114.345,52.5732561" id="Fill-7" fill="#68DEEB"></path>
                    <path d="M116.148463,50.4243084 L131.139439,51.3224019 L114.199439,31.4119907 L113.258807,47.1613178 C113.156551,48.8612804 114.449535,50.3219159 116.148463,50.4243084" id="Fill-9" fill="#86F8A6"></path>
                    <path d="M116.148463,50.4243084 L131.139439,51.3224019 L114.199439,31.4119907 L113.258807,47.1613178 C113.156551,48.8612804 114.449535,50.3219159 116.148463,50.4243084 Z" id="Stroke-11" stroke="#515160" stroke-width="2" stroke-linecap="round" stroke-linejoin="round"></path>
                    <path d="M78.167012,29.0472168 C76.469316,28.9448243 75.010012,30.241385 74.907756,31.9413477 L70.544628,104.908357 C70.442988,106.609553 71.737204,108.069572 73.4349,108.170731 L124.471732,111.229553 C126.170044,111.331946 127.628732,110.036619 127.730988,108.337273 L131.152252,51.118357 L114.211636,31.2079458 L78.167012,29.0472168 Z" id="Stroke-13" stroke="#474759" stroke-width="2" stroke-linecap="round" stroke-linejoin="round"></path>
                    <path d="M84.3125976,42.2730617 C85.1343416,42.2730617 85.8008536,42.9404636 85.8008536,43.7633047 C85.8008536,44.5861458 85.1343416,45.2535477 84.3125976,45.2535477 C83.4908536,45.2535477 82.8243416,44.5861458 82.8243416,43.7633047 C82.8243416,42.9404636 83.4908536,42.2730617 84.3125976,42.2730617" id="Fill-15" fill="#515160"></path>
                    <path d="M100.211866,43.1317402 C101.03361,43.1317402 101.700122,43.7991421 101.700122,44.6219832 C101.700122,45.4448243 101.03361,46.1122262 100.211866,46.1122262 C99.3895056,46.1122262 98.7236096,45.4448243 98.7236096,44.6219832 C98.7236096,43.7991421 99.3895056,43.1317402 100.211866,43.1317402" id="Fill-17" fill="#515160"></path>
                    <path d="M95.5022376,48.9298093 C95.2964936,51.1374168 93.3406936,52.7621271 91.1347976,52.5554916 C88.9289016,52.3494729 87.3069736,50.3910617 87.5127176,48.1828374 C87.7184616,45.9733794 95.7079816,46.7203514 95.5022376,48.9298093" id="Fill-19" fill="#515160"></path>
                    <path d="M137.739756,125.367308 C137.739756,128.772785 134.980692,131.535533 131.579756,131.535533 L32.608884,131.535533 C29.207332,131.535533 26.448884,128.772785 26.448884,125.367308 L26.448884,68.9508785 C26.448884,65.5454019 29.207332,62.783271 32.608884,62.783271 L131.579756,62.783271 C134.980692,62.783271 137.739756,65.5454019 137.739756,68.9508785 L137.739756,125.367308 Z" id="Fill-21" fill="#F9E76B"></path>
                    <path d="M137.739756,125.367308 C137.739756,128.772785 134.980692,131.535533 131.579756,131.535533 L32.608884,131.535533 C29.207332,131.535533 26.448884,128.772785 26.448884,125.367308 L26.448884,68.9508785 C26.448884,65.5454019 29.207332,62.783271 32.608884,62.783271 L131.579756,62.783271 C134.980692,62.783271 137.739756,65.5454019 137.739756,68.9508785 L137.739756,125.367308 Z" id="Stroke-23" stroke="#515160" stroke-width="2"></path>
                    <path d="M103.661835,107.302368 C103.684011,109.502574 101.399267,111.308013 98.5607392,111.33577 L64.9788832,111.660219 C62.1409712,111.689826 59.8217312,109.926948 59.8007872,107.726125 L59.6523312,92.3154336 C59.6313872,90.1146112 61.9155152,88.3073215 64.7528112,88.2795645 L98.3352832,87.9544991 C101.173195,87.9273589 103.491819,89.6890037 103.513379,91.890443 L103.661835,107.302368 Z" id="Fill-25" fill="#FCC368"></path>
                    <path d="M103.661835,107.302368 C103.684011,109.502574 101.399267,111.308013 98.5607392,111.33577 L64.9788832,111.660219 C62.1409712,111.689826 59.8217312,109.926948 59.8007872,107.726125 L59.6523312,92.3154336 C59.6313872,90.1146112 61.9155152,88.3073215 64.7528112,88.2795645 L98.3352832,87.9544991 C101.173195,87.9273589 103.491819,89.6890037 103.513379,91.890443 L103.661835,107.302368 Z" id="Stroke-27" stroke="#515160" stroke-width="1.7"></path>
                    <path d="M79.7094144,97.9361664 C79.7673184,97.7141103 79.8646464,97.5512692 80.0044784,97.4501103 C80.1449264,97.3489514 80.2989264,97.298372 80.4689424,97.2959047 C80.5804384,97.294671 80.6913184,97.3137925 80.8021984,97.353886 C80.9136944,97.3939794 81.0147184,97.4513439 81.1040384,97.5284467 C81.1927424,97.6055495 81.2654304,97.6986897 81.3227184,97.8097178 C81.3781584,97.920129 81.4077264,98.041643 81.4095744,98.1754935 C81.4101904,98.2711009 81.3923264,98.3827458 81.3572144,98.5091944 L79.8406224,103.375923 C79.7759424,103.591811 79.6613664,103.752185 79.4950464,103.857045 C79.3299584,103.961905 79.1556304,104.015568 78.9708304,104.017419 C78.7780224,104.019269 78.5987664,103.967456 78.4312144,103.861363 C78.2642784,103.755886 78.1416944,103.600447 78.0659264,103.393194 L77.1998304,100.958596 L76.4359904,103.409232 C76.3719264,103.625736 76.2567344,103.784877 76.0904144,103.889736 C75.9247104,103.995213 75.7503824,104.048877 75.5649664,104.050727 C75.3727744,104.052578 75.1929024,104.000764 75.0259664,103.894671 C74.8584144,103.789194 74.7370624,103.633138 74.6619104,103.425886 L72.9401904,98.5684093 C72.9019984,98.4431944 72.8822864,98.3358673 72.8816704,98.2476617 C72.8804384,98.1138112 72.9069264,97.9935308 72.9605184,97.8855869 C73.0153424,97.777643 73.0867984,97.6851196 73.1748864,97.6055495 C73.2629744,97.5272131 73.3621504,97.4667645 73.4724144,97.4260542 C73.5832944,97.3841103 73.6972544,97.3619047 73.8155264,97.3612879 C73.9855424,97.3594374 74.1426224,97.4081664 74.2886144,97.5068579 C74.4333744,97.6055495 74.5368624,97.7646897 74.5978464,97.986129 L75.5267744,101.219512 L76.3053984,97.9694748 C76.3620704,97.7542037 76.4698704,97.590129 76.6281824,97.4778673 C76.7852624,97.364372 76.9571264,97.3076243 77.1419264,97.3057738 C77.3267264,97.3045402 77.5004384,97.3582037 77.6655264,97.4679981 C77.8287664,97.5771757 77.9408784,97.7394 78.0024784,97.9528206 L78.9320224,101.186204 L79.7094144,97.9361664 Z" id="Fill-29" fill="#515160"></path>
                    <path d="M84.110488,101.213652 L84.996912,101.205017 L84.575568,100.020718 L84.110488,101.213652 Z M85.510656,102.643447 L83.54808,102.662568 L83.277656,103.375615 C83.198808,103.583484 83.087312,103.734606 82.9444,103.827746 C82.800872,103.92212 82.644408,103.969615 82.474392,103.971465 C82.349344,103.972699 82.228608,103.952961 82.113416,103.913484 C81.997608,103.874007 81.891656,103.816026 81.794944,103.738923 C81.698232,103.662437 81.621848,103.572381 81.565176,103.468755 C81.507888,103.365129 81.479552,103.247933 81.47832,103.114699 C81.477088,102.980849 81.502344,102.858718 81.552856,102.747073 L83.689144,97.8957645 C83.784624,97.6885121 83.912136,97.5318393 84.072912,97.4257458 C84.235536,97.320886 84.400624,97.2678393 84.571256,97.2659888 C84.741888,97.2641383 84.90636,97.3147178 85.067136,97.4164935 C85.22668,97.518886 85.348648,97.6730916 85.431808,97.8791103 L87.485552,102.689708 C87.537912,102.80012 87.5644,102.92225 87.565632,103.055484 C87.56748,103.180699 87.540376,103.298512 87.486168,103.405839 C87.432576,103.513783 87.356808,103.606923 87.261944,103.68526 C87.166464,103.764213 87.059896,103.824045 86.942856,103.865989 C86.823968,103.907316 86.705696,103.930138 86.587424,103.930138 C86.418024,103.931372 86.25848,103.887578 86.110024,103.796288 C85.960952,103.704998 85.848224,103.556344 85.773072,103.349708 L85.510656,102.643447 Z" id="Fill-31" fill="#515160"></path>
                    <path d="M91.37436,97.8235346 C91.453824,97.6150486 91.56532,97.4620766 91.708848,97.3652355 C91.851144,97.2677776 92.007608,97.217815 92.178856,97.2159645 C92.295896,97.2147308 92.4154,97.2357028 92.533672,97.2788804 C92.651944,97.3232916 92.76036,97.3825065 92.856456,97.4596093 C92.953168,97.5367121 93.030168,97.6280019 93.08684,97.7340953 C93.143512,97.8414224 93.172464,97.9617028 93.173696,98.0943196 C93.174928,98.2207682 93.150904,98.3391981 93.09916,98.450843 L91.172312,103.266376 C90.999832,103.674712 90.720168,103.881964 90.335168,103.885665 C89.944624,103.889366 89.63108,103.688899 89.398848,103.283647 L87.3796,98.506357 C87.326624,98.3959458 87.298904,98.2775159 87.297672,98.1523009 C87.29644,98.0184505 87.322928,97.8981701 87.377136,97.7896093 C87.432576,97.6822822 87.507112,97.5885252 87.601976,97.5101888 C87.69684,97.4318523 87.80156,97.3695533 87.916136,97.3245252 C88.030712,97.2788804 88.150832,97.2548243 88.27588,97.2535907 C88.445896,97.252357 88.603592,97.2992355 88.748968,97.3942262 C88.894344,97.4892168 89.008304,97.6391047 89.091464,97.8451234 L90.261864,100.765778 L91.37436,97.8235346 Z" id="Fill-33" fill="#515160"></path>
                    <g id="Group-38" transform="translate(105.336000, 56.591607)">
                        <path d="M9.2610672,1.32098692 C10.6150352,7.81180935 4.2141792,25.7952673 4.2141792,25.7952673 C3.9080272,26.4194916 2.9267392,26.7846505 1.9189632,26.6026879 C0.9105712,26.4207252 0.0346192,25.5386692 0.4485712,24.6800523 C0.7966112,23.9546692 6.2623792,5.32478131 4.7420912,0.493211215" id="Fill-35" fill="#8AF9F9"></path>
                        <path d="M9.2610672,1.32098692 C10.6150352,7.81180935 4.2141792,25.7952673 4.2141792,25.7952673 C3.9080272,26.4194916 2.9267392,26.7846505 1.9189632,26.6026879 C0.9105712,26.4207252 0.0346192,25.5386692 0.4485712,24.6800523 C0.7966112,23.9546692 6.2623792,5.32478131 4.7420912,0.493211215" id="Stroke-37" stroke="#515160" stroke-width="2" stroke-linecap="round" stroke-linejoin="round"></path>
                    </g>
                    <path d="M70.1316616,101.522064 C70.9534056,101.522064 71.6199176,102.189465 71.6199176,103.012307 C71.6199176,103.835148 70.9534056,104.50255 70.1316616,104.50255 C69.3099176,104.50255 68.6434056,103.835148 68.6434056,103.012307 C68.6434056,102.189465 69.3099176,101.522064 70.1316616,101.522064" id="Fill-39" fill="#515160"></path>
                    <path d="M119.514842,25.1062766 L119.863498,22.4601084 L122.308402,22.7839402 C122.596074,22.8221832 122.860954,22.6007439 122.90161,22.2904822 C122.942266,21.9796037 122.743914,21.6977159 122.456242,21.6594729 L120.013186,21.3356411 L120.361842,18.6888561 C120.401882,18.3779776 120.204146,18.0954729 119.91709,18.0584636 C119.628802,18.0202206 119.364538,18.2404262 119.32265,18.5519215 L118.973378,21.1980897 L116.527858,20.8736411 C116.242034,20.8353981 115.976538,21.0562206 115.93465,21.3677159 C115.89461,21.6779776 116.092346,21.9598654 116.380634,21.9981084 L118.824306,22.322557 L118.476266,24.9687252 C118.434378,25.2789869 118.633962,25.5621084 118.920402,25.6003514 C119.208074,25.6379776 119.47357,25.4165383 119.514842,25.1062766" id="Fill-41" fill="#B3F2EF"></path>
                    <path d="M119.514842,25.1062766 L119.863498,22.4601084 L122.308402,22.7839402 C122.596074,22.8221832 122.860954,22.6007439 122.90161,22.2904822 C122.942266,21.9796037 122.743914,21.6977159 122.456242,21.6594729 L120.013186,21.3356411 L120.361842,18.6888561 C120.401882,18.3779776 120.204146,18.0954729 119.91709,18.0584636 C119.628802,18.0202206 119.364538,18.2404262 119.32265,18.5519215 L118.973378,21.1980897 L116.527858,20.8736411 C116.242034,20.8353981 115.976538,21.0562206 115.93465,21.3677159 C115.89461,21.6779776 116.092346,21.9598654 116.380634,21.9981084 L118.824306,22.322557 L118.476266,24.9687252 C118.434378,25.2789869 118.633962,25.5621084 118.920402,25.6003514 C119.208074,25.6379776 119.47357,25.4165383 119.514842,25.1062766 Z" id="Stroke-43" stroke="#B3F2EF" stroke-width="1.5"></path>
                    <path d="M12.7320424,48.1593981 L13.0178664,45.9949682 L15.0174024,46.2602019 C15.2520984,46.2904262 15.4695464,46.1096972 15.5034264,45.8568 C15.5366904,45.6020523 15.3740664,45.3701271 15.1387544,45.3399028 L13.1392184,45.0734355 L13.4256584,42.9090056 C13.4589224,42.6554916 13.2962984,42.4241832 13.0622184,42.3933421 C12.8269064,42.3618841 12.6094584,42.5426131 12.5761944,42.7967439 L12.2897544,44.9617907 L10.2908344,44.6959402 C10.0561384,44.6657159 9.8386904,44.845828 9.8048104,45.1005757 C9.7709304,45.3540897 9.9341704,45.5853981 10.1688664,45.6162393 L12.1677864,45.8814729 L11.8819624,48.0465196 C11.8480824,48.3006505 12.0107064,48.5319589 12.2454024,48.5628 C12.4813304,48.5942579 12.6987784,48.413529 12.7320424,48.1593981" id="Fill-45" fill="#B3F2EF"></path>
                    <path d="M12.7320424,48.1593981 L13.0178664,45.9949682 L15.0174024,46.2602019 C15.2520984,46.2904262 15.4695464,46.1096972 15.5034264,45.8568 C15.5366904,45.6020523 15.3740664,45.3701271 15.1387544,45.3399028 L13.1392184,45.0734355 L13.4256584,42.9090056 C13.4589224,42.6554916 13.2962984,42.4241832 13.0622184,42.3933421 C12.8269064,42.3618841 12.6094584,42.5426131 12.5761944,42.7967439 L12.2897544,44.9617907 L10.2908344,44.6959402 C10.0561384,44.6657159 9.8386904,44.845828 9.8048104,45.1005757 C9.7709304,45.3540897 9.9341704,45.5853981 10.1688664,45.6162393 L12.1677864,45.8814729 L11.8819624,48.0465196 C11.8480824,48.3006505 12.0107064,48.5319589 12.2454024,48.5628 C12.4813304,48.5942579 12.6987784,48.413529 12.7320424,48.1593981 Z" id="Stroke-47" stroke="#B3F2EF" stroke-width="1.5"></path>
                    <path d="M42.1806616,17.6354467 C43.3368936,17.6354467 44.2744456,18.5736336 44.2744456,19.7320262 C44.2744456,20.8898019 43.3368936,21.8286056 42.1806616,21.8286056 C41.0244296,21.8286056 40.0868776,20.8898019 40.0868776,19.7320262 C40.0868776,18.5736336 41.0244296,17.6354467 42.1806616,17.6354467" id="Fill-49" fill="#B3F2EF"></path>
                    <path d="M150.696207,55.4552355 C152.248527,55.4552355 153.506399,56.7147869 153.506399,58.2691794 C153.506399,59.823572 152.248527,61.0831234 150.696207,61.0831234 C149.143887,61.0831234 147.886015,59.823572 147.886015,58.2691794 C147.886015,56.7147869 149.143887,55.4552355 150.696207,55.4552355" id="Fill-51" fill="#B3F2EF"></path>
                    <path d="M142.602214,16.0394187 C143.500958,16.0394187 144.229686,16.7691196 144.229686,17.6690636 C144.229686,18.5690075 143.500958,19.2987084 142.602214,19.2987084 C141.70347,19.2987084 140.974742,18.5690075 140.974742,17.6690636 C140.974742,16.7691196 141.70347,16.0394187 142.602214,16.0394187" id="Fill-53" fill="#B3F2EF"></path>
                    <path d="M1.8462136,28.8159084 C2.8656936,28.8159084 3.6923656,29.6436841 3.6923656,30.6645252 C3.6923656,31.6853664 2.8656936,32.5131421 1.8462136,32.5131421 C0.8267336,32.5131421 6.15999998e-05,31.6853664 6.15999998e-05,30.6645252 C6.15999998e-05,29.6436841 0.8267336,28.8159084 1.8462136,28.8159084" id="Fill-55" fill="#B3F2EF"></path>
                    <path d="M95.583488,6.23200374 L95.869928,4.06757383 L97.869464,4.33280748 C98.10416,4.36303178 98.320376,4.1823028 98.355488,3.92940561 C98.388136,3.67465794 98.225512,3.44273271 97.990816,3.41250841 L95.99128,3.14604112 L96.27772,0.981611215 C96.3116,0.728097196 96.148976,0.496788785 95.91428,0.465947664 C95.677736,0.43448972 95.462136,0.615218692 95.428256,0.869349533 L95.141816,3.03439626 L93.14228,2.76854579 C92.907584,2.7383215 92.691368,2.91843364 92.656872,3.17318131 C92.622376,3.42669533 92.785616,3.65800374 93.020928,3.68884486 L95.020464,3.9540785 L94.734024,6.11912523 C94.698912,6.37325607 94.862768,6.60456449 95.098696,6.63540561 C95.333392,6.66686355 95.550224,6.48613458 95.583488,6.23200374" id="Fill-57" fill="#B3F2EF"></path>
                    <path d="M95.583488,6.23200374 L95.869928,4.06757383 L97.869464,4.33280748 C98.10416,4.36303178 98.320376,4.1823028 98.355488,3.92940561 C98.388136,3.67465794 98.225512,3.44273271 97.990816,3.41250841 L95.99128,3.14604112 L96.27772,0.981611215 C96.3116,0.728097196 96.148976,0.496788785 95.91428,0.465947664 C95.677736,0.43448972 95.462136,0.615218692 95.428256,0.869349533 L95.141816,3.03439626 L93.14228,2.76854579 C92.907584,2.7383215 92.691368,2.91843364 92.656872,3.17318131 C92.622376,3.42669533 92.785616,3.65800374 93.020928,3.68884486 L95.020464,3.9540785 L94.734024,6.11912523 C94.698912,6.37325607 94.862768,6.60456449 95.098696,6.63540561 C95.333392,6.66686355 95.550224,6.48613458 95.583488,6.23200374 Z" id="Stroke-59" stroke="#B3F2EF" stroke-width="1.5"></path>
                </g>
            </g>
        </g>
    </g>
</svg>