<svg xmlns="http://www.w3.org/2000/svg" width="411.624" height="384.877" viewBox="0 0 411.624 384.877"><path fill="#161614" fill-opacity=".3" d="M258.89 156.188V131.33c0-8.237-.17-15.033-1.927-19.378-3.076-43.853-35.545-69.7-69.178-69.7-3.355 0-6.658.298-9.893.875-7.97-4.208-16.867-6.544-26.53-6.544-35.63 0-63.376 31.532-69.48 73.096-1.034 1.642-3.136 16.413-3.136 22.364v1.31c-.258 2.858-.48 5.777-.676 8.746-1.242.758-1.977 1.572-2.637 2.568-2.344 3.537-.844 6.938 2.078 7.567-.024.625-8.142 7.926-11.247 12.29-2.562 3.47-4.494 7.334-5.846 11.42-1.848 5.3-2.88 11.15-2.88 17.31 0 13.255 4.75 25.105 12.214 33 2.02 2.333-2.76 8.603 2.646 13.755.758.72 3.006 2.55 5.822 4.178.174 6.03.16 134.23.334 140.49l180.982-.877c7.87 1.294 11.904-37.622-.4-36.8-11.553-12.755 4.76-192.505-.243-190.812zm-6.65 210.88c1.14.187 2.27.37 3.392.552-1.17.047-2.3-.14-3.393-.55z"/><path fill="none" stroke="#555" stroke-width="3.719" stroke-miterlimit="10" d="M234.657 100.23c-5.053-41.817-27.178-73.664-58.385-73.664-31.205 0-55.465 31.846-60.518 73.664h118.903z"/><path fill="#FCA9C5" stroke="#545454" stroke-width="3.962" stroke-linecap="round" stroke-linejoin="round" stroke-miterlimit="10" d="M166.05 95.35c4.68-35.57 25.173-62.657 54.08-62.657 28.903 0 51.376 27.087 56.054 62.658H166.05z"/><path fill="#FCA9C5" stroke="#545454" stroke-width="4" stroke-linecap="round" stroke-linejoin="round" stroke-miterlimit="10" d="M247.245 75.507c-1.248 6.393 2.924 12.587 9.316 13.834l9.884 1.93c6.395 1.246 12.588-2.926 13.834-9.32 1.852-9.485-4.63-12.92-9.318-13.836"/><path fill="#FFA4AF" stroke="#545454" stroke-width="3.532" stroke-linecap="round" stroke-linejoin="round" stroke-miterlimit="10" d="M176.206 64.164c-5.475 1.236-8.934 7.388-7.723 13.742 1.21 6.354 6.627 10.503 12.102 9.267l14.04-3.168"/><path fill="#FFA4AF" stroke="#545454" stroke-width="3.532" stroke-linecap="round" stroke-linejoin="round" stroke-miterlimit="10" d="M195.346 43.282c-7.05-3.45-15.332-.027-18.5 7.648-3.17 7.676-.025 16.695 7.023 20.146"/><path fill="#FCA9C5" stroke="#545454" stroke-width="4" stroke-linecap="round" stroke-linejoin="round" stroke-miterlimit="10" d="M241.4 40.03c-.1-7.728-8.978-13.877-19.83-13.738-10.85.142-19.56 6.52-19.46 14.246"/><path fill="#FFB0CA" d="M234.657 98.657c-5.053-41.818-27.178-73.665-58.385-73.665-31.205 0-55.465 31.846-60.516 73.665h118.9z"/><path fill="#FCA9C5" d="M239.004 41.892c3.48-2.77 7.885-4.424 12.68-4.424 11.24 0 20.355 9.1 20.355 20.323 0 5.303-2.036 10.13-5.368 13.75"/><path fill="none" stroke="#545454" stroke-width="3.962" stroke-linecap="round" stroke-linejoin="round" stroke-miterlimit="10" d="M239.254 40.783c3.48-2.77 7.885-4.424 12.68-4.424 11.242 0 20.355 9.098 20.355 20.322 0 5.302-2.036 10.13-5.366 13.75"/><path fill="#FFB0CA" d="M161.86 32.464c.99-9.02 11.223-15.106 22.855-13.594 11.63 1.514 20.256 10.054 19.268 19.075"/><path fill="none" stroke="#545454" stroke-width="4" stroke-linecap="round" stroke-linejoin="round" stroke-miterlimit="10" d="M161.86 32.464c.99-9.02 11.223-15.106 22.855-13.594 11.63 1.514 20.256 10.054 19.268 19.075"/><path fill="#FFB0CA" d="M147.762 73.664c1.346 7.517-3.158 14.8-10.06 16.264l-10.67 2.267c-6.9 1.465-13.587-3.44-14.933-10.958-2-11.15 4.995-15.19 10.058-16.265"/><path fill="#FFB0CA" stroke="#545454" stroke-width="3" stroke-linecap="round" stroke-linejoin="round" stroke-miterlimit="10" d="M224.893 60.263c5.91 1.333 9.643 7.976 8.336 14.836-1.306 6.86-7.155 11.338-13.065 10.004l-15.158-3.42"/><path fill="#FFB0CA" stroke="#545454" stroke-width="3" stroke-linecap="round" stroke-linejoin="round" stroke-miterlimit="10" d="M202.303 40.22c6.822-5.022 16.28-2.98 21.125 4.563 4.846 7.544 3.242 17.73-3.58 22.753"/><path fill="#FC819C" d="M135.8 92.846c-7.02-.726-13.124-7.64-12.097-15.21.832-6.128 4.377-8.418 4.377-8.418l-2.94-2.08c-5.145-.532-9.833-1.016-11.354 10.21-1.03 7.567 4.932 14.48 11.95 15.206l10.85 1.12c1.43.147 2.837.023 4.185-.314l-4.97-.514z"/><path fill="none" stroke="#545454" stroke-width="3.813" stroke-linecap="round" stroke-linejoin="round" stroke-miterlimit="10" d="M148.764 74.35c1.346 7.517-3.158 14.8-10.06 16.264l-10.67 2.267c-6.903 1.466-13.59-3.438-14.935-10.957-2-11.15 4.997-15.19 10.06-16.265"/><path fill="#FFB0CA" d="M132.333 70.514c-5.697-.948-9.033-5.6-11.184-10.247-4.724-10.228 3.76-25.263 18.952-33.584 15.19-8.322 31.33-6.78 36.057 3.448"/><path fill="#FC819C" d="M137.73 32.913c6.052-6.855 14.49-9.746 21.138-11.152-5.463.326-12.707.6-18.607 3.832-15.192 8.32-23.675 23.356-18.952 33.584 1.717 3.715 4.2 7.427 8.033 9.253-5.334-8.698-1.992-23.763 8.39-35.517z"/><path fill="none" stroke="#545454" stroke-width="4.421" stroke-linecap="round" stroke-linejoin="round" stroke-miterlimit="10" d="M130.49 68.956c-5.7-.948-9.036-5.6-11.187-10.247-4.723-10.23 3.762-25.264 18.953-33.585 15.19-8.322 31.332-6.78 36.057 3.448"/><path fill="none" stroke="#545454" stroke-width="2.752" stroke-linecap="round" stroke-linejoin="round" stroke-miterlimit="10" d="M132.55 73.25c-2.02-4.847 1.73-8.844 1.73-8.844M262.413 69.32c5.025 1.524 5.725 6.96 5.725 6.96M197.178 38.456c5.027 1.525 5.725 6.962 5.725 6.962"/><path fill="none" stroke="#FFF" stroke-width="3" stroke-linecap="round" stroke-linejoin="round" stroke-miterlimit="10" d="M217.825 48.58c.996 1.993 1.402 2.974 1.777 5.153M214.926 44.637c.113.053.227.108.34.164"/><path fill="none" stroke="#FF99B9" stroke-width="3" stroke-linecap="round" stroke-linejoin="round" stroke-miterlimit="10" d="M197.364 55.48c10.223.63 7.865 9.566 7.865 9.566M162.077 62.603c7.666-6.794 12.328 1.185 12.328 1.185"/><path fill="none" stroke="#FF99B9" stroke-width="4.929" stroke-linecap="round" stroke-linejoin="round" stroke-miterlimit="10" d="M144.86 51.635c.79-16.81 15.527-13.15 15.527-13.15"/><path fill="none" stroke="#F98AA7" stroke-width="3" stroke-linecap="round" stroke-linejoin="round" stroke-miterlimit="10" d="M234.358 49.502c9.422-4.016 11.318 5.03 11.318 5.03"/><path fill="none" stroke="#F98AA7" stroke-width="2.148" stroke-linecap="round" stroke-linejoin="round" stroke-miterlimit="10" d="M247.56 65.688c6.747-2.875 8.104 3.602 8.104 3.602"/><path fill="#FFF" d="M288.62 372.682c2.953-.527 5.166-2.686 5.166-5.273 0-2.98-2.94-5.397-6.566-5.397-.062 0-.125.006-.19.008v-7.47c-32.333 12.604-39.4-145.162 0-199.662v-35.966c0-11.366-.308-20.015-4.69-23.22C247.947 70.55 150.03 69.3 111.664 95.53c-3.863 2.64-4.633 11.88-4.633 23.393v215c-.91-.047-1.872.004-2.856.172-4.695.803-8.086 3.883-7.572 6.877.354 2.064 2.47 3.55 5.29 4.008-.208.154-.417.3-.62.465-6.236 4.988-8.713 12.256-5.53 16.232 1.466 1.832 3.884 2.635 6.67 2.49-.25.174-.5.357-.745.553-3.72 2.977-5.197 7.31-3.3 9.684 1.65 2.06 5.298 1.96 8.665-.05v6.487c0 .573-.38 3.294-.37 3.862h180.5c3.097.564 5.583-2.387 6.444-4.35 1.072-2.45-1.147-5.803-4.986-7.67z"/><path fill="#E6EFEF" d="M133.25 86.316c-8.422 2.77-15.863 6.193-21.852 10.288-3.863 2.64-4.633 11.88-4.633 23.394v215c-.912-.046-1.873.003-2.857.17-4.695.806-8.084 3.884-7.572 6.878.354 2.064 2.47 3.55 5.29 4.008-.206.154-.415.303-.62.465-6.236 4.987-8.713 12.255-5.53 16.23 1.466 1.835 3.884 2.636 6.67 2.49-.25.177-.5.358-.745.556-3.718 2.975-5.194 7.31-3.298 9.682 1.648 2.06 5.297 1.96 8.664-.05v6.49c0 .57-.113 2.216-.105 2.784l26.59.025V86.317zM222.006 190.366c-18.78 17.896-34.61 140.646 10.555 152.896 21.41 5.346 15.228-5.174 33.103.95 17.125 5.376 40.787 21.14-13.895 15.655-13.363-2.035-18.248-1.48-32.2-7.7-45.062-17.23-35.34-156.237-9.062-178.33 16.65-13.992 26.39 2.3 11.5 16.53z"/><path fill="none" stroke="#555" stroke-width="4.254" stroke-linecap="round" stroke-linejoin="round" stroke-miterlimit="10" d="M284.885 382.75c4.216.014 5.82-.41 6.684-2.374 1.073-2.45-1.146-5.803-4.985-7.67 2.95-.527 5.164-2.686 5.164-5.273 0-2.98-2.94-5.396-6.565-5.396-.064 0-.127.006-.19.008v-7.47c-32.335 12.603-39.403-145.163 0-199.663v-35.966c0-11.366-.31-20.015-4.692-23.22-34.393-25.153-132.31-26.403-170.676-.173-3.863 2.64-4.633 11.88-4.633 23.394v215c-.912-.047-1.873.004-2.855.172-4.696.802-8.087 3.882-7.573 6.876.352 2.064 2.47 3.55 5.29 4.008-.208.154-.417.3-.622.465-6.236 4.987-8.713 12.255-5.53 16.23 1.466 1.833 3.884 2.636 6.67 2.49-.25.175-.5.358-.743.554-3.72 2.977-5.197 7.31-3.3 9.684 1.647 2.06 5.296 1.96 8.663-.05v6.75c0 .57.02 1.827.02 1.827"/><path fill="#FFF" stroke="#555" stroke-width="2.5" stroke-linecap="round" stroke-linejoin="round" stroke-miterlimit="10" d="M369.68 52.593c1.805 5.06-17.184 15.957-34.42 8.218 0 0 32.176-14.517 34.42-8.217z"/><path fill="none" stroke="#555" stroke-width="2.5" stroke-linecap="round" stroke-linejoin="round" stroke-miterlimit="10" d="M330.756 56.79c1.672 3.27 4.73 4.1 4.73 4.1"/><path fill="#FFF" stroke="#555" stroke-width="3" stroke-linecap="round" stroke-linejoin="round" stroke-miterlimit="10" d="M409.465 336.667c3.754 3.846-8.95 21.678-27.842 21.842 0-.002 23.172-26.63 27.842-21.843z"/><path fill="none" stroke="#555" stroke-width="2" stroke-linecap="round" stroke-linejoin="round" stroke-miterlimit="10" d="M376.114 357.614c3.027 2.076 6.11 1.346 6.11 1.346"/><path fill="#FFF" stroke="#555" stroke-width="3" stroke-linecap="round" stroke-linejoin="round" stroke-miterlimit="10" d="M22.75 342.842c.337-5.363 22.083-7.895 34.872 6.012 0 0-35.29.662-34.873-6.012z"/><path fill="none" stroke="#555" stroke-width="3" stroke-linecap="round" stroke-linejoin="round" stroke-miterlimit="10" d="M60.178 354.323c-.248-3.662-2.73-5.63-2.73-5.63"/><path fill="#FFF" stroke="#555" stroke-width="3" stroke-linecap="round" stroke-linejoin="round" stroke-miterlimit="10" d="M1.584 284.58c1.904-7.226 32.242-4.815 45.94 17.59 0 0-48.31-8.6-45.94-17.59z"/><path fill="none" stroke="#555" stroke-width="3" stroke-linecap="round" stroke-linejoin="round" stroke-miterlimit="10" d="M49.536 310.32c.648-5.062-2.207-8.415-2.207-8.415"/><path fill="#FFF" stroke="#555" stroke-width="3.517" stroke-linecap="round" stroke-linejoin="round" stroke-miterlimit="10" d="M48.688 2.5c5.457 5.234-11.58 30.894-38.137 32 0 0 31.35-38.513 38.138-32z"/><path fill="none" stroke="#555" stroke-width="3.517" stroke-linecap="round" stroke-linejoin="round" stroke-miterlimit="10" d="M2.354 32.278c4.16 3.062 8.53 2.182 8.53 2.182"/><path fill="#545454" d="M277.897 169.988c.885-1.017 1.807-1.94 2.758-2.8l-.006-.347c-13.714 9.765-56.93 3.448-66.294 15.686-13.893 18.103-24.023 141.015 10.203 152.763 14.14 4.452 38.854 1.67 53.942 4.815-24.212-34.483-18.203-149.904-.605-170.117z"/><path fill="#FFC34A" stroke="#555" stroke-width="3.714" stroke-linecap="round" stroke-linejoin="round" stroke-miterlimit="10" d="M287.493 170.493c-21.273 22.238-25.217 153.96 5.342 168.39 21.408 5.864 6.17 15.92-7.78 9.1-45.062-18.903-35.34-171.386-9.062-195.618 16.648-15.353 26.386 2.52 11.5 18.128z"/><g fill="#4B4B4B"><path d="M245.668 307.305c-26.14-8.973-26.406-82.77-18.885-125.216-1.682.92-3.074 2-4.068 3.3-13.893 18.103-24.023 141.015 10.2 152.763 14.144 4.453 26.82-4.256 41.91-1.11-5.687-5.187-10.925-19.616-12.843-27.235-10.755-.263-8.577-.067-16.314-2.503zM289.012 170.053l-.004-.348c-.086.06-.186.114-.273.173l-.105.54c.128-.12.253-.248.382-.365z"/></g><path fill="#FF7272" d="M196.99 263.514s39.573-26.273 73.282-23.645c79.406 6.196 78 50.42 41 31.67-33-19-50.01-18.058-63-13-21.344 7.692-40.322 41.98-40.322 41.98l-11.77-26.952 3.335-14.77"/><path fill="#F76371" d="M220.848 249.573c-7.172 3.635-14.28 8.318-16.87 9.97l-2.397 11.165 12.063 26.824s-1.682-9.89 14.312-22.684c-12.585-10.183-6.503-19.453-7.107-25.275z"/><path fill="none" stroke="#4B4B4B" stroke-width="2.987" stroke-linecap="round" stroke-linejoin="round" stroke-miterlimit="10" d="M197.06 263.168s39.57-26.275 73.28-23.645c79.406 6.195 78 50.42 41 31.67-33-19-50.01-18.057-63-13-21.344 7.693-40.322 41.98-40.322 41.98l-11.77-26.95 3.335-14.772"/><path fill="#FFE564" d="M301.528 137.693c21.666-11.333 41.674-1.24 45.316 14.312 7.006 29.917-102.055 15.49-116.943 29.718-18.778 17.897-34.61 140.647 10.556 152.897 21.41 5.346 60.348-4.693 78.223 1.432 17.124 5.375 44.67 36.18-11.376 23.375-19.875-4.375-65.89-9.682-79.842-15.9-45.06-17.232-35.34-156.24-9.06-178.33 16.65-13.996 54.82-12.698 83.126-27.504z"/><path fill="#FFC34A" d="M247.786 349.178c-64.5-.332-50.756-167.08-17.04-188.713.444-.285.83-.662 1.26-.983-4.978 1.858-9.325 4.084-12.753 6.965-26.28 22.09-36 161.097 9.06 178.33 29.473 12.4 58.717 8.57 19.473 4.4z"/><path fill="#FFF3C2" d="M346.4 150.67c-5.677-14.834-26.665-22.13-46.51-8.284 17.196-7.295 33.597-.11 38.513 12.74 2.043 5.34-.107 9.7-5.04 13.365 10.23-4.474 15.977-10.13 13.036-17.82zM317.32 337.055c-4.026-1.38-9.124-1.936-14.843-2.035 2.773.328 5.303.844 7.51 1.61 13.525 4.315 33.54 24.74 13.748 26.728 31.27 2.305 8.486-21.625-6.416-26.303z"/><path fill="none" stroke="#4C4C4C" stroke-width="3.714" stroke-linecap="round" stroke-linejoin="round" stroke-miterlimit="10" d="M301.528 138.53c21.666-11.334 41.674-1.24 45.316 14.31 7.006 29.918-102.055 15.49-116.943 29.72-18.778 17.896-34.61 140.646 10.556 152.896 21.41 5.346 60.348-4.693 78.223 1.432 17.124 5.375 44.67 36.18-11.376 23.375-19.875-4.375-65.89-9.682-79.842-15.9-45.06-17.232-35.34-156.24-9.06-178.33 16.65-13.996 54.82-12.7 83.126-27.504z"/><path fill="none" stroke="#FFDEE1" stroke-width="4" stroke-linecap="round" stroke-linejoin="round" stroke-miterlimit="10" d="M328.23 266.153c-.44-.617-1.468-1.922-2.597-2.828"/><path fill="#FFF" stroke="#555" stroke-width="4" stroke-linecap="round" stroke-linejoin="round" stroke-miterlimit="10" d="M150.012 180.848c0-23.248-13.17-42.18-29.64-43.022-.185-.018-.37-.04-.56-.04-.103 0-.202.008-.304.01-.092-.002-.184-.01-.275-.01-1.81 0-3.582.23-5.307.65-16.045 3.52-28.248 21.162-28.248 42.412s12.203 38.89 28.248 42.41c1.725.42 3.496.653 5.307.653.092 0 .184-.01.275-.01.102 0 .2.01.303.01.192 0 .378-.022.563-.04 16.47-.84 29.64-19.774 29.64-43.022z"/><ellipse transform="rotate(78.135 110.248 170.517)" fill="#545454" stroke="#555" stroke-width="2.455" stroke-linecap="round" stroke-linejoin="round" stroke-miterlimit="10" cx="110.244" cy="170.514" rx="4.355" ry="4.266"/><path fill="#E1EAEA" d="M114.167 138.38c-10.422 7.368-17.494 21.785-17.494 37.93 0 21.25 12.203 38.89 28.248 42.41 1.726.42 3.497.653 5.308.653.092 0 .184-.01.275-.01.102 0 .2.01.303.01.19 0 .377-.023.562-.04.652-.034 1.3-.097 1.94-.185-43.63 26.22-70.6-64.802-19.14-80.77z"/><path fill="#E6EFEF" d="M132.795 219.48c-8.963 5.843-16.12 6.456-27.803.17-4.453-2.4-10.24 2.198-4.604 7.57 1.377 1.31 7.676 6.288 13.393 7.06"/><path fill="none" stroke="#D8E5E5" stroke-width="9" stroke-linecap="round" stroke-linejoin="round" stroke-miterlimit="10" d="M144.202 216.68c-10.895 13.332-26.186 18.54-42.078 7.754"/><path fill="#E6EFEF" d="M132.16 141.744c-8.735-6.125-12.862-5.88-23.634-2.138-4.598 1.598-7.982-2.773-4.953-7.347 1.53-2.307 3.44-3.64 11.188-5.557"/><path fill="none" stroke="#555" stroke-width="4" stroke-linecap="round" stroke-linejoin="round" stroke-miterlimit="10" d="M150.012 180.848c0-23.248-13.17-42.18-29.64-43.022-.185-.018-.37-.04-.56-.04-.103 0-.202.008-.304.01-.092-.002-.184-.01-.275-.01-1.81 0-3.582.23-5.307.65-16.045 3.52-28.248 21.162-28.248 42.412s12.203 38.89 28.248 42.41c1.725.42 3.496.653 5.307.653.092 0 .184-.01.275-.01.102 0 .2.01.303.01.192 0 .378-.022.563-.04 16.47-.84 29.64-19.774 29.64-43.022zM143.856 224.97c.92-.782 1.814-1.646 2.686-2.59M126.215 234.596c4.25-.613 8.047-2.123 11.305-4.572l.238-.18"/><path fill="#C3D1CF" d="M104.827 228.702c-3.646-2.27-2.758-5.633.78-6.002-1.423-.465-1.456-2.957-2.663-2.8-5.44.708-6.525 6.13-2.305 8.556 9.884 5.685 8.616 3.005 4.187.246z"/><path fill="none" stroke="#555" stroke-width="4" stroke-linecap="round" stroke-linejoin="round" stroke-miterlimit="10" d="M131.797 220.172c-8.963 5.842-16.12 6.455-27.8.168-4.456-2.398-10.243 2.2-4.606 7.57 1.38 1.312 7.68 6.29 13.394 7.06"/><path fill="#C3D1CF" d="M110.64 136.244c-4.104 1.268-4.544-2.536-2.5-5.45-1.286.77-4.712.09-5.384 1.105-3.03 4.573.355 8.944 4.953 7.346 10.77-3.743 7.915-4.54 2.93-3.002z"/><path fill="none" stroke="#555" stroke-width="4" stroke-linecap="round" stroke-linejoin="round" stroke-miterlimit="10" d="M132.167 141.75c-8.736-6.126-12.863-5.882-23.635-2.14-4.598 1.6-7.982-2.772-4.953-7.346 1.528-2.306 3.438-3.64 11.187-5.556"/></svg>