<?xml version="1.0" encoding="utf-8"?>
<!-- Generator: Adobe Illustrator 16.0.0, SVG Export Plug-In . SVG Version: 6.00 Build 0)  -->
<!DOCTYPE svg PUBLIC "-//W3C//DTD SVG 1.1//EN" "http://www.w3.org/Graphics/SVG/1.1/DTD/svg11.dtd">
<svg version="1.1" id="Layer_1" xmlns="http://www.w3.org/2000/svg" xmlns:xlink="http://www.w3.org/1999/xlink" x="0px" y="0px"
	 width="411.623px" height="395.066px" viewBox="0 0 411.623 395.066" enable-background="new 0 0 411.623 395.066"
	 xml:space="preserve">
<path fill="#161614" fill-opacity="0.3" d="M258.891,157.189v-24.858c0-8.237-0.17-15.033-1.929-19.378
	c-3.075-43.853-35.545-69.7-69.177-69.7c-3.355,0-6.658,0.298-9.893,0.875c-7.97-4.208-16.867-6.544-26.53-6.544
	c-35.63,0-63.376,31.532-69.48,73.096c-1.034,1.642-3.136,16.413-3.136,22.364v1.31c-0.258,2.858-0.48,5.777-0.676,8.746
	c-1.242,0.758-1.977,1.572-2.637,2.568c-2.344,3.537-0.844,6.938,2.078,7.567c-0.024,0.625-8.142,7.926-11.247,12.29
	c-2.562,3.47-4.494,7.334-5.846,11.42c-1.848,5.3-2.88,11.15-2.88,17.31c0,13.255,4.75,25.104,12.214,33
	c2.02,2.333-2.76,8.603,2.646,13.755c0.758,0.721,3.006,2.551,5.822,4.178c0.174,6.03,0.253,144.619,0.427,150.879l181.165-0.752
	c7.868,1.294,11.627-48.136-0.677-47.313c-11.553-12.755,4.761-192.505-0.243-190.812H258.891z M252.24,368.068
	c1.141,0.188,2.27,0.371,3.393,0.553c-1.17,0.047-2.301-0.141-3.393-0.551V368.068z"/>
<path fill="none" stroke="#555555" stroke-width="3.719" stroke-miterlimit="10" d="M234.658,101.231
	c-5.055-41.817-27.18-73.664-58.386-73.664c-31.205,0-55.465,31.846-60.518,73.664H234.658z"/>
<path fill="#FCA9C5" stroke="#545454" stroke-width="3.962" stroke-linecap="round" stroke-linejoin="round" stroke-miterlimit="10" d="
	M166.05,96.351c4.68-35.57,25.173-62.657,54.081-62.657c28.902,0,51.375,27.087,56.055,62.658L166.05,96.351L166.05,96.351z"/>
<path fill="#FCA9C5" stroke="#545454" stroke-width="4" stroke-linecap="round" stroke-linejoin="round" stroke-miterlimit="10" d="
	M247.246,76.508c-1.248,6.393,2.924,12.587,9.314,13.834l9.885,1.93c6.395,1.246,12.588-2.926,13.834-9.32
	c1.852-9.485-4.631-12.92-9.318-13.836"/>
<path fill="#FFA4AF" stroke="#545454" stroke-width="3.532" stroke-linecap="round" stroke-linejoin="round" stroke-miterlimit="10" d="
	M176.206,65.165c-5.475,1.236-8.934,7.388-7.723,13.742c1.21,6.354,6.627,10.503,12.102,9.267l14.04-3.168"/>
<path fill="#FFA4AF" stroke="#545454" stroke-width="3.532" stroke-linecap="round" stroke-linejoin="round" stroke-miterlimit="10" d="
	M195.346,44.283c-7.05-3.45-15.332-0.027-18.5,7.648c-3.17,7.676-0.025,16.695,7.023,20.146"/>
<path fill="#FCA9C5" stroke="#545454" stroke-width="4" stroke-linecap="round" stroke-linejoin="round" stroke-miterlimit="10" d="
	M241.4,41.031c-0.101-7.729-8.979-13.877-19.83-13.738c-10.85,0.142-19.561,6.52-19.46,14.246"/>
<path fill="#FFB0CA" d="M234.658,99.658c-5.055-41.818-27.18-73.665-58.386-73.665c-31.205,0-55.465,31.846-60.516,73.665h118.9
	H234.658z"/>
<path fill="#FCA9C5" d="M239.003,42.893c3.479-2.77,7.886-4.424,12.681-4.424c11.239,0,20.354,9.1,20.354,20.323
	c0,5.303-2.035,10.13-5.367,13.75"/>
<path fill="none" stroke="#545454" stroke-width="3.962" stroke-linecap="round" stroke-linejoin="round" stroke-miterlimit="10" d="
	M239.253,41.784c3.479-2.77,7.886-4.424,12.681-4.424c11.241,0,20.354,9.098,20.354,20.322c0,5.302-2.035,10.13-5.365,13.75"/>
<path fill="#FFB0CA" d="M161.86,33.465c0.99-9.02,11.223-15.106,22.855-13.594c11.63,1.514,20.256,10.054,19.268,19.075"/>
<path fill="none" stroke="#545454" stroke-width="4" stroke-linecap="round" stroke-linejoin="round" stroke-miterlimit="10" d="
	M161.86,33.465c0.99-9.02,11.223-15.106,22.855-13.594c11.63,1.514,20.256,10.054,19.268,19.075"/>
<path fill="#FFB0CA" d="M147.762,74.665c1.346,7.517-3.158,14.8-10.06,16.264l-10.67,2.267c-6.9,1.465-13.587-3.44-14.933-10.958
	c-2-11.15,4.995-15.19,10.058-16.265"/>
<path fill="#FFB0CA" stroke="#545454" stroke-width="3" stroke-linecap="round" stroke-linejoin="round" stroke-miterlimit="10" d="
	M224.893,61.264c5.91,1.333,9.645,7.976,8.336,14.836c-1.306,6.86-7.154,11.338-13.064,10.004l-15.158-3.42"/>
<path fill="#FFB0CA" stroke="#545454" stroke-width="3" stroke-linecap="round" stroke-linejoin="round" stroke-miterlimit="10" d="
	M202.303,41.221c6.821-5.021,16.28-2.979,21.125,4.563c4.846,7.544,3.241,17.73-3.58,22.753"/>
<path fill="#FC819C" d="M135.8,93.847c-7.02-0.726-13.124-7.64-12.097-15.21c0.832-6.128,4.377-8.418,4.377-8.418l-2.94-2.08
	c-5.145-0.532-9.833-1.016-11.354,10.21c-1.03,7.567,4.932,14.48,11.95,15.206l10.85,1.12c1.43,0.147,2.837,0.023,4.185-0.314
	L135.8,93.847L135.8,93.847z"/>
<path fill="none" stroke="#545454" stroke-width="3.813" stroke-linecap="round" stroke-linejoin="round" stroke-miterlimit="10" d="
	M148.764,75.351c1.346,7.517-3.158,14.8-10.06,16.264l-10.67,2.267c-6.903,1.466-13.59-3.438-14.935-10.957
	c-2-11.15,4.997-15.19,10.06-16.265"/>
<path fill="#FFB0CA" d="M132.333,71.515c-5.697-0.948-9.033-5.6-11.184-10.247c-4.724-10.228,3.76-25.263,18.952-33.584
	c15.19-8.322,31.33-6.78,36.057,3.448"/>
<path fill="#FC819C" d="M137.73,33.914c6.052-6.855,14.49-9.746,21.138-11.152c-5.463,0.326-12.707,0.6-18.607,3.832
	c-15.192,8.32-23.675,23.356-18.952,33.584c1.717,3.715,4.2,7.427,8.033,9.253c-5.334-8.698-1.992-23.763,8.39-35.517H137.73z"/>
<path fill="none" stroke="#545454" stroke-width="4.421" stroke-linecap="round" stroke-linejoin="round" stroke-miterlimit="10" d="
	M130.49,69.957c-5.7-0.948-9.036-5.6-11.187-10.247c-4.723-10.23,3.762-25.264,18.953-33.585c15.19-8.322,31.332-6.78,36.057,3.448"
	/>
<path fill="none" stroke="#545454" stroke-width="2.752" stroke-linecap="round" stroke-linejoin="round" stroke-miterlimit="10" d="
	M132.55,74.251c-2.02-4.847,1.73-8.844,1.73-8.844 M262.414,70.321c5.023,1.524,5.725,6.96,5.725,6.96 M197.178,39.457
	c5.027,1.525,5.725,6.962,5.725,6.962"/>
<path fill="none" stroke="#FFFFFF" stroke-width="3" stroke-linecap="round" stroke-linejoin="round" stroke-miterlimit="10" d="
	M217.826,49.581c0.994,1.993,1.4,2.974,1.775,5.153 M214.925,45.638c0.113,0.053,0.228,0.108,0.341,0.164"/>
<path fill="none" stroke="#FF99B9" stroke-width="3" stroke-linecap="round" stroke-linejoin="round" stroke-miterlimit="10" d="
	M197.364,56.481c10.224,0.63,7.865,9.566,7.865,9.566 M162.077,63.604c7.666-6.794,12.328,1.185,12.328,1.185"/>
<path fill="none" stroke="#FF99B9" stroke-width="4.929" stroke-linecap="round" stroke-linejoin="round" stroke-miterlimit="10" d="
	M144.86,52.636c0.79-16.81,15.527-13.15,15.527-13.15"/>
<path fill="none" stroke="#F98AA7" stroke-width="3" stroke-linecap="round" stroke-linejoin="round" stroke-miterlimit="10" d="
	M234.357,50.503c9.422-4.016,11.317,5.03,11.317,5.03"/>
<path fill="none" stroke="#F98AA7" stroke-width="2.148" stroke-linecap="round" stroke-linejoin="round" stroke-miterlimit="10" d="
	M247.561,66.689c6.746-2.875,8.104,3.602,8.104,3.602"/>
<path fill="#FFFFFF" d="M288.621,373.684c2.953-0.526,5.166-2.687,5.166-5.272c0-2.979-2.939-5.396-6.566-5.396
	c-0.062,0-0.189-7.464-0.189-7.464c-32.334,12.604-39.399-145.161,0-199.662v-35.966c0-11.366-0.309-20.015-4.69-23.22
	c-34.394-25.153-132.311-26.403-170.677-0.173c-3.863,2.64-4.633,11.88-4.633,23.393v215c-0.91-0.047-1.872,0.004-2.856,0.172
	c-4.695,0.803-8.086,3.883-7.572,6.877c0.354,2.064,2.47,3.551,5.29,4.008c-0.208,0.154-0.417,0.302-0.62,0.465
	c-6.236,4.988-8.713,12.258-5.53,16.232c1.466,1.832,3.884,2.635,6.67,2.49c-0.25,0.174-0.5,0.357-0.745,0.553
	c-3.72,2.977-5.197,7.312-3.3,9.684c1.65,2.062,5.298,1.962,8.665-0.049v6.486c0,0.573-0.38,3.294-0.37,3.862h2.002l0.148,10.362
	l176.952-0.727l0.049-9.636h1.349c3.096,0.563,5.582-2.388,6.442-4.351C294.68,378.904,292.46,375.551,288.621,373.684z"/>
<path fill="#E6EFEF" d="M133.25,87.317c-8.422,2.77-15.863,6.193-21.852,10.288c-3.863,2.64-4.633,11.88-4.633,23.394v215
	c-0.912-0.046-1.873,0.003-2.857,0.17c-4.695,0.806-8.084,3.884-7.572,6.878c0.354,2.064,2.47,3.551,5.29,4.008
	c-0.206,0.154-0.415,0.303-0.62,0.465c-6.236,4.987-8.713,12.256-5.53,16.23c1.466,1.835,3.884,2.636,6.67,2.49
	c-0.25,0.177-0.5,0.357-0.745,0.556c-3.718,2.976-5.194,7.31-3.298,9.683c1.648,2.061,5.297,1.959,8.664-0.051v6.49
	c0,0.57-0.129,12.58-0.121,13.148h26.5l0.105-308.749L133.25,87.317z M222.005,191.367
	c-18.779,17.896-34.609,140.646,10.556,152.896c21.41,5.346,15.229-5.176,33.104,0.948c17.125,5.376,40.787,21.142-13.895,15.655
	c-13.363-2.035-18.248-1.479-32.201-7.7c-45.062-17.229-35.339-156.235-9.062-178.33c16.65-13.992,26.39,2.3,11.5,16.53H222.005z"/>
<path fill="none" stroke="#555555" stroke-width="4.254" stroke-linecap="round" stroke-linejoin="round" stroke-miterlimit="10" d="
	M284.884,383.751c4.218,0.015,5.82-0.41,6.685-2.374c1.074-2.45-1.146-5.803-4.984-7.67c2.951-0.527,5.164-2.686,5.164-5.273
	c0-2.979-2.939-5.396-6.564-5.396c-0.063,0-0.127,0.006-0.188,0.008v-7.47c-32.336,12.603-39.404-145.163,0-199.663v-35.966
	c0-11.366-0.312-20.015-4.692-23.22c-34.394-25.153-132.31-26.403-170.676-0.173c-3.863,2.64-4.633,11.88-4.633,23.394v215
	c-0.912-0.047-1.873,0.006-2.855,0.174c-4.696,0.802-8.087,3.882-7.573,6.876c0.352,2.063,2.47,3.55,5.29,4.008
	c-0.208,0.154-0.417,0.3-0.622,0.465c-6.236,4.987-8.713,12.257-5.53,16.23c1.466,1.833,3.884,2.636,6.67,2.489
	c-0.25,0.174-0.5,0.357-0.743,0.555c-3.72,2.977-5.197,7.31-3.3,9.684c1.647,2.061,5.296,1.96,8.663-0.05v6.75
	c0,0.569,0.02,11.812,0.02,11.812"/>
<path fill="#FFFFFF" stroke="#555555" stroke-width="2.5" stroke-linecap="round" stroke-linejoin="round" stroke-miterlimit="10" d="
	M369.679,53.594c1.808,5.06-17.184,15.957-34.42,8.218C335.259,61.812,367.435,47.295,369.679,53.594L369.679,53.594z"/>
<path fill="none" stroke="#555555" stroke-width="2.5" stroke-linecap="round" stroke-linejoin="round" stroke-miterlimit="10" d="
	M330.755,57.791c1.672,3.27,4.73,4.1,4.73,4.1"/>
<path fill="#FFFFFF" stroke="#555555" stroke-width="3" stroke-linecap="round" stroke-linejoin="round" stroke-miterlimit="10" d="
	M409.464,337.668c3.754,3.846-8.949,21.678-27.842,21.842C381.623,359.508,404.794,332.88,409.464,337.668L409.464,337.668z"/>
<path fill="none" stroke="#555555" stroke-width="2" stroke-linecap="round" stroke-linejoin="round" stroke-miterlimit="10" d="
	M376.115,358.615c3.024,2.076,6.108,1.346,6.108,1.346"/>
<path fill="#FFFFFF" stroke="#555555" stroke-width="3" stroke-linecap="round" stroke-linejoin="round" stroke-miterlimit="10" d="
	M22.75,343.843c0.337-5.362,22.083-7.895,34.872,6.013C57.622,349.855,22.332,350.518,22.75,343.843L22.75,343.843z"/>
<path fill="none" stroke="#555555" stroke-width="3" stroke-linecap="round" stroke-linejoin="round" stroke-miterlimit="10" d="
	M60.178,355.324c-0.248-3.662-2.73-5.631-2.73-5.631"/>
<path fill="#FFFFFF" stroke="#555555" stroke-width="3" stroke-linecap="round" stroke-linejoin="round" stroke-miterlimit="10" d="
	M1.584,285.581c1.904-7.226,32.242-4.815,45.94,17.59C47.524,303.171-0.786,294.57,1.584,285.581z"/>
<path fill="none" stroke="#555555" stroke-width="3" stroke-linecap="round" stroke-linejoin="round" stroke-miterlimit="10" d="
	M49.536,311.32c0.648-5.062-2.207-8.414-2.207-8.414"/>
<path fill="#FFFFFF" stroke="#555555" stroke-width="3.517" stroke-linecap="round" stroke-linejoin="round" stroke-miterlimit="10" d="
	M48.688,3.501c5.457,5.234-11.58,30.894-38.137,32C10.551,35.501,41.901-3.012,48.688,3.501L48.688,3.501z"/>
<path fill="none" stroke="#555555" stroke-width="3.517" stroke-linecap="round" stroke-linejoin="round" stroke-miterlimit="10" d="
	M2.354,33.279c4.16,3.062,8.53,2.182,8.53,2.182"/>
<path fill="#545454" d="M277.896,170.989c0.887-1.017,1.809-1.94,2.758-2.8l-0.006-0.347c-13.713,9.765-56.931,3.448-66.293,15.686
	c-13.894,18.103-24.023,141.015,10.203,152.763c14.139,4.452,38.854,1.67,53.94,4.814c-24.211-34.482-18.203-149.903-0.604-170.116
	H277.896z"/>
<path fill="#FFC34A" stroke="#555555" stroke-width="3.714" stroke-linecap="round" stroke-linejoin="round" stroke-miterlimit="10" d="
	M287.494,171.494c-21.273,22.237-25.219,153.96,5.342,168.39c21.408,5.864,6.17,15.921-7.779,9.101
	c-45.062-18.902-35.342-171.385-9.062-195.617C292.641,138.013,302.378,155.886,287.494,171.494L287.494,171.494z"/>
<g>
	<path fill="#4B4B4B" d="M245.667,308.307c-26.14-8.974-26.405-82.771-18.885-125.217c-1.683,0.92-3.074,2-4.068,3.3
		c-13.894,18.103-24.022,141.014,10.201,152.762c14.144,4.453,26.819-4.256,41.91-1.109c-5.688-5.188-10.927-19.616-12.845-27.234
		c-10.754-0.264-8.575-0.066-16.313-2.504V308.307L245.667,308.307z M289.012,171.054l-0.005-0.348
		c-0.086,0.06-0.187,0.114-0.272,0.173l-0.104,0.54C288.757,171.299,288.882,171.171,289.012,171.054L289.012,171.054z"/>
</g>
<path fill="#FF7272" d="M196.99,264.516c0,0,39.572-26.272,73.281-23.646c79.405,6.196,78.002,50.42,41.002,31.67
	c-33.002-19-50.012-18.058-63.002-13c-21.344,7.692-40.32,41.979-40.32,41.979l-11.771-26.951l3.335-14.771"/>
<path fill="#F76371" d="M220.848,250.574c-7.173,3.635-14.279,8.318-16.87,9.97l-2.397,11.165l12.063,26.824
	c0,0-1.683-9.891,14.312-22.684C215.371,265.666,221.453,256.396,220.848,250.574L220.848,250.574z"/>
<path fill="none" stroke="#4B4B4B" stroke-width="2.987" stroke-linecap="round" stroke-linejoin="round" stroke-miterlimit="10" d="
	M197.06,264.169c0,0,39.57-26.274,73.279-23.646c79.406,6.194,78,50.42,41,31.67c-33-19-50.01-18.058-63-13
	c-21.344,7.692-40.321,41.979-40.321,41.979l-11.77-26.948l3.335-14.772"/>
<path fill="#FFE564" d="M301.527,138.694c21.668-11.333,41.676-1.24,45.315,14.312c7.006,29.917-102.055,15.49-116.942,29.718
	c-18.777,17.897-34.609,140.647,10.557,152.897c21.41,5.346,60.35-4.693,78.223,1.432c17.125,5.375,44.67,36.18-11.375,23.375
	c-19.875-4.375-65.891-9.682-79.842-15.9c-45.061-17.23-35.34-156.238-9.061-178.328C235.052,152.202,273.223,153.5,301.527,138.694
	z"/>
<path fill="#FFC34A" d="M247.787,350.18c-64.5-0.332-50.757-167.081-17.041-188.714c0.443-0.285,0.83-0.662,1.26-0.983
	c-4.979,1.858-9.324,4.084-12.752,6.965c-26.28,22.09-36,161.097,9.061,178.33c29.474,12.399,58.717,8.57,19.474,4.399
	L247.787,350.18L247.787,350.18z"/>
<path fill="#FFF3C2" d="M346.4,151.671c-5.679-14.834-26.664-22.13-46.51-8.284c17.194-7.295,33.598-0.11,38.514,12.74
	c2.043,5.34-0.107,9.7-5.041,13.365C343.593,165.018,349.339,159.362,346.4,151.671L346.4,151.671z M317.32,338.057
	c-4.025-1.381-9.123-1.937-14.844-2.035c2.772,0.328,5.305,0.845,7.512,1.609c13.522,4.314,33.539,24.74,13.748,26.729
	C355.005,366.664,332.22,342.734,317.32,338.057L317.32,338.057z"/>
<path fill="none" stroke="#4C4C4C" stroke-width="3.714" stroke-linecap="round" stroke-linejoin="round" stroke-miterlimit="10" d="
	M301.527,139.531c21.668-11.334,41.676-1.24,45.315,14.31c7.006,29.918-102.055,15.49-116.942,29.72
	c-18.777,17.896-34.609,140.646,10.557,152.896c21.41,5.346,60.35-4.693,78.223,1.432c17.125,5.375,44.67,36.18-11.375,23.375
	c-19.875-4.375-65.891-9.682-79.842-15.9c-45.061-17.23-35.34-156.238-9.061-178.328
	C235.052,153.039,273.223,154.335,301.527,139.531L301.527,139.531z"/>
<path fill="none" stroke="#FFDEE1" stroke-width="4" stroke-linecap="round" stroke-linejoin="round" stroke-miterlimit="10" d="
	M328.23,267.154c-0.439-0.617-1.47-1.922-2.599-2.828"/>
<path fill="#FFFFFF" stroke="#555555" stroke-width="4" stroke-linecap="round" stroke-linejoin="round" stroke-miterlimit="10" d="
	M150.012,181.849c0-23.248-13.17-42.18-29.64-43.022c-0.185-0.018-0.37-0.04-0.56-0.04c-0.103,0-0.202,0.008-0.304,0.01
	c-0.092-0.002-0.184-0.01-0.275-0.01c-1.81,0-3.582,0.23-5.307,0.65c-16.045,3.52-28.248,21.162-28.248,42.412
	c0,21.25,12.203,38.89,28.248,42.41c1.725,0.42,3.496,0.653,5.307,0.653c0.092,0,0.184-0.01,0.275-0.01c0.102,0,0.2,0.01,0.303,0.01
	c0.192,0,0.378-0.021,0.563-0.04c16.47-0.84,29.64-19.774,29.64-43.022L150.012,181.849z"/>
<ellipse transform="matrix(-0.2056 -0.9786 0.9786 -0.2056 -34.9413 314.6577)" fill="#545454" stroke="#555555" stroke-width="2.455" stroke-linecap="round" stroke-linejoin="round" stroke-miterlimit="10" cx="110.242" cy="171.511" rx="4.355" ry="4.266"/>
<path fill="#E1EAEA" d="M114.167,139.381c-10.422,7.368-17.494,21.785-17.494,37.93c0,21.25,12.203,38.89,28.248,42.41
	c1.726,0.42,3.497,0.653,5.308,0.653c0.092,0,0.184-0.01,0.275-0.01c0.102,0,0.2,0.01,0.303,0.01c0.19,0,0.377-0.022,0.562-0.04
	c0.652-0.034,1.3-0.098,1.94-0.186c-43.63,26.221-70.6-64.801-19.14-80.771L114.167,139.381z"/>
<path fill="#E6EFEF" d="M132.795,220.48c-8.963,5.844-16.12,6.457-27.803,0.17c-4.453-2.399-10.24,2.199-4.604,7.569
	c1.377,1.312,7.676,6.288,13.393,7.062"/>
<path fill="none" stroke="#D8E5E5" stroke-width="9" stroke-linecap="round" stroke-linejoin="round" stroke-miterlimit="10" d="
	M144.202,217.682c-10.895,13.331-26.186,18.539-42.078,7.754"/>
<path fill="#E6EFEF" d="M132.16,142.745c-8.735-6.125-12.862-5.88-23.634-2.138c-4.598,1.598-7.982-2.773-4.953-7.347
	c1.53-2.307,3.44-3.64,11.188-5.557"/>
<path fill="none" stroke="#555555" stroke-width="4" stroke-linecap="round" stroke-linejoin="round" stroke-miterlimit="10" d="
	M150.012,181.849c0-23.248-13.17-42.18-29.64-43.022c-0.185-0.018-0.37-0.04-0.56-0.04c-0.103,0-0.202,0.008-0.304,0.01
	c-0.092-0.002-0.184-0.01-0.275-0.01c-1.81,0-3.582,0.23-5.307,0.65c-16.045,3.52-28.248,21.162-28.248,42.412
	c0,21.25,12.203,38.89,28.248,42.41c1.725,0.42,3.496,0.653,5.307,0.653c0.092,0,0.184-0.01,0.275-0.01c0.102,0,0.2,0.01,0.303,0.01
	c0.192,0,0.378-0.021,0.563-0.04c16.47-0.84,29.64-19.774,29.64-43.022L150.012,181.849z M143.856,225.971
	c0.92-0.781,1.814-1.646,2.686-2.59 M126.215,235.598c4.25-0.613,8.047-2.123,11.305-4.572l0.238-0.181"/>
<path fill="#C3D1CF" d="M104.827,229.703c-3.646-2.27-2.758-5.633,0.78-6.002c-1.423-0.465-1.456-2.957-2.663-2.801
	c-5.44,0.709-6.525,6.131-2.305,8.557C110.523,235.143,109.255,232.462,104.827,229.703L104.827,229.703z"/>
<path fill="none" stroke="#555555" stroke-width="4" stroke-linecap="round" stroke-linejoin="round" stroke-miterlimit="10" d="
	M131.797,221.173c-8.963,5.843-16.12,6.455-27.8,0.168c-4.456-2.397-10.243,2.2-4.606,7.57c1.38,1.312,7.68,6.29,13.394,7.06"/>
<path fill="#C3D1CF" d="M110.64,137.245c-4.104,1.268-4.544-2.536-2.5-5.45c-1.286,0.77-4.712,0.09-5.384,1.105
	c-3.03,4.573,0.355,8.944,4.953,7.346C118.479,136.503,115.624,135.706,110.64,137.245L110.64,137.245z"/>
<path fill="none" stroke="#555555" stroke-width="4" stroke-linecap="round" stroke-linejoin="round" stroke-miterlimit="10" d="
	M132.167,142.751c-8.736-6.126-12.863-5.882-23.635-2.14c-4.598,1.6-7.982-2.772-4.953-7.346c1.528-2.306,3.438-3.64,11.187-5.556"
	/>
<line fill="none" stroke="#555555" stroke-width="4" stroke-linecap="round" stroke-linejoin="round" stroke-miterlimit="10" x1="284.729" y1="384.816" x2="284.729" y2="393.816"/>
</svg>
