<?xml version="1.0" encoding="utf-8"?>
<!-- Generator: Adobe Illustrator 16.0.0, SVG Export Plug-In . SVG Version: 6.00 Build 0)  -->
<!DOCTYPE svg PUBLIC "-//W3C//DTD SVG 1.1//EN" "http://www.w3.org/Graphics/SVG/1.1/DTD/svg11.dtd">
<svg version="1.1" xmlns="http://www.w3.org/2000/svg" xmlns:xlink="http://www.w3.org/1999/xlink" x="0px" y="0px" width="418px"
	 height="389.082px" viewBox="0 0 418 389.082" enable-background="new 0 0 418 389.082" xml:space="preserve">
<g id="bg" display="none">
	<rect x="-2377" y="241" display="inline" fill="#AAF7F5" width="960" height="478.75"/>
</g>
<g id="text" display="none">
	
		<path display="inline" fill="#FC687E" stroke="#545454" stroke-width="3" stroke-linecap="round" stroke-linejoin="round" stroke-miterlimit="10" d="
		M-1868.231,490.441c1.844-0.346,3.597-0.137,5.26,0.625c1.662,0.761,2.661,2.036,2.995,3.82
		c2.972,13.405-24.672,26.618-21.504,26.024c11.575-2.168,19.614-0.305,24.116,5.588c1.425,1.879,2.37,4.058,2.834,6.533
		c0.193,1.036,0.299,2.239,0.317,3.606c0.119,9.874-3.988,19.764-12.327,29.671c-7.322,8.646-15.765,13.862-25.324,15.652
		c-8.12,1.521-25.809,2.331-28.003-9.151c-0.346-1.843,0.081-3.784,1.277-5.828c4.25-7.022,11.126-1.024,19.876-0.899
		c16.375-1,25.037-13.132,27.762-18.082c0.824-1.498,1.075-2.854,0.859-4.007c-0.658-3.512-4.318-5.39-10.981-5.633
		c-3.895-0.104-8.377,0.317-13.443,1.267c-6.048,1.132-13.385,3.014-22.013,5.643c-8.643,1.855-9.809-7.645-6.801-11.96
		c6.103-9.429,18.434-20.293,36.995-32.593c7.692-5.076,11.944-7.84,12.754-8.29
		C-1871.685,491.417-1869.902,490.754-1868.231,490.441z"/>
	
		<path display="inline" fill="#FC687E" stroke="#545454" stroke-width="3" stroke-linecap="round" stroke-linejoin="round" stroke-miterlimit="10" d="
		M-1758.012,488.455c2.479,13.234-0.135,26.91-7.834,41.029c6.361,9.082,10.02,16.156,10.969,21.225
		c0.527,2.816-0.436,5.838-2.893,9.066c-1.971,2.702-4.049,4.256-6.229,4.664c-2.535,0.475-4.479-0.763-5.834-3.717
		c-1.996-4.435-4.808-9.335-8.437-14.703c-8.004,7.838-16.477,12.594-25.415,14.268c-7.744,1.451-14.653,0.45-20.727-3.003
		c-6.075-3.452-10.529-8.848-13.36-16.187c-0.994-2.581-1.739-5.209-2.241-7.886c-1.661-8.869-0.807-18.5,2.565-28.896
		c4.38-13.57,11.825-24.582,22.338-33.036c6.837-5.506,13.669-8.899,20.497-10.179c7.742-1.45,14.663-0.486,20.76,2.888
		C-1765.469,468.687-1760.188,476.84-1758.012,488.455z M-1811.203,511.969c-0.098-2.457,0.785-4.554,2.646-6.287
		c1.605-1.539,3.676-2.547,6.21-3.021c3.448-0.646,6.407-0.217,8.876,1.288c4.838,2.884,9.535,6.375,14.093,10.476
		c2.126-6.535,2.628-12.807,1.504-18.809c-1.19-6.354-3.473-10.566-6.847-12.64c-2.863-1.656-6.052-2.155-9.571-1.497
		c-1.267,0.237-2.508,0.617-3.722,1.135c-7.963,3.391-14.287,9.594-18.974,18.61c-4.688,9.017-6.229,17.792-4.632,26.325
		c0.713,3.808,2.16,7.26,4.344,10.354c2.971,4.188,7.611,5.436,13.925,3.743c4.918-1.358,9.578-4.489,13.979-9.395
		c-4.979-5.188-10.603-9.927-16.87-14.217C-1809.428,516.593-1811.082,514.569-1811.203,511.969z"/>
	
		<path display="inline" fill="#FC687E" stroke="#545454" stroke-width="3" stroke-linecap="round" stroke-linejoin="round" stroke-miterlimit="10" d="
		M-1732.505,438.992c5.529-1.035,12.804,1.841,12.272,9.505c-0.631,9.096-0.421,14.942-0.422,17.485
		c0.043,6.591-0.135,17.927,0.493,22.975c3.328-11.512,10.146-30.385,18.682-45.999c2.528-4.625,3.671-7.562,8.591-8.882
		c2.952-0.792,5.23-0.402,6.835,1.164c1.605,1.567,2.36,4.145,2.902,6.907l9.156,39.143c1.681-5.877,2.948-16.531,3.771-24.872
		l1.668-21.653c0.926-4.386,4.077-7.083,9.453-8.09c2.917-0.546,5.565-0.208,7.94,1.017s3.829,3.258,4.36,6.099
		c0.245,1.306,0.259,2.654,0.043,4.045l-6.782,43.357c-2.076,13.106-4.374,24.387-6.896,33.84
		c-4.654,17.166-7.889,26.093-14.813,27.216c-2.313,0.375-8.825,1.608-11.042-6.755c-1.37-5.17-3.898-25.479-5.123-31.172
		c-1.226-5.69-2.104-9.958-2.636-12.8c-0.633-3.378-1.14-6.502-1.517-9.373c0,0-16.203,47.783-19.16,55.571
		c-3.223,8.488-16.264,9.072-20.062-3.992c-1.358-4.673-2.503-9.546-3.452-14.614c-1.942-10.367-3.184-21.658-3.723-33.878
		c-0.229-7.588-0.611-18.962-1.145-34.123c-0.136-2.836,0.923-5.458,3.176-7.867
		C-1737.899,440.956-1735.424,439.539-1732.505,438.992z"/>
	
		<path display="inline" fill="#FC687E" stroke="#545454" stroke-width="3" stroke-linecap="round" stroke-linejoin="round" stroke-miterlimit="10" d="
		M-1624.305,462.021c9.02-24.938,16.553-41.72,22.603-50.345c3.124-4.46,6.311-6.994,9.555-7.602
		c7.736-1.449,14.748,7.485,21.035,26.8c2.031,6.252,4.96,18.446,8.79,36.586c4.705,0.756,7.432,3.129,8.18,7.122
		c0.686,3.661-0.513,7.157-3.589,10.488c0.399,1.217,1.402,3.354,3.009,6.411c1.216,2.355,2.021,4.831,2.424,7.425
		c1.448,10.493-1.643,17.904-9.683,17.958c-4.592,0.03-6.592-1.907-8.881-6.731c-1.2-2.528-4.729-12.374-5.58-16.004
		c-18.442,5.436-32.43,10.294-41.96,14.575c-1.597,2.969-10.296,22.727-17.832,22.714c-2.285-0.004-7.37,0.013-8.937-6.334
		c-0.567-2.3,0.06-5.436,1.483-9.319C-1640.129,505.8-1633.668,487.886-1624.305,462.021z M-1582.226,474.288
		c-0.589-2.214-2.374-9.456-5.361-21.728c-1.789-7.241-3.434-12.573-4.934-15.996c-6.262,11.162-12.351,27.156-18.266,47.981
		C-1603.669,482.095-1594.147,478.675-1582.226,474.288z"/>
	
		<path display="inline" fill="#FC687E" stroke="#545454" stroke-width="3" stroke-linecap="round" stroke-linejoin="round" stroke-miterlimit="10" d="
		M-1521.558,379.72c3.516-1.028,6.488-1.007,8.915,0.069c2.428,1.075,3.922,3.368,4.488,6.879
		c-5.162,28.88-7.147,46.499-5.956,52.859c0.168,0.896,0.654,1.269,1.46,1.117c3.941-0.738,17.26-22.706,39.956-65.904
		c2.089-2.708,4.388-4.299,6.896-4.769c2.866-0.537,5.714,0.182,8.541,2.155c2.826,1.975,4.51,4.396,5.046,7.262
		c0.37,1.972-0.004,3.943-1.118,5.912l-16.122,29.031c-8.721,15.821-13.129,24.714-13.224,26.68
		c-0.114,0.393-0.109,0.902,0.008,1.528c0.789,4.212,5.255,10.979,13.399,20.302l16.508,18.329
		c11.066,10.287-0.434,33.912-18.354,18.6c-14.223-12.152-24.242-21.006-29.566-27.15c-1.675-2.003-3.095-2.897-4.258-2.68
		c-1.793,0.336-6.881,0.643-5.471,19.803c0.159,10.263-3.557,15.921-11.148,16.972c-7.414,1.019-13.012-1.632-13.654-8.293
		c-4.036-41.841-2.114-77.862,2.667-108.299C-1531.693,384.708-1528.697,381.706-1521.558,379.72z"/>
	
		<path display="inline" fill="#FFE564" stroke="#545454" stroke-width="3" stroke-linecap="round" stroke-linejoin="round" stroke-miterlimit="10" d="
		M-1876.393,491.483c1.844-0.346,3.597-0.137,5.26,0.625c1.662,0.761,2.661,2.036,2.995,3.82
		c2.972,13.405-24.672,26.618-21.504,26.024c11.575-2.168,19.614-0.305,24.116,5.588c1.425,1.879,2.37,4.058,2.834,6.533
		c0.193,1.036,0.299,2.239,0.317,3.606c0.119,9.874-3.988,19.764-12.327,29.671c-7.322,8.646-15.765,13.862-25.324,15.652
		c-8.12,1.521-25.809,2.331-28.003-9.151c-0.346-1.843,0.081-3.784,1.277-5.828c4.25-7.022,11.126-1.024,19.876-0.899
		c16.375-1,25.037-13.132,27.762-18.082c0.824-1.498,1.075-2.854,0.859-4.007c-0.658-3.512-4.318-5.39-10.981-5.633
		c-3.895-0.104-8.377,0.317-13.443,1.267c-6.048,1.132-13.385,3.014-22.013,5.643c-8.643,1.855-9.809-7.645-6.801-11.96
		c6.103-9.429,18.434-20.293,36.995-32.593c7.692-5.076,11.944-7.84,12.754-8.29
		C-1879.846,492.459-1878.063,491.796-1876.393,491.483z"/>
	
		<path display="inline" fill="#FFE564" stroke="#545454" stroke-width="3" stroke-linecap="round" stroke-linejoin="round" stroke-miterlimit="10" d="
		M-1766.173,489.497c2.479,13.234-0.135,26.91-7.834,41.029c6.361,9.082,10.02,16.156,10.969,21.225
		c0.527,2.816-0.436,5.838-2.893,9.066c-1.971,2.702-4.049,4.256-6.229,4.664c-2.535,0.475-4.479-0.763-5.834-3.717
		c-1.996-4.435-4.808-9.335-8.437-14.703c-8.004,7.838-16.477,12.594-25.415,14.268c-7.744,1.451-14.653,0.45-20.727-3.003
		c-6.075-3.452-10.529-8.848-13.36-16.187c-0.994-2.581-1.739-5.209-2.241-7.886c-1.661-8.869-0.807-18.5,2.565-28.896
		c4.38-13.57,11.825-24.582,22.338-33.036c6.837-5.506,13.669-8.899,20.497-10.179c7.742-1.45,14.663-0.486,20.76,2.888
		C-1773.63,469.729-1768.349,477.882-1766.173,489.497z M-1819.364,513.011c-0.098-2.457,0.785-4.554,2.646-6.287
		c1.605-1.539,3.676-2.547,6.21-3.021c3.448-0.646,6.407-0.217,8.876,1.288c4.838,2.884,9.535,6.375,14.093,10.476
		c2.126-6.535,2.628-12.807,1.504-18.809c-1.19-6.354-3.473-10.566-6.847-12.64c-2.863-1.656-6.052-2.155-9.571-1.497
		c-1.267,0.237-2.508,0.617-3.722,1.135c-7.963,3.391-14.287,9.594-18.974,18.61c-4.688,9.017-6.229,17.792-4.632,26.325
		c0.713,3.808,2.16,7.26,4.344,10.354c2.971,4.188,7.611,5.436,13.925,3.743c4.918-1.358,9.578-4.489,13.979-9.395
		c-4.979-5.188-10.603-9.927-16.87-14.217C-1817.589,517.635-1819.243,515.611-1819.364,513.011z"/>
	
		<path display="inline" fill="#FFE564" stroke="#545454" stroke-width="3" stroke-linecap="round" stroke-linejoin="round" stroke-miterlimit="10" d="
		M-1740.666,440.034c5.529-1.035,12.804,1.841,12.272,9.505c-0.631,9.096-0.421,14.942-0.422,17.485
		c0.043,6.591-0.135,17.927,0.493,22.975c3.328-11.512,10.146-30.385,18.682-45.999c2.528-4.625,3.671-7.562,8.591-8.882
		c2.952-0.792,5.23-0.402,6.835,1.164c1.605,1.567,2.36,4.145,2.902,6.907l9.156,39.143c1.681-5.877,2.948-16.532,3.771-24.873
		l1.668-21.653c0.926-4.386,4.077-7.083,9.453-8.09c2.917-0.546,5.565-0.208,7.94,1.017s3.829,3.258,4.36,6.099
		c0.245,1.306,0.259,2.654,0.043,4.045l-6.782,43.357c-2.076,13.106-4.374,24.387-6.896,33.84
		c-4.654,17.166-7.889,26.093-14.813,27.216c-2.313,0.375-8.825,1.608-11.042-6.755c-1.37-5.17-3.898-25.479-5.123-31.172
		c-1.226-5.69-2.104-9.958-2.636-12.8c-0.633-3.378-1.14-6.502-1.517-9.373c0,0-16.203,47.783-19.16,55.571
		c-3.223,8.488-16.264,9.072-20.062-3.992c-1.358-4.673-2.503-9.546-3.452-14.614c-1.942-10.367-3.184-21.658-3.723-33.878
		c-0.229-7.588-0.611-18.962-1.145-34.123c-0.136-2.836,0.923-5.458,3.176-7.867
		C-1746.061,441.998-1743.585,440.581-1740.666,440.034z"/>
	
		<path display="inline" fill="#FFE564" stroke="#545454" stroke-width="3" stroke-linecap="round" stroke-linejoin="round" stroke-miterlimit="10" d="
		M-1632.466,463.063c9.02-24.938,16.553-41.72,22.603-50.345c3.124-4.46,6.311-6.994,9.555-7.602
		c7.736-1.449,14.748,7.485,21.035,26.8c2.031,6.252,4.96,18.446,8.79,36.586c4.705,0.756,7.432,3.129,8.18,7.122
		c0.686,3.661-0.513,7.157-3.589,10.488c0.399,1.217,1.402,3.354,3.009,6.411c1.216,2.355,2.021,4.831,2.424,7.425
		c1.448,10.493-1.643,17.905-9.683,17.958c-4.592,0.03-6.592-1.907-8.881-6.731c-1.2-2.528-4.729-12.374-5.58-16.004
		c-18.442,5.436-32.43,10.294-41.96,14.575c-1.597,2.969-10.296,22.727-17.832,22.714c-2.285-0.004-7.37,0.013-8.937-6.334
		c-0.567-2.3,0.06-5.436,1.483-9.319C-1648.29,506.842-1641.829,488.928-1632.466,463.063z M-1590.387,475.33
		c-0.589-2.214-2.374-9.456-5.361-21.728c-1.789-7.241-3.434-12.573-4.934-15.996c-6.262,11.162-12.351,27.156-18.266,47.981
		C-1611.83,483.137-1602.309,479.717-1590.387,475.33z"/>
	
		<path display="inline" fill="#FFE564" stroke="#545454" stroke-width="3" stroke-linecap="round" stroke-linejoin="round" stroke-miterlimit="10" d="
		M-1529.719,380.762c3.516-1.028,6.488-1.007,8.915,0.069c2.428,1.075,3.922,3.368,4.488,6.879
		c-5.162,28.88-7.147,46.499-5.956,52.859c0.168,0.896,0.654,1.269,1.46,1.117c3.941-0.738,17.26-22.706,39.956-65.904
		c2.089-2.708,4.388-4.299,6.896-4.769c2.866-0.537,5.714,0.182,8.541,2.155c2.826,1.975,4.51,4.396,5.046,7.262
		c0.37,1.972-0.004,3.943-1.118,5.912l-16.122,29.031c-8.721,15.821-13.129,24.714-13.224,26.68
		c-0.114,0.393-0.109,0.902,0.008,1.528c0.789,4.212,5.255,10.979,13.399,20.302l16.508,18.329
		c11.066,10.287-0.434,33.912-18.354,18.6c-14.223-12.153-24.242-21.006-29.566-27.15c-1.675-2.003-3.095-2.897-4.258-2.68
		c-1.793,0.336-6.881,0.643-5.471,19.803c0.159,10.263-3.557,15.921-11.148,16.972c-7.414,1.019-13.012-1.632-13.654-8.293
		c-4.036-41.841-2.114-77.862,2.667-108.299C-1539.854,385.75-1536.858,382.748-1529.719,380.762z"/>
	<path display="inline" fill="#FF7272" d="M-1916.393-82.517c1.844-0.346,3.597-0.137,5.26,0.625
		c1.662,0.761,2.661,2.036,2.995,3.82c2.972,13.405-24.672,26.618-21.504,26.024c11.575-2.168,19.614-0.305,24.116,5.588
		c1.425,1.879,2.37,4.058,2.834,6.533c0.193,1.036,0.299,2.239,0.317,3.606c0.119,9.874-3.988,19.764-12.327,29.671
		c-7.322,8.646-15.765,13.862-25.324,15.652c-8.12,1.521-25.809,2.331-28.003-9.151c-0.346-1.843,0.081-3.784,1.277-5.828
		c4.25-7.022,11.126-1.024,19.876-0.899c16.375-1,25.037-13.132,27.762-18.082c0.824-1.498,1.075-2.854,0.859-4.007
		c-0.658-3.512-4.318-5.39-10.981-5.633c-3.895-0.104-8.377,0.317-13.443,1.267c-6.048,1.132-13.385,3.014-22.013,5.643
		c-8.643,1.855-9.809-7.645-6.801-11.96c6.103-9.429,18.434-20.293,36.995-32.593c7.692-5.076,11.944-7.84,12.754-8.29
		C-1919.846-81.541-1918.063-82.204-1916.393-82.517z"/>
	<path display="inline" fill="#FF7272" d="M-1806.173-84.503c2.479,13.234-0.135,26.91-7.834,41.029
		c6.361,9.082,10.02,16.156,10.969,21.225c0.527,2.816-0.436,5.838-2.893,9.066c-1.971,2.702-4.049,4.256-6.229,4.664
		c-2.535,0.475-4.479-0.763-5.834-3.717c-1.996-4.435-4.808-9.335-8.437-14.703c-8.004,7.838-16.477,12.594-25.415,14.268
		c-7.744,1.451-14.653,0.45-20.727-3.003c-6.075-3.452-10.529-8.848-13.36-16.187c-0.994-2.581-1.739-5.209-2.241-7.886
		c-1.661-8.869-0.807-18.5,2.565-28.896c4.38-13.57,11.825-24.582,22.338-33.036c6.837-5.506,13.669-8.899,20.497-10.179
		c7.742-1.45,14.663-0.486,20.76,2.888C-1813.63-104.271-1808.349-96.118-1806.173-84.503z M-1859.364-60.989
		c-0.098-2.457,0.785-4.554,2.646-6.287c1.605-1.539,3.676-2.547,6.21-3.021c3.448-0.646,6.407-0.217,8.876,1.288
		c4.838,2.884,9.535,6.375,14.093,10.476c2.126-6.535,2.628-12.807,1.504-18.809c-1.19-6.354-3.473-10.566-6.847-12.64
		c-2.863-1.656-6.052-2.155-9.571-1.497c-1.267,0.237-2.508,0.617-3.722,1.135c-7.963,3.391-14.287,9.594-18.974,18.61
		c-4.688,9.017-6.229,17.792-4.632,26.325c0.713,3.808,2.16,7.26,4.344,10.354c2.971,4.188,7.611,5.436,13.925,3.743
		c4.918-1.358,9.578-4.489,13.979-9.395c-4.979-5.188-10.603-9.927-16.87-14.217C-1857.589-56.365-1859.243-58.389-1859.364-60.989z
		"/>
	<path display="inline" fill="#FF7272" d="M-1780.666-133.966c5.529-1.035,12.804,1.841,12.272,9.505
		c-0.631,9.096-0.421,14.942-0.422,17.485c0.043,6.591-0.135,17.927,0.493,22.975c3.328-11.512,10.146-30.385,18.682-45.999
		c2.528-4.625,3.671-7.562,8.591-8.882c2.952-0.792,5.23-0.402,6.835,1.164c1.605,1.567,2.36,4.145,2.902,6.907l9.156,39.143
		c1.681-5.877,2.948-16.532,3.771-24.873l1.668-21.653c0.926-4.386,4.077-7.083,9.453-8.09c2.917-0.546,5.565-0.208,7.94,1.017
		s3.829,3.258,4.36,6.099c0.245,1.306,0.259,2.654,0.043,4.045l-6.782,43.357c-2.076,13.106-4.374,24.387-6.896,33.84
		c-4.654,17.166-7.889,26.093-14.813,27.216c-2.313,0.375-8.825,1.608-11.042-6.755c-1.37-5.17-3.898-25.479-5.123-31.172
		c-1.226-5.69-2.104-9.958-2.636-12.8c-0.633-3.378-1.14-6.502-1.517-9.373c0,0-16.203,47.783-19.16,55.571
		c-3.223,8.488-16.264,9.072-20.062-3.992c-1.358-4.673-2.503-9.546-3.452-14.614c-1.942-10.367-3.184-21.658-3.723-33.878
		c-0.229-7.588-0.611-18.962-1.145-34.123c-0.136-2.836,0.923-5.458,3.176-7.867
		C-1786.061-132.002-1783.585-133.419-1780.666-133.966z"/>
	<path display="inline" fill="#FF7272" d="M-1672.466-110.937c9.02-24.938,16.553-41.72,22.603-50.345
		c3.124-4.46,6.311-6.994,9.555-7.602c7.736-1.449,14.748,7.485,21.035,26.8c2.031,6.252,4.96,18.446,8.79,36.586
		c4.705,0.756,7.432,3.129,8.18,7.122c0.686,3.661-0.513,7.157-3.589,10.488c0.399,1.217,1.402,3.354,3.009,6.411
		c1.216,2.355,2.021,4.831,2.424,7.425c1.448,10.493-1.643,17.905-9.683,17.958c-4.592,0.03-6.592-1.907-8.881-6.731
		c-1.2-2.528-4.729-12.374-5.58-16.004c-18.442,5.436-32.43,10.294-41.96,14.575c-1.597,2.969-10.296,22.727-17.832,22.714
		c-2.285-0.004-7.37,0.013-8.937-6.334c-0.567-2.3,0.06-5.436,1.483-9.319C-1688.29-67.158-1681.829-85.072-1672.466-110.937z
		 M-1630.387-98.67c-0.589-2.214-2.374-9.456-5.361-21.728c-1.789-7.241-3.434-12.573-4.934-15.996
		c-6.262,11.162-12.351,27.156-18.266,47.981C-1651.83-90.863-1642.309-94.283-1630.387-98.67z"/>
	<path display="inline" fill="#FF7272" d="M-1569.719-193.238c3.516-1.028,6.488-1.007,8.915,0.069
		c2.428,1.075,3.922,3.368,4.488,6.879c-5.162,28.88-7.147,46.499-5.956,52.859c0.168,0.896,0.654,1.269,1.46,1.117
		c3.941-0.738,17.26-22.706,39.956-65.904c2.089-2.708,4.388-4.299,6.896-4.769c2.866-0.537,5.714,0.182,8.541,2.155
		c2.826,1.975,4.51,4.396,5.046,7.262c0.37,1.972-0.004,3.943-1.118,5.912l-16.122,29.031c-8.721,15.821-13.129,24.714-13.224,26.68
		c-0.114,0.393-0.109,0.902,0.008,1.528c0.789,4.212,5.255,10.979,13.399,20.302l16.508,18.329
		c11.066,10.287-0.434,33.912-18.354,18.6c-14.223-12.153-24.242-21.006-29.566-27.15c-1.675-2.003-3.095-2.897-4.258-2.68
		c-1.793,0.336-6.881,0.643-5.471,19.803c0.159,10.263-3.557,15.921-11.148,16.972c-7.414,1.019-13.012-1.632-13.654-8.293
		c-4.036-41.841-2.114-77.862,2.667-108.299C-1579.854-188.25-1576.858-191.252-1569.719-193.238z"/>
</g>
<g id="bird">
	<g id="shadow">
		<path fill="#161614" fill-opacity="0.3" d="M262.707,160.594v-24.859c0-8.237-0.17-15.033-1.928-19.378
			c-3.076-43.853-35.545-69.701-69.178-69.701c-3.355,0-6.658,0.299-9.893,0.876c-7.971-4.208-16.867-6.544-26.529-6.544
			c-35.631,0-63.377,31.532-69.48,73.096c-1.035,1.643-3.137,16.414-3.137,22.365v1.31c-0.258,2.858-0.48,5.777-0.676,8.746
			c-1.242,0.758-1.977,1.572-2.637,2.568c-2.344,3.537-0.844,6.938,2.078,7.567c-0.025,0.625-8.143,7.926-11.248,12.289
			c-2.562,3.471-4.494,7.335-5.846,11.422c-1.848,5.298-2.879,11.15-2.879,17.311c0,13.254,4.748,25.103,12.213,32.997
			c2.02,2.334-2.762,8.604,2.645,13.756c0.758,0.721,3.006,2.549,5.822,4.178c0.174,6.032,0.16,134.231,0.334,140.49l180.982-0.876
			c7.871,1.293,11.904-37.623-0.4-36.8C251.396,338.651,267.711,158.9,262.707,160.594z M256.055,371.475
			c1.141,0.185,2.271,0.368,3.393,0.551C258.277,372.072,257.146,371.884,256.055,371.475z"/>
	</g>
	<g id="brains">
		<path fill="none" stroke="#555555" stroke-width="3.7193" stroke-miterlimit="10" d="M238.473,104.636
			c-5.053-41.817-27.178-73.664-58.385-73.664c-31.205,0-55.465,31.846-60.518,73.664H238.473z"/>
		
			<path fill="#FCA9C5" stroke="#545454" stroke-width="3.9621" stroke-linecap="round" stroke-linejoin="round" stroke-miterlimit="10" d="
			M169.865,99.756c4.68-35.571,25.174-62.658,54.082-62.658c28.902,0,51.375,27.087,56.053,62.658H169.865z"/>
		
			<path fill="#FCA9C5" stroke="#545454" stroke-width="4" stroke-linecap="round" stroke-linejoin="round" stroke-miterlimit="10" d="
			M251.061,79.913c-1.248,6.393,2.924,12.587,9.316,13.834l9.883,1.928c6.395,1.247,12.588-2.925,13.834-9.32l0,0
			c1.852-9.484-4.631-12.92-9.318-13.835"/>
		
			<path fill="#FFA4AF" stroke="#545454" stroke-width="3.532" stroke-linecap="round" stroke-linejoin="round" stroke-miterlimit="10" d="
			M180.021,68.57c-5.475,1.236-8.934,7.388-7.723,13.742l0,0c1.209,6.354,6.627,10.503,12.102,9.267l14.041-3.168"/>
		
			<path fill="#FFA4AF" stroke="#545454" stroke-width="3.532" stroke-linecap="round" stroke-linejoin="round" stroke-miterlimit="10" d="
			M199.162,47.688c-7.049-3.451-15.332-0.027-18.5,7.648l0,0c-3.17,7.676-0.025,16.695,7.023,20.146"/>
		
			<path fill="#FCA9C5" stroke="#545454" stroke-width="4" stroke-linecap="round" stroke-linejoin="round" stroke-miterlimit="10" d="
			M245.215,44.435c-0.1-7.727-8.977-13.876-19.828-13.737l0,0c-10.85,0.142-19.561,6.52-19.461,14.246"/>
		<path fill="#FFB0CA" d="M238.473,103.063c-5.053-41.818-27.178-73.665-58.385-73.665c-31.205,0-55.465,31.846-60.516,73.665
			H238.473z"/>
		<path fill="#FCA9C5" d="M242.82,46.298c3.479-2.769,7.885-4.424,12.68-4.424c11.24,0,20.355,9.099,20.355,20.323
			c0,5.302-2.035,10.13-5.367,13.749"/>
		
			<path fill="none" stroke="#545454" stroke-width="3.9621" stroke-linecap="round" stroke-linejoin="round" stroke-miterlimit="10" d="
			M243.07,45.189c3.479-2.769,7.885-4.424,12.68-4.424c11.242,0,20.355,9.099,20.355,20.323c0,5.302-2.035,10.13-5.365,13.749"/>
	</g>
	<g id="Layer_10">
		<path fill="#FFB0CA" d="M165.676,36.87c0.99-9.021,11.223-15.106,22.855-13.594l0,0c11.631,1.514,20.256,10.054,19.268,19.075"/>
		<path fill="none" stroke="#545454" stroke-width="4" stroke-linecap="round" stroke-linejoin="round" stroke-miterlimit="10" d="
			M165.676,36.87c0.99-9.021,11.223-15.106,22.855-13.594l0,0c11.631,1.514,20.256,10.054,19.268,19.075"/>
		<path fill="#FFB0CA" d="M151.578,78.07c1.346,7.517-3.158,14.799-10.061,16.264l-10.668,2.267
			c-6.902,1.465-13.588-3.439-14.934-10.958l0,0c-2-11.15,4.996-15.189,10.059-16.265"/>
		
			<path fill="#FFB0CA" stroke="#545454" stroke-width="3" stroke-linecap="round" stroke-linejoin="round" stroke-miterlimit="10" d="
			M228.709,64.668c5.91,1.333,9.643,7.976,8.336,14.836l0,0c-1.305,6.86-7.154,11.339-13.064,10.005l-15.158-3.421"/>
		
			<path fill="#FFB0CA" stroke="#545454" stroke-width="3" stroke-linecap="round" stroke-linejoin="round" stroke-miterlimit="10" d="
			M206.119,44.627c6.822-5.023,16.281-2.98,21.125,4.562l0,0c4.846,7.544,3.242,17.73-3.58,22.753"/>
		
			<path display="none" fill="#FFA4AF" stroke="#545454" stroke-width="4.2516" stroke-linecap="round" stroke-linejoin="round" stroke-miterlimit="10" d="
			M-2122.362,404.663"/>
		<path fill="#FC819C" d="M139.615,97.251c-7.02-0.726-13.123-7.641-12.096-15.209c0.832-6.129,4.377-8.419,4.377-8.419
			l-2.939-2.081c-5.146-0.531-9.834-1.015-11.355,10.21c-1.029,7.568,4.932,14.481,11.951,15.207l10.85,1.12
			c1.43,0.147,2.836,0.023,4.184-0.314L139.615,97.251z"/>
		
			<path fill="none" stroke="#545454" stroke-width="3.8131" stroke-linecap="round" stroke-linejoin="round" stroke-miterlimit="10" d="
			M152.58,78.756c1.346,7.517-3.158,14.799-10.061,16.264l-10.668,2.267c-6.904,1.465-13.59-3.439-14.936-10.958l0,0
			c-1.998-11.15,4.998-15.189,10.061-16.265"/>
		<path fill="#FFB0CA" d="M136.148,74.919c-5.697-0.948-9.033-5.6-11.184-10.247c-4.723-10.228,3.762-25.263,18.953-33.584
			c15.189-8.322,31.33-6.779,36.057,3.448"/>
		<g>
			<path fill="#FC819C" d="M141.545,37.318c6.053-6.855,14.49-9.746,21.139-11.152c-5.463,0.325-12.707,0.598-18.607,3.831
				c-15.193,8.321-23.676,23.356-18.953,33.584c1.717,3.715,4.199,7.427,8.033,9.253C127.822,64.138,131.164,49.073,141.545,37.318z
				"/>
		</g>
		
			<path fill="none" stroke="#545454" stroke-width="4.4212" stroke-linecap="round" stroke-linejoin="round" stroke-miterlimit="10" d="
			M134.305,73.362c-5.699-0.948-9.035-5.6-11.186-10.247c-4.723-10.228,3.762-25.263,18.953-33.584
			c15.189-8.322,31.332-6.779,36.057,3.448"/>
		
			<path fill="none" stroke="#545454" stroke-width="2.7523" stroke-linecap="round" stroke-linejoin="round" stroke-miterlimit="10" d="
			M136.365,77.657c-2.02-4.848,1.732-8.845,1.732-8.845"/>
		
			<path fill="none" stroke="#545454" stroke-width="2.7523" stroke-linecap="round" stroke-linejoin="round" stroke-miterlimit="10" d="
			M266.229,73.725c5.025,1.525,5.725,6.962,5.725,6.962"/>
		
			<path fill="none" stroke="#545454" stroke-width="2.7523" stroke-linecap="round" stroke-linejoin="round" stroke-miterlimit="10" d="
			M200.994,42.861c5.027,1.525,5.725,6.962,5.725,6.962"/>
		
			<path fill="none" stroke="#FFFFFF" stroke-width="3.8131" stroke-linecap="round" stroke-linejoin="round" stroke-miterlimit="10" d="
			M244.055,40.765"/>
		<path fill="none" stroke="#FFFFFF" stroke-width="3" stroke-linecap="round" stroke-linejoin="round" stroke-miterlimit="10" d="
			M221.641,52.984c0.996,1.994,1.402,2.975,1.777,5.154"/>
		<path fill="none" stroke="#FFFFFF" stroke-width="3" stroke-linecap="round" stroke-linejoin="round" stroke-miterlimit="10" d="
			M218.742,49.043c0.113,0.053,0.227,0.108,0.34,0.164"/>
		
			<path fill="none" stroke="#FFFFFF" stroke-width="3.8131" stroke-linecap="round" stroke-linejoin="round" stroke-miterlimit="10" d="
			M220.996,51.005"/>
		<path fill="none" stroke="#FF99B9" stroke-width="3" stroke-linecap="round" stroke-linejoin="round" stroke-miterlimit="10" d="
			M201.18,59.885c10.223,0.631,7.865,9.567,7.865,9.567"/>
		<path fill="none" stroke="#FF99B9" stroke-width="3" stroke-linecap="round" stroke-linejoin="round" stroke-miterlimit="10" d="
			M165.893,67.008c7.666-6.794,12.328,1.185,12.328,1.185"/>
		
			<path fill="none" stroke="#FF99B9" stroke-width="4.929" stroke-linecap="round" stroke-linejoin="round" stroke-miterlimit="10" d="
			M148.676,56.041c0.791-16.81,15.527-13.151,15.527-13.151"/>
		<path fill="none" stroke="#F98AA7" stroke-width="3" stroke-linecap="round" stroke-linejoin="round" stroke-miterlimit="10" d="
			M238.174,53.908c9.422-4.016,11.318,5.03,11.318,5.03"/>
		
			<path fill="none" stroke="#F98AA7" stroke-width="2.1484" stroke-linecap="round" stroke-linejoin="round" stroke-miterlimit="10" d="
			M251.375,70.094c6.748-2.875,8.105,3.602,8.105,3.602"/>
	</g>
	<g id="head">
		<path fill="#F8FFFE" d="M292.436,377.088c2.953-0.528,5.166-2.687,5.166-5.273c0-2.981-2.939-5.397-6.566-5.397
			c-0.062,0-0.125,0.007-0.189,0.008v-7.471c-32.334,12.604-39.402-145.161,0-199.661v-35.966c0-11.366-0.309-20.015-4.691-23.22
			c-34.393-25.153-132.309-26.403-170.676-0.173c-3.863,2.641-4.633,11.88-4.633,23.394v215c-0.912-0.046-1.873,0.004-2.857,0.172
			c-4.695,0.804-8.086,3.883-7.572,6.877c0.354,2.064,2.471,3.549,5.289,4.008c-0.207,0.154-0.416,0.302-0.619,0.465
			c-6.236,4.988-8.713,12.256-5.531,16.232c1.467,1.833,3.885,2.635,6.67,2.49c-0.25,0.175-0.5,0.357-0.744,0.554
			c-3.719,2.976-5.197,7.311-3.299,9.683c1.648,2.06,5.297,1.959,8.664-0.049v6.487c0,0.571-0.379,3.293-0.369,3.861h180.5
			c3.096,0.564,5.582-2.387,6.443-4.351C298.494,382.309,296.275,378.955,292.436,377.088z"/>
		<path fill="#E6EFEF" d="M137.066,90.722c-8.422,2.769-15.863,6.193-21.852,10.288c-3.863,2.641-4.633,11.88-4.633,23.394v215
			c-0.912-0.045-1.873,0.004-2.857,0.172c-4.695,0.805-8.084,3.883-7.572,6.877c0.354,2.064,2.471,3.549,5.291,4.008
			c-0.207,0.154-0.416,0.303-0.621,0.465c-6.236,4.988-8.713,12.256-5.531,16.232c1.467,1.834,3.885,2.635,6.672,2.49
			c-0.252,0.176-0.5,0.357-0.746,0.555c-3.719,2.975-5.195,7.311-3.299,9.682c1.648,2.061,5.297,1.959,8.664-0.049v6.488
			c0,0.57-0.113,2.217-0.105,2.785l26.59,0.025V90.722z"/>
		<path fill="#E6EFEF" d="M225.822,194.772c-18.779,17.896-34.611,140.646,10.555,152.896c21.41,5.346,15.227-5.175,33.102,0.95
			c17.125,5.375,40.787,21.139-13.895,15.654c-13.363-2.034-18.248-1.479-32.201-7.698c-45.061-17.232-35.34-156.239-9.061-178.33
			C230.973,164.25,240.711,180.543,225.822,194.772z"/>
		
			<path fill="none" stroke="#555555" stroke-width="4.2543" stroke-linecap="round" stroke-linejoin="round" stroke-miterlimit="10" d="
			M288.701,386.978c3.094,0.564,5.82-0.233,6.684-2.197c1.074-2.448-1.145-5.803-4.984-7.669c2.951-0.528,5.164-2.687,5.164-5.273
			c0-2.981-2.939-5.397-6.564-5.397c-0.064,0-0.127,0.007-0.189,0.008v-7.471c-32.336,12.604-39.404-145.161,0-199.661v-35.966
			c0-11.366-0.311-20.015-4.693-23.22c-34.393-25.153-132.309-26.403-170.676-0.173c-3.863,2.641-4.633,11.88-4.633,23.394v215
			c-0.912-0.046-1.873,0.004-2.855,0.172c-4.695,0.804-8.086,3.883-7.572,6.877c0.352,2.064,2.469,3.549,5.289,4.008
			c-0.207,0.154-0.416,0.302-0.621,0.465c-6.236,4.988-8.713,12.256-5.529,16.232c1.465,1.833,3.883,2.635,6.67,2.49
			c-0.252,0.175-0.5,0.357-0.744,0.554c-3.721,2.976-5.197,7.311-3.299,9.683c1.646,2.06,5.295,1.959,8.662-0.049v6.487
			c0,0.571,0.012,1.14,0.02,1.708h0.377"/>
	</g>
	<g id="ground" display="none">
		
			<polyline display="inline" fill="none" stroke="#555555" stroke-width="4" stroke-linecap="round" stroke-linejoin="round" stroke-miterlimit="10" points="
			-1909.189,719.5 -1906.271,719.5 -1903.022,719.5 -1900.105,719.5 		"/>
		
			<polyline fill="none" stroke="#2D2D2D" stroke-width="4" stroke-linecap="round" stroke-linejoin="round" stroke-miterlimit="10" points="
			-1674.833,719.5 -1672.832,719.5 -1671.999,719.5 -1670.666,719.5 		"/>
		
			<line display="inline" fill="none" stroke="#555555" stroke-width="4" stroke-linecap="round" stroke-linejoin="round" stroke-miterlimit="10" x1="-1928.939" y1="719.5" x2="-1924.44" y2="719.5"/>
		
			<polyline display="inline" fill="none" stroke="#555555" stroke-width="4" stroke-linecap="round" stroke-linejoin="round" stroke-miterlimit="10" points="
			-2343.5,719.5 -1943.44,719.5 -1938.773,719.5 		"/>
	</g>
	<g id="feathers">
		
			<path fill="#FFFFFF" stroke="#555555" stroke-width="2.5" stroke-linecap="round" stroke-linejoin="round" stroke-miterlimit="10" d="
			M373.496,56.999c1.805,5.061-17.184,15.957-34.42,8.218C339.076,65.216,371.252,50.699,373.496,56.999z"/>
		
			<path fill="none" stroke="#555555" stroke-width="2.5" stroke-linecap="round" stroke-linejoin="round" stroke-miterlimit="10" d="
			M334.572,61.196c1.672,3.269,4.729,4.099,4.729,4.099"/>
		
			<path fill="#FFFFFF" stroke="#555555" stroke-width="3" stroke-linecap="round" stroke-linejoin="round" stroke-miterlimit="10" d="
			M413.281,341.072c3.754,3.846-8.949,21.678-27.842,21.843C385.439,362.915,408.611,336.287,413.281,341.072z"/>
		<path fill="none" stroke="#555555" stroke-width="2" stroke-linecap="round" stroke-linejoin="round" stroke-miterlimit="10" d="
			M379.93,362.019c3.027,2.077,6.111,1.347,6.111,1.347"/>
		
			<path fill="#FFFFFF" stroke="#555555" stroke-width="3" stroke-linecap="round" stroke-linejoin="round" stroke-miterlimit="10" d="
			M26.564,347.249c0.338-5.363,22.084-7.895,34.873,6.011C61.438,353.259,26.146,353.922,26.564,347.249z"/>
		<path fill="none" stroke="#555555" stroke-width="3" stroke-linecap="round" stroke-linejoin="round" stroke-miterlimit="10" d="
			M63.994,358.729c-0.248-3.663-2.73-5.631-2.73-5.631"/>
		
			<path fill="#FFFFFF" stroke="#555555" stroke-width="3" stroke-linecap="round" stroke-linejoin="round" stroke-miterlimit="10" d="
			M5.4,288.985c1.904-7.225,32.242-4.815,45.939,17.592C51.34,306.577,3.031,297.975,5.4,288.985z"/>
		<path fill="none" stroke="#555555" stroke-width="3" stroke-linecap="round" stroke-linejoin="round" stroke-miterlimit="10" d="
			M53.352,314.724c0.648-5.061-2.207-8.414-2.207-8.414"/>
		
			<path fill="#FFFFFF" stroke="#555555" stroke-width="3.5171" stroke-linecap="round" stroke-linejoin="round" stroke-miterlimit="10" d="
			M52.504,6.906c5.457,5.234-11.58,30.894-38.137,32.001C14.367,38.907,45.717,0.393,52.504,6.906z"/>
		
			<path fill="none" stroke="#555555" stroke-width="3.5171" stroke-linecap="round" stroke-linejoin="round" stroke-miterlimit="10" d="
			M6.17,36.684c4.16,3.062,8.529,2.182,8.529,2.182"/>
	</g>
	<g id="beak">
		<g>
			<path fill="#545454" d="M281.713,174.394c0.885-1.017,1.807-1.94,2.758-2.799l-0.006-0.348
				c-13.713,9.764-56.93,3.447-66.293,15.685c-13.893,18.103-24.023,141.015,10.203,152.764c14.141,4.452,38.855,1.671,53.943,4.816
				C258.105,310.027,264.115,194.607,281.713,174.394z"/>
		</g>
		
			<path fill="#FFC34A" stroke="#555555" stroke-width="3.7143" stroke-linecap="round" stroke-linejoin="round" stroke-miterlimit="10" d="
			M291.309,174.898c-21.273,22.238-25.217,153.959,5.342,168.391c21.408,5.863,6.17,15.919-7.781,9.097
			c-45.061-18.902-35.34-171.385-9.061-195.617C296.457,141.417,306.195,159.291,291.309,174.898z"/>
		<g>
			<path fill="#4B4B4B" d="M249.484,311.711c-26.139-8.973-26.406-82.772-18.885-125.217c-1.682,0.922-3.074,2.002-4.068,3.301
				c-13.893,18.103-24.023,141.015,10.201,152.764c14.143,4.452,26.82-4.256,41.91-1.11c-5.688-5.188-10.926-19.617-12.844-27.236
				C255.043,313.952,257.221,314.147,249.484,311.711z"/>
			<path fill="#4B4B4B" d="M292.828,174.458l-0.004-0.348c-0.086,0.061-0.186,0.114-0.273,0.173
				c-0.035,0.178-0.07,0.361-0.105,0.541C292.574,174.705,292.699,174.576,292.828,174.458z"/>
		</g>
		<g id="Layer_6">
			<path fill="#FF7272" d="M200.807,267.92c0,0,39.572-26.274,73.281-23.645c79.406,6.196,78,50.42,41,31.67
				c-33-19-50.01-18.057-63-13c-21.344,7.693-40.322,41.981-40.322,41.981l-11.771-26.952l3.336-14.771"/>
			<g>
				<path fill="#F76371" d="M207.793,263.949"/>
				<path fill="#F76371" d="M224.664,253.979c-7.172,3.634-14.279,8.317-16.871,9.97l-2.396,11.165l12.062,26.824
					c0,0-1.682-9.891,14.312-22.684C219.186,269.07,225.268,259.801,224.664,253.979z"/>
			</g>
			
				<path fill="none" stroke="#4B4B4B" stroke-width="2.9875" stroke-linecap="round" stroke-linejoin="round" stroke-miterlimit="10" d="
				M200.875,267.574c0,0,39.572-26.274,73.281-23.645c79.406,6.196,78,50.42,41,31.67c-33-19-50.01-18.057-63-13
				c-21.344,7.693-40.322,41.981-40.322,41.981l-11.771-26.952l3.336-14.771"/>
		</g>
		<path fill="#FFE564" d="M305.344,142.099c21.666-11.333,41.674-1.239,45.316,14.312c7.006,29.917-102.055,15.489-116.943,29.718
			c-18.779,17.896-34.611,140.646,10.555,152.896c21.41,5.346,60.348-4.693,78.223,1.432c17.125,5.375,44.67,36.18-11.375,23.375
			c-19.875-4.375-65.889-9.682-79.842-15.9c-45.061-17.232-35.34-156.239-9.061-178.33
			C238.867,155.606,277.037,156.904,305.344,142.099z"/>
		<g>
			<path fill="#FFC34A" d="M251.602,353.584c-64.5-0.332-50.756-167.081-17.039-188.714c0.443-0.285,0.83-0.662,1.258-0.983
				c-4.977,1.858-9.324,4.084-12.752,6.965c-26.279,22.091-36,161.097,9.061,178.329
				C261.602,361.584,290.846,357.752,251.602,353.584z"/>
		</g>
		<g>
			<path fill="#FFF3C2" d="M350.215,155.077c-5.676-14.835-26.664-22.131-46.508-8.285c17.195-7.295,33.596-0.11,38.512,12.739
				c2.043,5.34-0.107,9.7-5.039,13.366C347.408,168.421,353.156,162.765,350.215,155.077z"/>
		</g>
		<g>
			<path fill="#FFF3C2" d="M321.135,341.46c-4.025-1.379-9.123-1.935-14.842-2.035c2.773,0.328,5.303,0.845,7.51,1.612
				c13.525,4.313,33.539,24.737,13.748,26.726C358.82,370.068,336.037,346.138,321.135,341.46z"/>
		</g>
		
			<path fill="none" stroke="#4C4C4C" stroke-width="3.7143" stroke-linecap="round" stroke-linejoin="round" stroke-miterlimit="10" d="
			M305.344,142.935c21.666-11.333,41.674-1.239,45.316,14.312c7.006,29.917-102.055,15.489-116.943,29.718
			c-18.779,17.896-34.611,140.646,10.555,152.896c21.41,5.346,60.348-4.693,78.223,1.432c17.125,5.375,44.67,36.18-11.375,23.375
			c-19.875-4.375-65.889-9.682-79.842-15.9c-45.061-17.232-35.34-156.239-9.061-178.33
			C238.867,156.442,277.037,157.74,305.344,142.935z"/>
		<path fill="none" stroke="#FFDEE1" stroke-width="4" stroke-linecap="round" stroke-linejoin="round" stroke-miterlimit="10" d="
			M332.047,270.559c-0.441-0.617-1.469-1.923-2.598-2.828"/>
	</g>
	<g id="eye">
		
			<path fill="#FFFFFF" stroke="#555555" stroke-width="4" stroke-linecap="round" stroke-linejoin="round" stroke-miterlimit="10" d="
			M153.828,185.253c0-23.248-13.17-42.181-29.639-43.022c-0.186-0.018-0.371-0.041-0.562-0.041c-0.102,0-0.201,0.009-0.303,0.01
			c-0.092-0.001-0.184-0.01-0.275-0.01c-1.811,0-3.582,0.231-5.307,0.651c-16.045,3.52-28.248,21.162-28.248,42.412
			s12.203,38.892,28.248,42.411c1.725,0.42,3.496,0.651,5.307,0.651c0.092,0,0.184-0.009,0.275-0.01
			c0.102,0.001,0.201,0.01,0.303,0.01c0.191,0,0.377-0.023,0.562-0.04C140.658,227.435,153.828,208.501,153.828,185.253z"/>
		
			<ellipse transform="matrix(0.2056 0.9786 -0.9786 0.2056 261.7881 27.3298)" fill="#545454" stroke="#555555" stroke-width="2.4546" stroke-linecap="round" stroke-linejoin="round" stroke-miterlimit="10" cx="114.06" cy="174.92" rx="4.355" ry="4.266"/>
		<g id="Layer_5">
		</g>
		<path fill="#E1EAEA" d="M117.982,142.785c-10.422,7.369-17.494,21.786-17.494,37.931c0,21.25,12.203,38.892,28.248,42.41
			c1.725,0.42,3.496,0.652,5.307,0.652c0.092,0,0.184-0.01,0.275-0.01c0.102,0,0.201,0.01,0.303,0.01
			c0.191,0,0.377-0.023,0.562-0.041c0.652-0.033,1.299-0.095,1.939-0.184C93.494,249.773,66.523,158.752,117.982,142.785z"/>
		<path fill="#E6EFEF" d="M136.611,223.886c-8.963,5.843-16.121,6.455-27.803,0.169c-4.453-2.398-10.24,2.199-4.604,7.57
			c1.377,1.312,7.676,6.288,13.393,7.06"/>
		<path fill="none" stroke="#D8E5E5" stroke-width="9" stroke-linecap="round" stroke-linejoin="round" stroke-miterlimit="10" d="
			M148.018,221.085c-10.895,13.333-26.186,18.542-42.078,7.755"/>
		<path fill="#E6EFEF" d="M135.977,146.149c-8.736-6.125-12.863-5.881-23.635-2.138c-4.598,1.598-7.982-2.773-4.953-7.347
			c1.529-2.306,3.439-3.639,11.188-5.556"/>
		<path fill="none" stroke="#555555" stroke-width="4" stroke-linecap="round" stroke-linejoin="round" stroke-miterlimit="10" d="
			M153.828,185.253c0-23.248-13.17-42.181-29.639-43.022c-0.186-0.018-0.371-0.041-0.562-0.041c-0.102,0-0.201,0.009-0.303,0.01
			c-0.092-0.001-0.184-0.01-0.275-0.01c-1.811,0-3.582,0.231-5.307,0.651c-16.045,3.52-28.248,21.162-28.248,42.412
			s12.203,38.892,28.248,42.411c1.725,0.42,3.496,0.651,5.307,0.651c0.092,0,0.184-0.009,0.275-0.01
			c0.102,0.001,0.201,0.01,0.303,0.01c0.191,0,0.377-0.023,0.562-0.04C140.658,227.435,153.828,208.501,153.828,185.253z"/>
		<path fill="none" stroke="#555555" stroke-width="4" stroke-linecap="round" stroke-linejoin="round" stroke-miterlimit="10" d="
			M147.672,229.375c0.92-0.782,1.814-1.645,2.686-2.588"/>
		<path fill="none" stroke="#555555" stroke-width="4" stroke-linecap="round" stroke-linejoin="round" stroke-miterlimit="10" d="
			M130.031,239.002c4.25-0.614,8.047-2.124,11.305-4.572c0.078-0.06,0.158-0.119,0.238-0.18"/>
		<path fill="#C3D1CF" d="M108.643,233.108c-3.646-2.271-2.758-5.633,0.781-6.002c-1.424-0.465-1.457-2.957-2.664-2.8
			c-5.441,0.708-6.525,6.129-2.305,8.556C114.34,238.546,113.072,235.867,108.643,233.108z"/>
		<path fill="none" stroke="#555555" stroke-width="4" stroke-linecap="round" stroke-linejoin="round" stroke-miterlimit="10" d="
			M135.613,224.578c-8.963,5.843-16.119,6.455-27.801,0.169c-4.455-2.398-10.242,2.199-4.605,7.57
			c1.379,1.312,7.678,6.288,13.393,7.06"/>
		<path fill="none" stroke="#D8E5E5" stroke-width="7" stroke-linecap="round" stroke-linejoin="round" stroke-miterlimit="10" d="
			M135.482,138.875c-6.955-3.841-15.396-4.517-25.016-0.696"/>
		<path fill="#C3D1CF" d="M114.457,140.65c-4.105,1.268-4.545-2.536-2.502-5.451c-1.285,0.77-4.711,0.092-5.383,1.106
			c-3.029,4.574,0.355,8.945,4.953,7.347C122.297,139.909,119.441,139.11,114.457,140.65z"/>
		<path fill="none" stroke="#555555" stroke-width="4" stroke-linecap="round" stroke-linejoin="round" stroke-miterlimit="10" d="
			M135.982,146.154c-8.736-6.125-12.863-5.881-23.635-2.138c-4.598,1.598-7.982-2.773-4.953-7.347
			c1.529-2.306,3.439-3.639,11.188-5.556"/>
	</g>
</g>
<g id="brain_slice" display="none">
	<path display="inline" fill="none" stroke="#555555" stroke-width="3" stroke-miterlimit="10" d="M-1743.51,455.601
		c-5.053-41.817-27.178-73.664-58.385-73.664c-31.205,0-55.465,31.846-60.518,73.664H-1743.51z"/>
	
		<path display="inline" fill="#FCA9C5" stroke="#545454" stroke-width="3" stroke-linecap="round" stroke-linejoin="round" stroke-miterlimit="10" d="
		M-1812.117,450.721c4.68-35.571,25.174-62.658,54.082-62.658c28.902,0,51.375,27.087,56.053,62.658H-1812.117z"/>
	
		<path display="inline" fill="#FCA9C5" stroke="#545454" stroke-width="3" stroke-linecap="round" stroke-linejoin="round" stroke-miterlimit="10" d="
		M-1730.922,430.877c-1.248,6.393,2.924,12.587,9.316,13.834l9.883,1.928c6.395,1.247,12.588-2.925,13.834-9.32l0,0
		c1.852-9.484-4.631-12.92-9.318-13.835"/>
	
		<path display="inline" fill="#FFA4AF" stroke="#545454" stroke-width="3" stroke-linecap="round" stroke-linejoin="round" stroke-miterlimit="10" d="
		M-1801.962,419.534c-5.474,1.236-8.933,7.388-7.722,13.742l0,0c1.208,6.354,6.627,10.503,12.102,9.267l14.041-3.168"/>
	
		<path display="inline" fill="#FFA4AF" stroke="#545454" stroke-width="3" stroke-linecap="round" stroke-linejoin="round" stroke-miterlimit="10" d="
		M-1782.821,398.652c-7.048-3.451-15.331-0.027-18.5,7.648l0,0c-3.169,7.676-0.024,16.695,7.024,20.146"/>
	
		<path display="inline" fill="#FCA9C5" stroke="#545454" stroke-width="3" stroke-linecap="round" stroke-linejoin="round" stroke-miterlimit="10" d="
		M-1736.768,395.399c-0.1-7.727-8.977-13.876-19.828-13.737l0,0c-10.85,0.142-19.562,6.52-19.462,14.246"/>
	<path display="inline" fill="#FFB0CA" d="M-1743.51,454.027c-5.053-41.818-27.178-73.665-58.385-73.665
		c-31.205,0-55.465,31.846-60.517,73.665H-1743.51z"/>
	<path display="inline" fill="#FCA9C5" d="M-1739.163,397.262c3.479-2.769,7.886-4.424,12.68-4.424
		c11.241,0,20.355,9.099,20.355,20.323c0,5.302-2.034,10.13-5.366,13.749"/>
	
		<path display="inline" fill="none" stroke="#545454" stroke-width="3" stroke-linecap="round" stroke-linejoin="round" stroke-miterlimit="10" d="
		M-1738.912,396.153c3.479-2.769,7.885-4.424,12.68-4.424c11.241,0,20.355,9.099,20.355,20.323c0,5.302-2.035,10.13-5.366,13.749"/>
	<path display="inline" fill="#FFB0CA" d="M-1816.307,387.834c0.99-9.021,11.223-15.106,22.854-13.594l0,0
		c11.632,1.514,20.257,10.054,19.268,19.075"/>
	
		<path display="inline" fill="none" stroke="#545454" stroke-width="3" stroke-linecap="round" stroke-linejoin="round" stroke-miterlimit="10" d="
		M-1816.307,387.834c0.99-9.021,11.223-15.106,22.854-13.594l0,0c11.632,1.514,20.257,10.054,19.268,19.075"/>
	<path display="inline" fill="#FFB0CA" d="M-1830.404,429.034c1.346,7.517-3.158,14.799-10.061,16.264l-10.668,2.267
		c-6.903,1.465-13.589-3.439-14.935-10.958l0,0c-1.999-11.15,4.997-15.189,10.06-16.265"/>
	
		<path display="inline" fill="#FFB0CA" stroke="#545454" stroke-width="3" stroke-linecap="round" stroke-linejoin="round" stroke-miterlimit="10" d="
		M-1753.273,415.633c5.91,1.333,9.643,7.976,8.336,14.836l0,0c-1.305,6.86-7.154,11.339-13.064,10.005l-15.159-3.421"/>
	
		<path display="inline" fill="#FFB0CA" stroke="#545454" stroke-width="3" stroke-linecap="round" stroke-linejoin="round" stroke-miterlimit="10" d="
		M-1775.863,395.591c6.822-5.023,16.281-2.98,21.125,4.562l0,0c4.845,7.544,3.241,17.73-3.581,22.753"/>
	<path display="inline" fill="#FC819C" d="M-1842.367,448.216c-7.02-0.726-13.123-7.641-12.096-15.209
		c0.832-6.129,4.377-8.419,4.377-8.419l-2.939-2.081c-5.146-0.531-9.834-1.015-11.356,10.21
		c-1.028,7.568,4.933,14.481,11.952,15.207l10.849,1.12c1.431,0.147,2.837,0.023,4.185-0.314L-1842.367,448.216z"/>
	
		<path display="inline" fill="none" stroke="#545454" stroke-width="3" stroke-linecap="round" stroke-linejoin="round" stroke-miterlimit="10" d="
		M-1829.403,429.72c1.347,7.517-3.157,14.799-10.06,16.264l-10.668,2.267c-6.904,1.465-13.59-3.439-14.936-10.958l0,0
		c-1.998-11.15,4.998-15.189,10.061-16.265"/>
	<path display="inline" fill="#FFB0CA" d="M-1845.834,425.884c-5.697-0.948-9.034-5.6-11.184-10.247
		c-4.723-10.228,3.761-25.263,18.953-33.584c15.188-8.322,31.33-6.779,36.056,3.448"/>
	<g display="inline">
		<path fill="#FC819C" d="M-1841.438,387.282c6.053-6.855,14.49-9.746,21.139-11.152c-5.463,0.325-12.708,0.598-18.608,3.831
			c-15.192,8.321-23.676,23.356-18.953,33.584c1.718,3.715,4.199,7.427,8.034,9.253
			C-1855.161,414.102-1851.82,399.036-1841.438,387.282z"/>
	</g>
	
		<path display="inline" fill="none" stroke="#545454" stroke-width="3" stroke-linecap="round" stroke-linejoin="round" stroke-miterlimit="10" d="
		M-1847.679,424.326c-5.698-0.948-9.034-5.6-11.185-10.247c-4.723-10.228,3.762-25.263,18.953-33.584
		c15.189-8.322,31.331-6.779,36.057,3.448"/>
	
		<path display="inline" fill="none" stroke="#545454" stroke-width="3" stroke-linecap="round" stroke-linejoin="round" stroke-miterlimit="10" d="
		M-1845.617,428.622c-2.02-4.848,1.732-8.845,1.732-8.845"/>
	
		<path display="inline" fill="none" stroke="#545454" stroke-width="3" stroke-linecap="round" stroke-linejoin="round" stroke-miterlimit="10" d="
		M-1715.754,424.689c5.025,1.525,5.725,6.962,5.725,6.962"/>
	
		<path display="inline" fill="none" stroke="#545454" stroke-width="3" stroke-linecap="round" stroke-linejoin="round" stroke-miterlimit="10" d="
		M-1780.988,393.826c5.026,1.525,5.725,6.962,5.725,6.962"/>
	
		<path display="inline" fill="none" stroke="#FFFFFF" stroke-width="3" stroke-linecap="round" stroke-linejoin="round" stroke-miterlimit="10" d="
		M-1737.929,391.729"/>
	
		<path display="inline" fill="none" stroke="#FFFFFF" stroke-width="3" stroke-linecap="round" stroke-linejoin="round" stroke-miterlimit="10" d="
		M-1760.342,403.949c0.996,1.994,1.402,2.975,1.777,5.154"/>
	
		<path display="inline" fill="none" stroke="#FFFFFF" stroke-width="3" stroke-linecap="round" stroke-linejoin="round" stroke-miterlimit="10" d="
		M-1763.24,400.007c0.113,0.053,0.227,0.108,0.34,0.164"/>
	
		<path display="inline" fill="none" stroke="#FFFFFF" stroke-width="3" stroke-linecap="round" stroke-linejoin="round" stroke-miterlimit="10" d="
		M-1760.986,401.969"/>
	<path display="inline" fill="#F8FFFE" d="M-1782.806,475.558c32.911,0,64.026,5.454,91.669,15.144v-16.41
		c0-11.366-0.309-20.015-4.691-23.22c-34.393-25.153-132.31-26.403-170.676-0.173c-3.863,2.641-4.633,11.88-4.633,23.394v15.266
		C-1844.336,480.584-1814.399,475.558-1782.806,475.558z"/>
	
		<path display="inline" fill="#FFFFFF" stroke="#545454" stroke-width="3" stroke-linecap="round" stroke-linejoin="round" stroke-miterlimit="10" d="
		M-1693.569,488.033v1.624c-27.177-9.407-57.679-14.685-89.908-14.685c-31.942,0-62.187,5.183-89.18,14.432v-1.709
		c-0.416,0.884-0.635,1.783-0.635,2.695c0,12.535,40.341,22.698,90.104,22.698c49.761,0,90.103-10.163,90.103-22.698
		C-1693.086,489.595-1693.252,488.809-1693.569,488.033z"/>
	<path display="inline" fill="#E6EFEF" d="M-1844.916,483.076v-41.389c-8.423,2.769-15.863,6.193-21.852,10.288
		c-3.863,2.641-4.633,11.88-4.633,23.394v15.289C-1862.883,487.714-1854.037,485.18-1844.916,483.076z"/>
	<path display="inline" fill="#FF7373" d="M-1784.301,474.968c-27.451,0-82.815,8.074-84.915,14.644
		c0,10.827,42.399,18.28,85.164,18.28c42.759,0,87.109-7.156,87.109-17.983C-1696.942,483.987-1756.604,474.968-1784.301,474.968z"
		/>
	
		<path display="inline" fill="none" stroke="#555555" stroke-width="3" stroke-linecap="round" stroke-linejoin="round" stroke-miterlimit="10" d="
		M-1783.529,474.88c32.395,0,63.053,5.278,90.369,14.685v-16.261c0-11.366-0.311-20.015-4.693-23.22
		c-34.393-25.153-132.309-26.403-170.676-0.173c-3.863,2.641-4.633,11.88-4.633,23.394v16.007
		C-1846.031,480.063-1815.633,474.88-1783.529,474.88z"/>
	
		<ellipse display="inline" fill="#FFFFFF" stroke="#545454" stroke-width="2.5" stroke-linecap="round" stroke-linejoin="round" stroke-miterlimit="10" cx="-1783.431" cy="495.116" rx="19.53" ry="5.551"/>
</g>
<g id="logo" display="none">
	<path display="inline" fill="#FFFFFF" d="M-2098.331,569.204c1.9-0.34,3.323-1.729,3.323-3.394c0-1.918-1.892-3.474-4.225-3.474
		c-0.042,0-0.081,0.004-0.122,0.005v-66.004c0-71.12-115.842-65.328-115.842,4.183v43.739c-0.588-0.03-1.206,0.002-1.838,0.11
		c-3.022,0.517-5.204,2.499-4.873,4.426c0.227,1.329,1.589,2.284,3.404,2.579c-0.133,0.1-0.268,0.193-0.4,0.3
		c-4.013,3.21-5.606,7.887-3.559,10.446c0.943,1.179,2.5,1.695,4.292,1.603c-0.161,0.112-0.322,0.23-0.479,0.355
		c-2.395,1.916-3.345,4.705-2.123,6.232c1.06,1.325,3.408,1.261,5.575-0.031v4.174c0,0.368,0.007,0.734,0.012,1.101h115.76
		c1.992,0.363,3.747-0.151,4.301-1.414C-2094.432,572.563-2095.86,570.405-2098.331,569.204z"/>
	
		<path display="inline" fill="none" stroke="#555555" stroke-width="2.7379" stroke-linecap="round" stroke-linejoin="round" stroke-miterlimit="10" d="
		M-2097.475,568.281c1.9-0.34,3.323-1.729,3.323-3.395c0-1.918-1.892-3.473-4.225-3.473c-0.042,0-0.081,0.004-0.122,0.005v-66.005
		c0-71.12-115.843-65.328-115.843,4.183v43.739c-0.587-0.029-1.206,0.003-1.838,0.111c-3.021,0.517-5.204,2.498-4.873,4.426
		c0.227,1.328,1.589,2.283,3.404,2.579c-0.133,0.1-0.268,0.193-0.4,0.299c-4.013,3.211-5.606,7.888-3.558,10.447
		c0.943,1.179,2.5,1.695,4.292,1.603c-0.162,0.111-0.322,0.229-0.479,0.355c-2.395,1.916-3.345,4.705-2.123,6.232
		c1.06,1.324,3.408,1.26,5.575-0.032v4.175c0,0.368,0.007,0.734,0.012,1.1h115.76c1.992,0.363,3.747-0.15,4.302-1.414
		C-2093.576,571.641-2095.003,569.482-2097.475,568.281z"/>
	<g id="eye_1_" display="inline">
		
			<path fill="#FFFFFF" stroke="#555555" stroke-width="2.5743" stroke-linecap="round" stroke-linejoin="round" stroke-miterlimit="10" d="
			M-2185.368,509.296c0-14.962-8.475-27.146-19.074-27.687c-0.12-0.012-0.24-0.026-0.362-0.026c-0.066,0-0.13,0.005-0.195,0.006
			c-0.059,0-0.118-0.006-0.177-0.006c-1.166,0-2.305,0.149-3.415,0.418c-10.326,2.266-18.18,13.619-18.18,27.295
			s7.854,25.029,18.18,27.294c1.11,0.271,2.25,0.42,3.415,0.42c0.06,0,0.118-0.006,0.177-0.007c0.065,0.001,0.129,0.007,0.195,0.007
			c0.123,0,0.242-0.016,0.362-0.026C-2193.843,536.442-2185.368,524.258-2185.368,509.296z"/>
		
			<ellipse transform="matrix(0.2056 0.9786 -0.9786 0.2056 -1264.4023 2562.9927)" fill="#545454" stroke="#555555" stroke-width="1.5797" stroke-linecap="round" stroke-linejoin="round" stroke-miterlimit="10" cx="-2210.962" cy="502.646" rx="2.803" ry="2.744"/>
		<path fill="#E1EAEA" d="M-2208.437,481.964c-6.707,4.743-11.258,14.021-11.258,24.412c0,13.676,7.854,25.029,18.179,27.294
			c1.11,0.27,2.25,0.42,3.415,0.42c0.06,0,0.118-0.007,0.177-0.007c0.065,0,0.13,0.007,0.196,0.007c0.123,0,0.242-0.016,0.362-0.026
			c0.419-0.021,0.835-0.062,1.248-0.118C-2224.196,550.818-2241.554,492.24-2208.437,481.964z"/>
		<path fill="#E6EFEF" d="M-2196.448,534.158c-5.769,3.761-10.375,4.154-17.893,0.109c-2.866-1.544-6.591,1.415-2.963,4.872
			c0.887,0.844,4.94,4.047,8.619,4.543"/>
		
			<path fill="none" stroke="#D8E5E5" stroke-width="5.7921" stroke-linecap="round" stroke-linejoin="round" stroke-miterlimit="10" d="
			M-2189.107,532.356c-7.011,8.58-16.852,11.933-27.08,4.99"/>
		<path fill="#E6EFEF" d="M-2196.856,484.13c-5.622-3.942-8.278-3.785-15.21-1.376c-2.959,1.028-5.137-1.785-3.187-4.729
			c0.983-1.483,2.213-2.341,7.2-3.575"/>
		
			<path fill="none" stroke="#555555" stroke-width="2.5743" stroke-linecap="round" stroke-linejoin="round" stroke-miterlimit="10" d="
			M-2185.368,509.296c0-14.962-8.475-27.146-19.074-27.687c-0.12-0.012-0.24-0.026-0.362-0.026c-0.066,0-0.13,0.005-0.195,0.006
			c-0.059,0-0.118-0.006-0.177-0.006c-1.166,0-2.305,0.149-3.415,0.418c-10.326,2.266-18.18,13.619-18.18,27.295
			s7.854,25.029,18.18,27.294c1.11,0.271,2.25,0.42,3.415,0.42c0.06,0,0.118-0.006,0.177-0.007c0.065,0.001,0.129,0.007,0.195,0.007
			c0.123,0,0.242-0.016,0.362-0.026C-2193.843,536.442-2185.368,524.258-2185.368,509.296z"/>
		
			<path fill="none" stroke="#555555" stroke-width="2.5743" stroke-linecap="round" stroke-linejoin="round" stroke-miterlimit="10" d="
			M-2189.329,537.691c0.591-0.504,1.167-1.059,1.728-1.666"/>
		
			<path fill="none" stroke="#555555" stroke-width="2.5743" stroke-linecap="round" stroke-linejoin="round" stroke-miterlimit="10" d="
			M-2200.683,543.887c2.735-0.396,5.179-1.367,7.275-2.942c0.051-0.038,0.102-0.077,0.153-0.115"/>
		<path fill="#C3D1CF" d="M-2214.447,540.094c-2.347-1.462-1.775-3.625,0.503-3.863c-0.917-0.299-0.938-1.902-1.714-1.802
			c-3.502,0.456-4.2,3.944-1.484,5.506C-2210.781,543.594-2211.597,541.869-2214.447,540.094z"/>
		
			<path fill="none" stroke="#555555" stroke-width="2.5743" stroke-linecap="round" stroke-linejoin="round" stroke-miterlimit="10" d="
			M-2197.09,534.604c-5.768,3.761-10.374,4.154-17.892,0.108c-2.867-1.543-6.591,1.416-2.964,4.872
			c0.887,0.845,4.941,4.047,8.619,4.544"/>
		
			<path fill="none" stroke="#D8E5E5" stroke-width="4.505" stroke-linecap="round" stroke-linejoin="round" stroke-miterlimit="10" d="
			M-2197.174,479.448c-4.476-2.472-9.909-2.907-16.1-0.448"/>
		<path fill="#C3D1CF" d="M-2210.706,480.59c-2.642,0.816-2.924-1.631-1.61-3.508c-0.827,0.495-3.031,0.059-3.463,0.711
			c-1.95,2.944,0.228,5.757,3.187,4.729C-2205.66,480.114-2207.498,479.6-2210.706,480.59z"/>
		
			<path fill="none" stroke="#555555" stroke-width="2.5743" stroke-linecap="round" stroke-linejoin="round" stroke-miterlimit="10" d="
			M-2196.853,484.133c-5.622-3.942-8.278-3.785-15.211-1.376c-2.958,1.028-5.137-1.784-3.187-4.728
			c0.984-1.484,2.213-2.342,7.2-3.576"/>
	</g>
	<g id="eye_2_" display="inline">
		
			<path fill="#FFFFFF" stroke="#555555" stroke-width="2.5743" stroke-linecap="round" stroke-linejoin="round" stroke-miterlimit="10" d="
			M-2124.2,509.731c0-14.962-8.475-27.147-19.074-27.688c-0.12-0.011-0.239-0.026-0.362-0.026c-0.066,0-0.13,0.006-0.196,0.006
			c-0.059,0-0.117-0.006-0.177-0.006c-1.166,0-2.305,0.149-3.416,0.418c-10.326,2.266-18.179,13.62-18.179,27.295
			c0,13.675,7.854,25.029,18.179,27.294c1.111,0.27,2.25,0.419,3.416,0.419c0.06,0,0.118-0.006,0.177-0.006
			c0.065,0,0.13,0.006,0.196,0.006c0.123,0,0.242-0.015,0.362-0.025C-2132.675,536.877-2124.2,524.692-2124.2,509.731z"/>
		
			<ellipse transform="matrix(0.2057 0.9786 -0.9786 0.2057 -1215.3508 2503.46)" fill="#545454" stroke="#555555" stroke-width="1.5797" stroke-linecap="round" stroke-linejoin="round" stroke-miterlimit="10" cx="-2149.793" cy="503.08" rx="2.803" ry="2.745"/>
		<path fill="#E1EAEA" d="M-2147.269,482.399c-6.707,4.743-11.259,14.021-11.259,24.412c0,13.676,7.854,25.029,18.18,27.293
			c1.11,0.271,2.25,0.42,3.415,0.42c0.06,0,0.118-0.006,0.177-0.006c0.065,0,0.129,0.006,0.195,0.006
			c0.123,0,0.242-0.015,0.362-0.026c0.419-0.021,0.835-0.061,1.248-0.118C-2163.028,551.253-2180.386,492.675-2147.269,482.399z"/>
		<path fill="#E6EFEF" d="M-2135.28,534.594c-5.768,3.76-10.374,4.154-17.892,0.108c-2.867-1.544-6.591,1.415-2.963,4.872
			c0.887,0.844,4.94,4.047,8.619,4.543"/>
		
			<path fill="none" stroke="#D8E5E5" stroke-width="5.7921" stroke-linecap="round" stroke-linejoin="round" stroke-miterlimit="10" d="
			M-2127.939,532.791c-7.011,8.581-16.852,11.933-27.08,4.991"/>
		<path fill="#E6EFEF" d="M-2135.688,484.565c-5.622-3.942-8.279-3.785-15.211-1.376c-2.958,1.028-5.137-1.785-3.187-4.729
			c0.984-1.483,2.213-2.342,7.2-3.575"/>
		
			<path fill="none" stroke="#555555" stroke-width="2.5743" stroke-linecap="round" stroke-linejoin="round" stroke-miterlimit="10" d="
			M-2124.2,509.731c0-14.962-8.475-27.147-19.074-27.688c-0.12-0.011-0.239-0.026-0.362-0.026c-0.066,0-0.13,0.006-0.196,0.006
			c-0.059,0-0.117-0.006-0.177-0.006c-1.166,0-2.305,0.149-3.416,0.418c-10.326,2.266-18.179,13.62-18.179,27.295
			c0,13.675,7.854,25.029,18.179,27.294c1.111,0.27,2.25,0.419,3.416,0.419c0.06,0,0.118-0.006,0.177-0.006
			c0.065,0,0.13,0.006,0.196,0.006c0.123,0,0.242-0.015,0.362-0.025C-2132.675,536.877-2124.2,524.692-2124.2,509.731z"/>
		
			<path fill="none" stroke="#555555" stroke-width="2.5743" stroke-linecap="round" stroke-linejoin="round" stroke-miterlimit="10" d="
			M-2128.161,538.126c0.591-0.503,1.167-1.058,1.728-1.665"/>
		
			<path fill="none" stroke="#555555" stroke-width="2.5743" stroke-linecap="round" stroke-linejoin="round" stroke-miterlimit="10" d="
			M-2139.515,544.322c2.735-0.396,5.179-1.367,7.275-2.943c0.051-0.038,0.102-0.076,0.153-0.115"/>
		<path fill="#C3D1CF" d="M-2153.279,540.528c-2.347-1.461-1.775-3.625,0.503-3.862c-0.917-0.3-0.938-1.903-1.715-1.803
			c-3.501,0.456-4.199,3.945-1.483,5.507C-2149.613,544.028-2150.429,542.304-2153.279,540.528z"/>
		
			<path fill="none" stroke="#555555" stroke-width="2.5743" stroke-linecap="round" stroke-linejoin="round" stroke-miterlimit="10" d="
			M-2135.922,535.038c-5.769,3.761-10.374,4.154-17.892,0.109c-2.867-1.544-6.592,1.415-2.964,4.872
			c0.887,0.844,4.941,4.047,8.619,4.543"/>
		
			<path fill="none" stroke="#D8E5E5" stroke-width="4.505" stroke-linecap="round" stroke-linejoin="round" stroke-miterlimit="10" d="
			M-2136.006,479.883c-4.476-2.472-9.909-2.907-16.099-0.448"/>
		<path fill="#C3D1CF" d="M-2149.538,481.025c-2.642,0.816-2.924-1.631-1.61-3.508c-0.827,0.496-3.031,0.059-3.464,0.711
			c-1.95,2.944,0.229,5.757,3.187,4.729C-2144.492,480.549-2146.329,480.035-2149.538,481.025z"/>
		
			<path fill="none" stroke="#555555" stroke-width="2.5743" stroke-linecap="round" stroke-linejoin="round" stroke-miterlimit="10" d="
			M-2135.685,484.567c-5.622-3.941-8.278-3.785-15.21-1.375c-2.959,1.028-5.137-1.784-3.187-4.728
			c0.983-1.484,2.213-2.342,7.2-3.576"/>
	</g>
</g>
<g id="wav_file" display="none">
	<g display="inline">
		
			<path fill="#FF997D" stroke="#515160" stroke-width="3" stroke-linecap="round" stroke-linejoin="round" stroke-miterlimit="10" d="
			M-2861.225,555.931c-3.015-4.057-11.237-4.895-20.307-3.33c4.937-11.244,8.841-25.586,19.439-30.479
			c-10.401-11.182-38.595-3.966-51.615,9.557c0.288-5.506,0.981-10.723,2.764-14.942c-6.913-2.694-33.25,17.904-38.436,23.416
			c-30.815,27.947,42.322,77.938,56.401,58.005c1.704-2.266,3.137-4.651,4.306-7.117
			C-2879.589,582.833-2872.028,563.492-2861.225,555.931z"/>
		<path fill="#F9E76B" d="M-2897.485,580.127c-17.743-15.662,19.956-27.796,25.634-20.149
			C-2881.482,566.718-2886.65,589.69-2897.485,580.127z"/>
		<path fill="#F9E76B" d="M-2901.522,546.275c-17.744-15.661,19.955-27.795,25.634-20.148
			C-2885.52,532.867-2890.688,555.839-2901.522,546.275z"/>
		<path fill="#F9E76B" d="M-2923.817,556.577c-23.661,0.473-4.111-33.969,5.244-32.18
			C-2921.104,535.876-2909.368,556.288-2923.817,556.577z"/>
	</g>
	<path display="inline" fill="#FCC368" stroke="#515160" stroke-width="3" stroke-miterlimit="10" d="M-2986.752,556.837
		c-3.775-7.567-10.608-9.17-15.504-9.17h-75.872c-4.896,0-8.866,3.934-8.866,8.783v99.043c0,7.674,6.578,17.347,14.844,18.134
		c8.531,0.812,87.649-9.351,87.649-9.351c4.896,0,8.865-3.933,8.865-8.783L-2986.752,556.837z"/>
	<g display="inline">
		
			<path fill="#FF997D" stroke="#515160" stroke-width="3" stroke-linecap="round" stroke-linejoin="round" stroke-miterlimit="10" d="
			M-3003.016,502.645c-4.123,2.923-5.143,11.125-3.78,20.227c-11.132-5.185-25.383-9.407-30.039-20.111
			c-11.411,10.15-4.823,38.497,8.407,51.813c-5.499-0.409-10.698-1.219-14.877-3.095c-2.847,6.851,17.161,33.64,22.557,38.946
			c27.255,31.429,78.859-40.58,59.243-55.098c-2.227-1.754-4.581-3.24-7.02-4.464
			C-2976.528,521.602-2995.696,513.613-3003.016,502.645z"/>
		<path fill="#F9E76B" d="M-2979.63,539.434c-16.053,17.391-27.346-20.568-19.575-26.075
			C-2992.681,523.137-2969.829,528.813-2979.63,539.434z"/>
		<path fill="#F9E76B" d="M-3013.564,542.718c-16.051,17.392-27.344-20.568-19.574-26.075
			C-3026.613,526.421-3003.762,532.098-3013.564,542.718z"/>
		<path fill="#F9E76B" d="M-3003.76,565.236c-0.053,23.666-34.052,3.354-32.055-5.959
			C-3024.396,562.063-3003.728,550.783-3003.76,565.236z"/>
	</g>
	<g id="file" display="inline">
		<path fill="#8AF9F9" d="M-2984.599,495.16c-2.756-0.166-5.125,1.936-5.29,4.692l-7.083,118.296
			c-0.165,2.757,1.936,5.124,4.692,5.289l82.851,4.959c2.756,0.165,5.125-1.934,5.291-4.691l5.554-92.763l-27.5-32.279
			L-2984.599,495.16z"/>
		<path fill="#68DEEA" d="M-2925.867,533.301l28.044,1.68l-31.69-37.197l-1.762,29.422
			C-2931.465,530.382-2929.044,533.111-2925.867,533.301z"/>
		
			<path fill="#86F7A6" stroke="#515160" stroke-width="3" stroke-linecap="round" stroke-linejoin="round" stroke-miterlimit="10" d="
			M-2922.94,529.817l24.336,1.456l-27.5-32.279l-1.528,25.533C-2927.798,527.283-2925.697,529.651-2922.94,529.817z"/>
		<path fill="none" stroke="#474759" stroke-width="3" stroke-linecap="round" stroke-linejoin="round" stroke-miterlimit="10" d="
			M-2984.599,495.16c-2.756-0.166-5.125,1.936-5.29,4.692l-7.083,118.296c-0.165,2.757,1.936,5.124,4.692,5.289l82.851,4.959
			c2.756,0.165,5.125-1.934,5.291-4.691l5.554-92.763l-27.5-32.279L-2984.599,495.16z"/>
		<circle fill="#515160" cx="-2974.622" cy="519.019" r="2.416"/>
		<circle fill="#515160" cx="-2948.812" cy="520.411" r="2.416"/>
		<path fill="#515160" d="M-2968.78,529.979c0.334-3.579,3.509-6.213,7.09-5.878c3.581,0.334,6.213,3.509,5.879,7.089
			C-2956.146,534.772-2969.114,533.562-2968.78,529.979z"/>
	</g>
	<path display="inline" fill="#F9E76B" stroke="#515160" stroke-width="3" stroke-miterlimit="10" d="M-2897.898,665.327
		c0,5.522-4.477,10-10,10h-160.667c-5.523,0-10-4.478-10-10v-91.462c0-5.523,4.477-10,10-10h160.667c5.523,0,10,4.477,10,10V665.327
		z"/>
	<path display="inline" fill="#FCC368" stroke="#515160" stroke-width="2.7" stroke-miterlimit="10" d="M-2953.219,636.04
		c0.036,3.568-3.673,6.495-8.282,6.54l-54.515,0.527c-4.607,0.046-8.372-2.811-8.406-6.38l-0.241-24.984
		c-0.034-3.569,3.674-6.498,8.28-6.543l54.517-0.527c4.607-0.044,8.372,2.813,8.407,6.381L-2953.219,636.04z"/>
	<g display="inline">
		<path fill="#515160" d="M-2992.102,618.854c0.092-0.36,0.252-0.623,0.478-0.787c0.227-0.164,0.478-0.248,0.754-0.25
			c0.18-0.002,0.36,0.029,0.541,0.094c0.181,0.063,0.344,0.158,0.489,0.282c0.146,0.125,0.264,0.277,0.355,0.456
			c0.092,0.18,0.139,0.377,0.141,0.593c0.001,0.156-0.027,0.336-0.084,0.54l-2.462,7.891c-0.104,0.35-0.291,0.609-0.559,0.78
			c-0.269,0.17-0.553,0.257-0.853,0.26c-0.312,0.003-0.604-0.081-0.875-0.253c-0.272-0.171-0.47-0.424-0.593-0.759l-1.406-3.947
			l-1.239,3.973c-0.105,0.35-0.292,0.609-0.56,0.779c-0.269,0.171-0.553,0.258-0.853,0.261c-0.312,0.003-0.604-0.081-0.876-0.253
			c-0.271-0.171-0.469-0.424-0.592-0.76l-2.794-7.875c-0.062-0.203-0.093-0.378-0.095-0.521c-0.002-0.216,0.041-0.41,0.129-0.586
			c0.088-0.175,0.204-0.326,0.347-0.453c0.143-0.128,0.304-0.225,0.483-0.293c0.179-0.067,0.365-0.103,0.557-0.104
			c0.276-0.002,0.531,0.076,0.767,0.236c0.236,0.159,0.403,0.419,0.502,0.777l1.509,5.241l1.263-5.268
			c0.093-0.349,0.267-0.614,0.523-0.797s0.535-0.275,0.834-0.278s0.583,0.084,0.849,0.262s0.448,0.44,0.548,0.787l1.509,5.241
			L-2992.102,618.854z"/>
		<path fill="#515160" d="M-2981.966,626.479l-3.186,0.03l-0.439,1.156c-0.129,0.338-0.309,0.582-0.542,0.734
			c-0.232,0.153-0.487,0.23-0.762,0.232c-0.204,0.002-0.399-0.029-0.586-0.093c-0.187-0.064-0.359-0.159-0.516-0.283
			c-0.158-0.125-0.282-0.271-0.374-0.438c-0.091-0.167-0.138-0.358-0.14-0.575c-0.002-0.216,0.038-0.414,0.12-0.595l3.47-7.864
			c0.152-0.337,0.36-0.591,0.623-0.762s0.532-0.257,0.808-0.26s0.544,0.079,0.804,0.244c0.259,0.166,0.457,0.416,0.592,0.75
			l3.333,7.799c0.085,0.179,0.129,0.376,0.132,0.592c0.002,0.205-0.042,0.395-0.129,0.569c-0.089,0.175-0.21,0.325-0.365,0.453
			c-0.155,0.127-0.328,0.226-0.52,0.293c-0.191,0.067-0.383,0.103-0.575,0.104c-0.276,0.003-0.535-0.069-0.776-0.218
			c-0.242-0.147-0.424-0.389-0.547-0.724L-2981.966,626.479z M-2984.239,624.16l1.44-0.015l-0.685-1.919L-2984.239,624.16z"/>
		<path fill="#515160" d="M-2971.727,618.657c0.128-0.337,0.309-0.585,0.542-0.743s0.487-0.239,0.763-0.242
			c0.192-0.002,0.384,0.033,0.577,0.104c0.192,0.069,0.368,0.167,0.525,0.291c0.157,0.125,0.282,0.274,0.374,0.447
			c0.091,0.173,0.139,0.367,0.141,0.583c0.002,0.204-0.039,0.396-0.12,0.577l-3.129,7.807c-0.282,0.663-0.734,0.997-1.358,1.003
			c-0.636,0.007-1.144-0.318-1.521-0.976l-3.278-7.744c-0.086-0.18-0.13-0.371-0.132-0.575c-0.002-0.216,0.041-0.411,0.129-0.586
			c0.088-0.174,0.209-0.326,0.365-0.453c0.154-0.128,0.324-0.229,0.51-0.302c0.185-0.074,0.379-0.112,0.584-0.114
			c0.275-0.003,0.531,0.073,0.766,0.227c0.236,0.154,0.421,0.398,0.557,0.732l1.9,4.734L-2971.727,618.657z"/>
	</g>
	
		<path display="inline" fill="#8AF9F9" stroke="#515160" stroke-width="2.5" stroke-linecap="round" stroke-linejoin="round" stroke-miterlimit="10" d="
		M-2923.431,537.599c1.375,10.375-7.987,39.717-7.987,39.717c-0.435,1.023-1.728,1.669-3.024,1.435l0,0
		c-1.297-0.234-2.381-1.603-1.794-3.012c0.495-1.188,8.681-31.515,6.992-39.207"/>
	<circle display="inline" fill="#515160" cx="-3007.651" cy="627.083" r="2.416"/>
	<g id="file_1_" display="inline">
		<path fill="#8AF9F9" d="M-3351.158,620.499c-2.759-0.101-5.078,2.056-5.178,4.815l-4.294,118.43
			c-0.1,2.761,2.056,5.077,4.815,5.178l82.945,3.006c2.759,0.101,5.078-2.054,5.178-4.814l3.368-92.868l-28.253-31.622
			L-3351.158,620.499z"/>
		<path fill="#68DEEA" d="M-3291.544,657.246l28.076,1.019l-32.557-36.439l-1.068,29.455
			C-3297.208,654.46-3294.725,657.131-3291.544,657.246z"/>
		
			<path fill="#86F7A6" stroke="#515160" stroke-width="3" stroke-linecap="round" stroke-linejoin="round" stroke-miterlimit="10" d="
			M-3288.7,653.694l24.364,0.883l-28.252-31.622l-0.927,25.562C-3293.616,651.275-3291.46,653.594-3288.7,653.694z"/>
		<path fill="none" stroke="#474759" stroke-width="3" stroke-linecap="round" stroke-linejoin="round" stroke-miterlimit="10" d="
			M-3351.158,620.499c-2.759-0.101-5.078,2.056-5.178,4.815l-4.294,118.43c-0.1,2.761,2.056,5.077,4.815,5.178l82.945,3.006
			c2.759,0.101,5.078-2.054,5.178-4.814l3.368-92.868l-28.253-31.622L-3351.158,620.499z"/>
		<circle fill="#515160" cx="-3340.622" cy="644.116" r="2.416"/>
		<circle fill="#515160" cx="-3314.786" cy="644.9" r="2.416"/>
	</g>
	
		<path display="inline" fill="#8AF9F9" stroke="#474759" stroke-width="2.5" stroke-linecap="round" stroke-linejoin="round" stroke-miterlimit="10" d="
		M-3357.752,676.755c-8.821-5.633-23.232-29.184-23.232-29.184c-0.503-0.991-0.164-2.396,0.851-3.237l0,0
		c1.015-0.841,2.76-0.788,3.459,0.568c0.589,1.144,15.648,24.81,22.62,28.474"/>
	
		<path display="inline" fill="#8AF9F9" stroke="#515160" stroke-width="2.5" stroke-linecap="round" stroke-linejoin="round" stroke-miterlimit="10" d="
		M-3277.229,677.09c8.198-6.506,21.854-34.112,21.854-34.112c0.398-1.037-0.083-2.4-1.178-3.133l0,0
		c-1.096-0.732-2.826-0.502-3.383,0.919c-0.469,1.198-15.655,28.696-22.215,33.055"/>
	<path display="inline" fill="#515160" d="M-3321.399,659.719c0,5.789,0.544,10.653-7.903,10.481s-7.903-4.692-7.903-10.481
		s3.538-10.482,7.903-10.482S-3321.399,653.93-3321.399,659.719z"/>
	<g display="inline">
		<g>
			<path fill="#474759" d="M-3345.561,744.939c-4.814,4.857-8.782,9.783-11.386,16.162c-0.285,0.698,0.305,1.729,1.047,1.845
				c10.358,1.62,19.062-2.782,28.798-5.5c1.86-0.52,1.069-3.414-0.798-2.893c-9.066,2.53-17.518,7.015-27.202,5.5
				c0.349,0.615,0.698,1.229,1.047,1.845c2.388-5.85,6.21-10.394,10.614-14.838
				C-3342.077,745.686-3344.197,743.563-3345.561,744.939L-3345.561,744.939z"/>
		</g>
	</g>
	<g display="inline">
		<g>
			<path fill="#474759" d="M-3285.257,748.795c4.1,2.983,10.29,6.042,10.757,11.705c0.367-0.482,0.734-0.964,1.101-1.446
				c-8.604,1.548-20.188-0.682-27.844-4.849c-1.699-0.926-3.213,1.665-1.514,2.59c8.391,4.567,20.72,6.849,30.156,5.151
				c0.61-0.109,1.152-0.832,1.101-1.446c-0.581-7.047-7.079-10.538-12.243-14.295
				C-3285.311,745.064-3286.805,747.669-3285.257,748.795L-3285.257,748.795z"/>
		</g>
	</g>
	<g display="inline">
		<g>
			<path fill="#474759" d="M-3328.561,756.561c2.523,2.039,4.901,4.232,7.804,5.734c1.715,0.888,3.232-1.701,1.514-2.59
				c-2.681-1.388-4.865-3.383-7.196-5.266C-3327.929,753.235-3330.066,755.345-3328.561,756.561L-3328.561,756.561z"/>
		</g>
	</g>
	<g display="inline">
		<g>
			<path fill="#474759" d="M-3304.757,755.205c-2.029,1.539-3.854,3.248-5.039,5.538c-0.887,1.715,1.702,3.232,2.591,1.514
				c0.94-1.818,2.34-3.231,3.961-4.462c0.65-0.493,0.989-1.282,0.539-2.052C-3303.081,755.102-3304.104,754.709-3304.757,755.205
				L-3304.757,755.205z"/>
		</g>
	</g>
	<g display="inline">
		<g>
			<path fill="#474759" d="M-3320,645c2.51-0.037,4.99-0.463,7.5-0.5c1.933-0.028,1.936-3.028,0-3c-2.51,0.037-4.99,0.463-7.5,0.5
				C-3321.933,642.028-3321.936,645.028-3320,645L-3320,645z"/>
		</g>
	</g>
	<g display="inline">
		<g>
			<path fill="#474759" d="M-3344.399,641.446c2.877,1.018,5.456,2.732,7.838,4.614c1.5,1.186,3.639-0.923,2.121-2.121
				c-2.812-2.222-5.763-4.184-9.162-5.386C-3345.43,637.906-3346.209,640.806-3344.399,641.446L-3344.399,641.446z"/>
		</g>
	</g>
</g>
<g id="Layer_18" display="none">
	<path display="inline" fill="#53EA9A" d="M-3125.348,659.833h-59.997v-59.997c0-7.041-5.708-12.749-12.75-12.749
		s-12.75,5.708-12.75,12.749v59.997h-59.997c-7.041,0-12.749,5.708-12.749,12.749c0,7.042,5.708,12.75,12.749,12.75h59.997v59.997
		c0,7.041,5.708,12.749,12.75,12.749s12.75-5.708,12.75-12.749v-59.997h59.997c7.041,0,12.749-5.708,12.749-12.75
		C-3112.599,665.541-3118.307,659.833-3125.348,659.833z"/>
	<path display="inline" fill="#7AF486" d="M-3186.247,599.221v59.997h59.997c6.005,0,11.026,4.157,12.378,9.746h-68.762
		c-6.88,0-12.458-4.954-12.458-11.064v-70.812C-3189.961,588.736-3186.247,593.543-3186.247,599.221z"/>
	
		<path display="inline" fill="none" stroke="#474759" stroke-width="3" stroke-linecap="round" stroke-linejoin="round" stroke-miterlimit="10" d="
		M-3125.348,659.833h-59.997v-59.997c0-7.041-5.708-12.749-12.75-12.749s-12.75,5.708-12.75,12.749v59.997h-59.997
		c-7.041,0-12.749,5.708-12.749,12.749c0,7.042,5.708,12.75,12.749,12.75h59.997v59.997c0,7.041,5.708,12.749,12.75,12.749
		s12.75-5.708,12.75-12.749v-59.997h59.997c7.041,0,12.749-5.708,12.749-12.75C-3112.599,665.541-3118.307,659.833-3125.348,659.833
		z"/>
	<path display="inline" fill="#F7EA4D" d="M-3094.848,605.255l-5.061-3.468l3.468-5.062c0.407-0.595,0.255-1.405-0.338-1.812
		c-0.594-0.408-1.406-0.257-1.813,0.338l-3.468,5.062l-5.062-3.468c-0.593-0.407-1.405-0.257-1.812,0.338
		c-0.408,0.595-0.256,1.406,0.338,1.812l5.062,3.469l-3.468,5.061c-0.407,0.595-0.255,1.405,0.338,1.812
		c0.594,0.407,1.405,0.256,1.813-0.339l3.468-5.061l5.062,3.467c0.593,0.407,1.405,0.257,1.812-0.339
		C-3094.102,606.473-3094.253,605.662-3094.848,605.255z"/>
	<path display="inline" fill="#F7EA4D" d="M-3265.308,753.289l-5.68-3.893l3.598-5.252c0.423-0.616,0.224-1.487-0.441-1.943
		c-0.667-0.456-1.551-0.327-1.973,0.29l-3.599,5.252l-5.679-3.893c-0.667-0.455-1.549-0.327-1.971,0.29
		c-0.424,0.617-0.226,1.486,0.441,1.941l5.68,3.893l-3.599,5.253c-0.422,0.615-0.224,1.485,0.442,1.942
		c0.667,0.457,1.549,0.327,1.972-0.288l3.599-5.253l5.68,3.891c0.665,0.458,1.548,0.329,1.97-0.289
		C-3264.442,754.614-3264.642,753.744-3265.308,753.289z"/>
	<path display="inline" fill="#F7EA4D" d="M-3163.996,558.303l0.689-5.203l4.812,0.637c0.566,0.074,1.089-0.36,1.169-0.971
		c0.081-0.611-0.311-1.166-0.876-1.241l-4.812-0.637l0.689-5.204c0.08-0.611-0.312-1.167-0.875-1.24
		c-0.567-0.075-1.09,0.358-1.169,0.971l-0.69,5.203l-4.812-0.638c-0.564-0.074-1.087,0.359-1.169,0.972
		c-0.081,0.61,0.312,1.165,0.876,1.24l4.812,0.638l-0.688,5.203c-0.082,0.61,0.31,1.167,0.875,1.242
		C-3164.599,559.349-3164.077,558.913-3163.996,558.303z"/>
	<path display="inline" fill="#F7EA4D" d="M-3324.141,636.948l0.746-5.643l5.218,0.691c0.614,0.079,1.181-0.393,1.269-1.052
		c0.088-0.665-0.337-1.268-0.951-1.348l-5.218-0.692l0.748-5.642c0.086-0.662-0.338-1.266-0.949-1.345
		c-0.614-0.081-1.182,0.39-1.269,1.051l-0.747,5.645l-5.218-0.692c-0.612-0.079-1.179,0.391-1.268,1.054
		c-0.088,0.662,0.338,1.265,0.951,1.345l5.218,0.691l-0.746,5.643c-0.089,0.662,0.335,1.266,0.949,1.346
		C-3324.795,638.082-3324.229,637.609-3324.141,636.948z"/>
	<circle display="inline" fill="#F7EA4D" cx="-3270.304" cy="588.445" r="6.238"/>
	<circle display="inline" fill="#F7EA4D" cx="-3153.437" cy="731.849" r="4.563"/>
	<circle display="inline" fill="#F7EA4D" cx="-3150.549" cy="615.796" r="2.641"/>
	<circle display="inline" fill="#F7EA4D" cx="-3238.741" cy="707.061" r="2.997"/>
	<path display="inline" fill="#F7EA4D" d="M-3102.551,725.962l0.744-5.618l5.196,0.688c0.611,0.08,1.176-0.389,1.263-1.047
		c0.087-0.662-0.335-1.262-0.947-1.341l-5.196-0.688l0.745-5.62c0.087-0.658-0.336-1.259-0.945-1.339
		c-0.611-0.08-1.177,0.389-1.263,1.048l-0.745,5.62l-5.195-0.69c-0.609-0.078-1.174,0.39-1.262,1.05
		c-0.088,0.659,0.336,1.259,0.946,1.341l5.195,0.687l-0.742,5.619c-0.088,0.658,0.335,1.259,0.946,1.34
		C-3103.202,727.092-3102.639,726.622-3102.551,725.962z"/>
</g>
<g id="Layer_19" display="none">
	<circle display="inline" fill="none" stroke="#545454" stroke-width="13" stroke-miterlimit="10" cx="-3406" cy="603" r="69"/>
	
		<line display="inline" fill="none" stroke="#545454" stroke-width="13" stroke-linecap="round" stroke-miterlimit="10" x1="-3354.688" y1="653.32" x2="-3309.004" y2="699.004"/>
</g>
<g id="Layer_20" display="none">
	<g display="inline" opacity="0.5">
		<path fill="#29DCE5" d="M-3374.615,500.438c0-2.059-1.674-3.733-3.732-3.733c-0.302,0-0.546-0.244-0.546-0.546v-0.086
			c0-0.301,0.244-0.546,0.546-0.546c2.058,0,3.732-1.674,3.732-3.732c0-0.301,0.244-0.545,0.546-0.545h0.086
			c0.301,0,0.545,0.244,0.545,0.545c0,2.059,1.675,3.732,3.733,3.732c0.301,0,0.546,0.245,0.546,0.546v0.086
			c0,0.302-0.245,0.546-0.546,0.546c-2.058,0-3.733,1.674-3.733,3.733c0,0.301-0.244,0.545-0.545,0.545h-0.086
			C-3374.371,500.983-3374.615,500.739-3374.615,500.438z"/>
	</g>
	<g display="inline" opacity="0.5">
		<path fill="#29DCE5" d="M-3209.901,495.086c0-3.885-3.161-7.046-7.045-7.046c-0.569,0-1.03-0.461-1.03-1.03v-0.163
			c0-0.569,0.461-1.03,1.03-1.03c3.885,0,7.045-3.161,7.045-7.045c0-0.568,0.461-1.029,1.031-1.029h0.163
			c0.569,0,1.03,0.461,1.03,1.029c0,3.884,3.161,7.045,7.045,7.045c0.569,0,1.031,0.461,1.031,1.03v0.163
			c0,0.569-0.461,1.03-1.031,1.03c-3.884,0-7.045,3.161-7.045,7.046c0,0.569-0.461,1.03-1.03,1.03h-0.163
			C-3209.44,496.117-3209.901,495.655-3209.901,495.086z"/>
	</g>
	<g display="inline" opacity="0.5">
		<path fill="#29DCE5" d="M-3370.232,473.121c0-3.751-3.052-6.802-6.802-6.802c-0.549,0-0.995-0.445-0.995-0.995v-0.157
			c0-0.549,0.445-0.995,0.995-0.995c3.75,0,6.802-3.052,6.802-6.802c0-0.549,0.445-0.994,0.995-0.994h0.157
			c0.549,0,0.995,0.445,0.995,0.994c0,3.75,3.052,6.802,6.803,6.802c0.549,0,0.995,0.445,0.995,0.995v0.157
			c0,0.55-0.445,0.995-0.995,0.995c-3.751,0-6.803,3.051-6.803,6.802c0,0.549-0.445,0.995-0.995,0.995h-0.157
			C-3369.787,474.115-3370.232,473.67-3370.232,473.121z"/>
	</g>
	<g display="inline" opacity="0.5">
		<path fill="#29DCE5" d="M-3226.469,462.222c0-2.784-2.266-5.05-5.05-5.05c-0.408,0-0.738-0.33-0.738-0.738v-0.117
			c0-0.408,0.331-0.738,0.738-0.738c2.785,0,5.05-2.266,5.05-5.05c0-0.407,0.331-0.738,0.739-0.738h0.116
			c0.408,0,0.739,0.331,0.739,0.738c0,2.784,2.266,5.05,5.05,5.05c0.408,0,0.739,0.331,0.739,0.738v0.117
			c0,0.408-0.331,0.738-0.739,0.738c-2.785,0-5.05,2.266-5.05,5.05c0,0.408-0.331,0.739-0.739,0.739h-0.116
			C-3226.139,462.961-3226.469,462.63-3226.469,462.222z"/>
	</g>
	<g display="inline">
		<path fill="#11B2BA" d="M-3291.632,501.031v4.326c0,1.864-1.398,3.261-3.262,3.261c-1.73,0-3.261-1.397-3.261-3.261v-6.922
			c0-0.066,0.067-0.066,0.067-0.133c-0.067-0.066-0.067-0.066-0.067-0.133c0-1.73,1.531-3.261,3.261-3.261
			c4.193,0,7.588-3.328,7.588-7.455c0-4.193-3.395-7.455-7.588-7.455c-2.729,0-5.125,1.464-6.39,3.661
			c-0.932,1.598-2.928,2.13-4.526,1.198c-1.531-0.932-2.063-2.862-1.131-4.459c2.396-4.127,6.922-6.922,12.047-6.922
			c7.721,0,14.044,6.257,14.044,13.978C-3280.85,494.042-3285.442,499.566-3291.632,501.031z M-3291.632,515.607v1.198
			c0,1.863-1.398,3.261-3.262,3.261c-1.73,0-3.261-1.398-3.261-3.261v-1.198c0-1.797,1.531-3.261,3.261-3.261
			C-3293.03,512.346-3291.632,513.81-3291.632,515.607z"/>
	</g>
	<path display="inline" fill="#8AF9F9" d="M-3359.058,506.239c0,11.76,3.128,22.788,8.599,32.298
		c44.055,0.676,83.449,1.842,111.745,1.365c5.969-9.814,9.406-21.337,9.406-33.664c0-35.829-29.046-64.875-64.875-64.875
		C-3330.012,441.364-3359.058,470.41-3359.058,506.239z"/>
	<path display="inline" fill="#68E1EA" d="M-3292.852,441.897c2.338,0,4.647,0.126,6.921,0.368
		c-32.575,3.455-57.953,31.016-57.953,64.507c0,11.759,3.128,22.787,8.598,32.298c33.64,0.517,26.201,0.614-13.843,0
		c-5.47-9.511-8.599-20.539-8.599-32.298C-3357.727,470.942-3328.681,441.897-3292.852,441.897z"/>
	
		<path display="inline" fill="none" stroke="#545454" stroke-width="4" stroke-linecap="round" stroke-linejoin="round" stroke-miterlimit="10" d="
		M-3359.058,506.239c0,11.76,3.128,22.788,8.599,32.298c44.055,0.676,83.449,1.842,111.745,1.365
		c5.969-9.814,9.406-21.337,9.406-33.664c0-35.829-29.046-64.875-64.875-64.875C-3330.012,441.364-3359.058,470.41-3359.058,506.239
		z"/>
	<path display="inline" fill="#F9E76B" d="M-3226,540.347c0-4.058-3.289-7.347-7.346-7.347h-121.308
		c-4.057,0-7.346,3.289-7.346,7.347v0.307c0,4.058,3.289,7.347,7.346,7.347h121.308c4.057,0,7.346-3.289,7.346-7.347V540.347z"/>
	<path display="inline" fill="#F4CE2F" d="M-3354.859,532h18.02c-3.561,0-7.161,3.373-7.161,7.477v0.046
		c0,4.104,3.6,7.478,7.161,7.478h-18.02c-3.561,0-7.141-3.374-7.141-7.478v-0.046C-3362,535.373-3358.42,532-3354.859,532z"/>
	
		<path display="inline" fill="none" stroke="#FFFFFF" stroke-width="5.5905" stroke-linecap="round" stroke-linejoin="round" stroke-miterlimit="10" d="
		M-3256.288,465.246c-1.117-1.27-2.235-2.358-3.326-3.214"/>
	
		<path display="inline" fill="none" stroke="#FFFFFF" stroke-width="5.5905" stroke-linecap="round" stroke-linejoin="round" stroke-miterlimit="10" d="
		M-3242.488,490.689c-1.619-6.581-4.953-13.639-8.693-19.104"/>
	
		<path display="inline" fill="none" stroke="#545454" stroke-width="4" stroke-linecap="round" stroke-linejoin="round" stroke-miterlimit="10" d="
		M-3225,539.346c0-4.057-3.289-7.346-7.346-7.346h-121.308c-4.057,0-7.346,3.289-7.346,7.346v0.309c0,4.057,3.289,7.346,7.346,7.346
		h121.308c4.057,0,7.346-3.289,7.346-7.346V539.346z"/>
</g>
</svg>
