<?xml version="1.0" encoding="utf-8"?>
<!-- Generator: Adobe Illustrator 16.0.0, SVG Export Plug-In . SVG Version: 6.00 Build 0)  -->
<!DOCTYPE svg PUBLIC "-//W3C//DTD SVG 1.1//EN" "http://www.w3.org/Graphics/SVG/1.1/DTD/svg11.dtd">
<svg version="1.1" id="Layer_1" xmlns="http://www.w3.org/2000/svg" xmlns:xlink="http://www.w3.org/1999/xlink" x="0px" y="0px"
	 width="53.312px" height="22.208px" viewBox="0 0 53.312 22.208" enable-background="new 0 0 53.312 22.208" xml:space="preserve">
<g enable-background="new    ">
	<path fill="#FFE664" d="M17.704,14.959c0,4.457-2.167,6.68-6.498,6.68H5.477c-1.838,0-2.761-0.932-2.761-2.793v-0.104
		c0.049-1.938,0.979-2.908,2.8-2.908h6.003c0.398,0,0.688-0.108,0.874-0.326c0.185-0.219,0.279-0.463,0.279-0.717
		c0-0.258-0.096-0.49-0.279-0.719c-0.187-0.219-0.476-0.328-0.874-0.328H8.55c-4.1,0-6.146-2.107-6.146-6.321
		c0-4.446,2.188-6.674,6.563-6.674h4.612c1.838,0,2.76,0.932,2.76,2.798v0.104c-0.047,1.932-0.978,2.897-2.792,2.897h-4.96
		c-0.398,0-0.688,0.109-0.874,0.333C7.523,7.1,7.434,7.342,7.434,7.598c0,0.252,0.095,0.495,0.279,0.713
		c0.186,0.225,0.476,0.333,0.874,0.333h2.97C15.651,8.645,17.704,10.753,17.704,14.959z"/>
</g>
<g enable-background="new    ">
	<path fill="none" stroke="#545454" stroke-width="0.8731" stroke-linecap="round" stroke-linejoin="round" d="M17.409,14.959
		c0,4.457-2.167,6.68-6.493,6.68H5.187c-1.838,0-2.761-0.932-2.761-2.793v-0.104c0.048-1.938,0.979-2.908,2.794-2.908h6.008
		c0.394,0,0.684-0.108,0.874-0.326c0.185-0.219,0.279-0.463,0.279-0.717c0-0.258-0.095-0.49-0.279-0.719
		c-0.19-0.219-0.48-0.328-0.874-0.328H8.26c-4.1,0-6.146-2.107-6.146-6.321c0-4.446,2.189-6.674,6.564-6.674h4.611
		c1.838,0,2.76,0.932,2.76,2.798v0.104c-0.048,1.932-0.979,2.897-2.798,2.897H8.293c-0.394,0-0.684,0.109-0.874,0.333
		C7.234,7.1,7.144,7.342,7.144,7.598c0,0.252,0.09,0.495,0.274,0.713c0.19,0.225,0.48,0.333,0.874,0.333h2.97
		C15.362,8.645,17.409,10.753,17.409,14.959z"/>
</g>
<g enable-background="new    ">
	<path fill="#FFE664" d="M36.824,20.518c-0.746,0.398-1.548,0.708-2.408,0.926c-0.858,0.219-1.748,0.328-2.654,0.328
		c-1.468,0-2.851-0.273-4.156-0.836c-1.302-0.561-2.433-1.311-3.388-2.27c-0.954-0.951-1.71-2.08-2.271-3.383
		c-0.561-1.312-0.835-2.699-0.835-4.162c0-1.468,0.275-2.849,0.835-4.156c0.561-1.302,1.315-2.437,2.271-3.406
		c0.955-0.964,2.086-1.728,3.388-2.284c1.306-0.561,2.688-0.841,4.156-0.841c1.468,0,2.854,0.28,4.156,0.841
		c1.307,0.556,2.441,1.32,3.405,2.284c0.964,0.97,1.729,2.105,2.29,3.406c0.555,1.307,0.835,2.688,0.835,4.156
		c0,0.979-0.124,1.91-0.366,2.792c-0.247,0.883-0.589,1.709-1.03,2.479l0.347,0.351c0.304,0.305,0.526,0.629,0.665,0.979
		c0.143,0.353,0.209,0.692,0.209,1.046c0,0.398-0.081,0.771-0.242,1.135c-0.167,0.361-0.385,0.68-0.666,0.965
		c-0.281,0.274-0.599,0.494-0.959,0.664c-0.361,0.162-0.741,0.237-1.135,0.237c-0.746,0-1.42-0.284-2.023-0.874L36.824,20.518z
		 M26.978,11.194c0,0.68,0.124,1.307,0.366,1.885c0.24,0.58,0.588,1.094,1.029,1.539c0.442,0.438,0.955,0.785,1.534,1.03
		c0.584,0.237,1.211,0.366,1.886,0.366c0.304,0,0.479-0.008,0.527-0.039l-1.748-1.747c-0.579-0.599-0.874-1.282-0.874-2.022
		c0-0.399,0.081-0.774,0.247-1.136c0.161-0.361,0.384-0.679,0.66-0.959c0.28-0.281,0.604-0.499,0.964-0.665
		c0.36-0.161,0.736-0.242,1.135-0.242c0.346,0,0.698,0.066,1.045,0.208c0.353,0.138,0.674,0.361,0.979,0.666l1.853,1.853
		c0.023-0.124,0.038-0.242,0.052-0.366c0.01-0.133,0.016-0.251,0.016-0.371c0-0.674-0.124-1.311-0.38-1.905
		c-0.256-0.593-0.604-1.106-1.03-1.534c-0.433-0.431-0.946-0.773-1.539-1.03c-0.594-0.256-1.225-0.385-1.905-0.385
		c-0.675,0-1.302,0.128-1.886,0.384c-0.579,0.257-1.092,0.599-1.534,1.03c-0.44,0.428-0.789,0.941-1.029,1.534
		C27.102,9.884,26.978,10.521,26.978,11.194z"/>
</g>
<g enable-background="new    ">
	<path fill="none" stroke="#545454" stroke-width="0.8731" stroke-linecap="round" stroke-linejoin="round" d="M36.534,20.518
		c-0.746,0.398-1.548,0.708-2.408,0.926c-0.864,0.219-1.748,0.328-2.654,0.328c-1.469,0-2.855-0.273-4.156-0.836
		c-1.308-0.561-2.433-1.311-3.387-2.27c-0.955-0.951-1.716-2.08-2.271-3.383c-0.561-1.312-0.841-2.699-0.841-4.162
		c0-1.468,0.28-2.849,0.841-4.156c0.555-1.302,1.315-2.437,2.271-3.406c0.954-0.964,2.079-1.728,3.387-2.284
		c1.3-0.561,2.688-0.841,4.156-0.841c1.468,0,2.849,0.28,4.155,0.841c1.302,0.556,2.437,1.32,3.406,2.284
		c0.964,0.97,1.729,2.105,2.285,3.406c0.561,1.307,0.84,2.688,0.84,4.156c0,0.979-0.124,1.91-0.366,2.792
		c-0.247,0.883-0.589,1.709-1.029,2.479l0.347,0.351c0.304,0.305,0.521,0.629,0.665,0.979c0.137,0.353,0.208,0.692,0.208,1.046
		c0,0.398-0.081,0.771-0.242,1.135c-0.167,0.361-0.385,0.68-0.665,0.965c-0.281,0.274-0.599,0.494-0.96,0.664
		c-0.361,0.162-0.741,0.237-1.135,0.237c-0.746,0-1.421-0.284-2.029-0.874L36.534,20.518z M26.683,11.194
		c0,0.68,0.124,1.307,0.371,1.885c0.241,0.58,0.584,1.094,1.03,1.539c0.442,0.438,0.955,0.785,1.534,1.03
		c0.584,0.237,1.211,0.366,1.886,0.366c0.304,0,0.479-0.008,0.521-0.039l-1.743-1.747c-0.584-0.599-0.874-1.282-0.874-2.022
		c0-0.399,0.081-0.774,0.241-1.136c0.167-0.361,0.385-0.679,0.666-0.959c0.28-0.281,0.598-0.499,0.959-0.665
		c0.359-0.161,0.741-0.242,1.136-0.242c0.352,0,0.697,0.066,1.05,0.208c0.347,0.138,0.674,0.361,0.979,0.666l1.848,1.853
		c0.023-0.124,0.043-0.242,0.059-0.366c0.009-0.133,0.013-0.251,0.013-0.371c0-0.674-0.127-1.311-0.384-1.905
		c-0.257-0.593-0.6-1.106-1.03-1.534c-0.428-0.431-0.941-0.773-1.534-1.03c-0.595-0.256-1.23-0.385-1.905-0.385
		s-1.302,0.128-1.886,0.384c-0.58,0.257-1.092,0.599-1.534,1.03c-0.446,0.428-0.789,0.941-1.03,1.534
		C26.807,9.884,26.683,10.521,26.683,11.194z"/>
</g>
<path fill="#FFE664" d="M51.71,17.875c0,1.617-1.313,2.938-2.936,2.938c-1.621,0-2.936-1.318-2.936-2.938
	c0-1.625,1.314-2.936,2.936-2.936C50.396,14.941,51.71,16.25,51.71,17.875z"/>
<path fill="none" stroke="#545454" stroke-width="0.8731" stroke-linecap="round" stroke-linejoin="round" d="M52,17.875
	c0,1.617-1.313,2.938-2.936,2.938c-1.616,0-2.931-1.318-2.931-2.938c0-1.625,1.314-2.936,2.931-2.936
	C50.686,14.941,52,16.25,52,17.875z"/>
</svg>
