<?xml version="1.0" encoding="utf-8"?>
<!-- Generator: Adobe Illustrator 16.0.0, SVG Export Plug-In . SVG Version: 6.00 Build 0)  -->
<!DOCTYPE svg PUBLIC "-//W3C//DTD SVG 1.1//EN" "http://www.w3.org/Graphics/SVG/1.1/DTD/svg11.dtd">
<svg version="1.1" id="Layer_1" xmlns="http://www.w3.org/2000/svg" xmlns:xlink="http://www.w3.org/1999/xlink" x="0px" y="0px"
	 width="425.797px" height="92.628px" viewBox="0 0 425.797 92.628" enable-background="new 0 0 425.797 92.628"
	 xml:space="preserve">
<g opacity="0.3">
	<path fill="#1A726E" d="M59.042,53.109c0,15.282-7.44,22.92-22.32,22.92h-19.68c-6.321,0-9.48-3.199-9.48-9.6v-0.361
		c0.159-6.639,3.36-9.959,9.6-9.959h20.64c1.359,0,2.359-0.379,3-1.141c0.64-0.76,0.96-1.578,0.96-2.459s-0.32-1.699-0.96-2.461
		c-0.641-0.76-1.641-1.141-3-1.141h-10.2c-14.082,0-21.12-7.238-21.12-21.72c0-15.279,7.519-22.92,22.56-22.92h15.84
		c6.319,0,9.48,3.2,9.48,9.6v0.36c-0.161,6.641-3.36,9.96-9.6,9.96h-17.04c-1.361,0-2.361,0.381-3,1.14
		c-0.642,0.762-0.96,1.581-0.96,2.46c0,0.882,0.319,1.701,0.96,2.46c0.639,0.762,1.639,1.141,3,1.141h10.2
		C52.002,31.389,59.042,38.631,59.042,53.109z"/>
</g>
<g enable-background="new    ">
	<path fill="#FFE664" d="M67.304,52.08c0,15.281-7.44,22.92-22.32,22.92h-19.68c-6.321,0-9.48-3.199-9.48-9.6v-0.359
		c0.159-6.641,3.36-9.961,9.6-9.961h20.64c1.359,0,2.359-0.379,3-1.14c0.64-0.76,0.96-1.579,0.96-2.46c0-0.88-0.32-1.699-0.96-2.461
		c-0.641-0.76-1.641-1.141-3-1.141h-10.2c-14.082,0-21.12-7.238-21.12-21.719c0-15.279,7.519-22.92,22.56-22.92h15.84
		c6.319,0,9.48,3.2,9.48,9.6v0.36c-0.161,6.641-3.36,9.96-9.6,9.96h-17.04c-1.361,0-2.361,0.381-3,1.14
		c-0.642,0.762-0.96,1.581-0.96,2.46c0,0.882,0.319,1.701,0.96,2.46c0.639,0.762,1.639,1.141,3,1.141h10.2
		C60.264,30.361,67.304,37.602,67.304,52.08z"/>
</g>
<g opacity="0.3" enable-background="new    ">
	<path fill="#1A726E" d="M127.937,72.414c-2.561,1.36-5.321,2.42-8.28,3.18c-2.961,0.76-6,1.141-9.12,1.141
		c-5.04,0-9.801-0.961-14.28-2.881c-4.481-1.92-8.361-4.52-11.64-7.801c-3.281-3.278-5.88-7.157-7.8-11.639
		c-1.92-4.479-2.88-9.24-2.88-14.281c0-5.04,0.96-9.799,2.88-14.28c1.92-4.479,4.519-8.379,7.8-11.699
		c3.279-3.319,7.159-5.94,11.64-7.86c4.479-1.92,9.24-2.88,14.28-2.88s9.799,0.96,14.28,2.88c4.479,1.92,8.379,4.541,11.7,7.86
		c3.319,3.32,5.94,7.221,7.86,11.699c1.92,4.481,2.88,9.24,2.88,14.28c0,3.361-0.42,6.561-1.26,9.601
		c-0.84,3.041-2.021,5.881-3.54,8.52l1.2,1.201c1.039,1.039,1.8,2.16,2.28,3.358c0.48,1.2,0.72,2.399,0.72,3.601
		c0,1.361-0.281,2.66-0.84,3.899c-0.561,1.241-1.32,2.341-2.28,3.302c-0.96,0.959-2.061,1.721-3.3,2.278
		c-1.241,0.56-2.541,0.841-3.9,0.841c-2.561,0-4.88-1-6.96-3L127.937,72.414z M94.097,40.373c0,2.321,0.42,4.481,1.26,6.479
		c0.84,2.001,2.02,3.763,3.54,5.28c1.519,1.521,3.279,2.699,5.28,3.539c1.999,0.841,4.159,1.261,6.48,1.261
		c1.039,0,1.639-0.039,1.8-0.12l-6-6c-2-2.079-3-4.398-3-6.96c0-1.358,0.279-2.658,0.84-3.899c0.559-1.239,1.32-2.34,2.28-3.3
		s2.059-1.72,3.3-2.28c1.24-0.559,2.539-0.84,3.9-0.84c1.2,0,2.4,0.239,3.6,0.72c1.2,0.48,2.319,1.241,3.36,2.28l6.36,6.359
		c0.079-0.398,0.139-0.818,0.18-1.26c0.039-0.438,0.06-0.858,0.06-1.26c0-2.319-0.44-4.5-1.32-6.54
		c-0.881-2.04-2.061-3.799-3.54-5.28c-1.481-1.479-3.24-2.658-5.28-3.54c-2.04-0.879-4.221-1.319-6.54-1.319
		c-2.321,0-4.481,0.44-6.48,1.319c-2.001,0.882-3.761,2.061-5.28,3.54c-1.521,1.481-2.7,3.24-3.54,5.28
		C94.517,35.873,94.097,38.054,94.097,40.373z"/>
	<path fill="#1A726E" d="M238.457,10.853c0.641-2.399,1.72-4.14,3.24-5.22c1.519-1.08,3.197-1.62,5.039-1.62
		c1.199,0,2.4,0.222,3.601,0.66c1.2,0.44,2.28,1.08,3.24,1.92c0.96,0.84,1.739,1.86,2.34,3.061c0.601,1.199,0.899,2.52,0.899,3.96
		c0,1.04-0.2,2.24-0.601,3.6l-16.92,52.44c-0.72,2.321-1.979,4.04-3.78,5.159c-1.8,1.122-3.701,1.681-5.699,1.681
		c-2.082,0-4.021-0.58-5.819-1.74c-1.8-1.158-3.103-2.858-3.899-5.1l-9.121-26.4l-8.52,26.4c-0.72,2.321-1.98,4.04-3.78,5.159
		c-1.8,1.122-3.701,1.681-5.7,1.681c-2.081,0-4.02-0.58-5.82-1.74c-1.8-1.158-3.102-2.858-3.9-5.1l-18.12-52.681
		c-0.401-1.359-0.6-2.52-0.6-3.479c0-1.44,0.3-2.739,0.9-3.9c0.6-1.158,1.38-2.16,2.34-3c0.96-0.84,2.04-1.479,3.24-1.92
		c1.2-0.438,2.439-0.66,3.72-0.66c1.839,0,3.54,0.54,5.1,1.62c1.56,1.08,2.659,2.82,3.3,5.22l9.72,35.04l8.76-35.04
		c0.639-2.319,1.819-4.08,3.54-5.279c1.719-1.2,3.579-1.801,5.58-1.801c1.999,0,3.879,0.601,5.64,1.801
		c1.76,1.199,2.959,2.96,3.6,5.279l9.722,35.04L238.457,10.853z"/>
	<path fill="#1A726E" d="M304.096,62.333h-21.24l-3,7.68c-0.881,2.24-2.1,3.861-3.658,4.859c-1.561,1.002-3.262,1.5-5.102,1.5
		c-1.361,0-2.66-0.22-3.898-0.66c-1.241-0.438-2.383-1.08-3.422-1.92s-1.858-1.817-2.459-2.939c-0.601-1.119-0.899-2.398-0.899-3.84
		c0-1.439,0.279-2.76,0.84-3.961l23.64-52.199c1.039-2.238,2.439-3.918,4.201-5.04c1.758-1.119,3.559-1.68,5.399-1.68
		c1.839,0,3.618,0.561,5.34,1.68c1.72,1.122,3.019,2.802,3.899,5.04l21.721,52.199c0.559,1.201,0.84,2.521,0.84,3.961
		c0,1.361-0.3,2.621-0.899,3.779c-0.601,1.16-1.422,2.16-2.46,3c-1.04,0.84-2.201,1.481-3.479,1.92
		c-1.281,0.44-2.562,0.66-3.84,0.66c-1.842,0-3.562-0.498-5.16-1.5c-1.602-0.998-2.802-2.619-3.601-4.859L304.096,62.333z
		 M289.096,46.734h9.602l-4.44-12.841L289.096,46.734z"/>
	<path fill="#1A726E" d="M362.295,66.292c0,3.201-0.979,5.641-2.939,7.32c-1.962,1.68-4.261,2.52-6.899,2.52
		c-2.721,0-5.062-0.84-7.021-2.52c-1.961-1.681-2.938-4.119-2.938-7.32V14.453c0-3.199,0.979-5.641,2.938-7.32
		c1.96-1.68,4.301-2.52,7.021-2.52c2.64,0,4.938,0.84,6.899,2.52c1.96,1.68,2.939,4.121,2.939,7.32v16.439l16.08-22.92
		c1.119-1.2,2.28-2.118,3.48-2.76c1.198-0.64,2.599-0.96,4.198-0.96c1.359,0,2.659,0.281,3.9,0.84c1.239,0.561,2.34,1.281,3.3,2.16
		c0.96,0.881,1.72,1.94,2.28,3.18c0.559,1.241,0.84,2.502,0.84,3.78c0,2.321-0.761,4.361-2.28,6.12l-17.52,19.68l17.52,20.04
		c1.601,1.842,2.4,3.921,2.4,6.24c0,1.36-0.3,2.64-0.9,3.84c-0.6,1.199-1.38,2.24-2.34,3.119c-0.96,0.881-2.061,1.603-3.3,2.16
		c-1.241,0.562-2.501,0.84-3.78,0.84c-3.041,0-5.601-1.277-7.68-3.84l-16.2-22.561L362.295,66.292L362.295,66.292z"/>
</g>
<g>
	<path fill="#FFFFFF" d="M57.625,13.092v0.36c-0.161,6.641-3.36,9.96-9.6,9.96h2.331c6.24,0,9.439-3.319,9.6-9.96v-0.36
		c0-6.399-3.161-9.6-9.48-9.6H48.16C54.468,3.498,57.625,6.698,57.625,13.092z"/>
	<path fill="#FFFFFF" d="M43.516,30.613H41.2c14.069,0.005,21.105,7.246,21.105,21.719c0,15.281-7.44,22.92-22.32,22.92h2.331
		c14.88,0,22.32-7.639,22.32-22.92C64.636,37.854,57.595,30.613,43.516,30.613z"/>
</g>
<g enable-background="new    ">
	<path fill="none" stroke="#545454" stroke-width="3.5" stroke-linecap="round" stroke-linejoin="round" d="M66.303,52.08
		c0,15.281-7.44,22.92-22.32,22.92h-19.68c-6.321,0-9.48-3.199-9.48-9.6v-0.359c0.159-6.641,3.36-9.961,9.6-9.961h20.64
		c1.359,0,2.359-0.379,3-1.14c0.64-0.76,0.96-1.579,0.96-2.46c0-0.88-0.32-1.699-0.96-2.461c-0.641-0.76-1.641-1.141-3-1.141h-10.2
		c-14.082,0-21.12-7.238-21.12-21.719c0-15.279,7.519-22.92,22.56-22.92h15.84c6.319,0,9.48,3.2,9.48,9.6v0.36
		c-0.161,6.641-3.36,9.96-9.6,9.96h-17.04c-1.361,0-2.361,0.381-3,1.14c-0.642,0.762-0.96,1.581-0.96,2.46
		c0,0.882,0.319,1.701,0.96,2.46c0.639,0.762,1.639,1.141,3,1.141h10.2C59.263,30.361,66.303,37.602,66.303,52.08z"/>
</g>
<g enable-background="new    ">
	<path fill="#FFE664" d="M136.021,71.16c-2.561,1.361-5.321,2.422-8.28,3.18c-2.961,0.761-6,1.142-9.12,1.142
		c-5.04,0-9.801-0.961-14.28-2.881c-4.481-1.92-8.361-4.519-11.64-7.8c-3.281-3.279-5.88-7.158-7.8-11.641
		c-1.92-4.479-2.88-9.24-2.88-14.28c0-5.04,0.96-9.799,2.88-14.28c1.92-4.479,4.519-8.379,7.8-11.699
		c3.279-3.319,7.159-5.94,11.64-7.86c4.479-1.92,9.24-2.88,14.28-2.88s9.799,0.96,14.28,2.88c4.479,1.92,8.379,4.541,11.7,7.86
		c3.319,3.32,5.94,7.221,7.86,11.699c1.92,4.481,2.88,9.24,2.88,14.28c0,3.36-0.42,6.561-1.26,9.601
		c-0.84,3.041-2.021,5.88-3.54,8.521l1.2,1.199c1.039,1.041,1.8,2.16,2.28,3.359s0.72,2.4,0.72,3.602c0,1.36-0.281,2.659-0.84,3.898
		c-0.561,1.24-1.32,2.341-2.28,3.301s-2.061,1.721-3.3,2.279c-1.241,0.561-2.541,0.841-3.9,0.841c-2.561,0-4.88-1-6.96-3
		L136.021,71.16z M102.181,39.12c0,2.321,0.42,4.481,1.26,6.479c0.84,2.001,2.02,3.762,3.54,5.279
		c1.519,1.521,3.279,2.701,5.28,3.541c1.999,0.84,4.159,1.26,6.48,1.26c1.039,0,1.639-0.039,1.8-0.12l-6-6c-2-2.079-3-4.397-3-6.96
		c0-1.359,0.279-2.658,0.84-3.899c0.559-1.239,1.32-2.34,2.28-3.3s2.059-1.72,3.3-2.28c1.24-0.559,2.539-0.84,3.9-0.84
		c1.2,0,2.4,0.239,3.6,0.72c1.2,0.48,2.319,1.241,3.36,2.28l6.36,6.359c0.079-0.399,0.139-0.819,0.18-1.26
		c0.039-0.438,0.06-0.858,0.06-1.26c0-2.319-0.44-4.5-1.32-6.54c-0.881-2.04-2.061-3.799-3.54-5.28
		c-1.481-1.479-3.24-2.658-5.28-3.54c-2.04-0.879-4.221-1.319-6.54-1.319c-2.321,0-4.481,0.44-6.48,1.319
		c-2.001,0.882-3.761,2.061-5.28,3.54c-1.521,1.481-2.7,3.24-3.54,5.28C102.601,34.62,102.181,36.801,102.181,39.12z"/>
	<path fill="#FFE664" d="M246.541,9.6c0.641-2.399,1.721-4.14,3.24-5.22c1.519-1.08,3.197-1.62,5.039-1.62
		c1.199,0,2.4,0.222,3.601,0.66c1.2,0.44,2.28,1.08,3.24,1.92c0.96,0.84,1.739,1.86,2.34,3.061c0.601,1.199,0.899,2.52,0.899,3.96
		c0,1.04-0.2,2.24-0.6,3.6l-16.92,52.44c-0.721,2.321-1.98,4.04-3.781,5.159c-1.799,1.122-3.701,1.682-5.699,1.682
		c-2.082,0-4.02-0.58-5.819-1.74s-3.103-2.859-3.899-5.101L219.061,42l-8.521,26.4c-0.72,2.321-1.98,4.04-3.78,5.159
		c-1.8,1.122-3.701,1.681-5.7,1.681c-2.081,0-4.02-0.58-5.82-1.74c-1.8-1.158-3.102-2.858-3.9-5.1l-18.12-52.681
		c-0.401-1.359-0.6-2.52-0.6-3.479c0-1.44,0.3-2.739,0.9-3.9c0.6-1.158,1.38-2.16,2.34-3c0.96-0.84,2.04-1.479,3.24-1.92
		c1.2-0.438,2.439-0.66,3.72-0.66c1.839,0,3.54,0.54,5.1,1.62s2.659,2.82,3.3,5.22l9.72,35.04L209.7,9.6
		c0.639-2.319,1.819-4.08,3.54-5.279c1.719-1.2,3.578-1.801,5.58-1.801c1.998,0,3.879,0.601,5.64,1.801
		c1.759,1.199,2.959,2.96,3.601,5.279l9.721,35.04L246.541,9.6z"/>
	<path fill="#FFE664" d="M312.18,61.08h-21.24l-3,7.68c-0.881,2.242-2.1,3.861-3.658,4.861c-1.561,1-3.262,1.5-5.102,1.5
		c-1.361,0-2.66-0.221-3.898-0.66c-1.241-0.438-2.383-1.08-3.422-1.92s-1.858-1.818-2.459-2.94c-0.6-1.119-0.899-2.399-0.899-3.841
		c0-1.438,0.278-2.76,0.84-3.959l23.642-52.2c1.039-2.238,2.438-3.918,4.199-5.04c1.76-1.119,3.559-1.68,5.399-1.68
		c1.84,0,3.619,0.561,5.34,1.68c1.72,1.122,3.021,2.802,3.9,5.04l21.72,52.2c0.559,1.199,0.84,2.521,0.84,3.959
		c0,1.361-0.3,2.621-0.898,3.781c-0.602,1.16-1.423,2.16-2.461,3c-1.04,0.84-2.201,1.48-3.479,1.92
		c-1.28,0.439-2.562,0.66-3.84,0.66c-1.841,0-3.562-0.5-5.16-1.5c-1.601-1-2.802-2.619-3.601-4.861L312.18,61.08z M297.18,45.481
		h9.602l-4.44-12.841L297.18,45.481z"/>
	<path fill="#FFE664" d="M370.379,65.041c0,3.199-0.979,5.64-2.938,7.319c-1.963,1.681-4.261,2.521-6.9,2.521
		c-2.721,0-5.062-0.84-7.021-2.521c-1.962-1.681-2.939-4.12-2.939-7.319V13.2c0-3.199,0.979-5.641,2.939-7.32
		c1.96-1.68,4.3-2.52,7.021-2.52c2.641,0,4.938,0.84,6.9,2.52c1.959,1.68,2.938,4.121,2.938,7.32v16.44l16.08-22.92
		c1.119-1.2,2.28-2.118,3.48-2.76c1.198-0.64,2.599-0.96,4.198-0.96c1.359,0,2.659,0.281,3.9,0.84c1.239,0.561,2.34,1.281,3.3,2.16
		c0.96,0.881,1.72,1.94,2.28,3.18c0.559,1.241,0.84,2.502,0.84,3.78c0,2.321-0.761,4.361-2.28,6.12l-17.52,19.68l17.52,20.041
		c1.601,1.842,2.4,3.921,2.4,6.24c0,1.36-0.3,2.64-0.9,3.84c-0.6,1.199-1.38,2.24-2.34,3.119c-0.96,0.881-2.061,1.603-3.3,2.16
		c-1.241,0.562-2.501,0.84-3.78,0.84c-3.041,0-5.601-1.277-7.68-3.84l-16.2-22.561L370.379,65.041L370.379,65.041z"/>
</g>
<path fill="#FFFFFF" d="M400.061,58.414l-17.52-20.04l17.52-19.68c1.521-1.759,2.279-3.799,2.279-6.12
	c0-1.278-0.281-2.539-0.84-3.78c-0.561-1.239-1.32-2.299-2.279-3.18c-0.961-0.879-2.061-1.6-3.301-2.16
	c-1.24-0.559-2.541-0.84-3.9-0.84c-0.54,0-1.05,0.05-1.545,0.124c0.841,0.129,1.658,0.36,2.449,0.716
	c1.24,0.561,2.34,1.281,3.301,2.16c7.759,7.143,2.342,10.809,0.841,13.08c0,0-16.729,18.078-16.999,19.919
	c-0.271,1.841,17.607,20.868,17.607,20.868c4.787,5.173,2.101,9.733-1.449,12.132c-1.08,0.729-2.061,1.602-3.301,2.16
	c-0.771,0.35-1.551,0.576-2.337,0.707c0.505,0.079,1.02,0.133,1.554,0.133c1.279,0,2.539-0.279,3.779-0.84
	c1.24-0.559,2.34-1.279,3.301-2.16c0.959-0.879,1.74-1.92,2.34-3.119c0.601-1.201,0.9-2.479,0.9-3.84
	C402.461,62.333,401.661,60.255,400.061,58.414z"/>
<g>
	<path fill="#FFFFFF" d="M331.763,63.445l-22.107-52.723c-0.894-2.259-2.249-3.97-4.069-5.135c-1.82-1.161-3.717-1.766-5.691-1.811
		c-1.976-0.045-3.92,0.471-5.832,1.545c-0.1,0.057-0.187,0.132-0.285,0.191c1.387-0.545,2.789-0.814,4.205-0.782
		c1.976,0.046,3.873,0.65,5.692,1.811c1.821,1.165,3.176,2.876,4.07,5.135L329.852,64.4c0.571,1.215,0.844,2.54,0.811,3.979
		c-0.031,1.361-0.384,2.613-1.054,3.758c-0.671,1.145-1.575,2.123-2.709,2.938c-0.242,0.174-0.491,0.332-0.745,0.488
		c0.949-0.377,1.837-0.855,2.656-1.443c1.134-0.812,2.038-1.793,2.708-2.938c0.671-1.144,1.022-2.396,1.055-3.757
		C332.606,65.985,332.334,64.658,331.763,63.445z"/>
</g>
<g>
	<path fill="#FFFFFF" d="M261.381,8.014c-0.6-1.2-1.381-2.221-2.34-3.061c-0.961-0.84-2.041-1.479-3.24-1.92
		c-1.199-0.438-2.4-0.66-3.6-0.66c-0.457,0-0.903,0.034-1.34,0.101c0.758,0.103,1.515,0.283,2.271,0.56
		c1.201,0.44,2.281,1.08,3.24,1.92c0.961,0.84,1.739,1.86,2.34,3.061c0.603,1.199,0.899,2.52,0.899,3.96c0,1.04-0.198,2.24-0.6,3.6
		l-16.92,52.441c-0.721,2.319-1.98,4.039-3.779,5.157c-1.395,0.869-2.852,1.393-4.365,1.588c0.438,0.055,0.881,0.095,1.332,0.095
		c1.998,0,3.9-0.56,5.699-1.683c1.801-1.118,3.062-2.838,3.78-5.157l16.921-52.441c0.398-1.359,0.6-2.56,0.6-3.6
		C262.282,10.534,261.98,9.214,261.381,8.014z"/>
</g>
<g>
	<path fill="#FFFFFF" d="M150.314,57.041l-1.2-1.199c1.519-2.641,2.7-5.479,3.54-8.521c0.84-3.04,1.26-6.239,1.26-9.601
		c0-5.04-0.96-9.799-2.88-14.28c-1.92-4.479-4.541-8.379-7.86-11.699c-3.321-3.319-7.221-5.94-11.7-7.86
		c-4.481-1.92-9.24-2.88-14.28-2.88s-9.801,0.96-14.28,2.88c-1.378,0.59-2.693,1.255-3.958,1.979c0.102-0.045,0.2-0.094,0.303-0.138
		c4.479-1.92,9.24-2.88,14.28-2.88s9.799,0.96,14.28,2.88c4.479,1.92,8.379,4.541,11.7,7.86c3.319,3.32,5.94,7.221,7.86,11.699
		c1.92,4.481,2.88,9.24,2.88,14.28c0,3.36-0.42,6.562-1.26,9.601c-0.84,3.041-2.021,5.881-3.54,8.521l1.2,1.2
		c1.039,1.039,1.8,2.16,2.28,3.359s0.72,2.399,0.72,3.6c0,1.361-0.281,2.66-0.84,3.9c-0.561,1.24-1.32,2.34-2.28,3.301
		c-0.343,0.342-0.709,0.649-1.088,0.941c0.489-0.132,0.972-0.292,1.443-0.504c1.239-0.559,2.34-1.318,3.3-2.279
		c0.96-0.959,1.719-2.06,2.28-3.301c0.559-1.238,0.84-2.538,0.84-3.898c0-1.201-0.24-2.4-0.72-3.602
		C152.114,59.201,151.353,58.082,150.314,57.041z"/>
</g>
<g enable-background="new    ">
	<path fill="none" stroke="#545454" stroke-width="3.5" stroke-linecap="round" stroke-linejoin="round" d="M135.02,71.16
		c-2.561,1.361-5.321,2.422-8.28,3.18c-2.961,0.761-6,1.142-9.12,1.142c-5.04,0-9.801-0.961-14.28-2.881
		c-4.481-1.92-8.361-4.519-11.64-7.8c-3.281-3.279-5.88-7.158-7.8-11.641c-1.92-4.479-2.88-9.24-2.88-14.28
		c0-5.04,0.96-9.799,2.88-14.28c1.92-4.479,4.519-8.379,7.8-11.699c3.279-3.319,7.159-5.94,11.64-7.86
		c4.479-1.92,9.24-2.88,14.28-2.88s9.799,0.96,14.28,2.88c4.479,1.92,8.379,4.541,11.7,7.86c3.319,3.32,5.94,7.221,7.86,11.699
		c1.92,4.481,2.88,9.24,2.88,14.28c0,3.36-0.42,6.561-1.26,9.601c-0.84,3.041-2.021,5.88-3.54,8.521l1.2,1.199
		c1.039,1.041,1.8,2.16,2.28,3.359s0.72,2.4,0.72,3.602c0,1.36-0.281,2.659-0.84,3.898c-0.561,1.24-1.32,2.341-2.28,3.301
		s-2.061,1.721-3.3,2.279c-1.241,0.561-2.541,0.841-3.9,0.841c-2.561,0-4.88-1-6.96-3L135.02,71.16z M101.18,39.12
		c0,2.321,0.42,4.481,1.26,6.479c0.84,2.001,2.02,3.762,3.54,5.279c1.519,1.521,3.279,2.701,5.28,3.541
		c1.999,0.84,4.159,1.26,6.48,1.26c1.039,0,1.639-0.039,1.8-0.12l-6-6c-2-2.079-3-4.397-3-6.96c0-1.359,0.279-2.658,0.84-3.899
		c0.559-1.239,1.32-2.34,2.28-3.3s2.059-1.72,3.3-2.28c1.24-0.559,2.539-0.84,3.9-0.84c1.2,0,2.4,0.239,3.6,0.72
		c1.2,0.48,2.319,1.241,3.36,2.28l6.36,6.359c0.079-0.399,0.139-0.819,0.18-1.26c0.039-0.438,0.06-0.858,0.06-1.26
		c0-2.319-0.44-4.5-1.32-6.54c-0.881-2.04-2.061-3.799-3.54-5.28c-1.481-1.479-3.24-2.658-5.28-3.54
		c-2.04-0.879-4.221-1.319-6.54-1.319c-2.321,0-4.481,0.44-6.48,1.319c-2.001,0.882-3.761,2.061-5.28,3.54
		c-1.521,1.481-2.7,3.24-3.54,5.28C101.6,34.62,101.18,36.801,101.18,39.12z"/>
	<path fill="none" stroke="#545454" stroke-width="3.5" stroke-linecap="round" stroke-linejoin="round" d="M245.54,9.6
		c0.64-2.399,1.72-4.14,3.239-5.22s3.199-1.62,5.041-1.62c1.199,0,2.398,0.222,3.6,0.66c1.2,0.44,2.28,1.08,3.24,1.92
		c0.96,0.84,1.74,1.86,2.34,3.061c0.602,1.199,0.9,2.52,0.9,3.96c0,1.04-0.2,2.24-0.602,3.6l-16.92,52.44
		c-0.72,2.321-1.979,4.04-3.779,5.159c-1.801,1.122-3.701,1.682-5.699,1.682c-2.082,0-4.021-0.58-5.82-1.74
		c-1.801-1.16-3.102-2.859-3.898-5.101L218.059,42l-8.52,26.4c-0.72,2.321-1.98,4.04-3.78,5.159c-1.8,1.122-3.701,1.681-5.7,1.681
		c-2.081,0-4.02-0.58-5.82-1.74c-1.8-1.158-3.102-2.858-3.9-5.1L172.22,15.72c-0.401-1.359-0.6-2.52-0.6-3.479
		c0-1.44,0.3-2.739,0.9-3.9c0.6-1.158,1.38-2.16,2.34-3c0.96-0.84,2.04-1.479,3.24-1.92c1.2-0.438,2.439-0.66,3.72-0.66
		c1.839,0,3.54,0.54,5.1,1.62s2.659,2.82,3.3,5.22l9.72,35.04L208.7,9.6c0.639-2.319,1.819-4.08,3.54-5.279
		c1.72-1.2,3.578-1.801,5.58-1.801c1.998,0,3.88,0.601,5.64,1.801c1.759,1.199,2.959,2.96,3.601,5.279l9.721,35.04L245.54,9.6z"/>
	<path fill="none" stroke="#545454" stroke-width="3.5" stroke-linecap="round" stroke-linejoin="round" d="M311.18,61.08h-21.24
		l-3,7.68c-0.881,2.242-2.101,3.861-3.66,4.861c-1.561,1-3.26,1.5-5.1,1.5c-1.361,0-2.66-0.221-3.9-0.66
		c-1.24-0.438-2.381-1.08-3.42-1.92c-1.041-0.84-1.859-1.818-2.461-2.94c-0.6-1.119-0.898-2.399-0.898-3.841
		c0-1.438,0.279-2.76,0.84-3.959L291.98,9.6c1.039-2.238,2.438-3.918,4.201-5.04c1.758-1.119,3.559-1.68,5.398-1.68
		c1.839,0,3.617,0.561,5.34,1.68c1.72,1.122,3.02,2.802,3.9,5.04l21.72,52.2c0.559,1.199,0.84,2.521,0.84,3.959
		c0,1.361-0.3,2.621-0.9,3.781c-0.6,1.16-1.421,2.16-2.459,3c-1.041,0.84-2.2,1.48-3.479,1.92c-1.281,0.439-2.562,0.66-3.84,0.66
		c-1.842,0-3.562-0.5-5.16-1.5c-1.603-1-2.801-2.619-3.6-4.861L311.18,61.08z M296.18,45.481h9.6L301.34,32.64L296.18,45.481z"/>
	<path fill="none" stroke="#545454" stroke-width="3.5" stroke-linecap="round" stroke-linejoin="round" d="M369.378,65.041
		c0,3.199-0.979,5.64-2.94,7.319c-1.961,1.681-4.26,2.521-6.898,2.521c-2.721,0-5.062-0.84-7.021-2.521
		c-1.961-1.681-2.938-4.12-2.938-7.319V13.2c0-3.199,0.979-5.641,2.938-7.32c1.96-1.68,4.301-2.52,7.021-2.52
		c2.64,0,4.938,0.84,6.898,2.52c1.961,1.68,2.94,4.121,2.94,7.32v16.44l16.08-22.92c1.12-1.2,2.28-2.118,3.479-2.76
		c1.199-0.64,2.6-0.96,4.199-0.96c1.359,0,2.659,0.281,3.9,0.84c1.239,0.561,2.34,1.281,3.3,2.16c0.96,0.881,1.72,1.94,2.28,3.18
		c0.559,1.241,0.84,2.502,0.84,3.78c0,2.321-0.761,4.361-2.28,6.12l-17.52,19.68l17.52,20.041c1.601,1.842,2.4,3.921,2.4,6.24
		c0,1.36-0.3,2.64-0.9,3.84c-0.6,1.199-1.38,2.24-2.34,3.119c-0.96,0.881-2.061,1.603-3.3,2.16c-1.241,0.562-2.501,0.84-3.78,0.84
		c-3.041,0-5.601-1.277-7.68-3.84l-16.2-22.561L369.378,65.041L369.378,65.041z"/>
</g>
</svg>
