<?xml version="1.0" encoding="utf-8"?>
<!-- Generator: Adobe Illustrator 16.0.0, SVG Export Plug-In . SVG Version: 6.00 Build 0)  -->
<!DOCTYPE svg PUBLIC "-//W3C//DTD SVG 1.1//EN" "http://www.w3.org/Graphics/SVG/1.1/DTD/svg11.dtd">
<svg version="1.1" id="Layer_1" xmlns="http://www.w3.org/2000/svg" xmlns:xlink="http://www.w3.org/1999/xlink" x="0px" y="0px"
	 width="425.798px" height="122.18px" viewBox="-2.79 -22.75 425.798 122.18" enable-background="new -2.79 -22.75 425.798 122.18"
	 xml:space="preserve">
<text transform="matrix(1 0 0 1 -1.1401 75)" fill="#FF7373" font-family="'Junegull'" font-size="120" letter-spacing="12">S</text>
<text transform="matrix(1 0 0 1 -1.1401 75)" fill="none" stroke="#545454" stroke-width="3.3" font-family="'Junegull'" font-size="120" letter-spacing="12">S</text>
<text transform="matrix(1 0 0 1 70.7402 75)" fill="#FF7373" font-family="'Junegull'" font-size="120" letter-spacing="10">qwak</text>
<text transform="matrix(1 0 0 1 70.7402 75)" fill="none" stroke="#545454" stroke-width="3.3" font-family="'Junegull'" font-size="120" letter-spacing="10">qwak</text>
<text transform="matrix(1 0 0 1 7.2607 75)" fill="#FFE664" font-family="'Junegull'" font-size="120" letter-spacing="12">S</text>
<text transform="matrix(1 0 0 1 7.2607 75)" fill="none" stroke="#545454" stroke-width="3.5" font-family="'Junegull'" font-size="120" letter-spacing="12">S</text>
<text transform="matrix(1 0 0 1 79.1396 75)" fill="#FFE664" font-family="'Junegull'" font-size="120" letter-spacing="12"> </text>
<text transform="matrix(1 0 0 1 79.1396 75)" fill="none" stroke="#545454" stroke-width="1.4" font-family="'Junegull'" font-size="120" letter-spacing="12"> </text>
<text transform="matrix(1 0 0 1 79.1411 75)" fill="#FFE664" font-family="'Junegull'" font-size="120" letter-spacing="10">qwak</text>
<text transform="matrix(1 0 0 1 79.1411 75)" fill="none" stroke="#545454" stroke-width="3.5" font-family="'Junegull'" font-size="120" letter-spacing="10">qwak</text>
</svg>
