<?xml version="1.0" encoding="utf-8"?>
<!DOCTYPE svg PUBLIC "-//W3C//DTD SVG 1.1//EN" "http://www.w3.org/Graphics/SVG/1.1/DTD/svg11.dtd">
<svg version="1.1" xmlns="http://www.w3.org/2000/svg" xmlns:xlink="http://www.w3.org/1999/xlink" x="0px" y="0px" width="36px"
	 height="22px" viewBox="0 0 148 119" enable-background="new 0 0 148 119" xml:space="preserve">

<g id="Layer_20">
	<g>
		<path fill="#11B2BA" d="M75.368,65.031v4.326c0,1.863-1.398,3.261-3.262,3.261c-1.73,0-3.261-1.397-3.261-3.261v-6.923
			c0-0.066,0.067-0.066,0.067-0.133c-0.067-0.066-0.067-0.066-0.067-0.133c0-1.73,1.531-3.262,3.261-3.262
			c4.193,0,7.588-3.328,7.588-7.454c0-4.193-3.395-7.455-7.588-7.455c-2.729,0-5.125,1.465-6.39,3.661
			c-0.932,1.598-2.928,2.13-4.526,1.198c-1.531-0.933-2.063-2.862-1.131-4.46c2.396-4.127,6.922-6.922,12.047-6.922
			c7.721,0,14.044,6.257,14.044,13.978C86.15,58.042,81.558,63.566,75.368,65.031z M75.368,79.607v1.198
			c0,1.863-1.398,3.261-3.262,3.261c-1.73,0-3.261-1.397-3.261-3.261v-1.198c0-1.797,1.531-3.262,3.261-3.262
			C73.97,76.346,75.368,77.811,75.368,79.607z"/>
	</g>
	<path fill="#8AF9F9" d="M7.942,70.238c0,11.76,3.128,22.788,8.599,32.299c44.055,0.676,83.449,1.842,111.745,1.365
		c5.969-9.814,9.406-21.337,9.406-33.664c0-35.828-29.046-64.874-64.875-64.874C36.988,5.364,7.942,34.41,7.942,70.238z"/>
	<path fill="#68E1EA" d="M74.148,5.897c2.338,0,4.647,0.126,6.921,0.368C48.495,9.72,23.117,37.281,23.117,70.771
		c0,11.76,3.128,22.787,8.598,32.298c33.64,0.517,26.201,0.614-13.843,0c-5.47-9.511-8.599-20.538-8.599-32.298
		C9.273,34.942,38.319,5.897,74.148,5.897z"/>
	<path fill="none" stroke="#545454" stroke-width="4" stroke-linecap="round" stroke-linejoin="round" stroke-miterlimit="10" d="
		M7.942,70.238c0,11.76,3.128,22.788,8.599,32.299c44.055,0.676,83.449,1.842,111.745,1.365c5.969-9.814,9.406-21.337,9.406-33.664
		c0-35.828-29.046-64.874-64.875-64.874C36.988,5.364,7.942,34.41,7.942,70.238z"/>
	<path fill="#F9E76B" d="M141,104.347c0-4.058-3.289-7.347-7.346-7.347H12.346C8.289,97,5,100.289,5,104.347v0.307
		C5,108.711,8.289,112,12.346,112h121.308c4.057,0,7.346-3.289,7.346-7.347V104.347z"/>
	<path fill="#F4CE2F" d="M12.141,96h18.02C26.6,96,23,99.373,23,103.477v0.046c0,4.104,3.6,7.478,7.161,7.478h-18.02
		C8.58,111,5,107.626,5,103.522v-0.046C5,99.373,8.58,96,12.141,96z"/>
	
		<path fill="none" stroke="#FFFFFF" stroke-width="5.5905" stroke-linecap="round" stroke-linejoin="round" stroke-miterlimit="10" d="
		M110.712,29.246c-1.117-1.271-2.235-2.358-3.326-3.215"/>
	
		<path fill="none" stroke="#FFFFFF" stroke-width="5.5905" stroke-linecap="round" stroke-linejoin="round" stroke-miterlimit="10" d="
		M124.512,54.689c-1.619-6.581-4.953-13.64-8.693-19.104"/>
	<path fill="none" stroke="#545454" stroke-width="4" stroke-linecap="round" stroke-linejoin="round" stroke-miterlimit="10" d="
		M142,103.346c0-4.057-3.289-7.346-7.346-7.346H13.346C9.289,96,6,99.289,6,103.346v0.309C6,107.711,9.289,111,13.346,111h121.308
		c4.057,0,7.346-3.289,7.346-7.346V103.346z"/>
</g>
</svg>
