<?xml version="1.0" encoding="utf-8"?>
<!-- Generator: Adobe Illustrator 16.0.0, SVG Export Plug-In . SVG Version: 6.00 Build 0)  -->
<!DOCTYPE svg PUBLIC "-//W3C//DTD SVG 1.1//EN" "http://www.w3.org/Graphics/SVG/1.1/DTD/svg11.dtd">
<svg version="1.1" xmlns="http://www.w3.org/2000/svg" xmlns:xlink="http://www.w3.org/1999/xlink" x="0px" y="0px"
	 width="614.666px" height="617.555px" viewBox="0 51.5 614.666 617.555" enable-background="new 0 51.5 614.666 617.555"
	 xml:space="preserve">
<g id="Layer_1">
	<path fill="#C5CFDA" d="M605.897,630.103l-175.28-175.306c37.881-44.184,58.682-100.474,58.633-158.672
		C489.25,161.022,379.728,51.5,244.625,51.5S0,161.022,0,296.125S109.522,540.75,244.625,540.75
		c60.59,0,115.927-22.145,158.672-58.633l175.306,175.28c7.804,7.271,20.023,6.84,27.295-0.964
		C612.809,649.017,612.809,637.52,605.897,630.103z M245.635,491.114c-108.8,0-197-88.2-197-197s88.2-197,197-197s197,88.2,197,197
		S354.435,491.114,245.635,491.114z"/>
</g>
<g id="Layer_2">
	<path fill="#C5CFDA" d="M607.097,628.402c9.667,9.561,10.139,24.762,1.048,33.952l0,0c-9.088,9.19-24.293,8.888-33.961-0.673
		L392.012,481.505c-9.668-9.561-10.14-24.763-1.049-33.953l0,0c9.088-9.191,24.293-8.887,33.962,0.674L607.097,628.402z"/>
</g>
</svg>
