<?xml version="1.0" encoding="UTF-8"?>
<svg width="26px" height="24px" viewBox="0 0 26 24" version="1.1" xmlns="http://www.w3.org/2000/svg" xmlns:xlink="http://www.w3.org/1999/xlink">
    <!-- Generator: Sketch 41.2 (35397) - http://www.bohemiancoding.com/sketch -->
    <title>Star</title>
    <desc>Created with Sketch.</desc>
    <defs></defs>
    <g id="Page-1" stroke="none" stroke-width="1" fill="none" fill-rule="evenodd">
        <g id="new-app---multiple-classes-selected" transform="translate(-1099.000000, -92.000000)" stroke="#545454" stroke-width="0.7" fill="#FFE664">
            <g id="train-nav" transform="translate(316.000000, 69.000000)">
                <g id="publish" transform="translate(786.000000, 24.000000)">
                    <path d="M9.72041956,19.1790405 L4.63559189,21.8842333 C2.68711489,22.9208477 1.41870142,21.9990673 1.80243277,19.8258227 L2.80392581,14.1539137 L-1.34016355,10.1539057 C-2.928155,8.62112545 -2.443451,7.12994672 -0.257993062,6.82332742 L5.44579134,6.02308762 L7.96943092,0.845753996 C8.93647524,-1.13817077 10.5044523,-1.13798944 11.4714082,0.845753996 L13.9950478,6.02308762 L19.6988322,6.82332742 C21.8844899,7.12997475 22.368849,8.62126554 20.7810027,10.1539057 L16.6369133,14.1539137 L17.6384063,19.8258227 C18.0221728,21.9992659 16.7535461,22.920753 14.8052472,21.8842333 L9.72041956,19.1790405 Z" id="Star"></path>
                </g>
            </g>
        </g>
    </g>
</svg>