<?xml version="1.0" encoding="utf-8"?>
<!-- Generator: Adobe Illustrator 16.0.0, SVG Export Plug-In . SVG Version: 6.00 Build 0)  -->
<!DOCTYPE svg PUBLIC "-//W3C//DTD SVG 1.1//EN" "http://www.w3.org/Graphics/SVG/1.1/DTD/svg11.dtd">
<svg version="1.1" id="Layer_1" xmlns="http://www.w3.org/2000/svg" xmlns:xlink="http://www.w3.org/1999/xlink" x="0px" y="0px"
	 width="23.991px" height="23.637px" viewBox="0.725 -0.577 23.991 23.637" enable-background="new 0.725 -0.577 23.991 23.637"
	 xml:space="preserve">
<g id="Page-1">
	<g id="new-app---training-complete" transform="translate(-1099.000000, -92.000000)">
		<g id="train-nav" transform="translate(316.000000, 69.000000)">
			<g id="publish" transform="translate(786.000000, 24.000000)">
				<path id="Star" fill="#FCD73F" d="M10.159,19.412c-0.242-0.129-0.635-0.129-0.878,0l-4.938,2.307
					c-1.949,1.036-2.959-0.415-2.576-2.588l0.95-4.487C2.765,14.373,2.644,14,2.446,13.809l-3.787-3.655
					c-1.435-1.716-1.095-3.66,1.09-3.966l5.204-0.095c0.272-0.038,0.589-0.269,0.71-0.516l2.306-4.73
					c0.967-1.984,2.535-1.984,3.501,0l2.307,4.73c0.12,0.247,0.438,0.478,0.71,0.516l5.138,0.031
					c2.186,0.307,2.875,2.251,0.979,4.201l-3.61,3.484c-0.197,0.191-0.318,0.564-0.271,0.835l0.916,4.249
					c0.383,2.173-0.564,3.831-2.514,2.795L10.159,19.412z"/>
			</g>
		</g>
	</g>
</g>
<g id="Page-1_1_">
	<g id="new-app---training-complete_1_" transform="translate(-1099.000000, -92.000000)">
		<g id="train-nav_1_" transform="translate(316.000000, 69.000000)">
			<g id="publish_1_" transform="translate(786.000000, 24.000000)">
				<path id="Star_1_" fill="#FFE36C" d="M10.171,18.017c-0.235-0.124-0.618-0.124-0.855,0l-4.523,2.362
					c-1.897,0.987-3.132,0.106-2.759-1.968l0.891-4.95c0.046-0.257-0.071-0.614-0.264-0.798l-3.687-3.489
					C-2.572,7.708-2.1,6.285,0.028,5.991l5.075-0.697C5.368,5.257,5.677,5.037,5.794,4.8l2.245-4.518
					c0.942-1.895,2.468-1.895,3.41,0L13.694,4.8c0.117,0.237,0.426,0.457,0.691,0.494l5.074,0.697
					c2.129,0.294,2.601,1.717,1.054,3.183l-3.687,3.489c-0.192,0.184-0.311,0.541-0.266,0.798l0.893,4.95
					c0.373,2.074-0.861,2.955-2.759,1.968L10.171,18.017z"/>
			</g>
		</g>
	</g>
</g>
</svg>
