<?xml version="1.0" encoding="utf-8"?>
<!-- Generator: Adobe Illustrator 16.0.0, SVG Export Plug-In . SVG Version: 6.00 Build 0)  -->
<!DOCTYPE svg PUBLIC "-//W3C//DTD SVG 1.1//EN" "http://www.w3.org/Graphics/SVG/1.1/DTD/svg11.dtd">
<svg version="1.1" id="Layer_1" xmlns="http://www.w3.org/2000/svg" xmlns:xlink="http://www.w3.org/1999/xlink" x="0px" y="0px"
	 width="30.177px" height="24.091px" viewBox="-4.732 -1.213 30.177 24.091" enable-background="new -4.732 -1.213 30.177 24.091"
	 xml:space="preserve">
<path fill="#66E5F2" stroke="#66E5F2" stroke-width="0.9344" stroke-linecap="round" stroke-linejoin="round" stroke-miterlimit="10" d="
	M18.176,2.374l0.01,0.011l0.006,0.005l0.002,0.002l0.008,0.007L18.203,2.4l0.002,0.003c0.021,0.012,0.024,0.021,0.035,0.032
	c1.994,1.994,3.143,4.725,3.187,7.547l3.179-0.022c0.151,0,0.29,0.092,0.343,0.229c0.059,0.139,0.03,0.3-0.079,0.409l-5.196,5.196
	c-0.146,0.147-0.384,0.145-0.527,0.001l-5.134-5.133L14,10.65c-0.146-0.146-0.146-0.382,0-0.528c0.098-0.098,0.236-0.13,0.361-0.098
	l3.132-0.019c-0.032-1.813-0.749-3.506-2.071-4.827C12.712,2.5,8.309,2.513,5.57,5.25C4.732,4.412,4.671,4.275,2.828,2.432
	C7.043-1.782,13.921-1.809,18.176,2.374"/>
<path fill="#66E5F2" stroke="#66E5F2" stroke-width="0.9344" stroke-linecap="round" stroke-linejoin="round" stroke-miterlimit="10" d="
	M2.536,19.291l-0.011-0.01L2.52,19.275l-0.002-0.004l-0.006-0.005l-0.001-0.003l-0.002-0.002c-0.021-0.011-0.024-0.021-0.035-0.031
	c-1.995-1.995-3.144-4.725-3.186-7.547l-3.178,0.021c-0.152,0-0.291-0.092-0.345-0.229c-0.057-0.139-0.027-0.301,0.08-0.408
	L1.04,5.871c0.146-0.146,0.383-0.145,0.527,0l5.132,5.132l0.012,0.012c0.145,0.146,0.145,0.382,0,0.528
	c-0.099,0.098-0.238,0.13-0.36,0.094L3.218,11.66c0.032,1.813,0.75,3.503,2.07,4.825c2.71,2.681,7.114,2.668,9.852-0.07
	c0.82,0.82,1.84,1.918,2.74,2.819C13.669,23.446,6.791,23.474,2.536,19.291"/>
<g>
	
		<path fill="#55D8E5" stroke="#55D8E5" stroke-width="0.2298" stroke-linecap="round" stroke-linejoin="round" stroke-miterlimit="10" d="
		M2.815,18.822l-0.011-0.011l-0.005-0.005l-0.002-0.004L2.79,18.797l-0.001-0.002l-0.002-0.002
		c-0.021-0.012-0.024-0.021-0.035-0.031c-1.995-1.995-3.144-4.725-3.186-7.547h-3.462c-0.151,0-0.71-0.01-0.71,0.299
		c0,0.449,0.375,0.512,0.527,0.512l3.091,0.045c0.042,2.822,1.278,5.486,3.273,7.48c0.011,0.012,0.013,0.021,0.035,0.032
		l0.002,0.002l0.001,0.002l0.007,0.006l0.002,0.003l0.006,0.006l0.011,0.01c4.254,4.183,11.508,4.253,16.032-0.253
		c-0.061-0.062-0.27-0.371-0.332-0.436C13.498,23.325,6.856,22.795,2.815,18.822z"/>
</g>
<g>
	
		<path fill="#55D8E5" stroke="#55D8E5" stroke-width="0.2444" stroke-linecap="round" stroke-linejoin="round" stroke-miterlimit="10" d="
		M19.861,15.648l-5.855-5.6c-0.13-0.035-0.28-0.001-0.385,0.103c-0.152,0.156-0.152,0.406,0,0.562l0.014,0.012l5.461,5.456
		c0.154,0.154,0.407,0.156,0.562-0.001l0.488-0.369C20.061,15.802,19.925,15.712,19.861,15.648z"/>
	
		<path fill="#55D8E5" stroke="#55D8E5" stroke-width="0.2298" stroke-linecap="round" stroke-linejoin="round" stroke-miterlimit="10" d="
		M17.05,9.479l0.774,0.009c-0.181-1.483-0.712-3.203-2.012-4.543c-2.461-2.515-6.368-2.348-9.149-0.251
		c2.707-1.555,6.241-1.472,8.442,0.425C16.389,6.224,16.933,7.856,17.05,9.479z"/>
</g>
</svg>
