<?xml version="1.0" encoding="utf-8"?>
<!-- Generator: Adobe Illustrator 16.0.0, SVG Export Plug-In . SVG Version: 6.00 Build 0)  -->
<!DOCTYPE svg PUBLIC "-//W3C//DTD SVG 1.1//EN" "http://www.w3.org/Graphics/SVG/1.1/DTD/svg11.dtd">
<svg version="1.1" id="Layer_1" xmlns="http://www.w3.org/2000/svg" xmlns:xlink="http://www.w3.org/1999/xlink" x="0px" y="0px"
	 width="1444.79px" height="402.04px" viewBox="0 0 1444.79 402.04" enable-background="new 0 0 1444.79 402.04"
	 xml:space="preserve">
<g id="brain_slice">
	<circle fill="#E8F2FC" cx="725.2" cy="201.902" r="133.5"/>
	<path fill="none" stroke="#555555" stroke-width="3" stroke-miterlimit="10" d="M763.733,210.834
		c-5.055-41.816-27.18-73.664-58.386-73.664c-31.205,0-55.465,31.846-60.518,73.664H763.733z"/>
	
		<path fill="#FCA9C5" stroke="#545454" stroke-width="3" stroke-linecap="round" stroke-linejoin="round" stroke-miterlimit="10" d="
		M695.125,205.956c4.68-35.572,25.174-62.659,54.083-62.659c28.902,0,51.375,27.087,56.053,62.659H695.125z"/>
	
		<path fill="#FCA9C5" stroke="#545454" stroke-width="3" stroke-linecap="round" stroke-linejoin="round" stroke-miterlimit="10" d="
		M776.321,186.112c-1.248,6.393,2.924,12.587,9.314,13.834l9.883,1.928c6.396,1.248,12.59-2.924,13.834-9.319l0,0
		c1.854-9.484-4.631-12.92-9.316-13.835"/>
	
		<path fill="#FFA4AF" stroke="#545454" stroke-width="3" stroke-linecap="round" stroke-linejoin="round" stroke-miterlimit="10" d="
		M705.28,174.769c-5.475,1.236-8.934,7.388-7.723,13.742l0,0c1.208,6.354,6.628,10.503,12.103,9.267l14.042-3.168"/>
	
		<path fill="#FFA4AF" stroke="#545454" stroke-width="3" stroke-linecap="round" stroke-linejoin="round" stroke-miterlimit="10" d="
		M724.42,153.886c-7.048-3.451-15.332-0.027-18.5,7.648l0,0c-3.169,7.676-0.023,16.695,7.024,20.146"/>
	
		<path fill="#FCA9C5" stroke="#545454" stroke-width="3" stroke-linecap="round" stroke-linejoin="round" stroke-miterlimit="10" d="
		M770.473,150.634c-0.1-7.727-8.977-13.876-19.826-13.737l0,0c-10.852,0.142-19.562,6.52-19.463,14.246"/>
	<path fill="#FFB0CA" d="M763.733,209.262c-5.055-41.818-27.18-73.665-58.386-73.665c-31.205,0-55.465,31.846-60.517,73.665H763.733
		z"/>
	<path fill="#FCA9C5" d="M768.079,152.497c3.479-2.769,7.887-4.424,12.68-4.424c11.242,0,20.355,9.099,20.355,20.323
		c0,5.302-2.033,10.13-5.365,13.749"/>
	<path fill="none" stroke="#545454" stroke-width="3" stroke-linecap="round" stroke-linejoin="round" stroke-miterlimit="10" d="
		M768.331,151.388c3.479-2.769,7.885-4.424,12.68-4.424c11.24,0,20.355,9.099,20.355,20.323c0,5.302-2.035,10.13-5.367,13.749"/>
	<path fill="#FFB0CA" d="M690.935,143.068c0.99-9.021,11.224-15.106,22.854-13.594l0,0c11.631,1.514,20.256,10.054,19.268,19.075"/>
	<path fill="none" stroke="#545454" stroke-width="3" stroke-linecap="round" stroke-linejoin="round" stroke-miterlimit="10" d="
		M690.935,143.068c0.99-9.021,11.224-15.106,22.854-13.594l0,0c11.631,1.514,20.256,10.054,19.268,19.075"/>
	<path fill="#FFB0CA" d="M676.837,184.269c1.346,7.517-3.158,14.799-10.061,16.264l-10.668,2.266
		c-6.903,1.466-13.59-3.438-14.936-10.958l0,0c-1.999-11.15,4.997-15.189,10.061-16.265"/>
	
		<path fill="#FFB0CA" stroke="#545454" stroke-width="3" stroke-linecap="round" stroke-linejoin="round" stroke-miterlimit="10" d="
		M753.967,170.867c5.91,1.333,9.645,7.976,8.336,14.836l0,0c-1.305,6.86-7.152,11.339-13.062,10.005l-15.16-3.421"/>
	
		<path fill="#FFB0CA" stroke="#545454" stroke-width="3" stroke-linecap="round" stroke-linejoin="round" stroke-miterlimit="10" d="
		M731.377,150.826c6.822-5.023,16.281-2.98,21.125,4.562l0,0c4.846,7.544,3.242,17.73-3.58,22.753"/>
	<path fill="#FC819C" d="M664.875,203.45c-7.02-0.726-13.123-7.641-12.096-15.208c0.832-6.129,4.377-8.419,4.377-8.419l-2.939-2.081
		c-5.146-0.531-9.834-1.015-11.355,10.21c-1.028,7.568,4.933,14.481,11.951,15.208l10.85,1.119c1.431,0.146,2.837,0.023,4.185-0.314
		L664.875,203.45z"/>
	<path fill="none" stroke="#545454" stroke-width="3" stroke-linecap="round" stroke-linejoin="round" stroke-miterlimit="10" d="
		M677.838,184.955c1.347,7.517-3.157,14.799-10.06,16.264l-10.668,2.267c-6.904,1.466-13.591-3.439-14.937-10.958l0,0
		c-1.998-11.15,4.998-15.189,10.062-16.265"/>
	<path fill="#FFB0CA" d="M661.408,181.118c-5.697-0.948-9.034-5.6-11.185-10.247c-4.723-10.228,3.762-25.263,18.953-33.584
		c15.188-8.322,31.33-6.779,36.057,3.448"/>
	<g>
		<path fill="#FC819C" d="M665.803,142.516c6.053-6.855,14.49-9.746,21.14-11.152c-5.464,0.325-12.708,0.598-18.608,3.831
			c-15.192,8.321-23.676,23.356-18.953,33.584c1.718,3.715,4.199,7.427,8.034,9.253
			C652.081,169.336,655.421,154.271,665.803,142.516z"/>
	</g>
	<path fill="none" stroke="#545454" stroke-width="3" stroke-linecap="round" stroke-linejoin="round" stroke-miterlimit="10" d="
		M659.562,179.561c-5.697-0.948-9.033-5.6-11.185-10.247c-4.723-10.228,3.762-25.263,18.953-33.584
		c15.188-8.322,31.331-6.779,36.057,3.448"/>
	<path fill="none" stroke="#545454" stroke-width="3" stroke-linecap="round" stroke-linejoin="round" stroke-miterlimit="10" d="
		M661.625,183.856c-2.02-4.848,1.732-8.845,1.732-8.845"/>
	<path fill="none" stroke="#545454" stroke-width="3" stroke-linecap="round" stroke-linejoin="round" stroke-miterlimit="10" d="
		M791.489,179.924c5.023,1.525,5.725,6.962,5.725,6.962"/>
	<path fill="none" stroke="#545454" stroke-width="3" stroke-linecap="round" stroke-linejoin="round" stroke-miterlimit="10" d="
		M726.252,149.06c5.027,1.525,5.725,6.962,5.725,6.962"/>
	<path fill="none" stroke="#FFFFFF" stroke-width="3" stroke-linecap="round" stroke-linejoin="round" stroke-miterlimit="10" d="
		M769.313,146.964"/>
	<path fill="none" stroke="#FFFFFF" stroke-width="3" stroke-linecap="round" stroke-linejoin="round" stroke-miterlimit="10" d="
		M746.901,159.183c0.996,1.994,1.4,2.975,1.775,5.154"/>
	<path fill="none" stroke="#FFFFFF" stroke-width="3" stroke-linecap="round" stroke-linejoin="round" stroke-miterlimit="10" d="
		M744,155.242c0.113,0.053,0.227,0.108,0.34,0.164"/>
	<path fill="none" stroke="#FFFFFF" stroke-width="3" stroke-linecap="round" stroke-linejoin="round" stroke-miterlimit="10" d="
		M746.254,157.204"/>
	<path fill="#F8FFFE" d="M724.436,230.793c32.91,0,64.025,5.453,91.67,15.144v-16.41c0-11.366-0.311-20.015-4.691-23.22
		c-34.393-25.153-132.311-26.403-170.676-0.174c-3.863,2.642-4.633,11.881-4.633,23.395v15.268
		C662.906,235.818,692.842,230.793,724.436,230.793z"/>
	
		<path fill="#FFFFFF" stroke="#545454" stroke-width="3" stroke-linecap="round" stroke-linejoin="round" stroke-miterlimit="10" d="
		M813.672,243.268v1.624c-27.178-9.407-57.68-14.685-89.908-14.685c-31.942,0-62.187,5.183-89.18,14.432v-1.709
		c-0.416,0.884-0.635,1.783-0.635,2.695c0,12.535,40.341,22.697,90.104,22.697c49.762,0,90.104-10.162,90.104-22.697
		C814.157,244.829,813.991,244.043,813.672,243.268z"/>
	<path fill="#E6EFEF" d="M662.326,238.311v-41.39c-8.423,2.769-15.863,6.193-21.853,10.289c-3.862,2.641-4.633,11.879-4.633,23.394
		v15.289C644.359,242.95,653.205,240.415,662.326,238.311z"/>
	<path fill="#FF7373" d="M722.942,230.202c-27.452,0-82.816,8.074-84.916,14.646c0,10.825,42.398,18.278,85.164,18.278
		c42.76,0,87.109-7.155,87.109-17.981C810.299,239.222,750.637,230.202,722.942,230.202z"/>
	<path fill="none" stroke="#555555" stroke-width="3" stroke-linecap="round" stroke-linejoin="round" stroke-miterlimit="10" d="
		M723.711,230.116c32.396,0,63.053,5.277,90.369,14.684v-16.26c0-11.367-0.311-20.016-4.693-23.221
		c-34.393-25.153-132.308-26.403-170.675-0.173c-3.863,2.642-4.633,11.88-4.633,23.394v16.008
		C661.21,235.297,691.609,230.116,723.711,230.116z"/>
	
		<ellipse fill="#FFFFFF" stroke="#545454" stroke-width="2.5" stroke-linecap="round" stroke-linejoin="round" stroke-miterlimit="10" cx="723.811" cy="250.351" rx="19.529" ry="5.551"/>
	<g id="Layer_20">
		<g>
			
				<polygon fill="#FFE252" stroke="#545454" stroke-width="2" stroke-linecap="round" stroke-linejoin="round" stroke-miterlimit="10" points="
				455.008,62.251 436.14,81.909 455.008,103.54 472.297,82.896 			"/>
			
				<polygon fill="#FFEB99" stroke="#545454" stroke-width="2" stroke-linecap="round" stroke-linejoin="round" stroke-miterlimit="10" points="
				455.008,62.251 448.476,85.392 455.008,103.54 472.302,82.896 			"/>
			
				<polyline fill="none" stroke="#545454" stroke-width="2" stroke-linecap="round" stroke-linejoin="round" stroke-miterlimit="10" points="
				472.297,82.896 448.476,85.392 436.14,81.909 			"/>
			
				<polyline fill="none" stroke="#545454" stroke-width="2" stroke-linecap="round" stroke-linejoin="round" stroke-miterlimit="10" points="
				455.008,62.251 448.476,85.392 455.008,103.54 			"/>
		</g>
		<g>
			
				<polygon fill="#FFE252" stroke="#545454" stroke-width="2" stroke-linecap="round" stroke-linejoin="round" stroke-miterlimit="10" points="
				958.963,255.901 939.01,276.689 958.963,299.564 977.247,277.733 			"/>
			
				<polygon fill="#FFEB99" stroke="#545454" stroke-width="2" stroke-linecap="round" stroke-linejoin="round" stroke-miterlimit="10" points="
				958.963,255.901 952.055,280.373 958.963,299.564 977.251,277.733 			"/>
			
				<polyline fill="none" stroke="#545454" stroke-width="2" stroke-linecap="round" stroke-linejoin="round" stroke-miterlimit="10" points="
				977.247,277.733 952.055,280.373 939.01,276.689 			"/>
			
				<polyline fill="none" stroke="#545454" stroke-width="2" stroke-linecap="round" stroke-linejoin="round" stroke-miterlimit="10" points="
				958.963,255.901 952.055,280.373 958.963,299.564 			"/>
		</g>
		<g>
			
				<polygon fill="#BBFFD0" stroke="#545454" stroke-width="2" stroke-linecap="round" stroke-linejoin="round" stroke-miterlimit="10" points="
				273.731,246.024 257.216,242.301 235.926,244.974 235.926,267.124 251.201,275.237 273.731,271.038 273.731,258.053 			"/>
			
				<line fill="none" stroke="#545454" stroke-width="2" stroke-linecap="round" stroke-linejoin="round" stroke-miterlimit="10" x1="251.201" y1="249.46" x2="251.201" y2="275.237"/>
			
				<polygon fill="#83F2A2" stroke="#545454" stroke-width="2" stroke-linecap="round" stroke-linejoin="round" stroke-miterlimit="10" points="
				251.201,275.237 235.926,267.124 235.926,244.974 251.201,249.46 			"/>
			
				<polygon fill="#83F2A2" stroke="#545454" stroke-width="2" stroke-linecap="round" stroke-linejoin="round" stroke-miterlimit="10" points="
				273.731,246.024 257.216,242.301 235.926,244.974 251.201,249.46 			"/>
		</g>
		<g>
			
				<polygon fill="#BBFFD0" stroke="#545454" stroke-width="2" stroke-linecap="round" stroke-linejoin="round" stroke-miterlimit="10" points="
				1139.522,93.197 1122.129,89.276 1099.709,92.091 1099.709,115.416 1115.795,123.961 1139.522,119.539 1139.522,105.864 			"/>
			
				<line fill="none" stroke="#545454" stroke-width="2" stroke-linecap="round" stroke-linejoin="round" stroke-miterlimit="10" x1="1115.795" y1="96.816" x2="1115.795" y2="123.961"/>
			
				<polygon fill="#83F2A2" stroke="#545454" stroke-width="2" stroke-linecap="round" stroke-linejoin="round" stroke-miterlimit="10" points="
				1115.795,123.961 1099.709,115.416 1099.709,92.091 1115.795,96.816 			"/>
			
				<polygon fill="#83F2A2" stroke="#545454" stroke-width="2" stroke-linecap="round" stroke-linejoin="round" stroke-miterlimit="10" points="
				1139.522,93.197 1122.129,89.276 1099.709,92.091 1115.795,96.816 			"/>
		</g>
		<g>
			
				<path fill="#D7FFFB" stroke="#545454" stroke-width="2" stroke-linecap="round" stroke-linejoin="round" stroke-miterlimit="10" d="
				M492.685,289.202l-19.449,28.627l26.729,7.742l6.903-12.04L492.685,289.202z"/>
			
				<polygon fill="#94EDE8" stroke="#545454" stroke-width="2" stroke-linecap="round" stroke-linejoin="round" stroke-miterlimit="10" points="
				492.685,289.202 492.585,289.349 499.654,325.48 499.965,325.571 506.868,313.531 			"/>
		</g>
		<g>
			
				<path fill="#D7FFFB" stroke="#545454" stroke-width="2" stroke-linecap="round" stroke-linejoin="round" stroke-miterlimit="10" d="
				M1246.975,220.732l-21.463,31.593l29.496,8.541l7.62-13.284L1246.975,220.732z"/>
			
				<polygon fill="#94EDE8" stroke="#545454" stroke-width="2" stroke-linecap="round" stroke-linejoin="round" stroke-miterlimit="10" points="
				1246.975,220.732 1246.866,220.896 1254.667,260.768 1255.008,260.866 1262.628,247.582 			"/>
		</g>
		<g>
			
				<path fill="#D7FFFB" stroke="#545454" stroke-width="2" stroke-linecap="round" stroke-linejoin="round" stroke-miterlimit="10" d="
				M139.701,90.56l-21.363,31.447l29.359,8.501l7.583-13.223L139.701,90.56z"/>
			
				<polygon fill="#94EDE8" stroke="#545454" stroke-width="2" stroke-linecap="round" stroke-linejoin="round" stroke-miterlimit="10" points="
				139.701,90.56 139.591,90.723 147.356,130.411 147.697,130.508 155.28,117.285 			"/>
		</g>
		<g>
			
				<polygon fill="#FFE252" stroke="#545454" stroke-width="2" stroke-linecap="round" stroke-linejoin="round" stroke-miterlimit="10" points="
				1353.428,89.796 1330.733,113.441 1353.428,139.459 1374.223,114.628 			"/>
			
				<polygon fill="#FFEB99" stroke="#545454" stroke-width="2" stroke-linecap="round" stroke-linejoin="round" stroke-miterlimit="10" points="
				1353.428,89.796 1345.573,117.63 1353.428,139.459 1374.231,114.628 			"/>
			
				<polyline fill="none" stroke="#545454" stroke-width="2" stroke-linecap="round" stroke-linejoin="round" stroke-miterlimit="10" points="
				1374.223,114.628 1345.573,117.63 1330.733,113.441 			"/>
			
				<polyline fill="none" stroke="#545454" stroke-width="2" stroke-linecap="round" stroke-linejoin="round" stroke-miterlimit="10" points="
				1353.428,89.796 1345.573,117.63 1353.428,139.459 			"/>
		</g>
	</g>
</g>
</svg>
