<?xml version="1.0" encoding="utf-8"?>
<!-- Generator: Adobe Illustrator 16.0.0, SVG Export Plug-In . SVG Version: 6.00 Build 0)  -->
<!DOCTYPE svg PUBLIC "-//W3C//DTD SVG 1.1//EN" "http://www.w3.org/Graphics/SVG/1.1/DTD/svg11.dtd">
<svg version="1.1" id="Layer_1" xmlns="http://www.w3.org/2000/svg" xmlns:xlink="http://www.w3.org/1999/xlink" x="0px" y="0px"
	 width="46px" height="40px" viewBox="0 0 46 40" enable-background="new 0 0 46 40" xml:space="preserve">
<circle fill="#FFECE6" stroke="#545454" stroke-miterlimit="10" cx="37.917" cy="19.384" r="3.87"/>
<circle fill="#FFECE6" stroke="#545454" stroke-miterlimit="10" cx="7.573" cy="19.125" r="3.871"/>
<circle fill="#FFECE6" stroke="#545454" stroke-miterlimit="10" cx="22.688" cy="20.759" r="15.661"/>
<circle fill="#545454" cx="29.81" cy="18.962" r="1.166"/>
<path fill="#545454" d="M27.788,25.659c0,2.963-2.238,4.999-4.999,4.999s-5-2.036-5-4.999
	C17.791,22.699,27.788,22.699,27.788,25.659z"/>
<g>
	<path fill="none" d="M14.59,8.61c-0.307-0.218-0.5-0.484-0.582-0.709c-0.018-0.033-0.036-0.065-0.048-0.103
		c-0.479-1.238-0.725-2.69-0.671-3.982c0.061-1.442,0.484-2.536,1.193-3.081c0.388-0.315,1.031-0.382,1.504-0.382
		c1.031,0,2.573,0.315,3.803,1.195c0.734,0.527,1.544,1.004,2.275,1.401c0.241-0.09,0.515-0.137,0.82-0.137
		c0.292,0,0.555,0.044,0.786,0.126c0.735-0.396,1.549-0.875,2.283-1.403c1.232-0.881,2.773-1.197,3.804-1.197
		c0.476,0,1.12,0.067,1.504,0.383c0.711,0.544,1.134,1.639,1.195,3.08c0.051,1.292-0.189,2.744-0.67,3.982
		c-0.013,0.036-0.028,0.071-0.048,0.103c-0.076,0.208-0.241,0.45-0.506,0.656c2.493-1.331,4.066-3.242,4.066-5.372
		c0-4.022-5.576-7.283-12.452-7.283c-6.878,0-12.451,3.261-12.451,7.283C10.398,5.337,12.023,7.278,14.59,8.61z"/>
	<path fill="none" d="M22.887,3.896c-0.764,0-0.862,0.416-0.862,0.778c0,0.602,0.411,1.334,0.89,1.334
		c0.417,0,0.811-0.646,0.811-1.334C23.725,4.291,23.627,3.896,22.887,3.896z"/>
	<path fill="none" d="M29.602,9.024c-1.433,0-3.458-0.695-6.052-2.079c-0.203,0.096-0.417,0.146-0.635,0.146
		c-0.234,0-0.458-0.056-0.669-0.157c-2.612,1.399-4.655,2.104-6.095,2.104c-0.146,0-0.29-0.01-0.423-0.024
		c-0.026,0.031-0.049,0.063-0.076,0.093c2.035,0.846,4.515,1.348,7.2,1.348c2.701,0,5.196-0.508,7.235-1.363
		c-0.024-0.029-0.047-0.061-0.073-0.09C29.882,9.017,29.746,9.024,29.602,9.024z"/>
	<path fill="#FF97AB" stroke="#545454" stroke-width="0.9" stroke-miterlimit="10" d="M31.741,7.888
		c0.019-0.033,0.035-0.066,0.048-0.103c0.48-1.238,0.722-2.69,0.67-3.982c-0.062-1.441-0.484-2.536-1.193-3.08
		c-0.387-0.316-1.029-0.383-1.504-0.383c-1.032,0-2.571,0.315-3.806,1.197c-0.734,0.527-1.548,1.008-2.283,1.403
		c-0.232-0.083-0.495-0.126-0.786-0.126c-0.305,0-0.579,0.048-0.82,0.137c-0.731-0.397-1.542-0.874-2.275-1.401
		c-1.229-0.88-2.771-1.195-3.803-1.195c-0.474,0-1.117,0.065-1.504,0.382c-0.71,0.544-1.134,1.638-1.194,3.081
		c-0.053,1.293,0.191,2.745,0.671,3.982c0.013,0.037,0.031,0.069,0.048,0.103c0.082,0.225,0.274,0.491,0.582,0.709
		c0.337,0.176,1.11,0.435,1.137,0.405c0.134,0.014,0.276,0.023,0.423,0.023c1.439,0,3.482-0.703,6.095-2.103
		c0.212,0.101,0.437,0.157,0.669,0.157c0.219,0,0.433-0.051,0.635-0.146c2.594,1.384,4.619,2.079,6.052,2.079
		c0.145,0,0.28-0.006,0.412-0.022c0.025,0.029,0.858-0.262,1.223-0.458C31.5,8.338,31.664,8.095,31.741,7.888z"/>
</g>
<circle fill="#FCB1D6" stroke="#545454" stroke-width="0.7" stroke-miterlimit="10" cx="22.851" cy="4.733" r="1.783"/>
<path fill="#FF97AB" stroke="#545454" stroke-width="0.9" stroke-miterlimit="10" d="M35.623,28.068
	c0,0.728-0.315,1.318-0.705,1.318h-2.821c-0.389,0-0.704-0.591-0.704-1.318l0,0c0-0.726,0.315-1.315,0.704-1.315h2.821
	C35.308,26.753,35.623,27.343,35.623,28.068L35.623,28.068z"/>
<path fill="#FF97AB" stroke="#545454" stroke-width="0.9" stroke-miterlimit="10" d="M44.086,28.103
	c0,0.709-0.316,1.284-0.705,1.284h-2.82c-0.39,0-0.705-0.573-0.705-1.284l0,0c0-0.707,0.315-1.282,0.705-1.282h2.82
	C43.77,26.82,44.086,27.396,44.086,28.103L44.086,28.103z"/>
<path fill="#FC7A8C" stroke="#545454" stroke-linecap="round" stroke-linejoin="round" stroke-miterlimit="10" d="M45.731,38.827
	c0,0.524-0.383,0.947-0.854,0.947H30.838c-0.473,0-0.855-0.423-0.855-0.947v-9c0-0.521,0.383-0.945,0.855-0.945h14.039
	c0.472,0,0.854,0.425,0.854,0.945V38.827z"/>
<ellipse fill="none" stroke="#545454" stroke-linecap="round" stroke-linejoin="round" stroke-miterlimit="10" cx="37.855" cy="34.454" rx="0" ry="7.271"/>
<circle fill="#545454" cx="14.88" cy="19.385" r="1.166"/>
</svg>
