<?xml version="1.0" encoding="utf-8"?>
<!-- Generator: Adobe Illustrator 16.0.0, SVG Export Plug-In . SVG Version: 6.00 Build 0)  -->
<!DOCTYPE svg PUBLIC "-//W3C//DTD SVG 1.1//EN" "http://www.w3.org/Graphics/SVG/1.1/DTD/svg11.dtd">
<svg version="1.1" id="Layer_1" xmlns="http://www.w3.org/2000/svg" xmlns:xlink="http://www.w3.org/1999/xlink" x="0px" y="0px"
	 width="253.706px" height="227.548px" viewBox="-28.005 -37.452 253.706 227.548"
	 enable-background="new -28.005 -37.452 253.706 227.548" xml:space="preserve">
<path fill="#FCC368" stroke="#515160" stroke-width="3" stroke-miterlimit="10" d="M111.245,62.821
	c-3.774-7.567-10.608-9.17-15.503-9.17H19.87c-4.896,0-8.866,3.934-8.866,8.783v99.043c0,7.674,6.578,17.347,14.844,18.134
	c8.531,0.812,87.649-9.351,87.649-9.351c4.896,0,8.865-3.933,8.865-8.783L111.245,62.821z"/>
<g id="file">
	<path fill="#8AF9F9" d="M103.392,15.156c-2.757-0.166-5.125,1.936-5.291,4.692l-7.083,118.296
		c-0.165,2.757,1.936,5.124,4.692,5.289l82.851,4.959c2.757,0.165,5.125-1.934,5.291-4.691l5.554-92.763l-27.501-32.279
		L103.392,15.156z"/>
	<path fill="#68DEEA" d="M162.123,53.297l28.044,1.68L158.478,17.78l-1.762,29.422C156.525,50.378,158.946,53.107,162.123,53.297z"
		/>
	
		<path fill="#86F7A6" stroke="#515160" stroke-width="3" stroke-linecap="round" stroke-linejoin="round" stroke-miterlimit="10" d="
		M165.05,49.813l24.336,1.456l-27.5-32.279l-1.527,25.533C160.192,47.279,162.293,49.647,165.05,49.813z"/>
	<path fill="none" stroke="#474759" stroke-width="3" stroke-linecap="round" stroke-linejoin="round" stroke-miterlimit="10" d="
		M103.392,15.156c-2.757-0.166-5.125,1.936-5.291,4.692l-7.083,118.296c-0.165,2.757,1.936,5.124,4.692,5.289l82.851,4.959
		c2.757,0.165,5.125-1.934,5.291-4.691l5.554-92.763l-27.501-32.279L103.392,15.156z"/>
	<circle fill="#515160" cx="113.368" cy="39.014" r="2.416"/>
	<circle fill="#515160" cx="139.178" cy="40.406" r="2.416"/>
	<path fill="#515160" d="M131.533,47.39c-0.334,3.579-3.509,6.213-7.09,5.878c-3.581-0.334-6.213-3.509-5.88-7.089
		C118.898,42.597,131.867,43.808,131.533,47.39z"/>
</g>
<path fill="#F9E76B" stroke="#515160" stroke-width="3" stroke-miterlimit="10" d="M200.101,171.311c0,5.522-4.478,10-10,10H29.434
	c-5.523,0-10-4.478-10-10V79.849c0-5.523,4.477-10,10-10h160.667c5.522,0,10,4.477,10,10V171.311z"/>
<path fill="#FCC368" stroke="#515160" stroke-width="2.7" stroke-miterlimit="10" d="M144.779,142.024
	c0.036,3.568-3.673,6.495-8.282,6.54l-54.515,0.527c-4.607,0.046-8.372-2.811-8.406-6.38l-0.241-24.984
	c-0.034-3.569,3.674-6.498,8.28-6.543l54.517-0.527c4.607-0.044,8.372,2.813,8.407,6.381L144.779,142.024z"/>
<text transform="matrix(1 -0.0097 0.0097 1 94.3096 136.7615)" fill="#515160" font-family="'Junegull'" font-size="18" letter-spacing="1">wav</text>
<path fill="#8AF9F9" stroke="#515160" stroke-width="2.8083" stroke-linecap="round" stroke-linejoin="round" stroke-miterlimit="10" d="
	M162.531,61.953c2.199,10.523-8.194,39.679-8.194,39.679c-0.497,1.012-2.089,1.604-3.725,1.308l0,0
	c-1.637-0.295-3.059-1.725-2.387-3.118c0.565-1.175,9.438-31.378,6.97-39.211"/>
<circle fill="#515160" cx="90.347" cy="135.069" r="2.416"/>
<g id="Layer_2">
	<path fill="#B3F2EF" stroke="#B3F2EF" stroke-width="1.5" stroke-miterlimit="10" d="M170.515,8.767l0.567-4.29l3.968,0.525
		c0.466,0.062,0.897-0.297,0.963-0.8c0.067-0.504-0.256-0.961-0.723-1.023l-3.967-0.525l0.568-4.291
		c0.066-0.504-0.256-0.962-0.721-1.022c-0.469-0.062-0.899,0.295-0.965,0.8l-0.569,4.29l-3.968-0.526
		c-0.465-0.061-0.896,0.296-0.963,0.801c-0.066,0.503,0.256,0.96,0.723,1.022l3.967,0.526l-0.566,4.29
		c-0.068,0.503,0.256,0.962,0.721,1.024C170.017,9.629,170.447,9.27,170.515,8.767z"/>
	<path fill="#B3F2EF" stroke="#B3F2EF" stroke-width="1.5" stroke-miterlimit="10" d="M-2.834,46.141l0.464-3.509l3.246,0.43
		c0.381,0.049,0.734-0.244,0.789-0.654c0.054-0.413-0.21-0.789-0.592-0.838l-3.246-0.432l0.465-3.509
		c0.054-0.411-0.21-0.786-0.59-0.836c-0.382-0.051-0.735,0.242-0.789,0.654l-0.465,3.51l-3.245-0.431
		c-0.381-0.049-0.734,0.243-0.789,0.656c-0.055,0.411,0.21,0.786,0.591,0.836l3.245,0.43l-0.464,3.51
		c-0.055,0.412,0.209,0.787,0.59,0.837C-3.241,46.846-2.888,46.553-2.834,46.141z"/>
	<circle fill="#B3F2EF" cx="44.972" cy="0.054" r="3.399"/>
	<circle fill="#B3F2EF" cx="221.134" cy="62.531" r="4.562"/>
	<circle fill="#B3F2EF" cx="207.994" cy="-3.29" r="2.642"/>
	<circle fill="#B3F2EF" cx="-20.506" cy="17.778" r="2.997"/>
	<path fill="#B3F2EF" stroke="#B3F2EF" stroke-width="1.5" stroke-miterlimit="10" d="M131.665-21.832l0.465-3.509l3.246,0.43
		c0.381,0.049,0.734-0.244,0.789-0.654c0.054-0.413-0.211-0.789-0.592-0.838l-3.246-0.432l0.465-3.509
		c0.055-0.411-0.209-0.786-0.59-0.836c-0.383-0.051-0.734,0.242-0.789,0.654l-0.465,3.51l-3.245-0.431
		c-0.381-0.049-0.733,0.243-0.788,0.656c-0.056,0.411,0.209,0.786,0.591,0.836l3.245,0.43l-0.464,3.51
		c-0.056,0.412,0.209,0.787,0.591,0.837C131.259-21.127,131.611-21.42,131.665-21.832z"/>
</g>
</svg>
