<?xml version="1.0" encoding="utf-8"?>
<!-- Generator: Adobe Illustrator 16.0.0, SVG Export Plug-In . SVG Version: 6.00 Build 0)  -->
<!DOCTYPE svg PUBLIC "-//W3C//DTD SVG 1.1//EN" "http://www.w3.org/Graphics/SVG/1.1/DTD/svg11.dtd">
<svg version="1.1" id="Layer_1" xmlns="http://www.w3.org/2000/svg" xmlns:xlink="http://www.w3.org/1999/xlink" x="0px" y="0px"
	 width="53.312px" height="22.208px" viewBox="0 0 53.312 22.208" enable-background="new 0 0 53.312 22.208" xml:space="preserve">
<g>
	<path fill="#D9E7E8" d="M15.3,15.262c0,4.445-2.166,6.669-6.499,6.669H3.073c-1.839,0-2.76-0.931-2.76-2.793v-0.104
		c0.048-1.928,0.979-2.897,2.793-2.897h6.009c0.394,0,0.688-0.109,0.874-0.327c0.185-0.229,0.28-0.461,0.28-0.718
		s-0.095-0.498-0.28-0.718c-0.186-0.218-0.48-0.326-0.874-0.326H6.146C2.046,14.047,0,11.938,0,7.72C0,3.274,2.189,1.05,6.564,1.05
		h4.612c1.838,0,2.76,0.931,2.76,2.793v0.104c-0.048,1.934-0.979,2.903-2.793,2.903H6.18c-0.395,0-0.685,0.109-0.869,0.327
		C5.12,7.402,5.03,7.639,5.03,7.895c0,0.257,0.09,0.495,0.28,0.717C5.495,8.831,5.785,8.945,6.18,8.945h2.968
		C13.248,8.945,15.3,11.049,15.3,15.262z"/>
</g>
<g enable-background="new    ">
	<path fill="#FFE664" d="M17.704,14.96c0,4.457-2.167,6.679-6.498,6.679H5.477c-1.838,0-2.76-0.931-2.76-2.793v-0.104
		c0.048-1.938,0.979-2.907,2.799-2.907h6.003c0.399,0,0.688-0.109,0.874-0.327c0.185-0.218,0.28-0.462,0.28-0.717
		c0-0.257-0.096-0.489-0.28-0.719c-0.186-0.218-0.475-0.327-0.874-0.327H8.55c-4.1,0-6.146-2.108-6.146-6.321
		c0-4.446,2.189-6.674,6.564-6.674h4.612c1.838,0,2.76,0.932,2.76,2.798v0.104c-0.047,1.932-0.978,2.897-2.792,2.897h-4.96
		c-0.399,0-0.688,0.109-0.874,0.333c-0.191,0.218-0.28,0.46-0.28,0.716c0,0.252,0.095,0.495,0.28,0.713
		c0.185,0.225,0.475,0.333,0.874,0.333h2.969C15.651,8.645,17.704,10.753,17.704,14.96z"/>
</g>
<g>
	<path fill="#D9E7E8" d="M35.348,20.882c-0.747,0.399-1.549,0.708-2.408,0.927c-0.865,0.219-1.748,0.327-2.656,0.327
		c-1.468,0-2.85-0.275-4.156-0.837c-1.306-0.56-2.432-1.311-3.386-2.27c-0.956-0.95-1.71-2.08-2.271-3.382
		c-0.561-1.312-0.841-2.688-0.841-4.162c0-1.467,0.281-2.849,0.841-4.156c0.561-1.3,1.315-2.436,2.271-3.405
		c0.954-0.963,2.08-1.729,3.386-2.284C27.434,1.081,28.816,0.8,30.284,0.8c1.468,0,2.85,0.28,4.156,0.841
		c1.301,0.555,2.437,1.321,3.406,2.284c0.963,0.969,1.729,2.105,2.284,3.405c0.561,1.307,0.841,2.688,0.841,4.156
		c0,0.979-0.123,1.91-0.365,2.792c-0.248,0.884-0.589,1.711-1.031,2.48l0.347,0.352c0.304,0.305,0.527,0.627,0.665,0.979
		c0.138,0.353,0.209,0.693,0.209,1.046c0,0.399-0.082,0.773-0.242,1.134c-0.167,0.361-0.385,0.679-0.666,0.966
		c-0.28,0.275-0.598,0.503-0.959,0.664c-0.361,0.162-0.741,0.237-1.136,0.237c-0.746,0-1.419-0.284-2.027-0.864L35.348,20.882z
		 M25.501,11.553c0,0.685,0.118,1.311,0.366,1.89c0.242,0.581,0.589,1.094,1.031,1.54c0.441,0.437,0.955,0.783,1.534,1.03
		c0.584,0.237,1.211,0.366,1.886,0.366c0.304,0,0.48-0.01,0.528-0.038l-1.748-1.748c-0.585-0.599-0.875-1.271-0.875-2.024
		c0-0.399,0.081-0.774,0.247-1.134c0.162-0.36,0.386-0.679,0.66-0.959c0.281-0.28,0.604-0.499,0.965-0.666
		c0.361-0.161,0.735-0.242,1.13-0.242c0.352,0,0.703,0.071,1.05,0.209c0.352,0.138,0.674,0.361,0.979,0.666l1.853,1.852
		c0.023-0.124,0.037-0.242,0.052-0.365c0.009-0.134,0.014-0.252,0.014-0.376c0-0.669-0.128-1.306-0.385-1.9
		c-0.251-0.594-0.599-1.106-1.025-1.533c-0.433-0.433-0.945-0.774-1.54-1.032c-0.593-0.256-1.23-0.384-1.905-0.384
		c-0.675,0-1.302,0.128-1.886,0.384c-0.579,0.257-1.092,0.599-1.534,1.032c-0.442,0.427-0.789,0.939-1.031,1.533
		C25.619,10.247,25.501,10.884,25.501,11.553z"/>
</g>
<g>
	<path fill="#FFFFFF" d="M14.887,3.616v0.109c-0.048,1.929-0.979,2.898-2.798,2.898h0.682c1.814,0,2.745-0.969,2.793-2.898V3.616
		c0-1.861-0.922-2.793-2.759-2.793h-0.673C13.966,0.825,14.887,1.756,14.887,3.616z"/>
	<path fill="#FFFFFF" d="M10.776,8.718h-0.674c4.097,0.001,6.143,2.111,6.143,6.323c0,4.444-2.166,6.668-6.493,6.668h0.677
		c4.332,0,6.498-2.224,6.498-6.668C16.927,10.828,14.875,8.718,10.776,8.718z"/>
</g>
<g enable-background="new    ">
	<path fill="none" stroke="#545454" stroke-width="0.8731" stroke-linecap="round" stroke-linejoin="round" d="M17.409,14.96
		c0,4.457-2.167,6.679-6.493,6.679H5.187c-1.838,0-2.76-0.931-2.76-2.793v-0.104c0.047-1.938,0.979-2.907,2.793-2.907h6.008
		c0.394,0,0.684-0.109,0.874-0.327c0.185-0.218,0.28-0.462,0.28-0.717c0-0.257-0.095-0.489-0.28-0.719
		c-0.19-0.218-0.48-0.327-0.874-0.327H8.26c-4.1,0-6.146-2.108-6.146-6.321c0-4.446,2.189-6.674,6.564-6.674h4.612
		c1.838,0,2.76,0.932,2.76,2.798v0.104c-0.048,1.932-0.979,2.897-2.798,2.897H8.293c-0.394,0-0.684,0.109-0.874,0.333
		C7.234,7.1,7.144,7.342,7.144,7.598c0,0.252,0.09,0.495,0.275,0.713c0.19,0.225,0.48,0.333,0.874,0.333h2.969
		C15.362,8.645,17.409,10.753,17.409,14.96z"/>
</g>
<g enable-background="new    ">
	<path fill="#FFE664" d="M37.699,20.518c-0.746,0.399-1.548,0.708-2.408,0.926c-0.859,0.219-1.748,0.328-2.655,0.328
		c-1.467,0-2.85-0.274-4.156-0.836c-1.302-0.561-2.432-1.311-3.387-2.27c-0.955-0.95-1.71-2.08-2.271-3.382
		c-0.561-1.312-0.835-2.699-0.835-4.162c0-1.468,0.275-2.849,0.835-4.156c0.561-1.302,1.315-2.437,2.271-3.406
		c0.955-0.964,2.085-1.728,3.387-2.284c1.306-0.561,2.688-0.841,4.156-0.841c1.468,0,2.855,0.28,4.157,0.841
		c1.306,0.556,2.441,1.32,3.405,2.284c0.964,0.97,1.729,2.105,2.29,3.406c0.555,1.307,0.835,2.688,0.835,4.156
		c0,0.979-0.124,1.91-0.366,2.793c-0.247,0.883-0.589,1.709-1.03,2.479l0.346,0.351c0.304,0.305,0.527,0.628,0.665,0.979
		c0.143,0.352,0.209,0.693,0.209,1.046c0,0.399-0.081,0.772-0.242,1.135c-0.167,0.361-0.385,0.68-0.666,0.965
		c-0.281,0.274-0.599,0.494-0.959,0.664c-0.361,0.162-0.741,0.237-1.135,0.237c-0.746,0-1.42-0.284-2.023-0.874L37.699,20.518z
		 M27.853,11.194c0,0.68,0.124,1.307,0.366,1.885c0.241,0.579,0.588,1.093,1.03,1.539c0.442,0.437,0.955,0.785,1.534,1.03
		c0.584,0.238,1.211,0.366,1.886,0.366c0.303,0,0.479-0.008,0.527-0.039l-1.748-1.747c-0.579-0.599-0.874-1.282-0.874-2.023
		c0-0.399,0.081-0.774,0.247-1.135c0.161-0.361,0.384-0.679,0.66-0.959c0.28-0.281,0.604-0.499,0.964-0.665
		c0.36-0.161,0.736-0.242,1.135-0.242c0.346,0,0.698,0.066,1.045,0.208c0.352,0.138,0.674,0.361,0.978,0.666l1.853,1.853
		c0.023-0.124,0.038-0.242,0.052-0.366c0.009-0.133,0.015-0.251,0.015-0.371c0-0.674-0.124-1.311-0.38-1.905
		c-0.256-0.593-0.603-1.106-1.03-1.534c-0.433-0.431-0.946-0.773-1.539-1.03C33.98,6.469,33.349,6.34,32.669,6.34
		c-0.675,0-1.302,0.128-1.886,0.384c-0.579,0.257-1.092,0.599-1.534,1.03c-0.441,0.428-0.789,0.941-1.03,1.534
		C27.977,9.884,27.853,10.521,27.853,11.194z"/>
</g>
<g>
	<path fill="#FFFFFF" d="M41.859,16.404l-0.347-0.34c0.441-0.771,0.783-1.597,1.03-2.48c0.242-0.882,0.366-1.824,0.366-2.798
		c0-1.468-0.28-2.849-0.841-4.156c-0.556-1.301-1.321-2.436-2.285-3.405c-0.969-0.963-2.104-1.729-3.406-2.284
		C35.076,0.379,33.689,0.1,32.221,0.1c-1.468,0-2.85,0.28-4.156,0.841c-0.398,0.167-0.782,0.364-1.154,0.574
		c0.034-0.015,0.062-0.026,0.091-0.042c1.301-0.556,2.688-0.835,4.156-0.835c1.468,0,2.849,0.28,4.156,0.835
		c1.301,0.561,2.437,1.326,3.406,2.29c0.964,0.964,1.729,2.099,2.284,3.405c0.562,1.302,0.841,2.688,0.841,4.156
		c0,0.979-0.124,1.911-0.366,2.792c-0.247,0.884-0.589,1.711-1.031,2.48l0.347,0.352c0.305,0.305,0.523,0.627,0.666,0.979
		c0.137,0.352,0.208,0.693,0.208,1.045c0,0.4-0.081,0.774-0.242,1.135c-0.167,0.362-0.385,0.68-0.665,0.966
		c-0.102,0.099-0.207,0.182-0.316,0.271c0.14-0.042,0.278-0.089,0.419-0.148c0.36-0.162,0.679-0.38,0.959-0.665
		c0.28-0.275,0.499-0.594,0.665-0.955c0.162-0.36,0.242-0.745,0.242-1.135c0-0.351-0.066-0.703-0.208-1.055
		C42.386,17.042,42.163,16.708,41.859,16.404z"/>
</g>
<g enable-background="new    ">
	<path fill="none" stroke="#545454" stroke-width="0.8731" stroke-linecap="round" stroke-linejoin="round" d="M37.409,20.518
		c-0.746,0.399-1.548,0.708-2.408,0.926c-0.865,0.219-1.748,0.328-2.655,0.328c-1.468,0-2.855-0.274-4.156-0.836
		c-1.307-0.561-2.432-1.311-3.387-2.27c-0.955-0.95-1.715-2.08-2.27-3.382c-0.561-1.312-0.841-2.699-0.841-4.162
		c0-1.468,0.28-2.849,0.841-4.156c0.555-1.302,1.315-2.437,2.27-3.406c0.955-0.964,2.08-1.728,3.387-2.284
		c1.3-0.561,2.688-0.841,4.156-0.841c1.468,0,2.849,0.28,4.156,0.841c1.301,0.556,2.436,1.32,3.406,2.284
		c0.964,0.97,1.729,2.105,2.285,3.406c0.561,1.307,0.84,2.688,0.84,4.156c0,0.979-0.124,1.91-0.366,2.793
		c-0.247,0.883-0.589,1.709-1.03,2.479l0.347,0.351c0.304,0.305,0.522,0.628,0.665,0.979c0.137,0.352,0.208,0.693,0.208,1.046
		c0,0.399-0.081,0.772-0.242,1.135c-0.167,0.361-0.385,0.68-0.665,0.965c-0.281,0.274-0.599,0.494-0.96,0.664
		c-0.361,0.162-0.741,0.237-1.135,0.237c-0.746,0-1.421-0.284-2.029-0.874L37.409,20.518z M27.558,11.194
		c0,0.68,0.124,1.307,0.371,1.885c0.242,0.579,0.584,1.093,1.031,1.539c0.442,0.437,0.955,0.785,1.534,1.03
		c0.584,0.238,1.211,0.366,1.886,0.366c0.303,0,0.479-0.008,0.521-0.039l-1.743-1.747c-0.584-0.599-0.874-1.282-0.874-2.023
		c0-0.399,0.081-0.774,0.241-1.135c0.167-0.361,0.385-0.679,0.666-0.959c0.28-0.281,0.598-0.499,0.959-0.665
		c0.36-0.161,0.741-0.242,1.136-0.242c0.351,0,0.697,0.066,1.05,0.208c0.346,0.138,0.674,0.361,0.978,0.666l1.848,1.853
		c0.023-0.124,0.043-0.242,0.058-0.366c0.009-0.133,0.013-0.251,0.013-0.371c0-0.674-0.127-1.311-0.384-1.905
		c-0.256-0.593-0.599-1.106-1.03-1.534c-0.428-0.431-0.941-0.773-1.534-1.03C33.69,6.469,33.054,6.34,32.38,6.34
		c-0.675,0-1.302,0.128-1.886,0.384c-0.58,0.257-1.092,0.599-1.534,1.03c-0.447,0.428-0.789,0.941-1.031,1.534
		C27.682,9.884,27.558,10.521,27.558,11.194z"/>
</g>
<path fill="#D9E7E8" d="M51.664,17.798c0,1.692-1.369,3.065-3.054,3.065c-1.69,0-3.059-1.373-3.059-3.065
	c0-1.68,1.369-3.053,3.059-3.053C50.295,14.746,51.664,16.119,51.664,17.798z"/>
<path fill="#FFE664" d="M52.585,17.876c0,1.617-1.314,2.937-2.936,2.937c-1.621,0-2.935-1.319-2.935-2.937
	c0-1.626,1.314-2.936,2.935-2.936C51.271,14.941,52.585,16.25,52.585,17.876z"/>
<path fill="#FFFFFF" d="M49.649,14.941c-0.099,0-0.192,0.006-0.29,0.012c1.481,0.148,2.642,1.397,2.642,2.924
	c0,1.518-1.161,2.775-2.642,2.914c0.098,0.019,0.191,0.022,0.29,0.022c1.622,0,2.936-1.319,2.936-2.937
	C52.585,16.25,51.271,14.941,49.649,14.941z"/>
<path fill="none" stroke="#545454" stroke-width="0.8731" stroke-linecap="round" stroke-linejoin="round" d="M52.875,17.876
	c0,1.617-1.314,2.937-2.936,2.937c-1.616,0-2.93-1.319-2.93-2.937c0-1.626,1.314-2.936,2.93-2.936
	C51.561,14.941,52.875,16.25,52.875,17.876z"/>
<g>
</g>
<g>
</g>
<g>
</g>
<g>
</g>
<g>
</g>
<g>
</g>
<g>
</g>
<g>
</g>
<g>
</g>
<g>
</g>
<g>
</g>
<g>
</g>
<g>
</g>
<g>
</g>
<g>
</g>
</svg>
