<?xml version="1.0" encoding="utf-8"?>
<!-- Generator: Adobe Illustrator 16.0.0, SVG Export Plug-In . SVG Version: 6.00 Build 0)  -->
<!DOCTYPE svg PUBLIC "-//W3C//DTD SVG 1.1//EN" "http://www.w3.org/Graphics/SVG/1.1/DTD/svg11.dtd">
<svg version="1.1" xmlns="http://www.w3.org/2000/svg" xmlns:xlink="http://www.w3.org/1999/xlink" x="0px" y="0px" width="494px"
	 height="232px" viewBox="0 0 494 232" enable-background="new 0 0 494 232" xml:space="preserve">
<g id="bg" display="none">
	<rect x="-421" y="-135" display="inline" fill="#AAF7F5" width="960" height="478.75"/>
</g>
<g id="text">
	
		<path fill="#FC687E" stroke="#545454" stroke-width="3" stroke-linecap="round" stroke-linejoin="round" stroke-miterlimit="10" d="
		M67.762,129.203c1.844-0.346,3.597-0.137,5.26,0.625c1.662,0.761,2.661,2.036,2.995,3.82c2.972,13.405-24.672,26.618-21.504,26.024
		c11.575-2.168,19.614-0.305,24.116,5.588c1.425,1.879,2.37,4.059,2.834,6.533c0.193,1.037,0.299,2.24,0.317,3.607
		c0.119,9.873-3.988,19.764-12.327,29.67c-7.322,8.646-15.765,13.863-25.324,15.652c-8.12,1.521-25.809,2.332-28.003-9.15
		c-0.346-1.844,0.081-3.785,1.277-5.828c4.25-7.023,11.126-1.025,19.876-0.9c16.375-1,25.037-13.131,27.762-18.082
		c0.824-1.498,1.075-2.854,0.859-4.006c-0.658-3.512-4.318-5.391-10.981-5.633c-3.895-0.105-8.377,0.316-13.443,1.266
		c-6.048,1.133-13.385,3.014-22.013,5.643c-8.643,1.855-9.809-7.645-6.801-11.959c6.103-9.43,18.434-20.293,36.995-32.593
		c7.692-5.076,11.944-7.84,12.754-8.29C64.309,130.178,66.091,129.515,67.762,129.203z"/>
	
		<path fill="#FC687E" stroke="#545454" stroke-width="3" stroke-linecap="round" stroke-linejoin="round" stroke-miterlimit="10" d="
		M177.981,127.216c2.479,13.234-0.135,26.911-7.834,41.03c6.361,9.082,10.02,16.156,10.969,21.225
		c0.527,2.816-0.436,5.838-2.893,9.066c-1.971,2.701-4.049,4.256-6.229,4.664c-2.535,0.475-4.479-0.764-5.834-3.717
		c-1.996-4.436-4.808-9.336-8.437-14.703c-8.004,7.838-16.477,12.594-25.415,14.268c-7.744,1.451-14.653,0.449-20.727-3.004
		c-6.075-3.451-10.529-8.848-13.36-16.186c-0.994-2.582-1.739-5.209-2.241-7.887c-1.661-8.869-0.807-18.5,2.565-28.895
		c4.38-13.57,11.825-24.582,22.338-33.036c6.837-5.506,13.669-8.899,20.497-10.179c7.742-1.45,14.663-0.486,20.76,2.888
		C170.524,107.448,175.806,115.601,177.981,127.216z M124.79,150.73c-0.098-2.457,0.785-4.555,2.646-6.288
		c1.605-1.539,3.676-2.547,6.21-3.021c3.448-0.646,6.407-0.217,8.876,1.288c4.838,2.884,9.535,6.375,14.093,10.476
		c2.126-6.535,2.628-12.807,1.504-18.809c-1.19-6.354-3.473-10.566-6.847-12.64c-2.863-1.656-6.052-2.155-9.571-1.497
		c-1.267,0.237-2.508,0.617-3.722,1.135c-7.963,3.391-14.287,9.594-18.974,18.61c-4.688,9.017-6.229,17.792-4.632,26.326
		c0.713,3.807,2.16,7.26,4.344,10.354c2.971,4.188,7.611,5.436,13.925,3.744c4.918-1.359,9.578-4.49,13.979-9.395
		c-4.979-5.188-10.603-9.928-16.87-14.217C126.565,155.354,124.911,153.33,124.79,150.73z"/>
	
		<path fill="#FC687E" stroke="#545454" stroke-width="3" stroke-linecap="round" stroke-linejoin="round" stroke-miterlimit="10" d="
		M203.488,77.753c5.529-1.035,12.804,1.841,12.272,9.505c-0.631,9.096-0.421,14.942-0.422,17.485
		c0.043,6.591-0.135,17.927,0.493,22.975c3.328-11.512,10.146-30.385,18.682-45.999c2.528-4.625,3.671-7.562,8.591-8.882
		c2.952-0.792,5.23-0.402,6.835,1.164c1.605,1.567,2.36,4.145,2.902,6.907l9.156,39.143c1.681-5.877,2.948-16.531,3.771-24.872
		l1.668-21.653c0.926-4.386,4.077-7.083,9.453-8.09c2.917-0.546,5.565-0.208,7.94,1.017s3.829,3.258,4.36,6.099
		c0.245,1.306,0.259,2.654,0.043,4.045l-6.782,43.357c-2.076,13.106-4.374,24.387-6.896,33.839
		c-4.654,17.166-7.889,26.094-14.813,27.217c-2.313,0.375-8.825,1.607-11.042-6.756c-1.37-5.17-3.898-25.479-5.123-31.171
		c-1.226-5.69-2.104-9.958-2.636-12.8c-0.633-3.378-1.14-6.502-1.517-9.373c0,0-16.203,47.784-19.16,55.571
		c-3.223,8.488-16.264,9.072-20.062-3.992c-1.358-4.672-2.503-9.545-3.452-14.613c-1.942-10.367-3.184-21.659-3.723-33.878
		c-0.229-7.588-0.611-18.962-1.145-34.123c-0.136-2.836,0.923-5.458,3.176-7.867C198.094,79.717,200.569,78.3,203.488,77.753z"/>
	
		<path fill="#FC687E" stroke="#545454" stroke-width="3" stroke-linecap="round" stroke-linejoin="round" stroke-miterlimit="10" d="
		M311.688,98.781c9.02-24.938,16.553-41.72,22.603-50.345c3.124-4.46,6.311-6.994,9.555-7.602c7.736-1.449,14.748,7.485,21.035,26.8
		c2.031,6.252,4.96,18.446,8.79,36.586c4.705,0.756,7.432,3.129,8.18,7.122c0.686,3.661-0.513,7.157-3.589,10.488
		c0.399,1.217,1.402,3.354,3.009,6.411c1.216,2.355,2.021,4.831,2.424,7.425c1.448,10.494-1.643,17.904-9.683,17.958
		c-4.592,0.029-6.592-1.908-8.881-6.732c-1.2-2.527-4.729-12.374-5.58-16.003c-18.442,5.436-32.43,10.294-41.96,14.576
		c-1.597,2.969-10.296,22.727-17.832,22.713c-2.285-0.004-7.37,0.014-8.937-6.334c-0.567-2.299,0.06-5.436,1.483-9.318
		C295.864,142.559,302.325,124.645,311.688,98.781z M353.768,111.047c-0.589-2.214-2.374-9.456-5.361-21.728
		c-1.789-7.241-3.434-12.573-4.934-15.996c-6.262,11.162-12.351,27.156-18.266,47.981
		C332.324,118.854,341.846,115.434,353.768,111.047z"/>
	
		<path fill="#FC687E" stroke="#545454" stroke-width="3" stroke-linecap="round" stroke-linejoin="round" stroke-miterlimit="10" d="
		M414.436,18.481c3.516-1.028,6.488-1.007,8.915,0.069c2.428,1.075,3.922,3.368,4.488,6.879c-5.162,28.88-7.147,46.499-5.956,52.859
		c0.168,0.896,0.654,1.269,1.46,1.117c3.941-0.738,17.26-22.706,39.956-65.904c2.089-2.708,4.388-4.299,6.896-4.769
		c2.866-0.537,5.714,0.182,8.541,2.155c2.826,1.975,4.51,4.396,5.046,7.262c0.37,1.972-0.004,3.943-1.118,5.912l-16.122,29.031
		c-8.721,15.821-13.129,24.714-13.224,26.68c-0.114,0.393-0.109,0.902,0.008,1.528c0.789,4.212,5.255,10.979,13.399,20.302
		l16.508,18.329c11.066,10.287-0.434,33.912-18.354,18.6c-14.223-12.152-24.242-21.006-29.566-27.15
		c-1.675-2.003-3.095-2.897-4.258-2.68c-1.793,0.336-6.881,0.643-5.471,19.803c0.159,10.263-3.557,15.921-11.148,16.972
		c-7.414,1.018-13.012-1.632-13.654-8.293c-4.036-41.841-2.114-77.862,2.667-108.299C404.3,23.469,407.296,20.467,414.436,18.481z"
		/>
	
		<path fill="#FFE564" stroke="#545454" stroke-width="3" stroke-linecap="round" stroke-linejoin="round" stroke-miterlimit="10" d="
		M59.601,130.245c1.844-0.346,3.597-0.137,5.26,0.625c1.662,0.761,2.661,2.036,2.995,3.82c2.972,13.405-24.672,26.619-21.504,26.025
		c11.575-2.168,19.614-0.305,24.116,5.588c1.425,1.879,2.37,4.057,2.834,6.533c0.193,1.035,0.299,2.238,0.317,3.605
		c0.119,9.875-3.988,19.764-12.327,29.672c-7.322,8.645-15.765,13.861-25.324,15.652c-8.12,1.521-25.809,2.33-28.003-9.152
		c-0.346-1.842,0.081-3.783,1.277-5.828c4.25-7.021,11.126-1.023,19.876-0.898c16.375-1,25.037-13.133,27.762-18.082
		c0.824-1.498,1.075-2.854,0.859-4.008c-0.658-3.512-4.318-5.389-10.981-5.633c-3.895-0.104-8.377,0.318-13.443,1.268
		c-6.048,1.131-13.385,3.014-22.013,5.643c-8.643,1.855-9.809-7.645-6.801-11.961c6.103-9.428,18.434-20.293,36.995-32.592
		c7.692-5.076,11.944-7.84,12.754-8.29C56.147,131.22,57.93,130.557,59.601,130.245z"/>
	
		<path fill="#FFE564" stroke="#545454" stroke-width="3" stroke-linecap="round" stroke-linejoin="round" stroke-miterlimit="10" d="
		M169.82,128.258c2.479,13.234-0.135,26.91-7.834,41.029c6.361,9.082,10.02,16.156,10.969,21.225
		c0.527,2.816-0.436,5.838-2.893,9.066c-1.971,2.703-4.049,4.256-6.229,4.664c-2.535,0.475-4.479-0.762-5.834-3.717
		c-1.996-4.434-4.808-9.334-8.437-14.703c-8.004,7.838-16.477,12.594-25.415,14.268c-7.744,1.451-14.653,0.451-20.727-3.002
		c-6.075-3.453-10.529-8.848-13.36-16.188c-0.994-2.58-1.739-5.209-2.241-7.885c-1.661-8.869-0.807-18.5,2.565-28.896
		c4.38-13.57,11.825-24.582,22.338-33.036c6.837-5.506,13.669-8.899,20.497-10.179c7.742-1.45,14.663-0.486,20.76,2.888
		C162.363,108.49,167.645,116.643,169.82,128.258z M116.629,151.771c-0.098-2.457,0.785-4.553,2.646-6.287
		c1.605-1.539,3.676-2.547,6.21-3.021c3.448-0.646,6.407-0.217,8.876,1.288c4.838,2.883,9.535,6.375,14.093,10.475
		c2.126-6.535,2.628-12.806,1.504-18.808c-1.19-6.354-3.473-10.566-6.847-12.64c-2.863-1.656-6.052-2.155-9.571-1.497
		c-1.267,0.237-2.508,0.617-3.722,1.135c-7.963,3.391-14.287,9.594-18.974,18.61c-4.688,9.016-6.229,17.792-4.632,26.325
		c0.713,3.809,2.16,7.26,4.344,10.355c2.971,4.188,7.611,5.436,13.925,3.742c4.918-1.357,9.578-4.488,13.979-9.395
		c-4.979-5.188-10.603-9.926-16.87-14.217C118.404,156.396,116.75,154.373,116.629,151.771z"/>
	
		<path fill="#FFE564" stroke="#545454" stroke-width="3" stroke-linecap="round" stroke-linejoin="round" stroke-miterlimit="10" d="
		M195.327,78.795c5.529-1.035,12.804,1.841,12.272,9.505c-0.631,9.096-0.421,14.942-0.422,17.485
		c0.043,6.591-0.135,17.927,0.493,22.975c3.328-11.512,10.146-30.385,18.682-45.999c2.528-4.625,3.671-7.562,8.591-8.882
		c2.952-0.792,5.23-0.402,6.835,1.164c1.605,1.567,2.36,4.145,2.902,6.907l9.156,39.143c1.681-5.877,2.948-16.532,3.771-24.873
		l1.668-21.653c0.926-4.386,4.077-7.083,9.453-8.09c2.917-0.546,5.565-0.208,7.94,1.017s3.829,3.258,4.36,6.099
		c0.245,1.306,0.259,2.654,0.043,4.045l-6.782,43.357c-2.076,13.106-4.374,24.387-6.896,33.84
		c-4.654,17.166-7.889,26.092-14.813,27.215c-2.313,0.375-8.825,1.609-11.042-6.754c-1.37-5.17-3.898-25.479-5.123-31.172
		c-1.226-5.69-2.104-9.958-2.636-12.8c-0.633-3.378-1.14-6.502-1.517-9.373c0,0-16.203,47.783-19.16,55.572
		c-3.223,8.488-16.264,9.072-20.062-3.992c-1.358-4.674-2.503-9.547-3.452-14.615c-1.942-10.367-3.184-21.658-3.723-33.877
		c-0.229-7.588-0.611-18.962-1.145-34.123c-0.136-2.836,0.923-5.458,3.176-7.867C189.933,80.759,192.408,79.342,195.327,78.795z"/>
	
		<path fill="#FFE564" stroke="#545454" stroke-width="3" stroke-linecap="round" stroke-linejoin="round" stroke-miterlimit="10" d="
		M303.527,99.823c9.02-24.938,16.553-41.72,22.603-50.345c3.124-4.46,6.311-6.994,9.555-7.602c7.736-1.449,14.748,7.485,21.035,26.8
		c2.031,6.252,4.96,18.446,8.79,36.586c4.705,0.756,7.432,3.129,8.18,7.122c0.686,3.661-0.513,7.157-3.589,10.488
		c0.399,1.217,1.402,3.354,3.009,6.411c1.216,2.355,2.021,4.831,2.424,7.425c1.448,10.493-1.643,17.905-9.683,17.958
		c-4.592,0.031-6.592-1.906-8.881-6.73c-1.2-2.529-4.729-12.375-5.58-16.004c-18.442,5.436-32.43,10.294-41.96,14.575
		c-1.597,2.969-10.296,22.727-17.832,22.715c-2.285-0.004-7.37,0.012-8.937-6.334c-0.567-2.301,0.06-5.436,1.483-9.32
		C287.703,143.601,294.164,125.687,303.527,99.823z M345.606,112.089c-0.589-2.214-2.374-9.456-5.361-21.728
		c-1.789-7.241-3.434-12.573-4.934-15.996c-6.262,11.162-12.351,27.156-18.266,47.981
		C324.163,119.896,333.685,116.476,345.606,112.089z"/>
	
		<path fill="#FFE564" stroke="#545454" stroke-width="3" stroke-linecap="round" stroke-linejoin="round" stroke-miterlimit="10" d="
		M406.274,19.523c3.516-1.028,6.488-1.007,8.915,0.069c2.428,1.075,3.922,3.368,4.488,6.879c-5.162,28.88-7.147,46.499-5.956,52.859
		c0.168,0.896,0.654,1.269,1.46,1.117c3.941-0.738,17.26-22.706,39.956-65.904c2.089-2.708,4.388-4.299,6.896-4.769
		c2.866-0.537,5.714,0.182,8.541,2.155c2.826,1.975,4.51,4.396,5.046,7.262c0.37,1.972-0.004,3.943-1.118,5.912l-16.122,29.031
		c-8.721,15.821-13.129,24.714-13.224,26.68c-0.114,0.393-0.109,0.902,0.008,1.528c0.789,4.212,5.255,10.979,13.399,20.302
		l16.508,18.329c11.066,10.287-0.434,33.913-18.354,18.6c-14.223-12.153-24.242-21.006-29.566-27.15
		c-1.675-2.003-3.095-2.897-4.258-2.68c-1.793,0.336-6.881,0.643-5.471,19.803c0.159,10.263-3.557,15.921-11.148,16.971
		c-7.414,1.02-13.012-1.631-13.654-8.292c-4.036-41.841-2.114-77.862,2.667-108.299C396.139,24.511,399.135,21.509,406.274,19.523z"
		/>
</g>
<g id="bird" display="none">
	<g id="shadow" display="inline">
		<path fill="#161614" fill-opacity="0.3" d="M2218.707-215.406v-24.859c0-8.237-0.17-15.033-1.928-19.378
			c-3.076-43.853-35.545-69.701-69.178-69.701c-3.355,0-6.658,0.299-9.893,0.876c-7.971-4.208-16.867-6.544-26.529-6.544
			c-35.631,0-63.377,31.532-69.48,73.096c-1.035,1.643-3.137,16.414-3.137,22.365v1.31c-0.258,2.858-0.48,5.777-0.676,8.746
			c-1.242,0.758-1.977,1.572-2.637,2.568c-2.344,3.537-0.844,6.938,2.078,7.567c-0.025,0.625-8.143,7.926-11.248,12.289
			c-2.562,3.471-4.494,7.335-5.846,11.422c-1.848,5.298-2.879,11.15-2.879,17.311c0,13.254,4.748,25.103,12.213,32.997
			c2.02,2.334-2.762,8.604,2.645,13.756c0.758,0.721,3.006,2.549,5.822,4.178c0.174,6.032,0.16,134.231,0.334,140.49l180.982-0.876
			c7.871,1.293,11.904-37.623-0.4-36.8C2207.396-37.349,2223.711-217.1,2218.707-215.406z M2212.055-4.525
			c1.141,0.185,2.271,0.368,3.393,0.551C2214.277-3.928,2213.146-4.116,2212.055-4.525z"/>
	</g>
	<g id="brains" display="inline">
		<path fill="none" stroke="#555555" stroke-width="3.7193" stroke-miterlimit="10" d="M2194.473-271.364
			c-5.053-41.817-27.178-73.664-58.385-73.664c-31.205,0-55.465,31.846-60.518,73.664H2194.473z"/>
		
			<path fill="#FCA9C5" stroke="#545454" stroke-width="3.9621" stroke-linecap="round" stroke-linejoin="round" stroke-miterlimit="10" d="
			M2125.865-276.244c4.68-35.571,25.174-62.658,54.082-62.658c28.902,0,51.375,27.087,56.053,62.658H2125.865z"/>
		
			<path fill="#FCA9C5" stroke="#545454" stroke-width="4" stroke-linecap="round" stroke-linejoin="round" stroke-miterlimit="10" d="
			M2207.061-296.087c-1.248,6.393,2.924,12.587,9.316,13.834l9.883,1.928c6.395,1.247,12.588-2.925,13.834-9.32l0,0
			c1.852-9.484-4.631-12.92-9.318-13.835"/>
		
			<path fill="#FFA4AF" stroke="#545454" stroke-width="3.532" stroke-linecap="round" stroke-linejoin="round" stroke-miterlimit="10" d="
			M2136.021-307.43c-5.475,1.236-8.934,7.388-7.723,13.742l0,0c1.209,6.354,6.627,10.503,12.102,9.267l14.041-3.168"/>
		
			<path fill="#FFA4AF" stroke="#545454" stroke-width="3.532" stroke-linecap="round" stroke-linejoin="round" stroke-miterlimit="10" d="
			M2155.162-328.312c-7.049-3.451-15.332-0.027-18.5,7.648l0,0c-3.17,7.676-0.025,16.695,7.023,20.146"/>
		
			<path fill="#FCA9C5" stroke="#545454" stroke-width="4" stroke-linecap="round" stroke-linejoin="round" stroke-miterlimit="10" d="
			M2201.215-331.565c-0.1-7.727-8.977-13.876-19.828-13.737l0,0c-10.85,0.142-19.561,6.52-19.461,14.246"/>
		<path fill="#FFB0CA" d="M2194.473-272.937c-5.053-41.818-27.178-73.665-58.385-73.665c-31.205,0-55.465,31.846-60.516,73.665
			H2194.473z"/>
		<path fill="#FCA9C5" d="M2198.82-329.702c3.479-2.769,7.885-4.424,12.68-4.424c11.24,0,20.355,9.099,20.355,20.323
			c0,5.302-2.035,10.13-5.367,13.749"/>
		
			<path fill="none" stroke="#545454" stroke-width="3.9621" stroke-linecap="round" stroke-linejoin="round" stroke-miterlimit="10" d="
			M2199.07-330.811c3.479-2.769,7.885-4.424,12.68-4.424c11.242,0,20.355,9.099,20.355,20.323c0,5.302-2.035,10.13-5.365,13.749"/>
	</g>
	<g id="Layer_10" display="inline">
		<path fill="#FFB0CA" d="M2121.676-339.13c0.99-9.021,11.223-15.106,22.855-13.594l0,0c11.631,1.514,20.256,10.054,19.268,19.075"
			/>
		<path fill="none" stroke="#545454" stroke-width="4" stroke-linecap="round" stroke-linejoin="round" stroke-miterlimit="10" d="
			M2121.676-339.13c0.99-9.021,11.223-15.106,22.855-13.594l0,0c11.631,1.514,20.256,10.054,19.268,19.075"/>
		<path fill="#FFB0CA" d="M2107.578-297.93c1.346,7.517-3.158,14.799-10.061,16.264l-10.668,2.267
			c-6.902,1.465-13.588-3.439-14.934-10.958l0,0c-2-11.15,4.996-15.189,10.059-16.265"/>
		
			<path fill="#FFB0CA" stroke="#545454" stroke-width="3" stroke-linecap="round" stroke-linejoin="round" stroke-miterlimit="10" d="
			M2184.709-311.332c5.91,1.333,9.643,7.976,8.336,14.836l0,0c-1.305,6.86-7.154,11.339-13.064,10.005l-15.158-3.421"/>
		
			<path fill="#FFB0CA" stroke="#545454" stroke-width="3" stroke-linecap="round" stroke-linejoin="round" stroke-miterlimit="10" d="
			M2162.119-331.373c6.822-5.023,16.281-2.98,21.125,4.562l0,0c4.846,7.544,3.242,17.73-3.58,22.753"/>
		
			<path display="none" fill="#FFA4AF" stroke="#545454" stroke-width="4.2516" stroke-linecap="round" stroke-linejoin="round" stroke-miterlimit="10" d="
			M-166.362,28.663"/>
		<path fill="#FC819C" d="M2095.615-278.749c-7.02-0.726-13.123-7.641-12.096-15.209c0.832-6.129,4.377-8.419,4.377-8.419
			l-2.939-2.081c-5.146-0.531-9.834-1.015-11.355,10.21c-1.029,7.568,4.932,14.481,11.951,15.207l10.85,1.12
			c1.43,0.147,2.836,0.023,4.184-0.314L2095.615-278.749z"/>
		
			<path fill="none" stroke="#545454" stroke-width="3.8131" stroke-linecap="round" stroke-linejoin="round" stroke-miterlimit="10" d="
			M2108.58-297.244c1.346,7.517-3.158,14.799-10.061,16.264l-10.668,2.267c-6.904,1.465-13.59-3.439-14.936-10.958l0,0
			c-1.998-11.15,4.998-15.189,10.061-16.265"/>
		<path fill="#FFB0CA" d="M2092.148-301.081c-5.697-0.948-9.033-5.6-11.184-10.247c-4.723-10.228,3.762-25.263,18.953-33.584
			c15.189-8.322,31.33-6.779,36.057,3.448"/>
		<g>
			<path fill="#FC819C" d="M2097.545-338.682c6.053-6.855,14.49-9.746,21.139-11.152c-5.463,0.325-12.707,0.598-18.607,3.831
				c-15.193,8.321-23.676,23.356-18.953,33.584c1.717,3.715,4.199,7.427,8.033,9.253
				C2083.822-311.862,2087.164-326.927,2097.545-338.682z"/>
		</g>
		
			<path fill="none" stroke="#545454" stroke-width="4.4212" stroke-linecap="round" stroke-linejoin="round" stroke-miterlimit="10" d="
			M2090.305-302.638c-5.699-0.948-9.035-5.6-11.186-10.247c-4.723-10.228,3.762-25.263,18.953-33.584
			c15.189-8.322,31.332-6.779,36.057,3.448"/>
		
			<path fill="none" stroke="#545454" stroke-width="2.7523" stroke-linecap="round" stroke-linejoin="round" stroke-miterlimit="10" d="
			M2092.365-298.343c-2.02-4.848,1.732-8.845,1.732-8.845"/>
		
			<path fill="none" stroke="#545454" stroke-width="2.7523" stroke-linecap="round" stroke-linejoin="round" stroke-miterlimit="10" d="
			M2222.229-302.275c5.025,1.525,5.725,6.962,5.725,6.962"/>
		
			<path fill="none" stroke="#545454" stroke-width="2.7523" stroke-linecap="round" stroke-linejoin="round" stroke-miterlimit="10" d="
			M2156.994-333.139c5.027,1.525,5.725,6.962,5.725,6.962"/>
		
			<path fill="none" stroke="#FFFFFF" stroke-width="3.8131" stroke-linecap="round" stroke-linejoin="round" stroke-miterlimit="10" d="
			M2200.055-335.235"/>
		<path fill="none" stroke="#FFFFFF" stroke-width="3" stroke-linecap="round" stroke-linejoin="round" stroke-miterlimit="10" d="
			M2177.641-323.016c0.996,1.994,1.402,2.975,1.777,5.154"/>
		<path fill="none" stroke="#FFFFFF" stroke-width="3" stroke-linecap="round" stroke-linejoin="round" stroke-miterlimit="10" d="
			M2174.742-326.957c0.113,0.053,0.227,0.108,0.34,0.164"/>
		
			<path fill="none" stroke="#FFFFFF" stroke-width="3.8131" stroke-linecap="round" stroke-linejoin="round" stroke-miterlimit="10" d="
			M2176.996-324.995"/>
		<path fill="none" stroke="#FF99B9" stroke-width="3" stroke-linecap="round" stroke-linejoin="round" stroke-miterlimit="10" d="
			M2157.18-316.115c10.223,0.631,7.865,9.567,7.865,9.567"/>
		<path fill="none" stroke="#FF99B9" stroke-width="3" stroke-linecap="round" stroke-linejoin="round" stroke-miterlimit="10" d="
			M2121.893-308.992c7.666-6.794,12.328,1.185,12.328,1.185"/>
		
			<path fill="none" stroke="#FF99B9" stroke-width="4.929" stroke-linecap="round" stroke-linejoin="round" stroke-miterlimit="10" d="
			M2104.676-319.959c0.791-16.81,15.527-13.151,15.527-13.151"/>
		<path fill="none" stroke="#F98AA7" stroke-width="3" stroke-linecap="round" stroke-linejoin="round" stroke-miterlimit="10" d="
			M2194.174-322.092c9.422-4.016,11.318,5.03,11.318,5.03"/>
		
			<path fill="none" stroke="#F98AA7" stroke-width="2.1484" stroke-linecap="round" stroke-linejoin="round" stroke-miterlimit="10" d="
			M2207.375-305.906c6.748-2.875,8.105,3.602,8.105,3.602"/>
	</g>
	<g id="head" display="inline">
		<path fill="#F8FFFE" d="M2248.436,1.088c2.953-0.528,5.166-2.687,5.166-5.273c0-2.981-2.939-5.397-6.566-5.397
			c-0.062,0-0.125,0.007-0.189,0.008v-7.471c-32.334,12.604-39.402-145.161,0-199.661v-35.966c0-11.366-0.309-20.015-4.691-23.22
			c-34.393-25.153-132.309-26.403-170.676-0.173c-3.863,2.641-4.633,11.88-4.633,23.394v215c-0.912-0.046-1.873,0.004-2.857,0.172
			c-4.695,0.804-8.086,3.883-7.572,6.877c0.354,2.064,2.471,3.549,5.289,4.008c-0.207,0.154-0.416,0.302-0.619,0.465
			c-6.236,4.988-8.713,12.256-5.531,16.232c1.467,1.833,3.885,2.635,6.67,2.49c-0.25,0.175-0.5,0.357-0.744,0.554
			c-3.719,2.976-5.197,7.311-3.299,9.683c1.648,2.06,5.297,1.959,8.664-0.049v6.487c0,0.571-0.379,3.293-0.369,3.861h180.5
			c3.096,0.564,5.582-2.387,6.443-4.351C2254.494,6.309,2252.275,2.955,2248.436,1.088z"/>
		<path fill="#E6EFEF" d="M2093.066-285.278c-8.422,2.769-15.863,6.193-21.852,10.288c-3.863,2.641-4.633,11.88-4.633,23.394v215
			c-0.912-0.045-1.873,0.004-2.857,0.172c-4.695,0.805-8.084,3.883-7.572,6.877c0.354,2.064,2.471,3.549,5.291,4.008
			c-0.207,0.154-0.416,0.303-0.621,0.465c-6.236,4.988-8.713,12.256-5.531,16.232c1.467,1.834,3.885,2.635,6.672,2.49
			c-0.252,0.176-0.5,0.357-0.746,0.555c-3.719,2.975-5.195,7.311-3.299,9.682c1.648,2.061,5.297,1.959,8.664-0.049v6.488
			c0,0.57-0.113,2.217-0.105,2.785l26.59,0.025V-285.278z"/>
		<path fill="#E6EFEF" d="M2181.822-181.228c-18.779,17.896-34.611,140.646,10.555,152.896c21.41,5.346,15.227-5.175,33.102,0.95
			c17.125,5.375,40.787,21.139-13.895,15.654c-13.363-2.034-18.248-1.479-32.201-7.698c-45.061-17.232-35.34-156.239-9.061-178.33
			C2186.973-211.75,2196.711-195.457,2181.822-181.228z"/>
		
			<path fill="none" stroke="#555555" stroke-width="4.2543" stroke-linecap="round" stroke-linejoin="round" stroke-miterlimit="10" d="
			M2244.701,10.978c3.094,0.564,5.82-0.233,6.684-2.197c1.074-2.448-1.145-5.803-4.984-7.669c2.951-0.528,5.164-2.687,5.164-5.273
			c0-2.981-2.939-5.397-6.564-5.397c-0.064,0-0.127,0.007-0.189,0.008v-7.471c-32.336,12.604-39.404-145.161,0-199.661v-35.966
			c0-11.366-0.311-20.015-4.693-23.22c-34.393-25.153-132.309-26.403-170.676-0.173c-3.863,2.641-4.633,11.88-4.633,23.394v215
			c-0.912-0.046-1.873,0.004-2.855,0.172c-4.695,0.804-8.086,3.883-7.572,6.877c0.352,2.064,2.469,3.549,5.289,4.008
			c-0.207,0.154-0.416,0.302-0.621,0.465c-6.236,4.988-8.713,12.256-5.529,16.232c1.465,1.833,3.883,2.635,6.67,2.49
			c-0.252,0.175-0.5,0.357-0.744,0.554c-3.721,2.976-5.197,7.311-3.299,9.683c1.646,2.06,5.295,1.959,8.662-0.049V9.27
			c0,0.571,0.012,1.14,0.02,1.708h0.377"/>
	</g>
	<g id="ground">
		
			<polyline display="inline" fill="none" stroke="#555555" stroke-width="4" stroke-linecap="round" stroke-linejoin="round" stroke-miterlimit="10" points="
			46.811,343.5 49.729,343.5 52.978,343.5 55.895,343.5 		"/>
		
			<polyline fill="none" stroke="#2D2D2D" stroke-width="4" stroke-linecap="round" stroke-linejoin="round" stroke-miterlimit="10" points="
			281.167,343.5 283.168,343.5 284.001,343.5 285.334,343.5 		"/>
		
			<line display="inline" fill="none" stroke="#555555" stroke-width="4" stroke-linecap="round" stroke-linejoin="round" stroke-miterlimit="10" x1="27.061" y1="343.5" x2="31.56" y2="343.5"/>
		
			<polyline display="inline" fill="none" stroke="#555555" stroke-width="4" stroke-linecap="round" stroke-linejoin="round" stroke-miterlimit="10" points="
			-387.5,343.5 12.56,343.5 17.227,343.5 		"/>
	</g>
	<g id="feathers" display="inline">
		
			<path fill="#FFFFFF" stroke="#555555" stroke-width="2.5" stroke-linecap="round" stroke-linejoin="round" stroke-miterlimit="10" d="
			M2329.496-319.001c1.805,5.061-17.184,15.957-34.42,8.218C2295.076-310.784,2327.252-325.301,2329.496-319.001z"/>
		
			<path fill="none" stroke="#555555" stroke-width="2.5" stroke-linecap="round" stroke-linejoin="round" stroke-miterlimit="10" d="
			M2290.572-314.804c1.672,3.269,4.729,4.099,4.729,4.099"/>
		
			<path fill="#FFFFFF" stroke="#555555" stroke-width="3" stroke-linecap="round" stroke-linejoin="round" stroke-miterlimit="10" d="
			M2369.281-34.928c3.754,3.846-8.949,21.678-27.842,21.843C2341.439-13.085,2364.611-39.713,2369.281-34.928z"/>
		<path fill="none" stroke="#555555" stroke-width="2" stroke-linecap="round" stroke-linejoin="round" stroke-miterlimit="10" d="
			M2335.93-13.981c3.027,2.077,6.111,1.347,6.111,1.347"/>
		
			<path fill="#FFFFFF" stroke="#555555" stroke-width="3" stroke-linecap="round" stroke-linejoin="round" stroke-miterlimit="10" d="
			M1982.564-28.751c0.338-5.363,22.084-7.895,34.873,6.011C2017.438-22.741,1982.146-22.078,1982.564-28.751z"/>
		<path fill="none" stroke="#555555" stroke-width="3" stroke-linecap="round" stroke-linejoin="round" stroke-miterlimit="10" d="
			M2019.994-17.271c-0.248-3.663-2.73-5.631-2.73-5.631"/>
		
			<path fill="#FFFFFF" stroke="#555555" stroke-width="3" stroke-linecap="round" stroke-linejoin="round" stroke-miterlimit="10" d="
			M1961.4-87.015c1.904-7.225,32.242-4.815,45.939,17.592C2007.34-69.423,1959.031-78.025,1961.4-87.015z"/>
		<path fill="none" stroke="#555555" stroke-width="3" stroke-linecap="round" stroke-linejoin="round" stroke-miterlimit="10" d="
			M2009.352-61.276c0.648-5.061-2.207-8.414-2.207-8.414"/>
		
			<path fill="#FFFFFF" stroke="#555555" stroke-width="3.5171" stroke-linecap="round" stroke-linejoin="round" stroke-miterlimit="10" d="
			M2008.504-369.094c5.457,5.234-11.58,30.894-38.137,32.001C1970.367-337.093,2001.717-375.607,2008.504-369.094z"/>
		
			<path fill="none" stroke="#555555" stroke-width="3.5171" stroke-linecap="round" stroke-linejoin="round" stroke-miterlimit="10" d="
			M1962.17-339.316c4.16,3.062,8.529,2.182,8.529,2.182"/>
	</g>
	<g id="beak" display="inline">
		<g>
			<path fill="#545454" d="M2237.713-201.606c0.885-1.017,1.807-1.94,2.758-2.799l-0.006-0.348
				c-13.713,9.764-56.93,3.447-66.293,15.685c-13.893,18.103-24.023,141.015,10.203,152.764c14.141,4.452,38.855,1.671,53.943,4.816
				C2214.105-65.973,2220.115-181.393,2237.713-201.606z"/>
		</g>
		
			<path fill="#FFC34A" stroke="#555555" stroke-width="3.7143" stroke-linecap="round" stroke-linejoin="round" stroke-miterlimit="10" d="
			M2247.309-201.102c-21.273,22.238-25.217,153.959,5.342,168.391c21.408,5.863,6.17,15.919-7.781,9.097
			c-45.061-18.902-35.34-171.385-9.061-195.617C2252.457-234.583,2262.195-216.709,2247.309-201.102z"/>
		<g>
			<path fill="#4B4B4B" d="M2205.484-64.289c-26.139-8.973-26.406-82.772-18.885-125.217c-1.682,0.922-3.074,2.002-4.068,3.301
				c-13.893,18.103-24.023,141.015,10.201,152.764c14.143,4.452,26.82-4.256,41.91-1.11c-5.688-5.188-10.926-19.617-12.844-27.236
				C2211.043-62.048,2213.221-61.853,2205.484-64.289z"/>
			<path fill="#4B4B4B" d="M2248.828-201.542l-0.004-0.348c-0.086,0.061-0.186,0.114-0.273,0.173
				c-0.035,0.178-0.07,0.361-0.105,0.541C2248.574-201.295,2248.699-201.424,2248.828-201.542z"/>
		</g>
		<g id="Layer_6">
			<path fill="#FF7272" d="M2156.807-108.08c0,0,39.572-26.274,73.281-23.645c79.406,6.196,78,50.42,41,31.67
				c-33-19-50.01-18.057-63-13c-21.344,7.693-40.322,41.981-40.322,41.981l-11.771-26.952l3.336-14.771"/>
			<g>
				<path fill="#F76371" d="M2163.793-112.051"/>
				<path fill="#F76371" d="M2180.664-122.021c-7.172,3.634-14.279,8.317-16.871,9.97l-2.396,11.165l12.062,26.824
					c0,0-1.682-9.891,14.312-22.684C2175.186-106.93,2181.268-116.199,2180.664-122.021z"/>
			</g>
			
				<path fill="none" stroke="#4B4B4B" stroke-width="2.9875" stroke-linecap="round" stroke-linejoin="round" stroke-miterlimit="10" d="
				M2156.875-108.426c0,0,39.572-26.274,73.281-23.645c79.406,6.196,78,50.42,41,31.67c-33-19-50.01-18.057-63-13
				c-21.344,7.693-40.322,41.981-40.322,41.981l-11.771-26.952l3.336-14.771"/>
		</g>
		<path fill="#FFE564" d="M2261.344-233.901c21.666-11.333,41.674-1.239,45.316,14.312c7.006,29.917-102.055,15.489-116.943,29.718
			c-18.779,17.896-34.611,140.646,10.555,152.896c21.41,5.346,60.348-4.693,78.223,1.432c17.125,5.375,44.67,36.18-11.375,23.375
			c-19.875-4.375-65.889-9.682-79.842-15.9c-45.061-17.232-35.34-156.239-9.061-178.33
			C2194.867-220.394,2233.037-219.096,2261.344-233.901z"/>
		<g>
			<path fill="#FFC34A" d="M2207.602-22.416c-64.5-0.332-50.756-167.081-17.039-188.714c0.443-0.285,0.83-0.662,1.258-0.983
				c-4.977,1.858-9.324,4.084-12.752,6.965c-26.279,22.091-36,161.097,9.061,178.329
				C2217.602-14.416,2246.846-18.248,2207.602-22.416z"/>
		</g>
		<g>
			<path fill="#FFF3C2" d="M2306.215-220.923c-5.676-14.835-26.664-22.131-46.508-8.285c17.195-7.295,33.596-0.11,38.512,12.739
				c2.043,5.34-0.107,9.7-5.039,13.366C2303.408-207.579,2309.156-213.235,2306.215-220.923z"/>
		</g>
		<g>
			<path fill="#FFF3C2" d="M2277.135-34.54c-4.025-1.379-9.123-1.935-14.842-2.035c2.773,0.328,5.303,0.845,7.51,1.612
				c13.525,4.313,33.539,24.737,13.748,26.726C2314.82-5.932,2292.037-29.862,2277.135-34.54z"/>
		</g>
		
			<path fill="none" stroke="#4C4C4C" stroke-width="3.7143" stroke-linecap="round" stroke-linejoin="round" stroke-miterlimit="10" d="
			M2261.344-233.065c21.666-11.333,41.674-1.239,45.316,14.312c7.006,29.917-102.055,15.489-116.943,29.718
			c-18.779,17.896-34.611,140.646,10.555,152.896c21.41,5.346,60.348-4.693,78.223,1.432c17.125,5.375,44.67,36.18-11.375,23.375
			c-19.875-4.375-65.889-9.682-79.842-15.9c-45.061-17.232-35.34-156.239-9.061-178.33
			C2194.867-219.558,2233.037-218.26,2261.344-233.065z"/>
		<path fill="none" stroke="#FFDEE1" stroke-width="4" stroke-linecap="round" stroke-linejoin="round" stroke-miterlimit="10" d="
			M2288.047-105.441c-0.441-0.617-1.469-1.923-2.598-2.828"/>
	</g>
	<g id="eye" display="inline">
		
			<path fill="#FFFFFF" stroke="#555555" stroke-width="4" stroke-linecap="round" stroke-linejoin="round" stroke-miterlimit="10" d="
			M2109.828-190.747c0-23.248-13.17-42.181-29.639-43.022c-0.186-0.018-0.371-0.041-0.562-0.041c-0.102,0-0.201,0.009-0.303,0.01
			c-0.092-0.001-0.184-0.01-0.275-0.01c-1.811,0-3.582,0.231-5.307,0.651c-16.045,3.52-28.248,21.162-28.248,42.412
			s12.203,38.892,28.248,42.411c1.725,0.42,3.496,0.651,5.307,0.651c0.092,0,0.184-0.009,0.275-0.01
			c0.102,0.001,0.201,0.01,0.303,0.01c0.191,0,0.377-0.023,0.562-0.04C2096.658-148.565,2109.828-167.499,2109.828-190.747z"/>
		
			<ellipse transform="matrix(0.2056 0.9786 -0.9786 0.2056 1447.6182 -2185.5562)" fill="#545454" stroke="#555555" stroke-width="2.4546" stroke-linecap="round" stroke-linejoin="round" stroke-miterlimit="10" cx="2070.06" cy="-201.08" rx="4.355" ry="4.266"/>
		<g id="Layer_5">
		</g>
		<path fill="#E1EAEA" d="M2073.982-233.215c-10.422,7.369-17.494,21.786-17.494,37.931c0,21.25,12.203,38.892,28.248,42.41
			c1.725,0.42,3.496,0.652,5.307,0.652c0.092,0,0.184-0.01,0.275-0.01c0.102,0,0.201,0.01,0.303,0.01
			c0.191,0,0.377-0.023,0.562-0.041c0.652-0.033,1.299-0.095,1.939-0.184C2049.494-126.227,2022.523-217.248,2073.982-233.215z"/>
		<path fill="#E6EFEF" d="M2092.611-152.114c-8.963,5.843-16.121,6.455-27.803,0.169c-4.453-2.398-10.24,2.199-4.604,7.57
			c1.377,1.312,7.676,6.288,13.393,7.06"/>
		<path fill="none" stroke="#D8E5E5" stroke-width="9" stroke-linecap="round" stroke-linejoin="round" stroke-miterlimit="10" d="
			M2104.018-154.915c-10.895,13.333-26.186,18.542-42.078,7.755"/>
		<path fill="#E6EFEF" d="M2091.977-229.851c-8.736-6.125-12.863-5.881-23.635-2.138c-4.598,1.598-7.982-2.773-4.953-7.347
			c1.529-2.306,3.439-3.639,11.188-5.556"/>
		<path fill="none" stroke="#555555" stroke-width="4" stroke-linecap="round" stroke-linejoin="round" stroke-miterlimit="10" d="
			M2109.828-190.747c0-23.248-13.17-42.181-29.639-43.022c-0.186-0.018-0.371-0.041-0.562-0.041c-0.102,0-0.201,0.009-0.303,0.01
			c-0.092-0.001-0.184-0.01-0.275-0.01c-1.811,0-3.582,0.231-5.307,0.651c-16.045,3.52-28.248,21.162-28.248,42.412
			s12.203,38.892,28.248,42.411c1.725,0.42,3.496,0.651,5.307,0.651c0.092,0,0.184-0.009,0.275-0.01
			c0.102,0.001,0.201,0.01,0.303,0.01c0.191,0,0.377-0.023,0.562-0.04C2096.658-148.565,2109.828-167.499,2109.828-190.747z"/>
		<path fill="none" stroke="#555555" stroke-width="4" stroke-linecap="round" stroke-linejoin="round" stroke-miterlimit="10" d="
			M2103.672-146.625c0.92-0.782,1.814-1.645,2.686-2.588"/>
		<path fill="none" stroke="#555555" stroke-width="4" stroke-linecap="round" stroke-linejoin="round" stroke-miterlimit="10" d="
			M2086.031-136.998c4.25-0.614,8.047-2.124,11.305-4.572c0.078-0.06,0.158-0.119,0.238-0.18"/>
		<path fill="#C3D1CF" d="M2064.643-142.892c-3.646-2.271-2.758-5.633,0.781-6.002c-1.424-0.465-1.457-2.957-2.664-2.8
			c-5.441,0.708-6.525,6.129-2.305,8.556C2070.34-137.454,2069.072-140.133,2064.643-142.892z"/>
		<path fill="none" stroke="#555555" stroke-width="4" stroke-linecap="round" stroke-linejoin="round" stroke-miterlimit="10" d="
			M2091.613-151.422c-8.963,5.843-16.119,6.455-27.801,0.169c-4.455-2.398-10.242,2.199-4.605,7.57
			c1.379,1.312,7.678,6.288,13.393,7.06"/>
		<path fill="none" stroke="#D8E5E5" stroke-width="7" stroke-linecap="round" stroke-linejoin="round" stroke-miterlimit="10" d="
			M2091.482-237.125c-6.955-3.841-15.396-4.517-25.016-0.696"/>
		<path fill="#C3D1CF" d="M2070.457-235.35c-4.105,1.268-4.545-2.536-2.502-5.451c-1.285,0.77-4.711,0.092-5.383,1.106
			c-3.029,4.574,0.355,8.945,4.953,7.347C2078.297-236.091,2075.441-236.89,2070.457-235.35z"/>
		<path fill="none" stroke="#555555" stroke-width="4" stroke-linecap="round" stroke-linejoin="round" stroke-miterlimit="10" d="
			M2091.982-229.846c-8.736-6.125-12.863-5.881-23.635-2.138c-4.598,1.598-7.982-2.773-4.953-7.347
			c1.529-2.306,3.439-3.639,11.188-5.556"/>
	</g>
</g>
<g id="brain_slice" display="none">
	<path display="inline" fill="none" stroke="#555555" stroke-width="3" stroke-miterlimit="10" d="M212.49,79.601
		c-5.053-41.817-27.178-73.664-58.385-73.664c-31.205,0-55.465,31.846-60.518,73.664H212.49z"/>
	
		<path display="inline" fill="#FCA9C5" stroke="#545454" stroke-width="3" stroke-linecap="round" stroke-linejoin="round" stroke-miterlimit="10" d="
		M143.883,74.721c4.68-35.571,25.174-62.658,54.082-62.658c28.902,0,51.375,27.087,56.053,62.658H143.883z"/>
	
		<path display="inline" fill="#FCA9C5" stroke="#545454" stroke-width="3" stroke-linecap="round" stroke-linejoin="round" stroke-miterlimit="10" d="
		M225.078,54.877c-1.248,6.393,2.924,12.587,9.316,13.834l9.883,1.928c6.395,1.247,12.588-2.925,13.834-9.32l0,0
		c1.852-9.484-4.631-12.92-9.318-13.835"/>
	
		<path display="inline" fill="#FFA4AF" stroke="#545454" stroke-width="3" stroke-linecap="round" stroke-linejoin="round" stroke-miterlimit="10" d="
		M154.038,43.534c-5.474,1.236-8.933,7.388-7.722,13.742l0,0c1.208,6.354,6.627,10.503,12.102,9.267l14.041-3.168"/>
	
		<path display="inline" fill="#FFA4AF" stroke="#545454" stroke-width="3" stroke-linecap="round" stroke-linejoin="round" stroke-miterlimit="10" d="
		M173.179,22.652c-7.048-3.451-15.331-0.027-18.5,7.648l0,0c-3.169,7.676-0.024,16.695,7.024,20.146"/>
	
		<path display="inline" fill="#FCA9C5" stroke="#545454" stroke-width="3" stroke-linecap="round" stroke-linejoin="round" stroke-miterlimit="10" d="
		M219.232,19.399c-0.1-7.727-8.977-13.876-19.828-13.737l0,0c-10.85,0.142-19.562,6.52-19.462,14.246"/>
	<path display="inline" fill="#FFB0CA" d="M212.49,78.027c-5.053-41.818-27.178-73.665-58.385-73.665
		c-31.205,0-55.465,31.846-60.517,73.665H212.49z"/>
	<path display="inline" fill="#FCA9C5" d="M216.837,21.262c3.479-2.769,7.886-4.424,12.68-4.424
		c11.241,0,20.355,9.099,20.355,20.323c0,5.302-2.034,10.13-5.366,13.749"/>
	
		<path display="inline" fill="none" stroke="#545454" stroke-width="3" stroke-linecap="round" stroke-linejoin="round" stroke-miterlimit="10" d="
		M217.088,20.153c3.479-2.769,7.885-4.424,12.68-4.424c11.241,0,20.355,9.099,20.355,20.323c0,5.302-2.035,10.13-5.366,13.749"/>
	<path display="inline" fill="#FFB0CA" d="M139.693,11.834c0.99-9.021,11.223-15.106,22.854-13.594l0,0
		c11.632,1.514,20.257,10.054,19.268,19.075"/>
	
		<path display="inline" fill="none" stroke="#545454" stroke-width="3" stroke-linecap="round" stroke-linejoin="round" stroke-miterlimit="10" d="
		M139.693,11.834c0.99-9.021,11.223-15.106,22.854-13.594l0,0c11.632,1.514,20.257,10.054,19.268,19.075"/>
	<path display="inline" fill="#FFB0CA" d="M125.596,53.034c1.346,7.517-3.158,14.799-10.061,16.264l-10.668,2.267
		c-6.903,1.465-13.589-3.439-14.935-10.958l0,0c-1.999-11.15,4.997-15.189,10.06-16.265"/>
	
		<path display="inline" fill="#FFB0CA" stroke="#545454" stroke-width="3" stroke-linecap="round" stroke-linejoin="round" stroke-miterlimit="10" d="
		M202.727,39.633c5.91,1.333,9.643,7.976,8.336,14.836l0,0c-1.305,6.86-7.154,11.339-13.064,10.005l-15.159-3.421"/>
	
		<path display="inline" fill="#FFB0CA" stroke="#545454" stroke-width="3" stroke-linecap="round" stroke-linejoin="round" stroke-miterlimit="10" d="
		M180.137,19.591c6.822-5.023,16.281-2.98,21.125,4.562l0,0c4.845,7.544,3.241,17.73-3.581,22.753"/>
	<path display="inline" fill="#FC819C" d="M113.633,72.216c-7.02-0.726-13.123-7.641-12.096-15.209
		c0.832-6.129,4.377-8.419,4.377-8.419l-2.939-2.081c-5.146-0.531-9.834-1.015-11.356,10.21
		c-1.028,7.568,4.933,14.481,11.952,15.207l10.849,1.12c1.431,0.147,2.837,0.023,4.185-0.314L113.633,72.216z"/>
	
		<path display="inline" fill="none" stroke="#545454" stroke-width="3" stroke-linecap="round" stroke-linejoin="round" stroke-miterlimit="10" d="
		M126.597,53.72c1.347,7.517-3.157,14.799-10.06,16.264l-10.668,2.267c-6.904,1.465-13.59-3.439-14.936-10.958l0,0
		c-1.998-11.15,4.998-15.189,10.061-16.265"/>
	<path display="inline" fill="#FFB0CA" d="M110.166,49.884c-5.697-0.948-9.034-5.6-11.184-10.247
		c-4.723-10.228,3.761-25.263,18.953-33.584c15.188-8.322,31.33-6.779,36.056,3.448"/>
	<g display="inline">
		<path fill="#FC819C" d="M114.562,11.282c6.053-6.855,14.49-9.746,21.139-11.152c-5.463,0.325-12.708,0.598-18.608,3.831
			c-15.192,8.321-23.676,23.356-18.953,33.584c1.718,3.715,4.199,7.427,8.034,9.253C100.839,38.102,104.18,23.036,114.562,11.282z"
			/>
	</g>
	
		<path display="inline" fill="none" stroke="#545454" stroke-width="3" stroke-linecap="round" stroke-linejoin="round" stroke-miterlimit="10" d="
		M108.321,48.326c-5.698-0.948-9.034-5.6-11.185-10.247c-4.723-10.228,3.762-25.263,18.953-33.584
		c15.189-8.322,31.331-6.779,36.057,3.448"/>
	
		<path display="inline" fill="none" stroke="#545454" stroke-width="3" stroke-linecap="round" stroke-linejoin="round" stroke-miterlimit="10" d="
		M110.383,52.622c-2.02-4.848,1.732-8.845,1.732-8.845"/>
	
		<path display="inline" fill="none" stroke="#545454" stroke-width="3" stroke-linecap="round" stroke-linejoin="round" stroke-miterlimit="10" d="
		M240.246,48.689c5.025,1.525,5.725,6.962,5.725,6.962"/>
	
		<path display="inline" fill="none" stroke="#545454" stroke-width="3" stroke-linecap="round" stroke-linejoin="round" stroke-miterlimit="10" d="
		M175.012,17.826c5.026,1.525,5.725,6.962,5.725,6.962"/>
	
		<path display="inline" fill="none" stroke="#FFFFFF" stroke-width="3" stroke-linecap="round" stroke-linejoin="round" stroke-miterlimit="10" d="
		M218.071,15.729"/>
	
		<path display="inline" fill="none" stroke="#FFFFFF" stroke-width="3" stroke-linecap="round" stroke-linejoin="round" stroke-miterlimit="10" d="
		M195.658,27.949c0.996,1.994,1.402,2.975,1.777,5.154"/>
	
		<path display="inline" fill="none" stroke="#FFFFFF" stroke-width="3" stroke-linecap="round" stroke-linejoin="round" stroke-miterlimit="10" d="
		M192.76,24.007c0.113,0.053,0.227,0.108,0.34,0.164"/>
	
		<path display="inline" fill="none" stroke="#FFFFFF" stroke-width="3" stroke-linecap="round" stroke-linejoin="round" stroke-miterlimit="10" d="
		M195.014,25.969"/>
	<path display="inline" fill="#F8FFFE" d="M173.194,99.558c32.911,0,64.026,5.454,91.669,15.144v-16.41
		c0-11.366-0.309-20.015-4.691-23.22c-34.393-25.153-132.31-26.403-170.676-0.173c-3.863,2.641-4.633,11.88-4.633,23.394v15.266
		C111.664,104.584,141.601,99.558,173.194,99.558z"/>
	
		<path display="inline" fill="#FFFFFF" stroke="#545454" stroke-width="3" stroke-linecap="round" stroke-linejoin="round" stroke-miterlimit="10" d="
		M262.431,112.033v1.624c-27.177-9.407-57.679-14.685-89.908-14.685c-31.942,0-62.187,5.183-89.18,14.432v-1.709
		c-0.416,0.884-0.635,1.783-0.635,2.695c0,12.535,40.341,22.698,90.104,22.698c49.761,0,90.103-10.163,90.103-22.698
		C262.914,113.595,262.748,112.809,262.431,112.033z"/>
	<path display="inline" fill="#E6EFEF" d="M111.084,107.076V65.687c-8.423,2.769-15.863,6.193-21.852,10.288
		c-3.863,2.641-4.633,11.88-4.633,23.394v15.289C93.117,111.714,101.963,109.18,111.084,107.076z"/>
	<path display="inline" fill="#FF7373" d="M171.699,98.968c-27.451,0-82.815,8.074-84.915,14.644
		c0,10.827,42.399,18.28,85.164,18.28c42.759,0,87.109-7.156,87.109-17.983C259.058,107.987,199.396,98.968,171.699,98.968z"/>
	
		<path display="inline" fill="none" stroke="#555555" stroke-width="3" stroke-linecap="round" stroke-linejoin="round" stroke-miterlimit="10" d="
		M172.471,98.88c32.395,0,63.053,5.278,90.369,14.685V97.305c0-11.366-0.311-20.015-4.693-23.22
		c-34.393-25.153-132.309-26.403-170.676-0.173c-3.863,2.641-4.633,11.88-4.633,23.394v16.007
		C109.969,104.063,140.367,98.88,172.471,98.88z"/>
	
		<ellipse display="inline" fill="#FFFFFF" stroke="#545454" stroke-width="2.5" stroke-linecap="round" stroke-linejoin="round" stroke-miterlimit="10" cx="172.569" cy="119.116" rx="19.53" ry="5.551"/>
</g>
<g id="logo" display="none">
	<path display="inline" fill="#FFFFFF" d="M-142.331,193.204c1.9-0.34,3.323-1.729,3.323-3.394c0-1.918-1.892-3.474-4.225-3.474
		c-0.042,0-0.081,0.004-0.122,0.005v-66.004c0-71.12-115.842-65.328-115.842,4.183v43.739c-0.588-0.03-1.206,0.002-1.838,0.11
		c-3.022,0.517-5.204,2.499-4.873,4.426c0.227,1.329,1.589,2.284,3.404,2.579c-0.133,0.1-0.268,0.193-0.4,0.3
		c-4.013,3.21-5.606,7.887-3.559,10.446c0.943,1.179,2.5,1.695,4.292,1.603c-0.161,0.112-0.322,0.23-0.479,0.355
		c-2.395,1.916-3.345,4.705-2.123,6.232c1.06,1.325,3.408,1.261,5.575-0.031v4.174c0,0.368,0.007,0.734,0.012,1.101h115.76
		c1.992,0.363,3.747-0.151,4.301-1.414C-138.432,196.563-139.86,194.405-142.331,193.204z"/>
	
		<path display="inline" fill="none" stroke="#555555" stroke-width="2.7379" stroke-linecap="round" stroke-linejoin="round" stroke-miterlimit="10" d="
		M-141.475,192.281c1.9-0.34,3.323-1.729,3.323-3.395c0-1.918-1.892-3.473-4.225-3.473c-0.042,0-0.081,0.004-0.122,0.005v-66.005
		c0-71.12-115.843-65.328-115.843,4.183v43.739c-0.587-0.029-1.206,0.003-1.838,0.111c-3.021,0.517-5.204,2.498-4.873,4.426
		c0.227,1.328,1.589,2.283,3.404,2.579c-0.133,0.1-0.268,0.193-0.4,0.299c-4.013,3.211-5.606,7.888-3.558,10.447
		c0.943,1.179,2.5,1.695,4.292,1.603c-0.162,0.111-0.322,0.229-0.479,0.355c-2.395,1.916-3.345,4.705-2.123,6.232
		c1.06,1.324,3.408,1.26,5.575-0.032v4.175c0,0.368,0.007,0.734,0.012,1.1h115.76c1.992,0.363,3.747-0.15,4.302-1.414
		C-137.576,195.641-139.003,193.482-141.475,192.281z"/>
	<g id="eye_1_" display="inline">
		
			<path fill="#FFFFFF" stroke="#555555" stroke-width="2.5743" stroke-linecap="round" stroke-linejoin="round" stroke-miterlimit="10" d="
			M-229.368,133.296c0-14.962-8.475-27.146-19.074-27.687c-0.12-0.012-0.24-0.026-0.362-0.026c-0.066,0-0.13,0.005-0.195,0.006
			c-0.059,0-0.118-0.006-0.177-0.006c-1.166,0-2.305,0.149-3.415,0.418c-10.326,2.266-18.18,13.619-18.18,27.295
			s7.854,25.029,18.18,27.294c1.11,0.271,2.25,0.42,3.415,0.42c0.06,0,0.118-0.006,0.177-0.007c0.065,0.001,0.129,0.007,0.195,0.007
			c0.123,0,0.242-0.016,0.362-0.026C-237.843,160.442-229.368,148.258-229.368,133.296z"/>
		
			<ellipse transform="matrix(0.2056 0.9786 -0.9786 0.2056 -78.5932 350.1152)" fill="#545454" stroke="#555555" stroke-width="1.5797" stroke-linecap="round" stroke-linejoin="round" stroke-miterlimit="10" cx="-254.962" cy="126.646" rx="2.803" ry="2.744"/>
		<path fill="#E1EAEA" d="M-252.437,105.964c-6.707,4.743-11.258,14.021-11.258,24.412c0,13.676,7.854,25.029,18.179,27.294
			c1.11,0.27,2.25,0.42,3.415,0.42c0.06,0,0.118-0.007,0.177-0.007c0.065,0,0.13,0.007,0.196,0.007c0.123,0,0.242-0.016,0.362-0.026
			c0.419-0.021,0.835-0.062,1.248-0.118C-268.196,174.818-285.554,116.24-252.437,105.964z"/>
		<path fill="#E6EFEF" d="M-240.448,158.158c-5.769,3.761-10.375,4.154-17.893,0.109c-2.866-1.544-6.591,1.415-2.963,4.872
			c0.887,0.844,4.94,4.047,8.619,4.543"/>
		
			<path fill="none" stroke="#D8E5E5" stroke-width="5.7921" stroke-linecap="round" stroke-linejoin="round" stroke-miterlimit="10" d="
			M-233.107,156.356c-7.011,8.58-16.852,11.933-27.08,4.99"/>
		<path fill="#E6EFEF" d="M-240.856,108.13c-5.622-3.942-8.278-3.785-15.21-1.376c-2.959,1.028-5.137-1.785-3.187-4.729
			c0.983-1.483,2.213-2.341,7.2-3.575"/>
		
			<path fill="none" stroke="#555555" stroke-width="2.5743" stroke-linecap="round" stroke-linejoin="round" stroke-miterlimit="10" d="
			M-229.368,133.296c0-14.962-8.475-27.146-19.074-27.687c-0.12-0.012-0.24-0.026-0.362-0.026c-0.066,0-0.13,0.005-0.195,0.006
			c-0.059,0-0.118-0.006-0.177-0.006c-1.166,0-2.305,0.149-3.415,0.418c-10.326,2.266-18.18,13.619-18.18,27.295
			s7.854,25.029,18.18,27.294c1.11,0.271,2.25,0.42,3.415,0.42c0.06,0,0.118-0.006,0.177-0.007c0.065,0.001,0.129,0.007,0.195,0.007
			c0.123,0,0.242-0.016,0.362-0.026C-237.843,160.442-229.368,148.258-229.368,133.296z"/>
		
			<path fill="none" stroke="#555555" stroke-width="2.5743" stroke-linecap="round" stroke-linejoin="round" stroke-miterlimit="10" d="
			M-233.329,161.691c0.591-0.504,1.167-1.059,1.728-1.666"/>
		
			<path fill="none" stroke="#555555" stroke-width="2.5743" stroke-linecap="round" stroke-linejoin="round" stroke-miterlimit="10" d="
			M-244.683,167.887c2.735-0.396,5.179-1.367,7.275-2.942c0.051-0.038,0.102-0.077,0.153-0.115"/>
		<path fill="#C3D1CF" d="M-258.447,164.094c-2.347-1.462-1.775-3.625,0.503-3.863c-0.917-0.299-0.938-1.902-1.714-1.802
			c-3.502,0.456-4.2,3.944-1.484,5.506C-254.781,167.594-255.597,165.869-258.447,164.094z"/>
		
			<path fill="none" stroke="#555555" stroke-width="2.5743" stroke-linecap="round" stroke-linejoin="round" stroke-miterlimit="10" d="
			M-241.09,158.604c-5.768,3.761-10.374,4.154-17.892,0.108c-2.867-1.543-6.591,1.416-2.964,4.872
			c0.887,0.845,4.941,4.047,8.619,4.544"/>
		
			<path fill="none" stroke="#D8E5E5" stroke-width="4.505" stroke-linecap="round" stroke-linejoin="round" stroke-miterlimit="10" d="
			M-241.174,103.448c-4.476-2.472-9.909-2.907-16.1-0.448"/>
		<path fill="#C3D1CF" d="M-254.706,104.59c-2.642,0.816-2.924-1.631-1.61-3.508c-0.827,0.495-3.031,0.059-3.463,0.711
			c-1.95,2.944,0.228,5.757,3.187,4.729C-249.66,104.114-251.498,103.6-254.706,104.59z"/>
		
			<path fill="none" stroke="#555555" stroke-width="2.5743" stroke-linecap="round" stroke-linejoin="round" stroke-miterlimit="10" d="
			M-240.853,108.133c-5.622-3.942-8.278-3.785-15.211-1.376c-2.958,1.028-5.137-1.784-3.187-4.728
			c0.984-1.484,2.213-2.342,7.2-3.576"/>
	</g>
	<g id="eye_2_" display="inline">
		
			<path fill="#FFFFFF" stroke="#555555" stroke-width="2.5743" stroke-linecap="round" stroke-linejoin="round" stroke-miterlimit="10" d="
			M-168.2,133.731c0-14.962-8.475-27.147-19.074-27.688c-0.12-0.011-0.239-0.026-0.362-0.026c-0.066,0-0.13,0.006-0.196,0.006
			c-0.059,0-0.117-0.006-0.177-0.006c-1.166,0-2.305,0.149-3.416,0.418c-10.326,2.266-18.179,13.62-18.179,27.295
			c0,13.675,7.854,25.029,18.179,27.294c1.111,0.27,2.25,0.419,3.416,0.419c0.06,0,0.118-0.006,0.177-0.006
			c0.065,0,0.13,0.006,0.196,0.006c0.123,0,0.242-0.015,0.362-0.025C-176.675,160.877-168.2,148.692-168.2,133.731z"/>
		
			<ellipse transform="matrix(0.2057 0.9786 -0.9786 0.2057 -29.5748 290.5964)" fill="#545454" stroke="#555555" stroke-width="1.5797" stroke-linecap="round" stroke-linejoin="round" stroke-miterlimit="10" cx="-193.793" cy="127.08" rx="2.803" ry="2.745"/>
		<path fill="#E1EAEA" d="M-191.269,106.399c-6.707,4.743-11.259,14.021-11.259,24.412c0,13.676,7.854,25.029,18.18,27.293
			c1.11,0.271,2.25,0.42,3.415,0.42c0.06,0,0.118-0.006,0.177-0.006c0.065,0,0.129,0.006,0.195,0.006
			c0.123,0,0.242-0.015,0.362-0.026c0.419-0.021,0.835-0.061,1.248-0.118C-207.028,175.253-224.386,116.675-191.269,106.399z"/>
		<path fill="#E6EFEF" d="M-179.28,158.594c-5.768,3.76-10.374,4.154-17.892,0.108c-2.867-1.544-6.591,1.415-2.963,4.872
			c0.887,0.844,4.94,4.047,8.619,4.543"/>
		
			<path fill="none" stroke="#D8E5E5" stroke-width="5.7921" stroke-linecap="round" stroke-linejoin="round" stroke-miterlimit="10" d="
			M-171.939,156.791c-7.011,8.581-16.852,11.933-27.08,4.991"/>
		<path fill="#E6EFEF" d="M-179.688,108.565c-5.622-3.942-8.279-3.785-15.211-1.376c-2.958,1.028-5.137-1.785-3.187-4.729
			c0.984-1.483,2.213-2.342,7.2-3.575"/>
		
			<path fill="none" stroke="#555555" stroke-width="2.5743" stroke-linecap="round" stroke-linejoin="round" stroke-miterlimit="10" d="
			M-168.2,133.731c0-14.962-8.475-27.147-19.074-27.688c-0.12-0.011-0.239-0.026-0.362-0.026c-0.066,0-0.13,0.006-0.196,0.006
			c-0.059,0-0.117-0.006-0.177-0.006c-1.166,0-2.305,0.149-3.416,0.418c-10.326,2.266-18.179,13.62-18.179,27.295
			c0,13.675,7.854,25.029,18.179,27.294c1.111,0.27,2.25,0.419,3.416,0.419c0.06,0,0.118-0.006,0.177-0.006
			c0.065,0,0.13,0.006,0.196,0.006c0.123,0,0.242-0.015,0.362-0.025C-176.675,160.877-168.2,148.692-168.2,133.731z"/>
		
			<path fill="none" stroke="#555555" stroke-width="2.5743" stroke-linecap="round" stroke-linejoin="round" stroke-miterlimit="10" d="
			M-172.161,162.126c0.591-0.503,1.167-1.058,1.728-1.665"/>
		
			<path fill="none" stroke="#555555" stroke-width="2.5743" stroke-linecap="round" stroke-linejoin="round" stroke-miterlimit="10" d="
			M-183.515,168.322c2.735-0.396,5.179-1.367,7.275-2.943c0.051-0.038,0.102-0.076,0.153-0.115"/>
		<path fill="#C3D1CF" d="M-197.279,164.528c-2.347-1.461-1.775-3.625,0.503-3.862c-0.917-0.3-0.938-1.903-1.715-1.803
			c-3.501,0.456-4.199,3.945-1.483,5.507C-193.613,168.028-194.429,166.304-197.279,164.528z"/>
		
			<path fill="none" stroke="#555555" stroke-width="2.5743" stroke-linecap="round" stroke-linejoin="round" stroke-miterlimit="10" d="
			M-179.922,159.038c-5.769,3.761-10.374,4.154-17.892,0.109c-2.867-1.544-6.592,1.415-2.964,4.872
			c0.887,0.844,4.941,4.047,8.619,4.543"/>
		
			<path fill="none" stroke="#D8E5E5" stroke-width="4.505" stroke-linecap="round" stroke-linejoin="round" stroke-miterlimit="10" d="
			M-180.006,103.883c-4.476-2.472-9.909-2.907-16.099-0.448"/>
		<path fill="#C3D1CF" d="M-193.538,105.025c-2.642,0.816-2.924-1.631-1.61-3.508c-0.827,0.496-3.031,0.059-3.464,0.711
			c-1.95,2.944,0.229,5.757,3.187,4.729C-188.492,104.549-190.329,104.035-193.538,105.025z"/>
		
			<path fill="none" stroke="#555555" stroke-width="2.5743" stroke-linecap="round" stroke-linejoin="round" stroke-miterlimit="10" d="
			M-179.685,108.567c-5.622-3.941-8.278-3.785-15.21-1.375c-2.959,1.028-5.137-1.784-3.187-4.728c0.983-1.484,2.213-2.342,7.2-3.576
			"/>
	</g>
</g>
<g id="wav_file" display="none">
	<g display="inline">
		
			<path fill="#FF997D" stroke="#515160" stroke-width="3" stroke-linecap="round" stroke-linejoin="round" stroke-miterlimit="10" d="
			M-905.225,179.931c-3.015-4.057-11.237-4.895-20.307-3.33c4.937-11.244,8.841-25.586,19.439-30.479
			c-10.401-11.182-38.595-3.966-51.615,9.557c0.288-5.506,0.981-10.723,2.764-14.942c-6.913-2.694-33.25,17.904-38.436,23.416
			c-30.815,27.947,42.322,77.938,56.401,58.005c1.704-2.266,3.137-4.651,4.306-7.117
			C-923.589,206.833-916.028,187.492-905.225,179.931z"/>
		<path fill="#F9E76B" d="M-941.485,204.127c-17.743-15.662,19.956-27.796,25.634-20.149
			C-925.482,190.718-930.65,213.69-941.485,204.127z"/>
		<path fill="#F9E76B" d="M-945.522,170.275c-17.744-15.661,19.955-27.795,25.634-20.148
			C-929.52,156.867-934.688,179.839-945.522,170.275z"/>
		<path fill="#F9E76B" d="M-967.817,180.577c-23.661,0.473-4.111-33.969,5.244-32.18
			C-965.104,159.876-953.368,180.288-967.817,180.577z"/>
	</g>
	<path display="inline" fill="#FCC368" stroke="#515160" stroke-width="3" stroke-miterlimit="10" d="M-1030.752,180.837
		c-3.775-7.567-10.608-9.17-15.504-9.17h-75.872c-4.896,0-8.866,3.934-8.866,8.783v99.043c0,7.674,6.578,17.347,14.844,18.134
		c8.531,0.812,87.649-9.351,87.649-9.351c4.896,0,8.865-3.933,8.865-8.783L-1030.752,180.837z"/>
	<g display="inline">
		
			<path fill="#FF997D" stroke="#515160" stroke-width="3" stroke-linecap="round" stroke-linejoin="round" stroke-miterlimit="10" d="
			M-1047.016,126.645c-4.123,2.923-5.143,11.125-3.78,20.227c-11.132-5.185-25.383-9.407-30.039-20.111
			c-11.411,10.15-4.823,38.497,8.407,51.813c-5.499-0.409-10.698-1.219-14.877-3.095c-2.847,6.851,17.161,33.64,22.557,38.946
			c27.255,31.429,78.859-40.58,59.243-55.098c-2.227-1.754-4.581-3.24-7.02-4.464
			C-1020.528,145.602-1039.696,137.613-1047.016,126.645z"/>
		<path fill="#F9E76B" d="M-1023.63,163.434c-16.053,17.391-27.346-20.568-19.575-26.075
			C-1036.681,147.137-1013.829,152.813-1023.63,163.434z"/>
		<path fill="#F9E76B" d="M-1057.564,166.718c-16.051,17.392-27.344-20.568-19.574-26.075
			C-1070.613,150.421-1047.762,156.098-1057.564,166.718z"/>
		<path fill="#F9E76B" d="M-1047.76,189.236c-0.053,23.666-34.052,3.354-32.055-5.959
			C-1068.396,186.063-1047.728,174.783-1047.76,189.236z"/>
	</g>
	<g id="file" display="inline">
		<path fill="#8AF9F9" d="M-1028.599,119.16c-2.756-0.166-5.125,1.936-5.29,4.692l-7.083,118.296
			c-0.165,2.757,1.936,5.124,4.692,5.289l82.851,4.959c2.756,0.165,5.125-1.934,5.291-4.691l5.554-92.763l-27.5-32.279
			L-1028.599,119.16z"/>
		<path fill="#68DEEA" d="M-969.867,157.301l28.044,1.68l-31.69-37.197l-1.762,29.422
			C-975.465,154.382-973.044,157.111-969.867,157.301z"/>
		
			<path fill="#86F7A6" stroke="#515160" stroke-width="3" stroke-linecap="round" stroke-linejoin="round" stroke-miterlimit="10" d="
			M-966.94,153.817l24.336,1.456l-27.5-32.279l-1.528,25.533C-971.798,151.283-969.697,153.651-966.94,153.817z"/>
		<path fill="none" stroke="#474759" stroke-width="3" stroke-linecap="round" stroke-linejoin="round" stroke-miterlimit="10" d="
			M-1028.599,119.16c-2.756-0.166-5.125,1.936-5.29,4.692l-7.083,118.296c-0.165,2.757,1.936,5.124,4.692,5.289l82.851,4.959
			c2.756,0.165,5.125-1.934,5.291-4.691l5.554-92.763l-27.5-32.279L-1028.599,119.16z"/>
		<circle fill="#515160" cx="-1018.622" cy="143.019" r="2.416"/>
		<circle fill="#515160" cx="-992.812" cy="144.411" r="2.416"/>
		<path fill="#515160" d="M-1012.78,153.979c0.334-3.579,3.509-6.213,7.09-5.878c3.581,0.334,6.213,3.509,5.879,7.089
			C-1000.146,158.772-1013.114,157.562-1012.78,153.979z"/>
	</g>
	<path display="inline" fill="#F9E76B" stroke="#515160" stroke-width="3" stroke-miterlimit="10" d="M-941.898,289.327
		c0,5.522-4.477,10-10,10h-160.667c-5.523,0-10-4.478-10-10v-91.462c0-5.523,4.477-10,10-10h160.667c5.523,0,10,4.477,10,10V289.327
		z"/>
	<path display="inline" fill="#FCC368" stroke="#515160" stroke-width="2.7" stroke-miterlimit="10" d="M-997.219,260.04
		c0.036,3.568-3.673,6.495-8.282,6.54l-54.515,0.527c-4.607,0.046-8.372-2.811-8.406-6.38l-0.241-24.984
		c-0.034-3.569,3.674-6.498,8.28-6.543l54.517-0.527c4.607-0.044,8.372,2.813,8.407,6.381L-997.219,260.04z"/>
	<g display="inline">
		<path fill="#515160" d="M-1036.102,242.854c0.092-0.36,0.252-0.623,0.478-0.787c0.227-0.164,0.478-0.248,0.754-0.25
			c0.18-0.002,0.36,0.029,0.541,0.094c0.181,0.063,0.344,0.158,0.489,0.282c0.146,0.125,0.264,0.277,0.355,0.456
			c0.092,0.18,0.139,0.377,0.141,0.593c0.001,0.156-0.027,0.336-0.084,0.54l-2.462,7.891c-0.104,0.35-0.291,0.609-0.559,0.78
			c-0.269,0.17-0.553,0.257-0.853,0.26c-0.312,0.003-0.604-0.081-0.875-0.253c-0.272-0.171-0.47-0.424-0.593-0.759l-1.406-3.947
			l-1.239,3.973c-0.105,0.35-0.292,0.609-0.56,0.779c-0.269,0.171-0.553,0.258-0.853,0.261c-0.312,0.003-0.604-0.081-0.876-0.253
			c-0.271-0.171-0.469-0.424-0.592-0.76l-2.794-7.875c-0.062-0.203-0.093-0.378-0.095-0.521c-0.002-0.216,0.041-0.41,0.129-0.586
			c0.088-0.175,0.204-0.326,0.347-0.453c0.143-0.128,0.304-0.225,0.483-0.293c0.179-0.067,0.365-0.103,0.557-0.104
			c0.276-0.002,0.531,0.076,0.767,0.236c0.236,0.159,0.403,0.419,0.502,0.777l1.509,5.241l1.263-5.268
			c0.093-0.349,0.267-0.614,0.523-0.797s0.535-0.275,0.834-0.278s0.583,0.084,0.849,0.262s0.448,0.44,0.548,0.787l1.509,5.241
			L-1036.102,242.854z"/>
		<path fill="#515160" d="M-1025.966,250.479l-3.186,0.03l-0.439,1.156c-0.129,0.338-0.309,0.582-0.542,0.734
			c-0.232,0.153-0.487,0.23-0.762,0.232c-0.204,0.002-0.399-0.029-0.586-0.093c-0.187-0.064-0.359-0.159-0.516-0.283
			c-0.158-0.125-0.282-0.271-0.374-0.438c-0.091-0.167-0.138-0.358-0.14-0.575c-0.002-0.216,0.038-0.414,0.12-0.595l3.47-7.864
			c0.152-0.337,0.36-0.591,0.623-0.762s0.532-0.257,0.808-0.26s0.544,0.079,0.804,0.244c0.259,0.166,0.457,0.416,0.592,0.75
			l3.333,7.799c0.085,0.179,0.129,0.376,0.132,0.592c0.002,0.205-0.042,0.395-0.129,0.569c-0.089,0.175-0.21,0.325-0.365,0.453
			c-0.155,0.127-0.328,0.226-0.52,0.293c-0.191,0.067-0.383,0.103-0.575,0.104c-0.276,0.003-0.535-0.069-0.776-0.218
			c-0.242-0.147-0.424-0.389-0.547-0.724L-1025.966,250.479z M-1028.239,248.16l1.44-0.015l-0.685-1.919L-1028.239,248.16z"/>
		<path fill="#515160" d="M-1015.727,242.657c0.128-0.337,0.309-0.585,0.542-0.743s0.487-0.239,0.763-0.242
			c0.192-0.002,0.384,0.033,0.577,0.104c0.192,0.069,0.368,0.167,0.525,0.291c0.157,0.125,0.282,0.274,0.374,0.447
			c0.091,0.173,0.139,0.367,0.141,0.583c0.002,0.204-0.039,0.396-0.12,0.577l-3.129,7.807c-0.282,0.663-0.734,0.997-1.358,1.003
			c-0.636,0.007-1.144-0.318-1.521-0.976l-3.278-7.744c-0.086-0.18-0.13-0.371-0.132-0.575c-0.002-0.216,0.041-0.411,0.129-0.586
			c0.088-0.174,0.209-0.326,0.365-0.453c0.154-0.128,0.324-0.229,0.51-0.302c0.185-0.074,0.379-0.112,0.584-0.114
			c0.275-0.003,0.531,0.073,0.766,0.227c0.236,0.154,0.421,0.398,0.557,0.732l1.9,4.734L-1015.727,242.657z"/>
	</g>
	
		<path display="inline" fill="#8AF9F9" stroke="#515160" stroke-width="2.5" stroke-linecap="round" stroke-linejoin="round" stroke-miterlimit="10" d="
		M-967.431,161.599c1.375,10.375-7.987,39.717-7.987,39.717c-0.435,1.023-1.728,1.669-3.024,1.435l0,0
		c-1.297-0.234-2.381-1.603-1.794-3.012c0.495-1.188,8.681-31.515,6.992-39.207"/>
	<circle display="inline" fill="#515160" cx="-1051.651" cy="251.083" r="2.416"/>
	<g id="file_1_" display="inline">
		<path fill="#8AF9F9" d="M-1395.158,244.499c-2.759-0.101-5.078,2.056-5.178,4.815l-4.294,118.43
			c-0.1,2.761,2.056,5.077,4.815,5.178l82.945,3.006c2.759,0.101,5.078-2.054,5.178-4.814l3.368-92.868l-28.253-31.622
			L-1395.158,244.499z"/>
		<path fill="#68DEEA" d="M-1335.544,281.246l28.076,1.019l-32.557-36.439l-1.068,29.455
			C-1341.208,278.46-1338.725,281.131-1335.544,281.246z"/>
		
			<path fill="#86F7A6" stroke="#515160" stroke-width="3" stroke-linecap="round" stroke-linejoin="round" stroke-miterlimit="10" d="
			M-1332.7,277.694l24.364,0.883l-28.252-31.622l-0.927,25.562C-1337.616,275.275-1335.46,277.594-1332.7,277.694z"/>
		<path fill="none" stroke="#474759" stroke-width="3" stroke-linecap="round" stroke-linejoin="round" stroke-miterlimit="10" d="
			M-1395.158,244.499c-2.759-0.101-5.078,2.056-5.178,4.815l-4.294,118.43c-0.1,2.761,2.056,5.077,4.815,5.178l82.945,3.006
			c2.759,0.101,5.078-2.054,5.178-4.814l3.368-92.868l-28.253-31.622L-1395.158,244.499z"/>
		<circle fill="#515160" cx="-1384.622" cy="268.116" r="2.416"/>
		<circle fill="#515160" cx="-1358.786" cy="268.9" r="2.416"/>
	</g>
	
		<path display="inline" fill="#8AF9F9" stroke="#474759" stroke-width="2.5" stroke-linecap="round" stroke-linejoin="round" stroke-miterlimit="10" d="
		M-1401.752,300.755c-8.821-5.633-23.232-29.184-23.232-29.184c-0.503-0.991-0.164-2.396,0.851-3.237l0,0
		c1.015-0.841,2.76-0.788,3.459,0.568c0.589,1.144,15.648,24.81,22.62,28.474"/>
	
		<path display="inline" fill="#8AF9F9" stroke="#515160" stroke-width="2.5" stroke-linecap="round" stroke-linejoin="round" stroke-miterlimit="10" d="
		M-1321.229,301.09c8.198-6.506,21.854-34.112,21.854-34.112c0.398-1.037-0.083-2.4-1.178-3.133l0,0
		c-1.096-0.732-2.826-0.502-3.383,0.919c-0.469,1.198-15.655,28.696-22.215,33.055"/>
	<path display="inline" fill="#515160" d="M-1365.399,283.719c0,5.789,0.544,10.653-7.903,10.481s-7.903-4.692-7.903-10.481
		s3.538-10.482,7.903-10.482S-1365.399,277.93-1365.399,283.719z"/>
	<g display="inline">
		<g>
			<path fill="#474759" d="M-1389.561,368.939c-4.814,4.857-8.782,9.783-11.386,16.162c-0.285,0.698,0.305,1.729,1.047,1.845
				c10.358,1.62,19.062-2.782,28.798-5.5c1.86-0.52,1.069-3.414-0.798-2.893c-9.066,2.53-17.518,7.015-27.202,5.5
				c0.349,0.615,0.698,1.229,1.047,1.845c2.388-5.85,6.21-10.394,10.614-14.838
				C-1386.077,369.686-1388.197,367.563-1389.561,368.939L-1389.561,368.939z"/>
		</g>
	</g>
	<g display="inline">
		<g>
			<path fill="#474759" d="M-1329.257,372.795c4.1,2.983,10.29,6.042,10.757,11.705c0.367-0.482,0.734-0.964,1.101-1.446
				c-8.604,1.548-20.188-0.682-27.844-4.849c-1.699-0.926-3.213,1.665-1.514,2.59c8.391,4.567,20.72,6.849,30.156,5.151
				c0.61-0.109,1.152-0.832,1.101-1.446c-0.581-7.047-7.079-10.538-12.243-14.295
				C-1329.311,369.064-1330.805,371.669-1329.257,372.795L-1329.257,372.795z"/>
		</g>
	</g>
	<g display="inline">
		<g>
			<path fill="#474759" d="M-1372.561,380.561c2.523,2.039,4.901,4.232,7.804,5.734c1.715,0.888,3.232-1.701,1.514-2.59
				c-2.681-1.388-4.865-3.383-7.196-5.266C-1371.929,377.235-1374.066,379.345-1372.561,380.561L-1372.561,380.561z"/>
		</g>
	</g>
	<g display="inline">
		<g>
			<path fill="#474759" d="M-1348.757,379.205c-2.029,1.539-3.854,3.248-5.039,5.538c-0.887,1.715,1.702,3.232,2.591,1.514
				c0.94-1.818,2.34-3.231,3.961-4.462c0.65-0.493,0.989-1.282,0.539-2.052C-1347.081,379.102-1348.104,378.709-1348.757,379.205
				L-1348.757,379.205z"/>
		</g>
	</g>
	<g display="inline">
		<g>
			<path fill="#474759" d="M-1364,269c2.51-0.037,4.99-0.463,7.5-0.5c1.933-0.028,1.936-3.028,0-3c-2.51,0.037-4.99,0.463-7.5,0.5
				C-1365.933,266.028-1365.936,269.028-1364,269L-1364,269z"/>
		</g>
	</g>
	<g display="inline">
		<g>
			<path fill="#474759" d="M-1388.399,265.446c2.877,1.018,5.456,2.732,7.838,4.614c1.5,1.186,3.639-0.923,2.121-2.121
				c-2.812-2.222-5.763-4.184-9.162-5.386C-1389.43,261.906-1390.209,264.806-1388.399,265.446L-1388.399,265.446z"/>
		</g>
	</g>
</g>
<g id="Layer_18" display="none">
	<path display="inline" fill="#53EA9A" d="M-1169.348,283.833h-59.997v-59.997c0-7.041-5.708-12.749-12.75-12.749
		s-12.75,5.708-12.75,12.749v59.997h-59.997c-7.041,0-12.749,5.708-12.749,12.749c0,7.042,5.708,12.75,12.749,12.75h59.997v59.997
		c0,7.041,5.708,12.749,12.75,12.749s12.75-5.708,12.75-12.749v-59.997h59.997c7.041,0,12.749-5.708,12.749-12.75
		C-1156.599,289.541-1162.307,283.833-1169.348,283.833z"/>
	<path display="inline" fill="#7AF486" d="M-1230.247,223.221v59.997h59.997c6.005,0,11.026,4.157,12.378,9.746h-68.762
		c-6.88,0-12.458-4.954-12.458-11.064v-70.812C-1233.961,212.736-1230.247,217.543-1230.247,223.221z"/>
	
		<path display="inline" fill="none" stroke="#474759" stroke-width="3" stroke-linecap="round" stroke-linejoin="round" stroke-miterlimit="10" d="
		M-1169.348,283.833h-59.997v-59.997c0-7.041-5.708-12.749-12.75-12.749s-12.75,5.708-12.75,12.749v59.997h-59.997
		c-7.041,0-12.749,5.708-12.749,12.749c0,7.042,5.708,12.75,12.749,12.75h59.997v59.997c0,7.041,5.708,12.749,12.75,12.749
		s12.75-5.708,12.75-12.749v-59.997h59.997c7.041,0,12.749-5.708,12.749-12.75C-1156.599,289.541-1162.307,283.833-1169.348,283.833
		z"/>
	<path display="inline" fill="#F7EA4D" d="M-1138.848,229.255l-5.061-3.468l3.468-5.062c0.407-0.595,0.255-1.405-0.338-1.812
		c-0.594-0.408-1.406-0.257-1.813,0.338l-3.468,5.062l-5.062-3.468c-0.593-0.407-1.405-0.257-1.812,0.338
		c-0.408,0.595-0.256,1.406,0.338,1.812l5.062,3.469l-3.468,5.061c-0.407,0.595-0.255,1.405,0.338,1.812
		c0.594,0.407,1.405,0.256,1.813-0.339l3.468-5.061l5.062,3.467c0.593,0.407,1.405,0.257,1.812-0.339
		C-1138.102,230.473-1138.253,229.662-1138.848,229.255z"/>
	<path display="inline" fill="#F7EA4D" d="M-1309.308,377.289l-5.68-3.893l3.598-5.252c0.423-0.616,0.224-1.487-0.441-1.943
		c-0.667-0.456-1.551-0.327-1.973,0.29l-3.599,5.252l-5.679-3.893c-0.667-0.455-1.549-0.327-1.971,0.29
		c-0.424,0.617-0.226,1.486,0.441,1.941l5.68,3.893l-3.599,5.253c-0.422,0.615-0.224,1.485,0.442,1.942
		c0.667,0.457,1.549,0.327,1.972-0.288l3.599-5.253l5.68,3.891c0.665,0.458,1.548,0.329,1.97-0.289
		C-1308.442,378.614-1308.642,377.744-1309.308,377.289z"/>
	<path display="inline" fill="#F7EA4D" d="M-1207.996,182.303l0.689-5.203l4.812,0.637c0.566,0.074,1.089-0.36,1.169-0.971
		c0.081-0.611-0.311-1.166-0.876-1.241l-4.812-0.637l0.689-5.204c0.08-0.611-0.312-1.167-0.875-1.24
		c-0.567-0.075-1.09,0.358-1.169,0.971l-0.69,5.203l-4.812-0.638c-0.564-0.074-1.087,0.359-1.169,0.972
		c-0.081,0.61,0.312,1.165,0.876,1.24l4.812,0.638l-0.688,5.203c-0.082,0.61,0.31,1.167,0.875,1.242
		C-1208.599,183.349-1208.077,182.913-1207.996,182.303z"/>
	<path display="inline" fill="#F7EA4D" d="M-1368.141,260.948l0.746-5.643l5.218,0.691c0.614,0.079,1.181-0.393,1.269-1.052
		c0.088-0.665-0.337-1.268-0.951-1.348l-5.218-0.692l0.748-5.642c0.086-0.662-0.338-1.266-0.949-1.345
		c-0.614-0.081-1.182,0.39-1.269,1.051l-0.747,5.645l-5.218-0.692c-0.612-0.079-1.179,0.391-1.268,1.054
		c-0.088,0.662,0.338,1.265,0.951,1.345l5.218,0.691l-0.746,5.643c-0.089,0.662,0.335,1.266,0.949,1.346
		C-1368.795,262.082-1368.229,261.609-1368.141,260.948z"/>
	<circle display="inline" fill="#F7EA4D" cx="-1314.304" cy="212.445" r="6.238"/>
	<circle display="inline" fill="#F7EA4D" cx="-1197.437" cy="355.849" r="4.563"/>
	<circle display="inline" fill="#F7EA4D" cx="-1194.549" cy="239.796" r="2.641"/>
	<circle display="inline" fill="#F7EA4D" cx="-1282.741" cy="331.061" r="2.997"/>
	<path display="inline" fill="#F7EA4D" d="M-1146.551,349.962l0.744-5.618l5.196,0.688c0.611,0.08,1.176-0.389,1.263-1.047
		c0.087-0.662-0.335-1.262-0.947-1.341l-5.196-0.688l0.745-5.62c0.087-0.658-0.336-1.259-0.945-1.339
		c-0.611-0.08-1.177,0.389-1.263,1.048l-0.745,5.62l-5.195-0.69c-0.609-0.078-1.174,0.39-1.262,1.05
		c-0.088,0.659,0.336,1.259,0.946,1.341l5.195,0.687l-0.742,5.619c-0.088,0.658,0.335,1.259,0.946,1.34
		C-1147.202,351.092-1146.639,350.622-1146.551,349.962z"/>
</g>
<g id="Layer_19" display="none">
	<circle display="inline" fill="none" stroke="#545454" stroke-width="13" stroke-miterlimit="10" cx="-1450" cy="227" r="69"/>
	
		<line display="inline" fill="none" stroke="#545454" stroke-width="13" stroke-linecap="round" stroke-miterlimit="10" x1="-1398.688" y1="277.32" x2="-1353.004" y2="323.004"/>
</g>
<g id="Layer_20" display="none">
	<g display="inline" opacity="0.5">
		<path fill="#29DCE5" d="M-1418.615,124.438c0-2.059-1.674-3.733-3.732-3.733c-0.302,0-0.546-0.244-0.546-0.546v-0.086
			c0-0.301,0.244-0.546,0.546-0.546c2.058,0,3.732-1.674,3.732-3.732c0-0.301,0.244-0.545,0.546-0.545h0.086
			c0.301,0,0.545,0.244,0.545,0.545c0,2.059,1.675,3.732,3.733,3.732c0.301,0,0.546,0.245,0.546,0.546v0.086
			c0,0.302-0.245,0.546-0.546,0.546c-2.058,0-3.733,1.674-3.733,3.733c0,0.301-0.244,0.545-0.545,0.545h-0.086
			C-1418.371,124.983-1418.615,124.739-1418.615,124.438z"/>
	</g>
	<g display="inline" opacity="0.5">
		<path fill="#29DCE5" d="M-1253.901,119.086c0-3.885-3.161-7.046-7.045-7.046c-0.569,0-1.03-0.461-1.03-1.03v-0.163
			c0-0.569,0.461-1.03,1.03-1.03c3.885,0,7.045-3.161,7.045-7.045c0-0.568,0.461-1.029,1.031-1.029h0.163
			c0.569,0,1.03,0.461,1.03,1.029c0,3.884,3.161,7.045,7.045,7.045c0.569,0,1.031,0.461,1.031,1.03v0.163
			c0,0.569-0.461,1.03-1.031,1.03c-3.884,0-7.045,3.161-7.045,7.046c0,0.569-0.461,1.03-1.03,1.03h-0.163
			C-1253.44,120.117-1253.901,119.655-1253.901,119.086z"/>
	</g>
	<g display="inline" opacity="0.5">
		<path fill="#29DCE5" d="M-1414.232,97.121c0-3.751-3.052-6.802-6.802-6.802c-0.549,0-0.995-0.445-0.995-0.995v-0.157
			c0-0.549,0.445-0.995,0.995-0.995c3.75,0,6.802-3.052,6.802-6.802c0-0.549,0.445-0.994,0.995-0.994h0.157
			c0.549,0,0.995,0.445,0.995,0.994c0,3.75,3.052,6.802,6.803,6.802c0.549,0,0.995,0.445,0.995,0.995v0.157
			c0,0.55-0.445,0.995-0.995,0.995c-3.751,0-6.803,3.051-6.803,6.802c0,0.549-0.445,0.995-0.995,0.995h-0.157
			C-1413.787,98.115-1414.232,97.67-1414.232,97.121z"/>
	</g>
	<g display="inline" opacity="0.5">
		<path fill="#29DCE5" d="M-1270.469,86.222c0-2.784-2.266-5.05-5.05-5.05c-0.408,0-0.738-0.33-0.738-0.738v-0.117
			c0-0.408,0.331-0.738,0.738-0.738c2.785,0,5.05-2.266,5.05-5.05c0-0.407,0.331-0.738,0.739-0.738h0.116
			c0.408,0,0.739,0.331,0.739,0.738c0,2.784,2.266,5.05,5.05,5.05c0.408,0,0.739,0.331,0.739,0.738v0.117
			c0,0.408-0.331,0.738-0.739,0.738c-2.785,0-5.05,2.266-5.05,5.05c0,0.408-0.331,0.739-0.739,0.739h-0.116
			C-1270.139,86.961-1270.469,86.63-1270.469,86.222z"/>
	</g>
	<g display="inline">
		<path fill="#11B2BA" d="M-1335.632,125.031v4.326c0,1.864-1.398,3.261-3.262,3.261c-1.73,0-3.261-1.397-3.261-3.261v-6.922
			c0-0.066,0.067-0.066,0.067-0.133c-0.067-0.066-0.067-0.066-0.067-0.133c0-1.73,1.531-3.261,3.261-3.261
			c4.193,0,7.588-3.328,7.588-7.455c0-4.193-3.395-7.455-7.588-7.455c-2.729,0-5.125,1.464-6.39,3.661
			c-0.932,1.598-2.928,2.13-4.526,1.198c-1.531-0.932-2.063-2.862-1.131-4.459c2.396-4.127,6.922-6.922,12.047-6.922
			c7.721,0,14.044,6.257,14.044,13.978C-1324.85,118.042-1329.442,123.566-1335.632,125.031z M-1335.632,139.607v1.198
			c0,1.863-1.398,3.261-3.262,3.261c-1.73,0-3.261-1.398-3.261-3.261v-1.198c0-1.797,1.531-3.261,3.261-3.261
			C-1337.03,136.346-1335.632,137.81-1335.632,139.607z"/>
	</g>
	<path display="inline" fill="#8AF9F9" d="M-1403.058,130.239c0,11.76,3.128,22.788,8.599,32.298
		c44.055,0.676,83.449,1.842,111.745,1.365c5.969-9.814,9.406-21.337,9.406-33.664c0-35.829-29.046-64.875-64.875-64.875
		C-1374.012,65.364-1403.058,94.41-1403.058,130.239z"/>
	<path display="inline" fill="#68E1EA" d="M-1336.852,65.897c2.338,0,4.647,0.126,6.921,0.368
		c-32.575,3.455-57.953,31.016-57.953,64.507c0,11.759,3.128,22.787,8.598,32.298c33.64,0.517,26.201,0.614-13.843,0
		c-5.47-9.511-8.599-20.539-8.599-32.298C-1401.727,94.942-1372.681,65.897-1336.852,65.897z"/>
	
		<path display="inline" fill="none" stroke="#545454" stroke-width="4" stroke-linecap="round" stroke-linejoin="round" stroke-miterlimit="10" d="
		M-1403.058,130.239c0,11.76,3.128,22.788,8.599,32.298c44.055,0.676,83.449,1.842,111.745,1.365
		c5.969-9.814,9.406-21.337,9.406-33.664c0-35.829-29.046-64.875-64.875-64.875C-1374.012,65.364-1403.058,94.41-1403.058,130.239z"
		/>
	<path display="inline" fill="#F9E76B" d="M-1270,164.347c0-4.058-3.289-7.347-7.346-7.347h-121.308
		c-4.057,0-7.346,3.289-7.346,7.347v0.307c0,4.058,3.289,7.347,7.346,7.347h121.308c4.057,0,7.346-3.289,7.346-7.347V164.347z"/>
	<path display="inline" fill="#F4CE2F" d="M-1398.859,156h18.02c-3.561,0-7.161,3.373-7.161,7.477v0.046
		c0,4.104,3.6,7.478,7.161,7.478h-18.02c-3.561,0-7.141-3.374-7.141-7.478v-0.046C-1406,159.373-1402.42,156-1398.859,156z"/>
	
		<path display="inline" fill="none" stroke="#FFFFFF" stroke-width="5.5905" stroke-linecap="round" stroke-linejoin="round" stroke-miterlimit="10" d="
		M-1300.288,89.246c-1.117-1.27-2.235-2.358-3.326-3.214"/>
	
		<path display="inline" fill="none" stroke="#FFFFFF" stroke-width="5.5905" stroke-linecap="round" stroke-linejoin="round" stroke-miterlimit="10" d="
		M-1286.488,114.689c-1.619-6.581-4.953-13.639-8.693-19.104"/>
	
		<path display="inline" fill="none" stroke="#545454" stroke-width="4" stroke-linecap="round" stroke-linejoin="round" stroke-miterlimit="10" d="
		M-1269,163.346c0-4.057-3.289-7.346-7.346-7.346h-121.308c-4.057,0-7.346,3.289-7.346,7.346v0.309c0,4.057,3.289,7.346,7.346,7.346
		h121.308c4.057,0,7.346-3.289,7.346-7.346V163.346z"/>
</g>
</svg>
