<svg xmlns="http://www.w3.org/2000/svg" width="494" height="232" viewBox="0 0 494 232"><g stroke="#545454" stroke-width="3" stroke-linecap="round" stroke-linejoin="round" stroke-miterlimit="10"><path fill="#FC687E" d="M67.762 129.203c1.844-.346 3.597-.137 5.26.625 1.662.76 2.66 2.036 2.995 3.82 2.972 13.405-24.672 26.618-21.504 26.024 11.575-2.168 19.614-.305 24.116 5.588 1.424 1.88 2.37 4.06 2.833 6.533.193 1.037.3 2.24.317 3.607.12 9.873-3.988 19.764-12.327 29.67-7.322 8.646-15.765 13.863-25.324 15.652-8.12 1.52-25.81 2.332-28.004-9.15-.346-1.844.08-3.785 1.277-5.828 4.25-7.023 11.126-1.025 19.876-.9 16.374-1 25.036-13.13 27.76-18.082.825-1.498 1.076-2.854.86-4.006-.658-3.512-4.318-5.39-10.98-5.633-3.896-.105-8.378.316-13.444 1.266-6.048 1.132-13.385 3.013-22.013 5.642-8.643 1.855-9.81-7.645-6.8-11.96 6.102-9.43 18.433-20.292 36.994-32.592 7.692-5.076 11.944-7.84 12.754-8.29 1.9-1.012 3.68-1.675 5.352-1.987zM177.98 127.216c2.48 13.234-.134 26.91-7.833 41.03 6.36 9.082 10.02 16.156 10.97 21.225.526 2.817-.437 5.84-2.894 9.067-1.97 2.7-4.05 4.256-6.23 4.664-2.534.476-4.478-.763-5.833-3.716-1.996-4.436-4.808-9.336-8.437-14.703-8.004 7.84-16.477 12.595-25.415 14.27-7.744 1.45-14.653.448-20.727-3.005-6.074-3.45-10.528-8.848-13.36-16.186-.993-2.583-1.738-5.21-2.24-7.888-1.66-8.87-.807-18.5 2.565-28.895 4.38-13.57 11.825-24.582 22.338-33.036 6.837-5.505 13.67-8.898 20.497-10.178 7.742-1.45 14.663-.486 20.76 2.888 8.384 4.698 13.666 12.85 15.84 24.466zm-53.19 23.514c-.098-2.457.785-4.555 2.646-6.288 1.605-1.54 3.676-2.547 6.21-3.02 3.448-.647 6.407-.218 8.876 1.287 4.838 2.883 9.535 6.374 14.093 10.475 2.126-6.535 2.628-12.807 1.504-18.81-1.19-6.353-3.474-10.565-6.848-12.64-2.863-1.655-6.052-2.154-9.57-1.496-1.268.236-2.51.616-3.723 1.134-7.964 3.39-14.288 9.594-18.975 18.61-4.688 9.017-6.23 17.792-4.632 26.326.713 3.807 2.16 7.26 4.344 10.354 2.97 4.188 7.61 5.436 13.925 3.744 4.918-1.36 9.578-4.49 13.98-9.395-4.98-5.188-10.604-9.928-16.87-14.217-3.187-1.442-4.84-3.466-4.962-6.066zM203.488 77.753c5.53-1.035 12.804 1.84 12.272 9.505-.63 9.096-.42 14.942-.422 17.485.043 6.59-.135 17.927.493 22.975 3.33-11.512 10.147-30.385 18.683-46 2.528-4.624 3.67-7.56 8.59-8.88 2.953-.793 5.23-.403 6.836 1.163 1.604 1.568 2.36 4.146 2.9 6.908l9.157 39.143c1.68-5.876 2.948-16.53 3.77-24.87l1.67-21.654c.925-4.386 4.076-7.083 9.452-8.09 2.916-.546 5.564-.208 7.94 1.017s3.828 3.258 4.36 6.1c.244 1.305.258 2.653.042 4.044l-6.782 43.357c-2.076 13.106-4.374 24.387-6.896 33.84-4.654 17.165-7.89 26.093-14.813 27.216-2.312.375-8.824 1.607-11.04-6.756-1.37-5.17-3.9-25.48-5.124-31.17-1.226-5.69-2.104-9.96-2.636-12.8-.633-3.38-1.14-6.503-1.517-9.374 0 0-16.203 47.784-19.16 55.57-3.223 8.49-16.264 9.073-20.062-3.99-1.357-4.673-2.502-9.546-3.45-14.614-1.943-10.367-3.185-21.66-3.724-33.878-.23-7.588-.61-18.962-1.145-34.123-.135-2.836.924-5.458 3.177-7.867 2.037-2.29 4.512-3.708 7.43-4.255zM311.688 98.78c9.02-24.937 16.553-41.72 22.603-50.344 3.125-4.46 6.312-6.994 9.556-7.602 7.736-1.45 14.748 7.485 21.035 26.8 2.032 6.252 4.96 18.446 8.79 36.586 4.706.756 7.433 3.13 8.18 7.122.687 3.66-.512 7.157-3.588 10.488.4 1.217 1.402 3.354 3.01 6.41 1.215 2.356 2.02 4.832 2.423 7.426 1.448 10.494-1.643 17.904-9.683 17.958-4.592.03-6.592-1.908-8.88-6.732-1.2-2.527-4.73-12.374-5.58-16.003-18.443 5.435-32.43 10.293-41.96 14.575-1.598 2.97-10.297 22.727-17.833 22.713-2.286-.004-7.37.014-8.938-6.334-.567-2.3.06-5.436 1.483-9.318 3.56-9.967 10.02-27.88 19.383-53.745zm42.08 12.267c-.59-2.214-2.374-9.456-5.36-21.728-1.79-7.242-3.435-12.574-4.935-15.997-6.262 11.162-12.35 27.156-18.266 47.98 7.117-2.45 16.64-5.87 28.56-10.256zM414.436 18.48c3.516-1.027 6.488-1.006 8.915.07 2.43 1.075 3.923 3.368 4.49 6.88-5.163 28.88-7.148 46.498-5.957 52.858.168.896.654 1.27 1.46 1.117 3.94-.738 17.26-22.706 39.956-65.904 2.088-2.707 4.387-4.298 6.895-4.768 2.866-.537 5.714.182 8.54 2.155 2.827 1.975 4.51 4.396 5.047 7.262.37 1.97-.004 3.942-1.118 5.91l-16.122 29.032c-8.72 15.82-13.13 24.714-13.224 26.68-.114.393-.11.902.008 1.528.79 4.212 5.255 10.98 13.4 20.302l16.507 18.33c11.066 10.286-.434 33.91-18.354 18.6-14.224-12.153-24.243-21.007-29.567-27.15-1.675-2.004-3.095-2.898-4.258-2.68-1.793.335-6.88.642-5.47 19.802.158 10.263-3.558 15.92-11.15 16.972-7.413 1.018-13.01-1.632-13.653-8.293-4.036-41.84-2.114-77.862 2.667-108.3.85-5.414 3.846-8.416 10.986-10.402z"/><path fill="#FFE564" d="M59.6 130.245c1.845-.346 3.598-.137 5.26.625 1.663.76 2.662 2.036 2.996 3.82 2.972 13.405-24.672 26.62-21.504 26.025 11.575-2.168 19.614-.305 24.116 5.588 1.425 1.88 2.37 4.057 2.834 6.533.193 1.035.3 2.238.317 3.605.118 9.876-3.99 19.765-12.328 29.673-7.322 8.645-15.765 13.86-25.324 15.652-8.12 1.52-25.81 2.33-28.003-9.152-.346-1.842.08-3.783 1.277-5.828 4.25-7.02 11.126-1.023 19.876-.898 16.375-1 25.037-13.133 27.762-18.082.824-1.498 1.075-2.854.86-4.008-.66-3.512-4.32-5.39-10.982-5.633-3.895-.104-8.377.318-13.443 1.268-6.048 1.13-13.385 3.014-22.013 5.643-8.643 1.855-9.81-7.645-6.8-11.96 6.102-9.43 18.433-20.294 36.994-32.593 7.692-5.076 11.944-7.84 12.754-8.29 1.897-1.012 3.68-1.675 5.35-1.987zM169.82 128.258c2.48 13.234-.135 26.91-7.834 41.03 6.36 9.08 10.02 16.155 10.97 21.224.526 2.816-.437 5.838-2.894 9.066-1.97 2.703-4.05 4.256-6.23 4.664-2.534.475-4.478-.762-5.833-3.717-1.997-4.434-4.81-9.334-8.438-14.703-8.004 7.838-16.477 12.594-25.415 14.268-7.744 1.45-14.653.45-20.727-3.002-6.075-3.453-10.53-8.848-13.36-16.188-.994-2.58-1.74-5.21-2.24-7.885-1.662-8.87-.808-18.5 2.564-28.896 4.38-13.57 11.825-24.583 22.338-33.037 6.837-5.506 13.67-8.9 20.497-10.18 7.74-1.45 14.662-.485 20.76 2.89 8.383 4.697 13.665 12.85 15.84 24.465zm-53.19 23.513c-.1-2.456.784-4.552 2.645-6.286 1.605-1.54 3.676-2.547 6.21-3.02 3.448-.647 6.407-.218 8.876 1.287 4.84 2.884 9.536 6.376 14.094 10.476 2.126-6.535 2.628-12.806 1.504-18.808-1.19-6.354-3.473-10.566-6.847-12.64-2.862-1.656-6.05-2.155-9.57-1.497-1.267.238-2.508.618-3.722 1.136-7.963 3.39-14.287 9.594-18.974 18.61-4.688 9.016-6.23 17.792-4.632 26.325.713 3.81 2.16 7.26 4.344 10.356 2.97 4.188 7.61 5.436 13.925 3.742 4.92-1.357 9.58-4.488 13.98-9.395-4.98-5.188-10.603-9.926-16.87-14.217-3.186-1.44-4.84-3.463-4.96-6.065zM195.327 78.795c5.53-1.035 12.804 1.84 12.272 9.505-.632 9.096-.422 14.942-.423 17.485.043 6.59-.135 17.927.493 22.975 3.328-11.512 10.146-30.385 18.682-46 2.528-4.624 3.67-7.56 8.59-8.88 2.953-.793 5.23-.403 6.836 1.163 1.605 1.567 2.36 4.145 2.902 6.907l9.156 39.143c1.68-5.877 2.948-16.532 3.77-24.873l1.67-21.653c.925-4.386 4.076-7.083 9.452-8.09 2.917-.546 5.565-.208 7.94 1.017s3.83 3.258 4.36 6.1c.245 1.305.26 2.653.043 4.044l-6.78 43.357c-2.077 13.106-4.375 24.387-6.897 33.84-4.654 17.166-7.89 26.092-14.813 27.215-2.313.375-8.825 1.61-11.042-6.754-1.37-5.17-3.898-25.48-5.123-31.172-1.226-5.69-2.104-9.958-2.636-12.8-.634-3.378-1.14-6.502-1.518-9.373 0 0-16.203 47.784-19.16 55.573-3.223 8.488-16.264 9.072-20.062-3.992-1.358-4.673-2.503-9.546-3.452-14.614-1.942-10.367-3.184-21.658-3.723-33.877-.23-7.59-.61-18.963-1.145-34.124-.136-2.836.923-5.458 3.176-7.867 2.037-2.29 4.512-3.708 7.43-4.255zM303.527 99.823c9.02-24.938 16.553-41.72 22.603-50.345 3.124-4.46 6.31-6.994 9.555-7.602 7.736-1.45 14.748 7.485 21.035 26.8 2.03 6.252 4.96 18.446 8.79 36.586 4.705.756 7.432 3.13 8.18 7.122.686 3.66-.513 7.157-3.59 10.488.4 1.217 1.403 3.354 3.01 6.41 1.216 2.356 2.02 4.832 2.424 7.426 1.448 10.493-1.643 17.905-9.683 17.958-4.59.03-6.59-1.906-8.88-6.73-1.2-2.53-4.73-12.375-5.58-16.004-18.442 5.436-32.43 10.294-41.96 14.575-1.597 2.97-10.296 22.727-17.832 22.715-2.285-.004-7.37.012-8.937-6.334-.566-2.3.06-5.436 1.484-9.32 3.56-9.967 10.02-27.88 19.383-53.745zm42.08 12.266c-.59-2.215-2.375-9.457-5.362-21.73-1.79-7.24-3.434-12.572-4.934-15.995-6.26 11.162-12.35 27.156-18.265 47.98 7.118-2.45 16.64-5.87 28.56-10.256zM406.274 19.523c3.516-1.028 6.488-1.007 8.915.07 2.427 1.074 3.92 3.367 4.487 6.878-5.162 28.88-7.147 46.5-5.956 52.86.17.896.655 1.27 1.46 1.117 3.942-.738 17.26-22.706 39.957-65.904 2.09-2.708 4.388-4.3 6.896-4.77 2.866-.536 5.714.183 8.54 2.156 2.827 1.974 4.51 4.395 5.047 7.26.37 1.973-.004 3.944-1.118 5.913l-16.122 29.03c-8.72 15.822-13.13 24.715-13.224 26.68-.114.394-.11.903.008 1.53.79 4.21 5.255 10.978 13.4 20.3l16.507 18.33c11.067 10.287-.433 33.913-18.353 18.6-14.223-12.153-24.242-21.006-29.566-27.15-1.674-2.003-3.094-2.897-4.257-2.68-1.793.336-6.88.643-5.47 19.803.158 10.263-3.558 15.92-11.15 16.97-7.413 1.02-13.01-1.63-13.653-8.29-4.036-41.842-2.114-77.863 2.667-108.3.852-5.415 3.848-8.417 10.987-10.403z"/></g></svg>