<?xml version="1.0" encoding="UTF-8"?>
<svg width="26px" height="24px" viewBox="0 0 26 24" version="1.1" xmlns="http://www.w3.org/2000/svg" xmlns:xlink="http://www.w3.org/1999/xlink">
    <!-- Generator: Sketch 41.2 (35397) - http://www.bohemiancoding.com/sketch -->
    <title>Star</title>
    <desc>Created with Sketch.</desc>
    <defs></defs>
    <g id="Page-1" stroke="none" stroke-width="1" fill="none" fill-rule="evenodd">
        <g id="new-app---training-complete" transform="translate(-1099.000000, -92.000000)" stroke="#545454" stroke-width="0.7" fill="#FFE664">
            <g id="train-nav" transform="translate(316.000000, 69.000000)">
                <g id="publish" transform="translate(786.000000, 24.000000)">
                    <path d="M10.1593734,19.4125695 C9.91694589,19.283595 9.52434546,19.2833544 9.2814657,19.4125695 L4.63559189,21.8842333 C2.68711489,22.9208477 1.41870142,21.9990673 1.80243277,19.8258227 L2.71747072,14.643548 C2.76521855,14.3731304 2.64412716,13.9996709 2.44618231,13.8086082 L-1.34016355,10.1539057 C-2.928155,8.62112545 -2.443451,7.12994672 -0.257993062,6.82332742 L4.9534053,6.09216928 C5.2253426,6.05401653 5.54310444,5.82344643 5.66364756,5.57614807 L7.96943092,0.845753996 C8.93647524,-1.13817077 10.5044523,-1.13798944 11.4714082,0.845753996 L13.7771916,5.57614807 C13.8975102,5.82298597 14.2149892,6.05394536 14.4874338,6.09216928 L19.6988322,6.82332742 C21.8844899,7.12997475 22.368849,8.62126554 20.7810027,10.1539057 L16.9946568,13.8086082 C16.7970805,13.9993151 16.6755315,14.372626 16.7233684,14.643548 L17.6384063,19.8258227 C18.0221728,21.9992659 16.7535461,22.920753 14.8052472,21.8842333 L10.1593734,19.4125695 Z" id="Star"></path>
                </g>
            </g>
        </g>
    </g>
</svg>